<svg xmlns="http://www.w3.org/2000/svg" width="48" height="48" viewBox="0 0 48 48" fill="none">
  <path d="M46 16V40C46 40.5304 45.7893 41.0391 45.4142 41.4142C45.0391 41.7893 44.5304 42 44 42H4C3.46957 42 2.96086 41.7893 2.58579 41.4142C2.21071 41.0391 2 40.5304 2 40V14H44C44.5304 14 45.0391 14.2107 45.4142 14.5858C45.7893 14.9609 46 15.4696 46 16Z" fill="#2E3D46"/>
  <path d="M19 14H2V8.00001C2 7.46958 2.21071 6.96087 2.58579 6.5858C2.96086 6.21072 3.46957 6.00001 4 6.00001H14.61C15.0186 5.99868 15.4179 6.12257 15.754 6.35499C16.0901 6.58741 16.347 6.91721 16.49 7.30001L19 14Z" fill="#2E3D46"/>
  <path d="M33.0009 14H19.0009L17.1309 9H29.6509C30.0497 9.00161 30.439 9.12244 30.7686 9.34696C31.0983 9.57149 31.3533 9.88945 31.5009 10.26L33.0009 14Z" fill="#2E3D46"/>
  <path d="M31 30H28C27.7348 30 27.4804 29.8946 27.2929 29.7071C27.1054 29.5196 27 29.2652 27 29C27 28.7348 27.1054 28.4804 27.2929 28.2929C27.4804 28.1054 27.7348 28 28 28H31C31.2652 28 31.5196 28.1054 31.7071 28.2929C31.8946 28.4804 32 28.7348 32 29C32 29.2652 31.8946 29.5196 31.7071 29.7071C31.5196 29.8946 31.2652 30 31 30Z" fill="white" fill-opacity="0.5"/>
  <path d="M30.0002 35.0002C29.4602 35.0002 29.4302 34.8502 27.2902 32.7102C27.1019 32.5219 26.9961 32.2665 26.9961 32.0002C26.9961 31.7339 27.1019 31.4785 27.2902 31.2902C27.4785 31.1019 27.7339 30.9961 28.0002 30.9961C28.2665 30.9961 28.5219 31.1019 28.7102 31.2902L30.7102 33.2902C30.8512 33.4301 30.9474 33.6088 30.9865 33.8035C31.0255 33.9983 31.0057 34.2002 30.9296 34.3837C30.8534 34.5671 30.7243 34.7237 30.5588 34.8335C30.3933 34.9433 30.1988 35.0013 30.0002 35.0002Z" fill="white" fill-opacity="0.5"/>
  <path d="M28 26.0002C27.8013 26.0013 27.6069 25.9433 27.4413 25.8335C27.2758 25.7237 27.1468 25.5671 27.0706 25.3837C26.9944 25.2002 26.9746 24.9983 27.0137 24.8035C27.0527 24.6088 27.1489 24.4301 27.29 24.2902L29.29 22.2902C29.4783 22.1019 29.7337 21.9961 30 21.9961C30.2663 21.9961 30.5217 22.1019 30.71 22.2902C30.8983 22.4785 31.004 22.7339 31.004 23.0002C31.004 23.2665 30.8983 23.5219 30.71 23.7102C28.53 25.8902 28.54 26.0002 28 26.0002Z" fill="white" fill-opacity="0.5"/>
  <path d="M20 30H17C16.7348 30 16.4804 29.8946 16.2929 29.7071C16.1054 29.5196 16 29.2652 16 29C16 28.7348 16.1054 28.4804 16.2929 28.2929C16.4804 28.1054 16.7348 28 17 28H20C20.2652 28 20.5196 28.1054 20.7071 28.2929C20.8946 28.4804 21 28.7348 21 29C21 29.2652 20.8946 29.5196 20.7071 29.7071C20.5196 29.8946 20.2652 30 20 30Z" fill="white" fill-opacity="0.5"/>
  <path d="M18 35.0002C17.8013 35.0013 17.6069 34.9433 17.4413 34.8335C17.2758 34.7237 17.1468 34.5671 17.0706 34.3837C16.9944 34.2002 16.9746 33.9983 17.0137 33.8035C17.0527 33.6088 17.1489 33.4301 17.29 33.2902L19.29 31.2902C19.4783 31.1019 19.7337 30.9961 20 30.9961C20.2663 30.9961 20.5217 31.1019 20.71 31.2902C20.8983 31.4785 21.004 31.7339 21.004 32.0002C21.004 32.2665 20.8983 32.5219 20.71 32.7102C18.53 34.8902 18.54 35.0002 18 35.0002Z" fill="white" fill-opacity="0.5"/>
  <path d="M20.0002 26.0002C19.4602 26.0002 19.4302 25.8502 17.2902 23.7102C17.1019 23.5219 16.9961 23.2665 16.9961 23.0002C16.9961 22.7339 17.1019 22.4785 17.2902 22.2902C17.4785 22.1019 17.7339 21.9961 18.0002 21.9961C18.2665 21.9961 18.5219 22.1019 18.7102 22.2902L20.7102 24.2902C20.8512 24.4301 20.9474 24.6088 20.9865 24.8035C21.0255 24.9983 21.0057 25.2002 20.9296 25.3837C20.8534 25.5671 20.7243 25.7237 20.5588 25.8335C20.3933 25.9433 20.1988 26.0013 20.0002 26.0002Z" fill="white" fill-opacity="0.5"/>
  <path d="M27 24.0001C26.9995 23.3929 26.8146 22.8001 26.47 22.3001L26.89 21.4501C26.9609 21.3323 27.0067 21.2011 27.0246 21.0648C27.0426 20.9285 27.0321 20.7899 26.9941 20.6577C26.956 20.5256 26.8911 20.4027 26.8034 20.2968C26.7157 20.1909 26.6071 20.1042 26.4844 20.0422C26.3617 19.9801 26.2275 19.944 26.0902 19.9362C25.9529 19.9284 25.8155 19.9489 25.6865 19.9966C25.5575 20.0443 25.4397 20.118 25.3405 20.2133C25.2413 20.3085 25.1629 20.4232 25.11 20.5501L24.82 21.1301C24.2866 20.9601 23.7134 20.9601 23.18 21.1301L22.89 20.5501C22.7598 20.3338 22.5526 20.1747 22.31 20.1048C22.0674 20.0349 21.8073 20.0594 21.5819 20.1733C21.3566 20.2872 21.1827 20.4822 21.0952 20.719C21.0076 20.9559 21.0129 21.2171 21.11 21.4501L21.53 22.3001C21.1854 22.8001 21.0005 23.3929 21 24.0001C20.4696 24.0001 19.9609 24.2109 19.5858 24.5859C19.2107 24.961 19 25.4697 19 26.0001V31.0001C19 32.3262 19.5268 33.598 20.4645 34.5357C21.4021 35.4734 22.6739 36.0001 24 36.0001C25.3261 36.0001 26.5979 35.4734 27.5355 34.5357C28.4732 33.598 29 32.3262 29 31.0001V26.0001C29 25.4697 28.7893 24.961 28.4142 24.5859C28.0391 24.2109 27.5304 24.0001 27 24.0001Z" fill="#E5BE20"/>
  <path d="M28.9995 27.6197C26.0695 29.0897 25.9095 29.2297 24.9995 29.4197V35.8997C24.3396 36.0344 23.6594 36.0344 22.9995 35.8997V29.4197C22.0895 29.2297 21.9395 29.0897 18.9995 27.6197C18.9211 26.8893 18.9514 26.1512 19.0895 25.4297L22.6595 27.2097C23.0756 27.4174 23.5344 27.5256 23.9995 27.5256C24.4646 27.5256 24.9234 27.4174 25.3395 27.2097L28.9095 25.4297C29.0509 26.1508 29.0813 26.8894 28.9995 27.6197Z" fill="#F9F9F9"/>
  <path d="M42 35H34C33.4477 35 33 35.4477 33 36V38C33 38.5523 33.4477 39 34 39H42C42.5523 39 43 38.5523 43 38V36C43 35.4477 42.5523 35 42 35Z" fill="#BEC6C6"/>
  <path d="M44 13H33.68L32.43 9.89C32.2083 9.33339 31.8251 8.8559 31.3296 8.51905C30.8341 8.1822 30.2491 8.00142 29.65 8H17.82L17.42 7C17.2143 6.41805 16.834 5.91373 16.3312 5.55581C15.8283 5.19789 15.2272 5.0038 14.61 5H4C3.20435 5 2.44129 5.31607 1.87868 5.87868C1.31607 6.44129 1 7.20435 1 8V40C1 40.7957 1.31607 41.5587 1.87868 42.1213C2.44129 42.6839 3.20435 43 4 43H44C44.7957 43 45.5587 42.6839 46.1213 42.1213C46.6839 41.5587 47 40.7957 47 40V16C47 15.2044 46.6839 14.4413 46.1213 13.8787C45.5587 13.3161 44.7957 13 44 13ZM29.65 10C29.8486 10.0018 30.0421 10.0627 30.206 10.1749C30.3698 10.2871 30.4965 10.4455 30.57 10.63L31.52 13H19.69L18.57 10H29.65ZM3 8C3 7.73478 3.10536 7.48043 3.29289 7.29289C3.48043 7.10536 3.73478 7 4 7H14.61C14.8143 6.99934 15.0139 7.06128 15.182 7.17749C15.3501 7.2937 15.4785 7.4586 15.55 7.65L17.55 13H3V8ZM45 40C45 40.2652 44.8946 40.5196 44.7071 40.7071C44.5196 40.8946 44.2652 41 44 41H4C3.73478 41 3.48043 40.8946 3.29289 40.7071C3.10536 40.5196 3 40.2652 3 40V15H44C44.2652 15 44.5196 15.1054 44.7071 15.2929C44.8946 15.4804 45 15.7348 45 16V40Z" fill="#BEC6C6"/>
</svg>