<svg xmlns="http://www.w3.org/2000/svg" width="56" height="56" viewBox="0 0 56 56" fill="none">
  <path d="M26.832 51.332C40.363 51.332 51.332 40.363 51.332 26.832C51.332 13.3011 40.363 2.33203 26.832 2.33203C13.3011 2.33203 2.33203 13.3011 2.33203 26.832C2.33203 40.363 13.3011 51.332 26.832 51.332Z" fill="#F8F9F9"/>
  <path d="M51.3327 25.666H40.8327C40.7772 21.8398 40.2122 18.038 39.1527 14.361C41.2294 13.2324 43.1379 11.8187 44.8227 10.161C45.0424 9.9413 45.1658 9.64334 45.1658 9.33266C45.1658 9.02197 45.0424 8.72401 44.8227 8.50433C44.603 8.28464 44.305 8.16122 43.9943 8.16122C43.6837 8.16122 43.3857 8.28464 43.166 8.50433C41.7312 9.90611 40.1192 11.1141 38.371 12.0977C32.8643 -2.49734 20.8127 -2.47401 15.3177 12.0977C13.5613 11.1159 11.9413 9.90776 10.4993 8.50433C10.2748 8.31467 9.98699 8.21674 9.69339 8.23012C9.39979 8.24349 9.12205 8.3672 8.91571 8.57649C8.70936 8.78578 8.58962 9.06524 8.5804 9.359C8.57119 9.65277 8.67319 9.93918 8.86602 10.161C10.5508 11.8187 12.4593 13.2324 14.536 14.361C13.4686 18.0369 12.8958 21.8387 12.8327 25.666H2.33268C2.02326 25.666 1.72652 25.7889 1.50772 26.0077C1.28893 26.2265 1.16602 26.5232 1.16602 26.8327C1.16602 27.1421 1.28893 27.4388 1.50772 27.6576C1.72652 27.8764 2.02326 27.9993 2.33268 27.9993H12.8327C12.8882 31.8255 13.4531 35.6273 14.5127 39.3043C12.436 40.4329 10.5275 41.8466 8.84268 43.5043C8.62299 43.724 8.49958 44.022 8.49958 44.3327C8.49958 44.6433 8.62299 44.9413 8.84268 45.161C9.06237 45.3807 9.36033 45.5041 9.67102 45.5041C9.9817 45.5041 10.2797 45.3807 10.4993 45.161C11.9341 43.7592 13.5461 42.5512 15.2943 41.5677C20.801 56.1627 32.8527 56.1393 38.3477 41.5677C42.781 44.0877 42.8627 45.4993 43.971 45.4993C44.2017 45.4984 44.427 45.429 44.6183 45.3C44.8096 45.171 44.9584 44.9882 45.0458 44.7747C45.1332 44.5611 45.1554 44.3265 45.1094 44.1003C45.0635 43.8742 44.9515 43.6668 44.7877 43.5043C43.1029 41.8466 41.1944 40.4329 39.1177 39.3043C40.1891 35.6289 40.7658 31.8271 40.8327 27.9993H51.3327C51.6421 27.9993 51.9388 27.8764 52.1576 27.6576C52.3764 27.4388 52.4993 27.1421 52.4993 26.8327C52.4993 26.5232 52.3764 26.2265 52.1576 26.0077C51.9388 25.7889 51.6421 25.666 51.3327 25.666ZM38.4993 25.666H27.9993V17.4993C31.0806 17.3713 34.1128 16.6834 36.9477 15.4693C37.8908 18.7896 38.4121 22.2155 38.4993 25.666ZM36.166 13.1827C33.5874 14.3358 30.8197 15.008 27.9993 15.166V3.61599C31.3243 4.31599 34.2877 7.96766 36.166 13.1827ZM25.666 3.61599V15.166C22.8494 15.0264 20.0818 14.3741 17.4993 13.241C19.3777 7.96766 22.341 4.31599 25.666 3.61599ZM16.7177 15.411C19.5488 16.6451 22.5811 17.3528 25.666 17.4993V25.666H15.166C15.2484 22.1959 15.7698 18.7501 16.7177 15.411ZM15.166 27.9993H25.666V36.2243C22.5848 36.3524 19.5526 37.0403 16.7177 38.2543C15.7698 34.9152 15.2484 31.4694 15.166 27.9993ZM17.4993 40.4827C20.0818 39.3496 22.8494 38.6972 25.666 38.5577V50.0493C22.341 49.3493 19.3777 45.6977 17.4993 40.4827ZM27.9993 50.0493V38.5577C30.816 38.6972 33.5835 39.3496 36.166 40.4827C34.2877 45.6977 31.3243 49.3493 27.9993 50.0493ZM36.9477 38.2543C34.1128 37.0403 31.0806 36.3524 27.9993 36.2243V27.9993H38.4993C38.417 31.4694 37.8956 34.9152 36.9477 38.2543Z" fill="#2A3E4E"/>
  <path d="M26.8327 52.4994C21.7563 52.4994 16.7939 50.994 12.5731 48.1737C8.3522 45.3535 5.06243 41.3449 3.11979 36.6549C1.17714 31.9649 0.668851 26.8042 1.6592 21.8254C2.64956 16.8465 5.09407 12.2732 8.68362 8.68362C12.2732 5.09407 16.8465 2.64956 21.8254 1.6592C26.8042 0.668851 31.9649 1.17714 36.6549 3.11979C41.3449 5.06243 45.3535 8.3522 48.1737 12.5731C50.994 16.7939 52.4994 21.7563 52.4994 26.8327C52.4994 33.6399 49.7952 40.1683 44.9818 44.9818C40.1683 49.7952 33.6399 52.4994 26.8327 52.4994ZM26.8327 3.49936C22.2178 3.49936 17.7065 4.86784 13.8694 7.43174C10.0322 9.99564 7.04155 13.6398 5.2755 17.9034C3.50946 22.167 3.04738 26.8586 3.9477 31.3848C4.84803 35.911 7.07031 40.0686 10.3335 43.3319C13.5968 46.5951 17.7544 48.8174 22.2806 49.7177C26.8068 50.618 31.4984 50.1559 35.762 48.3899C40.0256 46.6238 43.6698 43.6331 46.2337 39.796C48.7976 35.9589 50.166 31.4476 50.166 26.8327C50.166 20.6443 47.7077 14.7094 43.3319 10.3335C38.956 5.95769 33.0211 3.49936 26.8327 3.49936Z" fill="#2A3E4E"/>
  <path d="M44.332 54.832C41.2746 53.8115 38.6156 51.8552 36.7312 49.2401C34.8469 46.6251 33.8326 43.4836 33.832 40.2604V30.332C35.6276 30.6909 37.4841 30.6007 39.2365 30.0695C40.9889 29.5383 42.5829 28.5825 43.877 27.287L44.332 26.832L44.787 27.287C46.08 28.5842 47.6739 29.5412 49.4267 30.0725C51.1794 30.6038 53.0364 30.693 54.832 30.332V40.2604C54.8314 43.4836 53.8172 46.6251 51.9328 49.2401C50.0485 51.8552 47.3895 53.8115 44.332 54.832Z" fill="#E5BE20"/>
</svg>