<svg xmlns="http://www.w3.org/2000/svg" width="129" height="42" viewBox="0 0 129 42" fill="none">
  <g clip-path="url(#clip0_1048_2155)">
    <mask id="mask0_1048_2155" style="mask-type:luminance" maskUnits="userSpaceOnUse" x="0" y="2" width="129" height="37">
      <path d="M128.5 2.5H0.5V38.5H128.5V2.5Z" fill="white"/>
    </mask>
    <g mask="url(#mask0_1048_2155)">
      <path fill-rule="evenodd" clip-rule="evenodd" d="M94.843 29.8894C90.4753 29.8894 87.7617 27.3683 87.7617 23.3078C87.7617 19.0882 90.2656 16.4665 94.297 16.4665L94.6377 16.4645C95.1418 16.4645 95.8384 16.4804 96.7895 16.6007V11.5098H99.6417V29.4316C99.6417 29.4316 96.933 29.8894 94.843 29.8894ZM94.8183 18.7019C92.0582 18.7019 90.7162 20.1857 90.7162 23.2375C90.7162 25.9759 92.334 27.6767 94.9371 27.6767C95.4368 27.6767 96.0095 27.6458 96.7895 27.5774V18.8831C96.0088 18.7597 95.3821 18.7019 94.8183 18.7019Z" fill="white"/>
      <path fill-rule="evenodd" clip-rule="evenodd" d="M55.8185 29.4813L48.1213 16.0981L48.1193 29.4813H45.4375V12.541H49.1912L56.8884 25.8045L56.8852 12.541H59.6014V29.4813H55.8185Z" fill="white"/>
      <path fill-rule="evenodd" clip-rule="evenodd" d="M80.3326 29.7407C79.0371 29.7407 77.685 29.5963 76.0755 29.2879L75.9045 29.2543V26.8878L76.1594 26.9435C77.5764 27.2437 78.8013 27.5033 80.0249 27.5033C81.0159 27.5033 83.3209 27.3462 83.3209 25.896C83.3209 24.6782 81.7279 24.3737 80.4477 24.1298L80.3676 24.114C80.1298 24.0672 79.9047 24.0228 79.7121 23.9747C77.8357 23.4889 75.834 22.7606 75.834 20.2548C75.834 17.8116 77.776 16.4102 81.1614 16.4102C82.7856 16.4102 83.9654 16.585 84.9126 16.7256L85.376 16.7946V19.0883L85.1287 19.0459C84.0563 18.8489 82.7996 18.6469 81.5887 18.6469C80.2467 18.6469 78.6481 18.8971 78.6481 20.0896C78.6481 21.0774 79.9544 21.3605 81.4672 21.688C83.5809 22.1464 86.2043 22.717 86.2043 25.5901C86.2043 28.2277 84.0639 29.7407 80.3326 29.7407Z" fill="white"/>
      <path fill-rule="evenodd" clip-rule="evenodd" d="M107.641 29.7407C104.689 29.7407 101.958 29.224 101.958 25.4724C101.958 21.3902 106.182 21.3902 108.706 21.3902C108.959 21.3902 110.145 21.4441 110.51 21.4606C110.507 19.1706 110.476 18.6241 107.142 18.6241C105.821 18.6241 104.353 18.8857 103.057 19.1161L102.81 19.1605V16.8984L102.979 16.8642C104.48 16.559 105.927 16.4102 107.403 16.4102C110.634 16.4102 113.372 16.7351 113.372 20.7272V29.4361L113.175 29.4563C110.937 29.7065 109.159 29.7407 107.641 29.7407ZM108.634 23.4091C106.201 23.4091 104.693 23.7658 104.693 25.542C104.693 27.597 106.618 27.7686 108.422 27.7686C109.098 27.7686 110.31 27.6832 110.681 27.6553V23.4788C110.157 23.4592 108.799 23.4091 108.634 23.4091Z" fill="white"/>
      <path fill-rule="evenodd" clip-rule="evenodd" d="M67.6614 29.7407C64.7093 29.7407 61.9785 29.224 61.9785 25.4724C61.9785 21.3902 66.2025 21.3902 68.7268 21.3902C68.9784 21.3902 70.1652 21.4441 70.5307 21.4606C70.5276 19.1706 70.4964 18.6241 67.163 18.6241C65.8415 18.6241 64.3737 18.8857 63.0775 19.1161L62.8303 19.1605V16.8984L62.9994 16.8642C64.5008 16.559 65.9476 16.4102 67.4236 16.4102C70.6547 16.4102 73.3925 16.7351 73.3925 20.7272V29.4361L73.1954 29.4563C70.958 29.7065 69.18 29.7407 67.6614 29.7407ZM68.6549 23.4091C66.2216 23.4091 64.7137 23.7658 64.7137 25.542C64.7137 27.597 66.6386 27.7686 68.4426 27.7686C69.1183 27.7686 70.3305 27.6832 70.7011 27.6553V23.4788C70.178 23.4592 68.8195 23.4091 68.6549 23.4091Z" fill="white"/>
      <path fill-rule="evenodd" clip-rule="evenodd" d="M124.718 35.2369V29.6811C123.604 29.8369 123.013 29.8369 122.536 29.8369C121.408 29.8369 120.155 29.5925 119.183 29.1821C117.012 28.2841 115.716 25.998 115.716 23.0659C115.716 21.5999 116.074 18.9243 118.47 17.4823C119.669 16.7667 121.09 16.4609 123.223 16.4609C123.988 16.4609 125.019 16.5198 126.016 16.5774L127.634 16.6603V33.9507L124.718 35.2369ZM123.009 18.6969C120.116 18.6969 118.648 20.1668 118.648 23.0659C118.648 26.7947 120.839 27.5774 122.678 27.5774C123.125 27.5774 123.63 27.5774 124.744 27.4374V18.7773C123.871 18.7184 123.47 18.6969 123.009 18.6969Z" fill="white"/>
      <path fill-rule="evenodd" clip-rule="evenodd" d="M32.7084 2.5L23.2834 28.2953C23.052 28.9318 22.4678 29.3966 21.7673 29.4669V29.4821H31.7295C32.5107 29.4821 33.1782 28.9875 33.4286 28.2953L42.8537 2.5H32.7084ZM20.9569 29.088C21.5322 29.088 22.0395 28.8044 22.3497 28.3712C22.3822 28.3262 22.4953 28.1679 22.5741 27.9519L26.0315 18.487L24.0095 12.9597C23.7513 12.3461 23.1418 11.9148 22.4317 11.9148C21.857 11.9148 21.3491 12.1979 21.0389 12.6317C21.0066 12.676 20.8718 12.878 20.8146 13.0509L17.3584 22.512L19.3888 28.0614C19.6519 28.665 20.2539 29.088 20.9569 29.088ZM11.6242 11.5192H21.6951V11.5249C20.9469 11.5559 20.3131 12.0353 20.0702 12.7053L10.6459 38.5H0.5L9.9244 12.7053C10.1761 12.0132 10.8423 11.5192 11.6242 11.5192Z" fill="white"/>
    </g>
  </g>
  <defs>
    <clipPath id="clip0_1048_2155">
      <rect width="128" height="42" fill="white" transform="translate(0.5)"/>
    </clipPath>
  </defs>
</svg>