<svg xmlns="http://www.w3.org/2000/svg" width="22" height="22" viewBox="0 0 22 22" fill="none">
    <path d="M18.6699 10.4801L10.5531 3.43535C10.4908 3.38164 10.4113 3.35156 10.3275 3.35156H8.42617C8.26719 3.35156 8.19414 3.54922 8.31445 3.65234L15.8383 10.1836H3.26562C3.17109 10.1836 3.09375 10.2609 3.09375 10.3555V11.6445C3.09375 11.7391 3.17109 11.8164 3.26562 11.8164H15.8361L8.3123 18.3477C8.19199 18.4529 8.26504 18.6484 8.42402 18.6484H10.3898C10.4307 18.6484 10.4715 18.6334 10.5016 18.6055L18.6699 11.5199C18.7443 11.4552 18.8039 11.3754 18.8448 11.2857C18.8857 11.196 18.9068 11.0986 18.9068 11C18.9068 10.9014 18.8857 10.804 18.8448 10.7143C18.8039 10.6246 18.7443 10.5448 18.6699 10.4801Z" fill="#F8F8F8" />
</svg>
