<svg xmlns="http://www.w3.org/2000/svg" width="57" height="56" viewBox="0 0 57 56" fill="none">
  <path d="M2.66553 44.334H53.9989V47.834C53.9989 48.7622 53.6301 49.6525 52.9737 50.3089C52.3174 50.9652 51.4271 51.334 50.4989 51.334H6.16553C5.23727 51.334 4.34703 50.9652 3.69065 50.3089C3.03428 49.6525 2.66553 48.7622 2.66553 47.834V44.334Z" fill="#BEC6C6" fill-opacity="0.7"/>
  <path d="M8.49886 14H48.1655C48.7844 14 49.3779 14.2458 49.8154 14.6834C50.253 15.121 50.4989 15.7145 50.4989 16.3333V44.3333H6.16553V16.3333C6.16553 15.7145 6.41136 15.121 6.84894 14.6834C7.28653 14.2458 7.88002 14 8.49886 14Z" fill="#BEC6C6"/>
  <path d="M46.9995 40.8333V17.5L9.66618 17.5V40.8333H46.9995Z" fill="#2E3D46"/>
  <path d="M53.9995 43.1673H51.6662V16.334C51.6662 15.4057 51.2974 14.5155 50.641 13.8591C49.9847 13.2027 49.0944 12.834 48.1662 12.834H8.49951C7.57125 12.834 6.68102 13.2027 6.02464 13.8591C5.36826 14.5155 4.99951 15.4057 4.99951 16.334V43.1673H2.66618C2.35676 43.1673 2.06001 43.2902 1.84122 43.509C1.62243 43.7278 1.49951 44.0246 1.49951 44.334V47.834C1.49951 49.0717 1.99118 50.2586 2.86635 51.1338C3.74152 52.009 4.9285 52.5007 6.16618 52.5007H50.4995C51.7372 52.5007 52.9242 52.009 53.7993 51.1338C54.6745 50.2586 55.1662 49.0717 55.1662 47.834V44.334C55.1662 44.0246 55.0433 43.7278 54.8245 43.509C54.6057 43.2902 54.3089 43.1673 53.9995 43.1673ZM7.33284 16.334C7.33284 16.0246 7.45576 15.7278 7.67455 15.509C7.89335 15.2902 8.19009 15.1673 8.49951 15.1673H48.1662C48.4756 15.1673 48.7723 15.2902 48.9911 15.509C49.2099 15.7278 49.3328 16.0246 49.3328 16.334V43.1673H7.33284V16.334ZM52.8328 47.834C52.8328 48.4528 52.587 49.0463 52.1494 49.4839C51.7118 49.9215 51.1183 50.1673 50.4995 50.1673H6.16618C5.54734 50.1673 4.95385 49.9215 4.51626 49.4839C4.07868 49.0463 3.83284 48.4528 3.83284 47.834V45.5007H20.4928C20.6964 45.8533 20.9888 46.1465 21.3408 46.3512C21.6928 46.5559 22.0923 46.6649 22.4995 46.6673H34.1662C34.5734 46.6649 34.9728 46.5559 35.3249 46.3512C35.6769 46.1465 35.9692 45.8533 36.1728 45.5007H52.8328V47.834Z" fill="#2A3E4E"/>
  <path d="M38.8335 13.9999C38.8346 12.0231 38.2776 10.0861 37.2266 8.41176C36.1756 6.73744 34.6733 5.39384 32.8925 4.53551C31.1117 3.67718 29.1247 3.33901 27.1603 3.5599C25.1958 3.78078 23.3336 4.55175 21.7879 5.78411C20.2421 7.01647 19.0757 8.66015 18.4228 10.5261C17.7698 12.392 17.6569 14.4043 18.097 16.3316C18.537 18.2588 19.5122 20.0227 20.9104 21.4202C22.3085 22.8178 24.0727 23.7923 26.0002 24.2316V26.8333H24.8335L24.1335 33.8333C24.0714 34.422 24.1337 35.0172 24.3164 35.5803C24.4992 36.1434 24.7983 36.6618 25.1943 37.1019C25.5904 37.5419 26.0745 37.8938 26.6153 38.1346C27.1561 38.3755 27.7415 38.4999 28.3335 38.4999C28.9255 38.4999 29.5109 38.3755 30.0517 38.1346C30.5925 37.8938 31.0766 37.5419 31.4727 37.1019C31.8687 36.6618 32.1678 36.1434 32.3506 35.5803C32.5333 35.0172 32.5956 34.422 32.5335 33.8333L31.8335 26.8333H30.6668V24.2316C32.9856 23.7031 35.0563 22.4031 36.5399 20.5443C38.0235 18.6856 38.8322 16.3782 38.8335 13.9999Z" fill="#E5BE20"/>
  <path d="M28.3322 34.9993C28.9765 34.9993 29.4989 34.477 29.4989 33.8327C29.4989 33.1883 28.9765 32.666 28.3322 32.666C27.6879 32.666 27.1655 33.1883 27.1655 33.8327C27.1655 34.477 27.6879 34.9993 28.3322 34.9993Z" fill="#2E3D46"/>
  <path d="M28.3322 22.1673C32.8425 22.1673 36.4989 18.511 36.4989 14.0007C36.4989 9.49033 32.8425 5.83398 28.3322 5.83398C23.8219 5.83398 20.1655 9.49033 20.1655 14.0007C20.1655 18.511 23.8219 22.1673 28.3322 22.1673Z" fill="#2E3D46"/>
  <path d="M28.3335 8.16602C24.8336 8.16602 23.7602 12.8327 26.0002 12.8327C26.3096 12.8327 26.6064 12.7098 26.8252 12.491C27.044 12.2722 27.1669 11.9754 27.1669 11.666C27.1669 11.4353 27.2353 11.2097 27.3635 11.0179C27.4917 10.826 27.6739 10.6765 27.8871 10.5882C28.1003 10.4999 28.3348 10.4768 28.5612 10.5218C28.7875 10.5668 28.9953 10.6779 29.1585 10.8411C29.3217 11.0042 29.4328 11.2121 29.4778 11.4384C29.5228 11.6647 29.4997 11.8993 29.4114 12.1125C29.3231 12.3257 29.1736 12.5079 28.9817 12.6361C28.7899 12.7643 28.5643 12.8327 28.3335 12.8327C28.0241 12.8327 27.7274 12.9556 27.5086 13.1744C27.2898 13.3932 27.1669 13.6899 27.1669 13.9994V15.166C27.1669 15.4754 27.2898 15.7722 27.5086 15.991C27.7274 16.2098 28.0241 16.3327 28.3335 16.3327C28.643 16.3327 28.9397 16.2098 29.1585 15.991C29.3773 15.7722 29.5002 15.4754 29.5002 15.166V14.9677C30.2799 14.6934 30.9374 14.152 31.3562 13.4394C31.775 12.7268 31.9281 11.889 31.7884 11.0743C31.6487 10.2597 31.2251 9.52073 30.5928 8.98843C29.9604 8.45612 29.1601 8.16479 28.3335 8.16602Z" fill="#BEC6C6"/>
  <path d="M28.3322 19.8333C28.9765 19.8333 29.4989 19.311 29.4989 18.6667C29.4989 18.0223 28.9765 17.5 28.3322 17.5C27.6879 17.5 27.1655 18.0223 27.1655 18.6667C27.1655 19.311 27.6879 19.8333 28.3322 19.8333Z" fill="#BEC6C6"/>
</svg>