<svg xmlns="http://www.w3.org/2000/svg" width="25" height="35" viewBox="0 0 25 35" fill="none">
  <path d="M18.832 12.4228C22.11 13.1228 23.6386 14.2218 23.6386 14.2218C23.6386 14.2218 24.7668 22.2946 19.9237 28.7599C17.3034 31.9794 14.3323 33.6352 13.4044 34.0517C12.8914 33.9567 9.42931 32.1548 6.88645 28.7599C2.04333 22.2946 3.173 14.2218 3.173 14.2218C3.173 14.2218 4.7031 13.1228 7.97959 12.4228C11.7398 11.6205 15.0718 11.6205 18.832 12.4228Z" fill="url(#paint0_radial_137_1427)"/>
  <path d="M9.21043 31.2557C9.21043 31.2557 5.71766 28.406 5.85357 25.8295C5.85357 25.8295 6.06986 21.3912 8.7837 18.1396C8.7837 18.1396 6.60619 17.0756 6.19846 14.8733C6.19846 14.8733 9.29666 14.8733 10.8443 17.631C10.8443 17.631 11.0509 17.0187 10.1472 16.1944C10.1472 16.1944 10.2349 16.0205 10.2203 15.8744C10.2203 15.8744 10.2349 15.7589 10.3226 15.7005C10.3226 15.7005 10.5549 15.8451 10.6426 16.0337C10.7303 16.2222 10.8896 16.4692 12.3846 16.4692C13.8796 16.4692 15.8979 16.9923 15.854 18.008C15.854 18.008 15.7386 18.4728 16.7396 18.9521C17.7407 19.4314 20.209 20.4033 20.209 20.4033C20.209 20.4033 20.8316 20.7949 20.5291 21.4336C20.2441 22.0328 19.7618 22.6466 19.7618 22.6466C19.7618 22.6466 19.2372 23.3203 17.7568 22.9856C16.2764 22.6509 12.3642 21.2217 8.27659 25.5255C8.27659 25.5255 5.81119 27.6607 9.21043 31.2528V31.2557Z" fill="url(#paint1_radial_137_1427)"/>
  <path d="M20.2277 28.342C18.9636 30.4377 14.7328 33.9378 13.4512 34.0664C10.7578 28.1082 13.9787 25.2336 13.9787 25.2336C13.9787 25.2336 13.9334 25.1269 13.8852 24.953C14.0299 25.425 14.2944 25.862 14.6057 26.1601C15.3437 26.9814 17.0097 27.7735 20.2263 28.342H20.2277Z" fill="url(#paint2_linear_137_1427)"/>
  <path d="M13.8075 24.7015C13.8557 24.8754 13.9945 25.2496 13.9945 25.2496C13.9945 25.2496 10.7575 28.1081 13.4509 34.0663C13.4567 34.0823 13.464 34.0969 13.4713 34.1116C13.4713 34.1116 11.3041 33.2902 9.0754 31.1464C7.99834 29.9991 7.29686 28.8622 7.31878 27.5951C7.34509 26.1849 8.38707 25.1268 9.72573 24.2763C9.81195 24.2207 9.89818 24.1681 9.98294 24.117C10.3322 23.9065 10.6727 23.7297 10.9986 23.5792C13.0957 22.6073 14.6258 22.7476 14.6258 22.7476C13.4319 23.3877 13.8045 24.6928 13.806 24.6986L13.8075 24.7015Z" fill="url(#paint3_linear_137_1427)"/>
  <path d="M10.8933 18.0507C10.8992 17.9353 10.8743 17.6825 10.6405 17.301C10.5236 17.1096 10.3555 16.8875 10.1144 16.6332C10.205 16.5177 10.2971 16.4125 10.3979 16.3394C10.4169 16.3628 10.4359 16.3847 10.4535 16.4066C10.6668 16.6639 10.7837 16.9503 10.8451 17.2148C10.9299 17.5845 10.9094 17.9104 10.8933 18.0507Z" fill="url(#paint4_linear_137_1427)"/>
  <path d="M12.1051 18.4717C12.1051 18.4717 12.5464 18.2247 13.0068 18.3373C13.5475 18.4702 14.1525 18.9408 14.1364 18.9379C14.1364 18.9379 13.9494 18.859 13.5431 18.8122C13.3648 18.7918 13.0331 18.8122 12.8606 18.745C12.6326 18.6529 12.7408 18.4936 12.3506 18.4395C12.203 18.4191 12.1036 18.4732 12.1036 18.4732L12.1051 18.4717Z" fill="white"/>
  <path d="M20.0394 22.268C19.674 22.7357 19.5556 23.2472 18.3997 23.1624C16.2411 23.0031 16.5407 22.5808 14.1791 22.7839C12.972 22.8877 11.5208 23.1537 9.72763 24.2789C9.93954 23.9326 10.8558 23.0762 11.5763 22.6919C12.9939 21.9348 13.9935 21.9421 14.4933 21.9421C14.8148 21.9421 15.5002 21.9641 16.8491 22.3353C17.3445 22.4712 18.2944 22.8906 19.0076 22.7576C19.6126 22.6451 20.0116 22.2856 20.0394 22.268Z" fill="white"/>
  <path d="M20.5667 14.5301C21.4611 14.9203 22.3993 14.7084 23.1578 14.0625C22.1991 15.5838 20.479 15.6496 19.5057 14.8955C19.4297 14.837 17.7564 16.7603 14.1643 16.8728C9.70402 17.0145 5.82105 13.3479 5.60476 13.1608C4.20618 13.7439 2.0696 13.5525 1.22782 11.4699C2.01699 12.433 3.37902 12.9153 4.56569 12.6332C5.18971 12.4096 5.09326 11.7403 4.41809 10.9979C4.03374 10.5756 3.4594 10.3008 2.56502 9.50872C1.38858 8.51642 0.270599 6.71596 0.270599 5.20925C0.919467 6.56544 1.75247 8.097 3.14666 8.75317C2.06083 6.14455 1.74224 2.16366 3.12766 0.0139236C3.12766 0.0139236 2.96106 1.27366 2.88653 1.85238C2.70239 3.30503 3.03413 5.15371 3.03413 5.15371C3.03413 5.15371 3.76191 4.68168 4.19742 4.19795C5.16341 3.12381 5.63106 2.09936 5.63106 2.09936C5.50246 3.41609 4.75275 4.92865 3.32495 5.89757C3.32495 5.90196 3.51786 7.47297 4.20765 8.86716C4.44293 7.17485 5.22917 6.36376 6.52837 5.79673C5.51707 7.00971 4.46485 9.5058 5.45131 10.7758C6.44507 12.056 7.17285 12.5543 8.2733 13.4838C8.18853 12.4199 8.38144 11.163 9.05077 10.3227C8.81256 11.5839 8.84471 13.0906 9.44827 14.2291C9.70402 14.704 11.5059 15.5151 13.1062 15.7665C14.2461 15.9448 16.1956 15.8162 16.5887 15.3208C17.2259 14.5082 17.2055 13.3581 17.1967 12.3307C17.6044 13.0877 17.7593 14.4161 17.4159 15.2068C18.4754 14.5477 19.4341 13.8725 20.3431 12.471C20.7333 11.2434 20.4133 9.93838 19.7878 8.8394C20.7304 9.46926 21.2068 10.6998 21.0037 11.8119C21.8045 10.8576 22.2956 9.37427 22.2956 9.37281C21.3076 8.40828 20.9321 7.11054 21.0183 6.05394C21.0183 6.05394 21.2419 6.92787 21.8498 7.90994C22.1231 8.35275 22.6302 8.8277 22.6302 8.8277C22.6302 8.8277 23.1549 7.4189 23.2148 6.24831C23.2382 5.78066 23.2864 4.76498 23.2864 4.76498C24.0741 6.62828 23.2513 9.76885 22.031 11.6468C23.2235 11.3282 24.096 10.2394 24.799 9.26321C24.5856 10.4499 23.4486 11.7096 22.3803 12.3249C21.5634 12.8217 21.2769 12.981 20.9131 13.2602C20.2759 13.7497 20.1049 14.2627 20.5638 14.5272L20.5667 14.5301Z" fill="url(#paint5_radial_137_1427)"/>
  <path d="M10.8935 18.0508C10.8993 17.9354 10.8745 17.6825 10.6407 17.3011C10.5237 17.1097 10.3557 16.8875 10.1145 16.6333C10.0006 16.5134 9.86903 16.3877 9.71997 16.2533C9.41745 15.9815 8.70721 15.5153 7.99696 15.2668C7.14203 14.9672 6.49463 14.8883 6.28272 14.8693C6.2345 14.8649 6.20819 14.8635 6.20819 14.8635C6.96228 14.7641 7.59507 14.805 8.12703 14.9263C8.12849 14.9263 8.12995 14.9263 8.13141 14.9263C9.36338 15.2084 10.0459 15.923 10.3981 16.338C10.4171 16.3614 10.4361 16.3834 10.4536 16.4053C10.667 16.6625 10.7839 16.9489 10.8453 17.2134C10.93 17.5832 10.9096 17.9091 10.8935 18.0494V18.0508Z" fill="url(#paint6_linear_137_1427)"/>
  <mask id="mask0_137_1427" style="mask-type:alpha" maskUnits="userSpaceOnUse" x="0" y="0" width="25" height="35">
    <path d="M18.832 12.4228C22.11 13.1228 23.6386 14.2218 23.6386 14.2218C23.6386 14.2218 24.7668 22.2946 19.9237 28.7599C17.3034 31.9794 14.3323 33.6352 13.4044 34.0517C12.8914 33.9567 9.42931 32.1548 6.88645 28.7599C2.04333 22.2946 3.173 14.2218 3.173 14.2218C3.173 14.2218 4.7031 13.1228 7.97959 12.4228C11.7398 11.6205 15.0718 11.6205 18.832 12.4228Z" fill="url(#paint7_radial_137_1427)"/>
    <path d="M9.21043 31.2557C9.21043 31.2557 5.71766 28.406 5.85357 25.8295C5.85357 25.8295 6.06986 21.3912 8.7837 18.1396C8.7837 18.1396 6.60619 17.0756 6.19846 14.8733C6.19846 14.8733 9.29666 14.8733 10.8443 17.631C10.8443 17.631 11.0509 17.0187 10.1472 16.1944C10.1472 16.1944 10.2349 16.0205 10.2203 15.8744C10.2203 15.8744 10.2349 15.7589 10.3226 15.7005C10.3226 15.7005 10.5549 15.8451 10.6426 16.0337C10.7303 16.2222 10.8896 16.4692 12.3846 16.4692C13.8796 16.4692 15.8979 16.9923 15.854 18.008C15.854 18.008 15.7386 18.4728 16.7396 18.9521C17.7407 19.4314 20.209 20.4033 20.209 20.4033C20.209 20.4033 20.8316 20.7949 20.5291 21.4336C20.2441 22.0328 19.7618 22.6466 19.7618 22.6466C19.7618 22.6466 19.2372 23.3203 17.7568 22.9856C16.2764 22.6509 12.3642 21.2217 8.27659 25.5255C8.27659 25.5255 5.81119 27.6607 9.21043 31.2528V31.2557Z" fill="url(#paint8_radial_137_1427)"/>
    <path d="M20.2277 28.342C18.9636 30.4377 14.7328 33.9378 13.4512 34.0664C10.7578 28.1082 13.9787 25.2336 13.9787 25.2336C13.9787 25.2336 13.9334 25.1269 13.8852 24.953C14.0299 25.425 14.2944 25.862 14.6057 26.1601C15.3437 26.9814 17.0097 27.7735 20.2263 28.342H20.2277Z" fill="url(#paint9_linear_137_1427)"/>
    <path d="M13.8075 24.7015C13.8557 24.8754 13.9945 25.2496 13.9945 25.2496C13.9945 25.2496 10.7575 28.1081 13.4509 34.0663C13.4567 34.0823 13.464 34.0969 13.4713 34.1116C13.4713 34.1116 11.3041 33.2902 9.0754 31.1464C7.99834 29.9991 7.29686 28.8622 7.31878 27.5951C7.34509 26.1849 8.38707 25.1268 9.72573 24.2763C9.81195 24.2207 9.89818 24.1681 9.98294 24.117C10.3322 23.9065 10.6727 23.7297 10.9986 23.5792C13.0957 22.6073 14.6258 22.7476 14.6258 22.7476C13.4319 23.3877 13.8045 24.6928 13.806 24.6986L13.8075 24.7015Z" fill="url(#paint10_linear_137_1427)"/>
    <path d="M10.8933 18.0507C10.8992 17.9353 10.8743 17.6825 10.6405 17.301C10.5236 17.1096 10.3555 16.8875 10.1144 16.6332C10.205 16.5177 10.2971 16.4125 10.3979 16.3394C10.4169 16.3628 10.4359 16.3847 10.4535 16.4066C10.6668 16.6639 10.7837 16.9503 10.8451 17.2148C10.9299 17.5845 10.9094 17.9104 10.8933 18.0507Z" fill="url(#paint11_linear_137_1427)"/>
    <path d="M12.1051 18.4717C12.1051 18.4717 12.5464 18.2247 13.0068 18.3373C13.5475 18.4702 14.1525 18.9408 14.1364 18.9379C14.1364 18.9379 13.9494 18.859 13.5431 18.8122C13.3648 18.7918 13.0331 18.8122 12.8606 18.745C12.6326 18.6529 12.7408 18.4936 12.3506 18.4395C12.203 18.4191 12.1036 18.4732 12.1036 18.4732L12.1051 18.4717Z" fill="white"/>
    <path d="M20.0394 22.268C19.674 22.7357 19.5556 23.2472 18.3997 23.1624C16.2411 23.0031 16.5407 22.5808 14.1791 22.7839C12.972 22.8877 11.5208 23.1537 9.72763 24.2789C9.93954 23.9326 10.8558 23.0762 11.5763 22.6919C12.9939 21.9348 13.9935 21.9421 14.4933 21.9421C14.8148 21.9421 15.5002 21.9641 16.8491 22.3353C17.3445 22.4712 18.2944 22.8906 19.0076 22.7576C19.6126 22.6451 20.0116 22.2856 20.0394 22.268Z" fill="white"/>
    <path d="M20.5667 14.5301C21.4611 14.9203 22.3993 14.7084 23.1578 14.0625C22.1991 15.5838 20.479 15.6496 19.5057 14.8955C19.4297 14.837 17.7564 16.7603 14.1643 16.8728C9.70402 17.0145 5.82105 13.3479 5.60476 13.1608C4.20618 13.7439 2.0696 13.5525 1.22782 11.4699C2.01699 12.433 3.37902 12.9153 4.56569 12.6332C5.18971 12.4096 5.09326 11.7403 4.41809 10.9979C4.03374 10.5756 3.4594 10.3008 2.56502 9.50872C1.38858 8.51642 0.270599 6.71596 0.270599 5.20925C0.919467 6.56544 1.75247 8.097 3.14666 8.75317C2.06083 6.14455 1.74224 2.16366 3.12766 0.0139236C3.12766 0.0139236 2.96106 1.27366 2.88653 1.85238C2.70239 3.30503 3.03413 5.15371 3.03413 5.15371C3.03413 5.15371 3.76191 4.68168 4.19742 4.19795C5.16341 3.12381 5.63106 2.09936 5.63106 2.09936C5.50246 3.41609 4.75275 4.92865 3.32495 5.89757C3.32495 5.90196 3.51786 7.47297 4.20765 8.86716C4.44293 7.17485 5.22917 6.36376 6.52837 5.79673C5.51707 7.00971 4.46485 9.5058 5.45131 10.7758C6.44507 12.056 7.17285 12.5543 8.2733 13.4838C8.18853 12.4199 8.38144 11.163 9.05077 10.3227C8.81256 11.5839 8.84471 13.0906 9.44827 14.2291C9.70402 14.704 11.5059 15.5151 13.1062 15.7665C14.2461 15.9448 16.1956 15.8162 16.5887 15.3208C17.2259 14.5082 17.2055 13.3581 17.1967 12.3307C17.6044 13.0877 17.7593 14.4161 17.4159 15.2068C18.4754 14.5477 19.4341 13.8725 20.3431 12.471C20.7333 11.2434 20.4133 9.93838 19.7878 8.8394C20.7304 9.46926 21.2068 10.6998 21.0037 11.8119C21.8045 10.8576 22.2956 9.37427 22.2956 9.37281C21.3076 8.40828 20.9321 7.11054 21.0183 6.05394C21.0183 6.05394 21.2419 6.92787 21.8498 7.90994C22.1231 8.35275 22.6302 8.8277 22.6302 8.8277C22.6302 8.8277 23.1549 7.4189 23.2148 6.24831C23.2382 5.78066 23.2864 4.76498 23.2864 4.76498C24.0741 6.62828 23.2513 9.76885 22.031 11.6468C23.2235 11.3282 24.096 10.2394 24.799 9.26321C24.5856 10.4499 23.4486 11.7096 22.3803 12.3249C21.5634 12.8217 21.2769 12.981 20.9131 13.2602C20.2759 13.7497 20.1049 14.2627 20.5638 14.5272L20.5667 14.5301Z" fill="url(#paint12_radial_137_1427)"/>
    <path d="M10.8935 18.0508C10.8993 17.9354 10.8745 17.6825 10.6407 17.3011C10.5237 17.1097 10.3557 16.8875 10.1145 16.6333C10.0006 16.5134 9.86903 16.3877 9.71997 16.2533C9.41745 15.9815 8.70721 15.5153 7.99696 15.2668C7.14203 14.9672 6.49463 14.8883 6.28272 14.8693C6.2345 14.8649 6.20819 14.8635 6.20819 14.8635C6.96228 14.7641 7.59507 14.805 8.12703 14.9263C8.12849 14.9263 8.12995 14.9263 8.13141 14.9263C9.36338 15.2084 10.0459 15.923 10.3981 16.338C10.4171 16.3614 10.4361 16.3834 10.4536 16.4053C10.667 16.6625 10.7839 16.9489 10.8453 17.2134C10.93 17.5832 10.9096 17.9091 10.8935 18.0494V18.0508Z" fill="url(#paint13_linear_137_1427)"/>
  </mask>
  <g mask="url(#mask0_137_1427)">
  </g>
  <defs>
    <radialGradient id="paint0_radial_137_1427" cx="0" cy="0" r="1" gradientUnits="userSpaceOnUse" gradientTransform="translate(13.0551 20.313) scale(10.7385)">
      <stop offset="0.37" stop-color="#E4BD20"/>
      <stop offset="0.63" stop-color="#D6AC24"/>
      <stop offset="1" stop-color="#BB8D2D"/>
    </radialGradient>
    <radialGradient id="paint1_radial_137_1427" cx="0" cy="0" r="1" gradientUnits="userSpaceOnUse" gradientTransform="translate(13.2322 23.0645) scale(7.79664)">
      <stop offset="0.37" stop-color="#1F6079"/>
      <stop offset="0.57" stop-color="#175068"/>
      <stop offset="0.95" stop-color="#04283E"/>
      <stop offset="1" stop-color="#022338"/>
    </radialGradient>
    <linearGradient id="paint2_linear_137_1427" x1="13.8984" y1="27.151" x2="18.5091" y2="33.5037" gradientUnits="userSpaceOnUse">
      <stop stop-color="#22667F"/>
      <stop offset="0.23" stop-color="#1D5B74"/>
      <stop offset="0.64" stop-color="#0F4057"/>
      <stop offset="1" stop-color="#022439"/>
    </linearGradient>
    <linearGradient id="paint3_linear_137_1427" x1="10.1335" y1="31.275" x2="12.8166" y2="24.4823" gradientUnits="userSpaceOnUse">
      <stop stop-color="#22667F"/>
      <stop offset="0.26" stop-color="#144960"/>
      <stop offset="0.52" stop-color="#0A344A"/>
      <stop offset="0.77" stop-color="#04283D"/>
      <stop offset="1" stop-color="#022439"/>
    </linearGradient>
    <linearGradient id="paint4_linear_137_1427" x1="10.1144" y1="17.1958" x2="10.908" y2="17.1958" gradientUnits="userSpaceOnUse">
      <stop stop-color="#22667F"/>
      <stop offset="0.23" stop-color="#1D5B74"/>
      <stop offset="0.64" stop-color="#0F4057"/>
      <stop offset="1" stop-color="#022439"/>
    </linearGradient>
    <radialGradient id="paint5_radial_137_1427" cx="0" cy="0" r="1" gradientUnits="userSpaceOnUse" gradientTransform="translate(13.3965 6.97461) rotate(137.55) scale(12.0347 14.201)">
      <stop offset="0.49" stop-color="#28758C"/>
      <stop offset="0.9" stop-color="#022439"/>
    </radialGradient>
    <linearGradient id="paint6_linear_137_1427" x1="6.20819" y1="16.4301" x2="10.9081" y2="16.4301" gradientUnits="userSpaceOnUse">
      <stop offset="0.01" stop-color="#22667F"/>
      <stop offset="0.25" stop-color="#20627B"/>
      <stop offset="0.47" stop-color="#1B5870"/>
      <stop offset="0.69" stop-color="#12465D"/>
      <stop offset="0.89" stop-color="#062D43"/>
      <stop offset="0.96" stop-color="#022439"/>
      <stop offset="1" stop-color="#022439"/>
    </linearGradient>
    <radialGradient id="paint7_radial_137_1427" cx="0" cy="0" r="1" gradientUnits="userSpaceOnUse" gradientTransform="translate(13.0551 20.313) scale(10.7385)">
      <stop offset="0.37" stop-color="#E4BD20"/>
      <stop offset="0.63" stop-color="#D6AC24"/>
      <stop offset="1" stop-color="#BB8D2D"/>
    </radialGradient>
    <radialGradient id="paint8_radial_137_1427" cx="0" cy="0" r="1" gradientUnits="userSpaceOnUse" gradientTransform="translate(13.2322 23.0645) scale(7.79664)">
      <stop offset="0.37" stop-color="#1F6079"/>
      <stop offset="0.57" stop-color="#175068"/>
      <stop offset="0.95" stop-color="#04283E"/>
      <stop offset="1" stop-color="#022338"/>
    </radialGradient>
    <linearGradient id="paint9_linear_137_1427" x1="13.8984" y1="27.151" x2="18.5091" y2="33.5037" gradientUnits="userSpaceOnUse">
      <stop stop-color="#22667F"/>
      <stop offset="0.23" stop-color="#1D5B74"/>
      <stop offset="0.64" stop-color="#0F4057"/>
      <stop offset="1" stop-color="#022439"/>
    </linearGradient>
    <linearGradient id="paint10_linear_137_1427" x1="10.1335" y1="31.275" x2="12.8166" y2="24.4823" gradientUnits="userSpaceOnUse">
      <stop stop-color="#22667F"/>
      <stop offset="0.26" stop-color="#144960"/>
      <stop offset="0.52" stop-color="#0A344A"/>
      <stop offset="0.77" stop-color="#04283D"/>
      <stop offset="1" stop-color="#022439"/>
    </linearGradient>
    <linearGradient id="paint11_linear_137_1427" x1="10.1144" y1="17.1958" x2="10.908" y2="17.1958" gradientUnits="userSpaceOnUse">
      <stop stop-color="#22667F"/>
      <stop offset="0.23" stop-color="#1D5B74"/>
      <stop offset="0.64" stop-color="#0F4057"/>
      <stop offset="1" stop-color="#022439"/>
    </linearGradient>
    <radialGradient id="paint12_radial_137_1427" cx="0" cy="0" r="1" gradientUnits="userSpaceOnUse" gradientTransform="translate(13.3965 6.97461) rotate(137.55) scale(12.0347 14.201)">
      <stop offset="0.49" stop-color="#28758C"/>
      <stop offset="0.9" stop-color="#022439"/>
    </radialGradient>
    <linearGradient id="paint13_linear_137_1427" x1="6.20819" y1="16.4301" x2="10.9081" y2="16.4301" gradientUnits="userSpaceOnUse">
      <stop offset="0.01" stop-color="#22667F"/>
      <stop offset="0.25" stop-color="#20627B"/>
      <stop offset="0.47" stop-color="#1B5870"/>
      <stop offset="0.69" stop-color="#12465D"/>
      <stop offset="0.89" stop-color="#062D43"/>
      <stop offset="0.96" stop-color="#022439"/>
      <stop offset="1" stop-color="#022439"/>
    </linearGradient>
  </defs>
</svg>