<svg width="25" height="24" viewBox="0 0 25 24" fill="none" xmlns="http://www.w3.org/2000/svg">
<g id="ArrowLeftOutlined">
<path id="Vector" d="M22.3933 10.9827H6.72096L16.1013 2.83984C16.2513 2.70859 16.1602 2.46484 15.962 2.46484H13.5915C13.487 2.46484 13.3879 2.50234 13.3102 2.56931L3.18793 11.3523C3.09522 11.4327 3.02087 11.5321 2.96991 11.6437C2.91895 11.7553 2.89258 11.8765 2.89258 11.9992C2.89258 12.1219 2.91895 12.2432 2.96991 12.3548C3.02087 12.4664 3.09522 12.5657 3.18793 12.6461L13.3692 21.4827C13.4094 21.5175 13.4576 21.5363 13.5085 21.5363H15.9594C16.1576 21.5363 16.2486 21.2898 16.0986 21.1613L6.72096 13.0184H22.3933C22.5111 13.0184 22.6076 12.922 22.6076 12.8041V11.197C22.6076 11.0791 22.5111 10.9827 22.3933 10.9827Z" fill="#E5BE20"/>
</g>
</svg>