<svg xmlns="http://www.w3.org/2000/svg" width="16" height="16" viewBox="0 0 16 16" fill="none">
  <path d="M12.7738 2.36805C11.0916 0.685909 8.35236 0.685909 6.672 2.36805L2.01129 7.0252C1.98093 7.05555 1.96486 7.09662 1.96486 7.13948C1.96486 7.18234 1.98093 7.22341 2.01129 7.25377L2.67022 7.9127C2.70034 7.94268 2.74111 7.95952 2.78361 7.95952C2.82611 7.95952 2.86688 7.94268 2.897 7.9127L7.55772 3.25555C8.13629 2.67698 8.90593 2.35912 9.72379 2.35912C10.5416 2.35912 11.3113 2.67698 11.8881 3.25555C12.4666 3.83412 12.7845 4.60377 12.7845 5.41984C12.7845 6.2377 12.4666 7.00555 11.8881 7.58413L7.13808 12.3323L6.36843 13.102C5.64879 13.8216 4.47915 13.8216 3.7595 13.102C3.41129 12.7538 3.22022 12.2913 3.22022 11.7984C3.22022 11.3056 3.41129 10.8431 3.7595 10.4948L8.472 5.78412C8.59165 5.66627 8.74879 5.6002 8.91665 5.6002H8.91843C9.08629 5.6002 9.24165 5.66627 9.3595 5.78412C9.47915 5.90377 9.54343 6.06091 9.54343 6.22877C9.54343 6.39484 9.47736 6.55198 9.3595 6.66984L5.50772 10.5181C5.47736 10.5484 5.46129 10.5895 5.46129 10.6323C5.46129 10.6752 5.47736 10.7163 5.50772 10.7466L6.16665 11.4056C6.19677 11.4355 6.23754 11.4524 6.28004 11.4524C6.32254 11.4524 6.36331 11.4355 6.39343 11.4056L10.2434 7.55555C10.5988 7.2002 10.7934 6.72877 10.7934 6.22698C10.7934 5.7252 10.597 5.25198 10.2434 4.89841C9.5095 4.16448 8.31665 4.16627 7.58272 4.89841L7.12558 5.35734L2.872 9.60912C2.58331 9.89613 2.35446 10.2376 2.19874 10.6137C2.04302 10.9898 1.96353 11.3931 1.96486 11.8002C1.96486 12.627 2.28807 13.4038 2.872 13.9877C3.47736 14.5913 4.27022 14.8931 5.06308 14.8931C5.85593 14.8931 6.64879 14.5913 7.25236 13.9877L12.7738 8.46984C13.5863 7.65555 14.0363 6.57162 14.0363 5.41984C14.0381 4.26627 13.5881 3.18234 12.7738 2.36805Z" fill="#37454F"/>
</svg>