<svg xmlns="http://www.w3.org/2000/svg" width="94" height="18" viewBox="0 0 94 18" fill="none">
  <path d="M-0.000183105 17.5769V0.989548H3.93339C6.63476 0.989548 7.79587 2.24545 7.79587 4.80464V5.46813C7.79587 7.17426 7.27456 8.24059 6.11344 8.71452V8.76191C7.51152 9.23584 8.05653 10.468 8.05653 12.2216V13.6433C8.05653 16.2025 6.70585 17.5769 4.09926 17.5769H-0.000183105ZM2.6064 7.74297H3.62534C4.59688 7.74297 5.18929 7.31644 5.18929 5.98945V5.0653C5.18929 3.88049 4.78645 3.35917 3.8623 3.35917H2.6064V7.74297ZM2.6064 15.2073H4.09926C4.97602 15.2073 5.44995 14.8044 5.44995 13.5722V12.1268C5.44995 10.5865 4.95233 10.1126 3.76752 10.1126H2.6064V15.2073Z" fill="#D9D9D9"/>
  <path d="M9.36686 17.5769L12.0682 0.989548H15.599L18.3003 17.5769H15.6938L15.2198 14.2831V14.3305H12.2578L11.7839 17.5769H9.36686ZM12.5659 12.0794H14.9118L13.7507 3.88049H13.7033L12.5659 12.0794Z" fill="#D9D9D9"/>
  <path d="M20.0389 17.5769V0.989548H23.9013C26.6027 0.989548 27.7638 2.24545 27.7638 4.80464V5.82358C27.7638 7.52971 27.2188 8.61973 26.0577 9.09366V9.14105C27.361 9.54389 27.7875 10.7761 27.7875 12.6481V15.5627C27.7875 16.3684 27.8112 16.9608 28.0719 17.5769H25.4179C25.2757 17.1504 25.1809 16.8897 25.1809 15.539V12.5059C25.1809 10.9657 24.7307 10.468 23.5459 10.468H22.6454V17.5769H20.0389ZM22.6454 8.09842H23.5933C24.5648 8.09842 25.1572 7.67188 25.1572 6.3449V5.0653C25.1572 3.88049 24.7544 3.35917 23.8303 3.35917H22.6454V8.09842Z" fill="#D9D9D9"/>
  <path d="M29.3828 17.5769L32.0841 0.989548H35.6149L38.3162 17.5769H35.7097L35.2357 14.2831V14.3305H32.2737L31.7998 17.5769H29.3828ZM32.5818 12.0794H34.9277L33.7666 3.88049H33.7192L32.5818 12.0794Z" fill="#D9D9D9"/>
  <path d="M43.3739 17.8139C40.8147 17.8139 39.5351 16.2973 39.5351 13.6433V12.6955H41.9995V13.8329C41.9995 15.0177 42.5208 15.4442 43.3502 15.4442C44.1796 15.4442 44.7009 15.0177 44.7009 13.7855C44.7009 12.4111 44.1796 11.5344 42.4734 10.0415C40.2934 8.12211 39.5825 6.77143 39.5825 4.87573C39.5825 2.26914 40.9332 0.752586 43.4687 0.752586C46.0042 0.752586 47.2601 2.26914 47.2601 4.92312V5.61031H44.7957V4.75725C44.7957 3.57244 44.3218 3.12221 43.4924 3.12221C42.663 3.12221 42.1891 3.57244 42.1891 4.70986C42.1891 5.91836 42.7341 6.79512 44.4402 8.28799C46.6203 10.2074 47.3075 11.5344 47.3075 13.5959C47.3075 16.2973 45.9331 17.8139 43.3739 17.8139Z" fill="#D9D9D9"/>
  <path d="M49.2759 17.5769V0.989548H51.8825V17.5769H49.2759Z" fill="#D9D9D9"/>
  <path d="M54.3086 17.5769V0.989548H57.5787L60.1142 10.9183H60.1616V0.989548H62.4838V17.5769H59.8061L56.6782 5.46813H56.6308V17.5769H54.3086Z" fill="#D9D9D9"/>
  <path d="M68.5917 17.8139C66.0325 17.8139 64.7055 16.2973 64.7055 13.6433V4.92312C64.7055 2.26914 66.0325 0.752586 68.5917 0.752586C71.1509 0.752586 72.4779 2.26914 72.4779 4.92312V6.3449H70.0135V4.75725C70.0135 3.57244 69.4921 3.12221 68.6628 3.12221C67.8334 3.12221 67.3121 3.57244 67.3121 4.75725V13.8329C67.3121 15.0177 67.8334 15.4442 68.6628 15.4442C69.4921 15.4442 70.0135 15.0177 70.0135 13.8329V10.5865H68.7102V8.2169H72.4779V13.6433C72.4779 16.2973 71.1509 17.8139 68.5917 17.8139Z" fill="#D9D9D9"/>
  <path d="M74.6253 17.5769V0.989548H77.2319V7.74297H80.0281V0.989548H82.6347V17.5769H80.0281V10.1126H77.2319V17.5769H74.6253Z" fill="#D9D9D9"/>
  <path d="M84.3626 17.5769L87.064 0.989548H90.5947L93.2961 17.5769H90.6895L90.2156 14.2831V14.3305H87.2536L86.7797 17.5769H84.3626ZM87.5616 12.0794H89.9076L88.7464 3.88049H88.699L87.5616 12.0794Z" fill="#D9D9D9"/>
</svg>