<svg xmlns="http://www.w3.org/2000/svg" width="20" height="21" viewBox="0 0 20 21" fill="none">
  <path d="M18.7499 2.35742H1.24986C1.15165 2.35742 1.07129 2.43778 1.07129 2.53599V3.96456C1.07129 4.06278 1.15165 4.14314 1.24986 4.14314H18.7499C18.8481 4.14314 18.9284 4.06278 18.9284 3.96456V2.53599C18.9284 2.43778 18.8481 2.35742 18.7499 2.35742ZM18.7499 16.286H1.24986C1.15165 16.286 1.07129 16.3664 1.07129 16.4646V17.8931C1.07129 17.9914 1.15165 18.0717 1.24986 18.0717H18.7499C18.8481 18.0717 18.9284 17.9914 18.9284 17.8931V16.4646C18.9284 16.3664 18.8481 16.286 18.7499 16.286ZM18.7499 9.32171H1.24986C1.15165 9.32171 1.07129 9.40206 1.07129 9.50028V10.9289C1.07129 11.0271 1.15165 11.1074 1.24986 11.1074H18.7499C18.8481 11.1074 18.9284 11.0271 18.9284 10.9289V9.50028C18.9284 9.40206 18.8481 9.32171 18.7499 9.32171Z" fill="#F2F2F2"/>
</svg>