<svg width="37" height="36" viewBox="0 0 37 36" fill="none" xmlns="http://www.w3.org/2000/svg">
<g id="Black" style="mix-blend-mode:luminosity" opacity="0.3">
<path id="Vector" d="M14.1315 0.443901C8.38122 1.85739 3.30553 6.61184 1.3138 12.4906C0.414307 15.157 0.285809 20.1684 1.08893 22.8348C2.47029 27.4286 6.1325 31.9903 10.0838 33.982C18.5005 38.2225 28.5876 35.5883 33.5991 27.8784C36.0727 24.0555 37.0685 19.012 36.2654 14.7072C35.8157 12.33 33.7918 8.02532 32.4105 6.41909C31.7359 5.6481 31.5431 5.19835 31.768 4.94135C31.9928 4.65223 31.9286 4.58798 31.511 4.68436C31.1576 4.78073 30.4187 4.45948 29.6477 3.84912C25.5358 0.572403 19.3036 -0.776833 14.1315 0.443901ZM22.6124 1.0864C24.7327 1.63251 28.0736 3.27087 29.4229 4.42736L30.483 5.32685L28.2343 6.83671L25.9855 8.37869L24.7648 7.57557C24.0902 7.12583 22.5482 6.51546 21.3275 6.22634C14.003 4.39524 6.96774 9.66368 6.45374 17.3736C6.29312 19.3974 6.16462 19.9114 5.747 19.9114C5.29726 19.9436 5.29726 19.9757 5.77913 20.2648C6.10037 20.4254 6.83924 21.614 7.44961 22.899C8.73459 25.5975 10.2445 27.268 12.6538 28.6493C14.2922 29.5488 14.4528 29.7416 14.9347 31.5406L15.4808 33.5002L15.9305 31.8939L16.3803 30.2556L18.9824 30.1271C22.227 29.9665 24.6042 28.9706 26.9172 26.7861C31.3182 22.642 31.9607 15.4782 28.3306 10.7238L27.1741 9.21393L29.0053 7.41495L30.8042 5.61597L31.6716 6.64396C34.5628 10.0492 36.1369 14.7394 35.8157 19.1083C35.2696 26.6576 30.3545 32.6971 22.9016 34.8494C20.0103 35.7168 14.9025 35.3955 12.1398 34.2069C6.83924 31.9582 3.11278 27.7499 1.69929 22.4493C0.992551 19.8472 1.08893 15.5746 1.89204 12.9725C3.62677 7.28645 8.38122 2.69263 14.1637 1.11852C16.316 0.540276 20.5243 0.508152 22.6124 1.0864ZM23.0301 7.38283C25.6322 8.50719 25.6322 8.66781 23.3192 10.9808C20.6528 13.615 18.2435 16.8917 15.1917 21.9995C14.9025 22.4814 14.6777 22.4493 12.7823 21.5498C11.6258 21.0037 9.85896 20.3933 8.79884 20.1684L6.93561 19.8151L7.06411 17.5021C7.38536 12.3621 10.9833 7.9932 15.8984 6.74034C17.7295 6.29059 21.1668 6.61184 23.0301 7.38283ZM28.8768 13.0689C30.9649 17.47 30.3224 22.1602 27.1099 25.6296C24.7006 28.1996 22.4518 29.2918 19.1751 29.4846L16.6373 29.6452L17.6331 26.7861C19.4321 21.5498 23.9296 12.9725 26.0498 10.6917C26.6602 9.98492 26.7565 9.98492 27.3026 10.4989C27.6239 10.788 28.3306 11.9445 28.8768 13.0689ZM12.0434 25.8866C12.975 27.1074 13.5854 28.1675 13.4248 28.1996C12.9429 28.3602 10.6942 26.6255 9.53771 25.1799C8.63822 24.0555 7.64236 22.2244 7.64236 21.6462C7.64236 21.1001 10.5336 23.8949 12.0434 25.8866Z" fill="white"/>
<path id="Vector_2" d="M18.0826 1.665C17.7613 2.56449 17.3116 4.97384 17.4401 5.10234C17.5365 5.16659 17.8256 5.03809 18.1147 4.78109C18.5323 4.42772 18.693 4.42772 18.7893 4.71684C18.8857 4.94171 19.0785 5.13446 19.2712 5.13446C19.5925 5.13446 19.3997 2.75724 18.9821 1.72925C18.7893 1.18313 18.2753 1.151 18.0826 1.665Z" fill="white"/>
<path id="Vector_3" d="M14.292 1.85675C14.1956 1.98525 14.292 2.85261 14.4526 3.78423C14.7417 5.22984 14.9024 5.45471 15.5449 5.45471C16.3801 5.45471 16.5728 4.97284 15.8661 4.71584C15.6412 4.61947 15.32 3.8806 15.2236 3.07749C14.9987 1.72825 14.6454 1.24638 14.292 1.85675Z" fill="white"/>
<path id="Vector_4" d="M21.6157 1.9866C20.6198 5.23119 20.6841 5.61668 22.1297 5.39181C22.7079 5.32756 22.9007 5.10269 22.9007 4.42807C22.9328 3.9462 23.0292 3.46433 23.1577 3.33583C23.5753 2.91821 23.3825 1.9866 22.8685 1.79385C22.0975 1.50473 21.7763 1.56898 21.6157 1.9866Z" fill="white"/>
<path id="Vector_5" d="M25.3427 3.33554C25.0857 3.62466 25.0214 4.26715 25.1499 5.03814C25.3105 6.00188 25.2784 6.13038 24.9893 5.68064C24.4753 4.90965 23.9613 5.00602 24.0898 5.84126C24.2183 6.74075 25.2784 6.99775 25.8245 6.25888C26.1136 5.87339 26.1458 5.48789 25.9209 4.87752C25.696 4.3314 25.7282 3.94591 25.953 3.72103C26.1779 3.49616 26.2743 3.56041 26.2743 3.94591C26.2743 4.52415 26.7561 4.68477 27.0774 4.2029C27.238 3.88166 26.4028 2.88579 25.9851 2.88579C25.8245 2.88579 25.5354 3.07854 25.3427 3.33554Z" fill="white"/>
<path id="Vector_6" d="M9.82465 3.65574C9.11791 4.16973 9.08578 4.49098 9.69615 4.49098C9.92103 4.49098 10.3065 4.9086 10.5314 5.45472C10.7563 5.96871 11.1418 6.57908 11.3666 6.77183C12.2019 7.47857 12.234 6.80395 11.4309 5.39047C10.9811 4.61948 10.692 3.81636 10.7563 3.59149C10.949 3.07749 10.5314 3.10962 9.82465 3.65574Z" fill="white"/>
<path id="Vector_7" d="M7.06374 5.8406C6.13212 6.77221 6.80674 7.70383 8.47722 7.70383C8.89484 7.70383 9.24821 7.83232 9.24821 8.02507C9.24821 8.1857 9.02334 8.34632 8.76634 8.34632C8.50935 8.34632 8.28447 8.47482 8.28447 8.66756C8.28447 9.18156 9.44096 9.05306 9.89071 8.47482C10.4368 7.83232 9.85858 7.22196 8.28447 6.80434C7.67411 6.61159 7.41711 6.45096 7.73835 6.45096C8.0596 6.41884 8.28447 6.25822 8.22022 6.03334C8.02748 5.48722 7.51348 5.39085 7.06374 5.8406Z" fill="white"/>
<path id="Vector_8" d="M4.43066 9.05289C4.43066 9.30988 5.10528 10.1451 5.9084 10.9161C7.35401 12.2975 7.38613 12.3296 7.19338 11.4622C7.03276 10.7234 7.09701 10.5949 7.51463 10.6591C7.80375 10.7234 8.125 10.5949 8.18925 10.4342C8.2535 10.2415 7.54676 9.79175 6.61514 9.47051C5.68353 9.11713 4.81616 8.76376 4.68766 8.73164C4.55916 8.66739 4.43066 8.82801 4.43066 9.05289Z" fill="white"/>
<path id="Vector_9" d="M31.768 9.7596C31.3183 10.2093 30.6437 10.5948 30.226 10.5948C29.8084 10.5948 29.4872 10.7233 29.4872 10.9161C29.4872 11.0767 29.8084 11.2373 30.1618 11.2373C30.7079 11.2373 30.7722 11.3337 30.483 11.6871C29.8084 12.4902 30.5794 12.4902 31.9929 11.655C33.4385 10.7876 33.824 10.0808 32.6354 10.4663C31.9929 10.6591 31.9608 10.627 32.3463 10.1772C33.0851 9.27773 32.5712 8.92436 31.768 9.7596Z" fill="white"/>
<path id="Vector_10" d="M2.63008 12.6517C2.30883 13.5191 2.72645 14.0652 4.07569 14.4828C5.55342 14.9326 6.35654 14.7077 6.35654 13.8725C6.35654 13.0051 5.64979 12.4911 4.13993 12.2984C3.11195 12.1699 2.7907 12.2341 2.63008 12.6517ZM4.71818 13.1978C5.61767 13.5191 6.09954 14.1295 5.42492 14.1295C4.81455 14.1295 3.14407 13.3906 3.14407 13.1336C3.14407 12.7481 3.46532 12.7802 4.71818 13.1978Z" fill="white"/>
<path id="Vector_11" d="M33.6946 12.9406C33.4697 13.2297 32.8273 13.4867 32.2811 13.5509C31.5101 13.6152 31.221 13.8079 31.1568 14.3862C31.0283 15.3178 31.6065 15.5106 33.277 14.9966C34.6584 14.5789 35.1081 13.8722 33.8552 14.0649C33.2127 14.1613 33.2127 14.1613 33.791 13.7116C34.1122 13.4867 34.3371 13.1012 34.2729 12.8763C34.1444 12.5551 34.0159 12.5872 33.6946 12.9406Z" fill="white"/>
<path id="Vector_12" d="M2.08438 16.2807C1.66676 16.6662 1.85951 17.9191 2.3735 18.1118C3.52999 18.5616 5.3611 18.3046 5.71447 17.6942C6.19634 16.7626 4.81498 15.4776 4.26886 16.3771C4.17249 16.5698 4.30098 16.7947 4.55798 16.8911C4.8471 16.9875 5.07198 17.2123 5.07198 17.373C5.07198 17.6942 3.78699 17.7584 3.016 17.4693C2.3735 17.2123 2.34138 16.6983 2.98387 16.6983C3.24087 16.6983 3.46574 16.5377 3.46574 16.3771C3.46574 16.0237 2.40563 15.9273 2.08438 16.2807Z" fill="white"/>
<path id="Vector_13" d="M33.1168 17.1169C32.3458 17.2775 31.7355 17.5988 31.7355 17.8237C31.7355 18.2413 33.1168 18.6268 34.4982 18.6268C35.3656 18.6268 35.5583 17.9843 34.7231 17.9843C34.1769 17.9522 34.1769 17.9522 34.7231 17.5345C35.8474 16.6672 35.3977 16.5387 33.1168 17.1169Z" fill="white"/>
<path id="Vector_14" d="M31.4134 20.6505C31.4134 20.9397 31.6704 21.3251 31.9917 21.4858C32.4735 21.7749 32.4735 21.807 31.831 21.8391C30.6424 21.8391 30.9637 22.7386 32.3129 23.092C32.9554 23.2848 33.6943 23.4454 33.9191 23.4454C34.5938 23.4454 34.3368 22.8671 33.5979 22.7065C32.9554 22.578 32.9875 22.578 33.7585 22.5138C34.7223 22.4816 34.9471 21.9676 34.0798 21.7428C33.6621 21.6464 33.6943 21.5821 34.2404 21.55C35.3005 21.4858 34.8186 20.9718 33.4694 20.7469C32.859 20.6184 32.1202 20.4257 31.8632 20.3293C31.6062 20.2329 31.4134 20.3614 31.4134 20.6505Z" fill="white"/>
<path id="Vector_15" d="M4.26991 21.8707C3.75591 22.0313 3.11342 22.0956 2.92067 21.9992C2.66368 21.9028 2.50305 22.1598 2.50305 22.6417C2.50305 23.5412 3.0813 24.0231 3.33829 23.3484C3.43467 23.0914 4.14141 22.706 4.94453 22.5132C5.71552 22.3205 6.35801 21.9992 6.35801 21.8386C6.35801 21.4531 5.58702 21.4531 4.26991 21.8707Z" fill="white"/>
<path id="Vector_16" d="M5.77971 24.1512C5.61909 24.376 5.36209 24.89 5.26572 25.2755C5.00872 26.0465 4.4626 26.3035 4.55898 25.5968C4.55898 25.404 4.4626 25.1792 4.26985 25.1149C4.10923 25.0828 3.94861 25.3719 3.94861 25.7574C3.94861 26.3357 4.14136 26.4963 4.75172 26.4963C5.36209 26.4963 5.68334 26.2393 6.00459 25.4362C6.26158 24.89 6.61495 24.4082 6.77558 24.4082C6.9362 24.4082 6.90408 24.6009 6.71133 24.8579C6.42221 25.2113 6.42221 25.3719 6.6792 25.5325C7.25745 25.8859 7.73932 25.2113 7.48232 24.4403C7.25745 23.7014 6.29371 23.5408 5.77971 24.1512Z" fill="white"/>
<path id="Vector_17" d="M30.0327 24.2806C29.9042 24.4091 30.0005 24.7303 30.1933 24.9552C30.4824 25.3407 30.4824 25.405 30.0969 25.3086C29.1011 25.0837 29.5829 25.8868 30.9322 26.6578C32.3778 27.4609 33.2773 27.3646 32.185 26.4972C31.6068 26.0153 31.6068 25.9832 32.2814 26.0796C32.6669 26.1438 33.0203 26.0153 33.0845 25.8547C33.1488 25.662 32.7633 25.5013 32.2493 25.4371C31.7353 25.3728 31.0928 25.0195 30.8037 24.6661C30.5145 24.3448 30.1612 24.1521 30.0327 24.2806Z" fill="white"/>
<path id="Vector_18" d="M8.34843 26.6578C8.41268 27.2361 8.25206 27.461 7.64169 27.6537C7.19195 27.7822 6.96707 27.8786 7.1277 27.9107C7.28832 27.9428 7.22407 28.1677 6.9992 28.4247C6.67795 28.8423 6.51733 28.8423 6.32458 28.5211C6.19608 28.2962 5.97121 28.2319 5.84271 28.3604C5.71421 28.4889 5.81058 28.8423 6.09971 29.0993C6.71008 29.7097 7.35257 29.4527 8.7018 28.0392L9.56917 27.0755L8.92668 26.4972C8.28418 25.919 8.28418 25.919 8.34843 26.6578Z" fill="white"/>
<path id="Vector_19" d="M27.6243 27.3644C27.046 27.9426 27.1424 28.3924 28.1704 29.3561C29.2947 30.4162 30.2906 30.3841 30.2906 29.2597C30.2906 28.81 30.0979 28.4245 29.8409 28.3281C29.5196 28.2317 29.4554 28.3602 29.5839 28.8742C29.8087 29.7737 29.4554 29.7416 28.5238 28.7457C27.7206 27.9105 27.8491 27.2359 28.6844 27.9426C29.0699 28.2639 29.1662 28.2639 29.1662 27.8462C29.1662 27.5893 28.9414 27.268 28.6523 27.1716C28.0098 26.9146 28.074 26.9146 27.6243 27.3644Z" fill="white"/>
<path id="Vector_20" d="M9.4421 29.7411C8.18924 31.2188 8.06074 32.0541 9.28148 30.9618C9.98822 30.3515 9.98822 30.3515 9.60273 31.0903C9.05661 32.1183 9.40998 32.3753 10.2452 31.6043C10.952 30.994 10.952 30.994 10.5665 31.7328C10.1488 32.536 10.3416 33.0821 10.8556 32.5681C11.0162 32.4075 11.4338 31.6043 11.7872 30.737C12.4939 29.1307 12.2048 28.7774 11.0805 29.7732C10.438 30.3515 10.438 30.3515 10.952 29.5162C11.4338 28.7774 11.4017 28.2312 10.8877 28.2634C10.7913 28.2955 10.1488 28.938 9.4421 29.7411Z" fill="white"/>
<path id="Vector_21" d="M25.2139 29.2915C24.6999 29.677 24.732 29.8055 25.503 31.0905C26.3061 32.4397 27.1735 32.7931 27.4948 31.8615C27.559 31.6366 27.4305 31.5402 27.1093 31.6687C26.6274 31.8615 26.4346 31.5081 26.5631 30.5765C26.5953 30.3516 26.4346 30.2231 26.2098 30.2553C25.9528 30.3195 25.8243 30.0946 25.8564 29.6128C25.9528 28.7775 25.9206 28.7775 25.2139 29.2915Z" fill="white"/>
<path id="Vector_22" d="M22.902 30.5772C22.7735 30.8663 22.7735 31.2839 22.902 31.4767C23.2554 32.0228 22.6771 31.83 22.2274 31.2518C21.5528 30.3202 21.4243 30.9627 21.9704 32.5368C22.2595 33.372 22.6771 34.0466 22.9341 34.0466C23.2554 34.0466 23.2875 33.8539 23.0626 33.2435C22.902 32.7938 22.8699 32.4404 23.0305 32.4404C23.1911 32.4404 23.3839 32.7295 23.4802 33.0829C23.673 33.7896 24.3476 33.9824 24.3155 33.3078C24.3155 33.115 24.0585 32.2798 23.7051 31.4767C23.2554 30.3844 23.0626 30.1595 22.902 30.5772Z" fill="white"/>
<path id="Vector_23" d="M18.3079 31.7009C18.1794 32.0221 18.1152 32.7931 18.2116 33.4035C18.3722 34.3351 18.5328 34.5278 19.2074 34.5278C19.7857 34.5278 20.0427 34.3351 20.1069 33.789C20.1712 33.4035 20.0748 33.0822 19.882 33.0822C19.6893 33.0822 19.5287 33.3071 19.5287 33.5641C19.5287 33.8211 19.4002 34.046 19.2074 34.046C19.0468 34.046 18.8862 33.4356 18.8862 32.6646C18.9183 31.4117 18.9504 31.3475 19.3681 31.9257C19.882 32.6325 20.3639 32.4397 20.0748 31.6366C19.8178 30.9941 18.6613 31.0262 18.3079 31.7009Z" fill="white"/>
</g>
</svg>
