<svg width="56" height="57" viewBox="0 0 56 57" fill="none" xmlns="http://www.w3.org/2000/svg">
  <path d="M53.6654 35.5V42.5C53.6654 43.1188 53.4195 43.7123 52.9819 44.1499C52.5444 44.5875 51.9509 44.8333 51.332 44.8333H4.66536C4.04653 44.8333 3.45303 44.5875 3.01545 44.1499C2.57786 43.7123 2.33203 43.1188 2.33203 42.5V35.5H53.6654Z" fill="#BEC6C6"/>
  <path d="M53.6654 9.83333V35.5H2.33203V9.83333C2.33203 9.21449 2.57786 8.621 3.01545 8.18342C3.45303 7.74583 4.04653 7.5 4.66536 7.5H51.332C51.9509 7.5 52.5444 7.74583 52.9819 8.18342C53.4195 8.621 53.6654 9.21449 53.6654 9.83333Z" fill="#BEC6C6" fill-opacity="0.7"/>
  <path d="M38.5 54.1663H17.5C18.6099 53.0576 19.4903 51.7408 20.0909 50.2915C20.6915 48.8421 21.0004 47.2885 21 45.7197V44.833H35V45.7197C35.0018 48.8877 36.2605 51.9255 38.5 54.1663Z" fill="#BEC6C6"/>
  <path d="M51.3327 6.33301H4.66602C3.73776 6.33301 2.84752 6.70176 2.19114 7.35813C1.53476 8.01451 1.16602 8.90475 1.16602 9.83301V42.4997C1.16602 43.4279 1.53476 44.3182 2.19114 44.9745C2.84752 45.6309 3.73776 45.9997 4.66602 45.9997H19.8327C19.7704 48.7609 18.6415 51.3909 16.6827 53.338C16.5189 53.5005 16.4069 53.7079 16.3609 53.934C16.315 54.1601 16.3371 54.3948 16.4245 54.6083C16.512 54.8219 16.6607 55.0047 16.852 55.1337C17.0433 55.2627 17.2686 55.332 17.4993 55.333H38.4994C38.7311 55.3344 38.958 55.2667 39.1511 55.1386C39.3442 55.0105 39.4948 54.8278 39.5836 54.6137C39.6725 54.3997 39.6956 54.1641 39.65 53.9369C39.6044 53.7097 39.4922 53.5012 39.3277 53.338C37.3646 51.3927 36.2314 48.7626 36.166 45.9997H51.3327C52.2609 45.9997 53.1512 45.6309 53.8076 44.9745C54.4639 44.3182 54.8327 43.4279 54.8327 42.4997V9.83301C54.8327 8.90475 54.4639 8.01451 53.8076 7.35813C53.1512 6.70176 52.2609 6.33301 51.3327 6.33301ZM3.49935 9.83301C3.49935 9.52359 3.62227 9.22684 3.84106 9.00805C4.05985 8.78926 4.3566 8.66634 4.66602 8.66634H51.3327C51.6421 8.66634 51.9389 8.78926 52.1576 9.00805C52.3764 9.22684 52.4994 9.52359 52.4994 9.83301V34.333H3.49935V9.83301ZM36.0377 52.9997H19.961C21.3526 50.9263 22.1181 48.4963 22.166 45.9997H33.8327C33.8806 48.4963 34.6461 50.9263 36.0377 52.9997ZM52.4994 42.4997C52.4994 42.8091 52.3764 43.1058 52.1576 43.3246C51.9389 43.5434 51.6421 43.6663 51.3327 43.6663H4.66602C4.3566 43.6663 4.05985 43.5434 3.84106 43.3246C3.62227 43.1058 3.49935 42.8091 3.49935 42.4997V36.6663H52.4994V42.4997Z" fill="#2A3E4E"/>
  <g clip-path="url(#clip0_957_8519)">
  <path d="M25.8205 38.5074C25.8206 38.443 25.8681 38.3885 25.9319 38.3797L27.5238 38.1605C27.6013 38.1498 27.6703 38.21 27.6703 38.2882V39.7984C27.6703 39.8696 27.6126 39.9273 27.5414 39.9273H25.9493C25.8781 39.9273 25.8203 39.8696 25.8203 39.7984L25.8205 38.5074ZM25.8205 41.5529C25.8206 41.6173 25.8681 41.6718 25.9319 41.6806L27.5238 41.9001C27.6012 41.9108 27.6703 41.8505 27.6703 41.7723V40.284C27.6703 40.2128 27.6126 40.155 27.5414 40.155H25.9493C25.8781 40.155 25.8203 40.2128 25.8203 40.284L25.8205 41.5529ZM27.8737 41.835C27.8737 41.8994 27.9212 41.9539 27.985 41.9627L30.1874 42.2666C30.2649 42.2773 30.334 42.2171 30.334 42.1389V40.284C30.334 40.2128 30.2763 40.155 30.205 40.155H28.0026C27.9314 40.155 27.8737 40.2128 27.8737 40.284V41.835ZM27.985 38.0976C27.9212 38.1064 27.8737 38.1609 27.8737 38.2253V39.7984C27.8737 39.8696 27.9314 39.9273 28.0026 39.9273H30.205C30.2763 39.9273 30.334 39.8696 30.334 39.7984V37.9214C30.334 37.8432 30.2649 37.783 30.1874 37.7937L27.985 38.0976Z" fill="#2A3E4E"/>
  </g>
  <path d="M33.8333 1.6665L28 15.6665H32.6667L30.3333 24.9998L44.3333 10.9998H39.6667L44.3333 1.6665H33.8333Z" fill="#E5BE20"/>
  <defs>
  <clipPath id="clip0_957_8519">
  <rect width="6.0179" height="6.0179" fill="white" transform="translate(25.0684 37.021)"/>
  </clipPath>
  </defs>
</svg>
