<svg xmlns="http://www.w3.org/2000/svg" width="36" height="36" viewBox="0 0 36 36" fill="none">
  <path d="M18.0005 1.32715C8.88863 1.32715 1.50049 8.71529 1.50049 17.8271C1.50049 26.939 8.88863 34.3271 18.0005 34.3271C27.1123 34.3271 34.5005 26.939 34.5005 17.8271C34.5005 8.71529 27.1123 1.32715 18.0005 1.32715ZM18.0005 30.6129C10.9409 30.6129 5.21477 24.8867 5.21477 17.8271C5.21477 10.7676 10.9409 5.04143 18.0005 5.04143C25.0601 5.04143 30.7862 10.7676 30.7862 17.8271C30.7862 24.8867 25.0601 30.6129 18.0005 30.6129Z" fill="url(#paint0_linear_1048_6521)" stroke="#13222D"/>
  <path d="M18.001 4.54102C10.6653 4.54102 4.71533 10.491 4.71533 17.8267C4.71533 25.1624 10.6653 31.1124 18.001 31.1124C25.3368 31.1124 31.2868 25.1624 31.2868 17.8267C31.2868 10.491 25.3368 4.54102 18.001 4.54102ZM24.9082 12.6017L17.3868 23.0303C17.2816 23.177 17.1431 23.2966 16.9825 23.3791C16.8219 23.4615 16.644 23.5046 16.4635 23.5046C16.283 23.5046 16.1051 23.4615 15.9446 23.3791C15.784 23.2966 15.6455 23.177 15.5403 23.0303L11.0903 16.8589C10.9546 16.6696 11.0903 16.4053 11.3225 16.4053H12.9975C13.3653 16.4053 13.7082 16.5839 13.9225 16.8803L16.4653 20.4089L22.0796 12.6232C22.2939 12.3232 22.6403 12.1482 23.0046 12.1482H24.6796C24.9118 12.1482 25.0475 12.4124 24.9082 12.6017Z" fill="#11202B"/>
  <path d="M24.679 12.1484H23.004C22.6397 12.1484 22.2932 12.3234 22.079 12.6234L16.4647 20.4092L13.9218 16.8806C13.7075 16.5842 13.3647 16.4056 12.9968 16.4056H11.3218C11.0897 16.4056 10.954 16.6699 11.0897 16.8592L15.5397 23.0306C15.6448 23.1773 15.7834 23.2969 15.9439 23.3793C16.1045 23.4618 16.2824 23.5048 16.4629 23.5048C16.6434 23.5048 16.8213 23.4618 16.9818 23.3793C17.1424 23.2969 17.281 23.1773 17.3861 23.0306L24.9075 12.602C25.0468 12.4127 24.9111 12.1484 24.679 12.1484Z" fill="url(#paint1_linear_1048_6521)"/>
  <defs>
    <linearGradient id="paint0_linear_1048_6521" x1="18.0005" y1="1.82715" x2="18.0005" y2="37.5531" gradientUnits="userSpaceOnUse">
      <stop stop-color="#60F33B"/>
      <stop offset="1" stop-color="#A6EA37"/>
    </linearGradient>
    <linearGradient id="paint1_linear_1048_6521" x1="17.9997" y1="12.1484" x2="17.9997" y2="24.8271" gradientUnits="userSpaceOnUse">
      <stop stop-color="#60F33B"/>
      <stop offset="1" stop-color="#A6EA37"/>
    </linearGradient>
  </defs>
</svg>