<svg xmlns="http://www.w3.org/2000/svg" width="18" height="18" viewBox="0 0 18 18" fill="none">
  <g opacity="0.1">
    <path d="M10.0399 9.00028L15.3134 2.71434C15.4018 2.60988 15.3274 2.45117 15.1908 2.45117H13.5877C13.4933 2.45117 13.4029 2.49336 13.3406 2.56568L8.99129 7.75073L4.64196 2.56568C4.58169 2.49336 4.49129 2.45117 4.39486 2.45117H2.79173C2.65513 2.45117 2.5808 2.60988 2.66919 2.71434L7.94263 9.00028L2.66919 15.2862C2.64939 15.3095 2.63669 15.338 2.63259 15.3683C2.62849 15.3986 2.63317 15.4294 2.64607 15.4571C2.65898 15.4848 2.67956 15.5082 2.70538 15.5246C2.7312 15.5409 2.76117 15.5496 2.79173 15.5494H4.39486C4.48928 15.5494 4.57968 15.5072 4.64196 15.4349L8.99129 10.2498L13.3406 15.4349C13.4009 15.5072 13.4913 15.5494 13.5877 15.5494H15.1908C15.3274 15.5494 15.4018 15.3907 15.3134 15.2862L10.0399 9.00028Z" fill="white"/>
  </g>
</svg>