<svg xmlns="http://www.w3.org/2000/svg" width="57" height="56" viewBox="0 0 57 56" fill="none">
  <path d="M30.9993 46.666H26.3327C25.6884 46.666 25.166 47.1884 25.166 47.8327V52.4993C25.166 53.1437 25.6884 53.666 26.3327 53.666H30.9993C31.6437 53.666 32.166 53.1437 32.166 52.4993V47.8327C32.166 47.1884 31.6437 46.666 30.9993 46.666Z" fill="#BEC6C6"/>
  <path d="M54.333 49H33.333V47.8333C33.333 47.2145 33.0872 46.621 32.6496 46.1834C32.212 45.7458 31.6185 45.5 30.9997 45.5H29.833V36.1667C29.833 35.8572 29.7101 35.5605 29.4913 35.3417C29.2725 35.1229 28.9758 35 28.6663 35C28.3569 35 28.0602 35.1229 27.8414 35.3417C27.6226 35.5605 27.4997 35.8572 27.4997 36.1667V45.5H26.333C25.7142 45.5 25.1207 45.7458 24.6831 46.1834C24.2455 46.621 23.9997 47.2145 23.9997 47.8333V49H2.99967C2.69026 49 2.39351 49.1229 2.17472 49.3417C1.95592 49.5605 1.83301 49.8572 1.83301 50.1667C1.83301 50.4761 1.95592 50.7728 2.17472 50.9916C2.39351 51.2104 2.69026 51.3333 2.99967 51.3333H23.9997V52.5C23.9997 53.1188 24.2455 53.7123 24.6831 54.1499C25.1207 54.5875 25.7142 54.8333 26.333 54.8333H30.9997C31.6185 54.8333 32.212 54.5875 32.6496 54.1499C33.0872 53.7123 33.333 53.1188 33.333 52.5V51.3333H54.333C54.6424 51.3333 54.9392 51.2104 55.158 50.9916C55.3768 50.7728 55.4997 50.4761 55.4997 50.1667C55.4997 49.8572 55.3768 49.5605 55.158 49.3417C54.9392 49.1229 54.6424 49 54.333 49ZM26.333 52.5V47.8333H30.9997V52.5H26.333Z" fill="#2A3E4E"/>
  <path d="M53.1665 27.9987C53.1665 30.4741 52.1832 32.848 50.4328 34.5984C48.6825 36.3487 46.3085 37.332 43.8332 37.332H15.8332C13.0803 37.3326 10.4158 36.3597 8.31107 34.5853C6.2063 32.8109 4.79677 30.3495 4.33174 27.6361C3.86672 24.9228 4.37616 22.1324 5.76998 19.7584C7.16379 17.3845 9.35219 15.5798 11.9482 14.6637C13.1522 10.7199 15.7101 7.32798 19.1708 5.08607C22.6316 2.84415 26.7728 1.89627 30.8642 2.40961C34.9556 2.92295 38.7343 4.86453 41.5339 7.89193C44.3335 10.9193 45.9741 14.8381 46.1665 18.957C48.1707 19.4745 49.9461 20.6436 51.2133 22.2804C52.4804 23.9171 53.1675 25.9287 53.1665 27.9987Z" fill="#16242F"/>
  <path d="M43.8334 38.4993H15.8334C12.8533 38.5025 9.96497 37.4685 7.66403 35.5746C5.3631 33.6807 3.793 31.0451 3.22315 28.12C2.6533 25.1948 3.11923 22.1626 4.54099 19.5435C5.96275 16.9244 8.25169 14.8817 11.0151 13.766C12.4015 9.73156 15.1281 6.29373 18.7408 4.0249C22.3535 1.75606 26.6343 0.793123 30.8705 1.2964C35.1068 1.79968 39.0429 3.7388 42.0234 6.79093C45.0039 9.84305 46.8491 13.824 47.2517 18.071C49.601 18.8796 51.5874 20.4951 52.8578 22.6302C54.1283 24.7653 54.6005 27.2818 54.1904 29.7323C53.7804 32.1827 52.5147 34.4084 50.6184 36.0136C48.722 37.6188 46.3179 38.4996 43.8334 38.4993ZM28.6667 3.49935C25.1746 3.48672 21.7711 4.59849 18.9599 6.67018C16.1486 8.74187 14.0788 11.6634 13.0567 15.0027C13.0037 15.1767 12.9106 15.336 12.785 15.4676C12.6594 15.5993 12.5048 15.6998 12.3334 15.761C9.99424 16.5839 8.02178 18.208 6.76537 20.3459C5.50896 22.4837 5.04969 24.9971 5.4689 27.4411C5.88811 29.8851 7.15874 32.1019 9.05575 33.6988C10.9528 35.2957 13.3537 36.1697 15.8334 36.166H43.8334C45.8209 36.1629 47.7391 35.435 49.2284 34.1189C50.7177 32.8028 51.6759 30.9887 51.9235 29.0166C52.1711 27.0446 51.691 25.05 50.5733 23.4065C49.4555 21.7631 47.7768 20.5837 45.8517 20.0893C45.6147 20.0231 45.4047 19.8837 45.2517 19.6909C45.0988 19.4981 45.0107 19.2619 45.0001 19.016C44.7904 14.8272 42.9774 10.8796 39.9367 7.99101C36.8961 5.10238 32.8608 3.4941 28.6667 3.49935Z" fill="#2A3E4E"/>
  <path d="M28.666 43.166C25.6086 42.1454 22.9496 40.1892 21.0652 37.5741C19.1808 34.9591 18.1666 31.8176 18.166 28.5943V18.666C19.9616 19.0249 21.8181 18.9347 23.5705 18.4035C25.3228 17.8723 26.9169 16.9165 28.211 15.621L28.666 15.166L29.121 15.621C30.4139 16.9182 32.0079 17.8752 33.7607 18.4065C35.5134 18.9378 37.3704 19.027 39.166 18.666V28.5943C39.1654 31.8176 38.1512 34.9591 36.2668 37.5741C34.3825 40.1892 31.7234 42.1454 28.666 43.166Z" fill="#E5BE20"/>
  <path d="M18.7498 12.8322C18.53 12.8308 18.3151 12.7673 18.1299 12.649C17.9446 12.5308 17.7965 12.3626 17.7026 12.1639C17.6087 11.9652 17.5729 11.744 17.5992 11.5258C17.6256 11.3076 17.713 11.1012 17.8515 10.9306C19.6563 8.71956 22.1017 7.12189 24.8515 6.35723C25.1401 6.29875 25.4401 6.35155 25.6913 6.50504C25.9426 6.65852 26.1266 6.90134 26.2063 7.18478C26.286 7.46823 26.2556 7.77133 26.1212 8.0333C25.9867 8.29526 25.7582 8.49671 25.4815 8.59723C23.1917 9.23399 21.1545 10.5623 19.6481 12.4006C19.5396 12.5344 19.4027 12.6425 19.2474 12.7172C19.0921 12.7918 18.9221 12.8311 18.7498 12.8322Z" fill="#BEC6C6"/>
</svg>