<svg xmlns="http://www.w3.org/2000/svg" width="57" height="56" viewBox="0 0 57 56" fill="none">
  <path d="M39.1659 2.33203H11.1659C9.87719 2.33203 8.83252 3.3767 8.83252 4.66536V51.332C8.83252 52.6207 9.87719 53.6654 11.1659 53.6654H39.1659C40.4545 53.6654 41.4992 52.6207 41.4992 51.332V4.66536C41.4992 3.3767 40.4545 2.33203 39.1659 2.33203Z" fill="#2E3D46"/>
  <path d="M32.5282 9.33203H17.8048C17.2473 9.33967 16.7054 9.14737 16.2774 8.78996C15.8493 8.43256 15.5635 7.93369 15.4715 7.3837L14.6665 2.33203H35.6665L34.8265 7.3837C34.7355 7.92771 34.4547 8.4219 34.034 8.77856C33.6132 9.13523 33.0797 9.33132 32.5282 9.33203Z" fill="#BEC6C6"/>
  <path d="M8.83252 28L13.1959 29.75C13.6282 29.9222 13.9991 30.2197 14.2611 30.6043C14.523 30.9889 14.664 31.443 14.6659 31.9083V53.6667H11.1659C10.547 53.6667 9.95352 53.4208 9.51594 52.9833C9.07835 52.5457 8.83252 51.9522 8.83252 51.3333V28Z" fill="#BEC6C6"/>
  <path d="M41.4998 28L37.1365 29.75C36.7042 29.9222 36.3332 30.2197 36.0713 30.6043C35.8093 30.9889 35.6684 31.443 35.6665 31.9083V53.6667H39.1665C39.7853 53.6667 40.3788 53.4208 40.8164 52.9833C41.254 52.5457 41.4998 51.9522 41.4998 51.3333V28Z" fill="#BEC6C6"/>
  <path d="M36.8325 34.9993V30.3327C36.8325 29.095 37.3242 27.908 38.1994 27.0329C39.0745 26.1577 40.2615 25.666 41.4992 25.666C42.7369 25.666 43.9238 26.1577 44.799 27.0329C45.6742 27.908 46.1659 29.095 46.1659 30.3327V34.9993H36.8325Z" fill="#2E3D46"/>
  <path d="M46.1665 32.1667C45.8571 32.1667 45.5603 32.0438 45.3415 31.825C45.1228 31.6062 44.9998 31.3094 44.9998 31V30.3333C44.9998 29.4051 44.6311 28.5148 43.9747 27.8585C43.3183 27.2021 42.4281 26.8333 41.4998 26.8333C40.5716 26.8333 39.6813 27.2021 39.025 27.8585C38.3686 28.5148 37.9998 29.4051 37.9998 30.3333V35C37.9998 35.3094 37.8769 35.6062 37.6581 35.825C37.4393 36.0438 37.1426 36.1667 36.8332 36.1667C36.5238 36.1667 36.227 36.0438 36.0082 35.825C35.7894 35.6062 35.6665 35.3094 35.6665 35V30.3333C35.6665 28.7862 36.2811 27.3025 37.375 26.2085C38.469 25.1146 39.9527 24.5 41.4998 24.5C43.0469 24.5 44.5307 25.1146 45.6246 26.2085C46.7186 27.3025 47.3332 28.7862 47.3332 30.3333V31C47.3332 31.3094 47.2103 31.6062 46.9915 31.825C46.7727 32.0438 46.4759 32.1667 46.1665 32.1667Z" fill="#BEC6C6"/>
  <path d="M47.3325 33.832H35.6659C34.3772 33.832 33.3325 34.8767 33.3325 36.1654V45.4987C33.3325 46.7874 34.3772 47.832 35.6659 47.832H47.3325C48.6212 47.832 49.6659 46.7874 49.6659 45.4987V36.1654C49.6659 34.8767 48.6212 33.832 47.3325 33.832Z" fill="#E5BE20"/>
  <path d="M41.4995 37.332C40.9902 37.3372 40.4967 37.5089 40.0942 37.8208C39.6916 38.1327 39.4021 38.5677 39.2699 39.0595C39.1377 39.5513 39.1701 40.0728 39.362 40.5445C39.5539 41.0162 39.8948 41.4122 40.3328 41.672V43.1654C40.3328 43.4748 40.4557 43.7715 40.6745 43.9903C40.8933 44.2091 41.19 44.332 41.4995 44.332C41.8089 44.332 42.1056 44.2091 42.3244 43.9903C42.5432 43.7715 42.6661 43.4748 42.6661 43.1654V41.672C43.1041 41.4122 43.4451 41.0162 43.637 40.5445C43.8289 40.0728 43.8612 39.5513 43.729 39.0595C43.5968 38.5677 43.3073 38.1327 42.9048 37.8208C42.5022 37.5089 42.0087 37.3372 41.4995 37.332Z" fill="#2E3D46"/>
  <path d="M25.1659 47.8327C28.3875 47.8327 30.9992 45.221 30.9992 41.9993C30.9992 38.7777 28.3875 36.166 25.1659 36.166C21.9442 36.166 19.3325 38.7777 19.3325 41.9993C19.3325 45.221 21.9442 47.8327 25.1659 47.8327Z" fill="#BEC6C6"/>
  <path d="M25.1659 44.3327C26.4545 44.3327 27.4992 43.288 27.4992 41.9993C27.4992 40.7107 26.4545 39.666 25.1659 39.666C23.8772 39.666 22.8325 40.7107 22.8325 41.9993C22.8325 43.288 23.8772 44.3327 25.1659 44.3327Z" fill="#2E3D46"/>
  <path d="M33.3325 12.832H16.9992C16.3549 12.832 15.8325 13.3544 15.8325 13.9987V16.332C15.8325 16.9764 16.3549 17.4987 16.9992 17.4987H33.3325C33.9768 17.4987 34.4992 16.9764 34.4992 16.332V13.9987C34.4992 13.3544 33.9768 12.832 33.3325 12.832Z" fill="#BEC6C6"/>
  <path d="M33.3325 19.832H16.9992C16.3549 19.832 15.8325 20.3544 15.8325 20.9987V23.332C15.8325 23.9764 16.3549 24.4987 16.9992 24.4987H33.3325C33.9768 24.4987 34.4992 23.9764 34.4992 23.332V20.9987C34.4992 20.3544 33.9768 19.832 33.3325 19.832Z" fill="#BEC6C6"/>
  <path d="M41.4998 22.166C41.8093 22.166 42.106 22.0431 42.3248 21.8243C42.5436 21.6055 42.6665 21.3088 42.6665 20.9993V4.66602C42.6665 3.73776 42.2978 2.84752 41.6414 2.19114C40.985 1.53476 40.0948 1.16602 39.1665 1.16602H11.1665C10.2382 1.16602 9.34801 1.53476 8.69163 2.19114C8.03525 2.84752 7.6665 3.73776 7.6665 4.66602V51.3327C7.6665 52.2609 8.03525 53.1512 8.69163 53.8076C9.34801 54.4639 10.2382 54.8327 11.1665 54.8327H39.1665C42.6665 54.8327 43.7398 50.166 41.4998 50.166C41.1904 50.166 40.8937 50.2889 40.6749 50.5077C40.4561 50.7265 40.3332 51.0233 40.3332 51.3327C40.3332 51.6421 40.2103 51.9388 39.9915 52.1576C39.7727 52.3764 39.4759 52.4993 39.1665 52.4993H11.1665C10.8571 52.4993 10.5603 52.3764 10.3415 52.1576C10.1228 51.9388 9.99984 51.6421 9.99984 51.3327V4.66602C9.99984 4.3566 10.1228 4.05985 10.3415 3.84106C10.5603 3.62227 10.8571 3.49935 11.1665 3.49935H13.6748L14.3632 7.57102C14.4983 8.38712 14.9181 9.12899 15.5481 9.66504C16.1781 10.2011 16.9776 10.4967 17.8048 10.4993H32.5282C33.3654 10.5106 34.1789 10.2213 34.821 9.68403C35.4632 9.14675 35.8915 8.39707 36.0282 7.57102L36.6582 3.49935H39.1665C39.4759 3.49935 39.7727 3.62227 39.9915 3.84106C40.2103 4.05985 40.3332 4.3566 40.3332 4.66602V20.9993C40.3332 21.3088 40.4561 21.6055 40.6749 21.8243C40.8937 22.0431 41.1904 22.166 41.4998 22.166ZM33.6715 7.18602C33.6268 7.46208 33.4844 7.71289 33.2702 7.89277C33.0561 8.07264 32.7845 8.16961 32.5048 8.16602H17.8048C17.5252 8.16961 17.2536 8.07264 17.0394 7.89277C16.8253 7.71289 16.6829 7.46208 16.6382 7.18602L16.0432 3.49935H34.2898L33.6715 7.18602Z" fill="#BEC6C6"/>
</svg>