<svg xmlns="http://www.w3.org/2000/svg" width="57" height="56" viewBox="0 0 57 56" fill="none">
  <path d="M51.6653 7H4.99862C3.70995 7 2.66528 8.04467 2.66528 9.33333V39.6667C2.66528 40.9553 3.70995 42 4.99862 42H51.6653C52.9539 42 53.9986 40.9553 53.9986 39.6667V9.33333C53.9986 8.04467 52.9539 7 51.6653 7Z" fill="#F8F9F9"/>
  <path d="M53.9986 12.834H2.66528V19.834H53.9986V12.834Z" fill="#BEC6C6"/>
  <path d="M51.6659 5.83398H4.99927C4.07101 5.83398 3.18077 6.20273 2.52439 6.85911C1.86802 7.51549 1.49927 8.40573 1.49927 9.33398V39.6673C1.49927 40.5956 1.86802 41.4858 2.52439 42.1422C3.18077 42.7986 4.07101 43.1673 4.99927 43.1673H51.6659C52.5942 43.1673 53.4844 42.7986 54.1408 42.1422C54.7972 41.4858 55.1659 40.5956 55.1659 39.6673V9.33398C55.1659 8.40573 54.7972 7.51549 54.1408 6.85911C53.4844 6.20273 52.5942 5.83398 51.6659 5.83398ZM4.99927 8.16732H51.6659C51.9754 8.16732 52.2721 8.29023 52.4909 8.50903C52.7097 8.72782 52.8326 9.02456 52.8326 9.33398V11.6673H3.8326V9.33398C3.8326 9.02456 3.95552 8.72782 4.17431 8.50903C4.3931 8.29023 4.68985 8.16732 4.99927 8.16732ZM52.8326 18.6673H3.8326V14.0007H52.8326V18.6673ZM51.6659 40.834H4.99927C4.68985 40.834 4.3931 40.7111 4.17431 40.4923C3.95552 40.2735 3.8326 39.9767 3.8326 39.6673V21.0007H52.8326V39.6673C52.8326 39.9767 52.7097 40.2735 52.4909 40.4923C52.2721 40.7111 51.9754 40.834 51.6659 40.834Z" fill="#2A3E4E"/>
  <path d="M48.8426 33.7289L44.0009 38.5589C43.7304 38.8299 43.3974 39.0303 43.0311 39.1422C42.6649 39.2541 42.2767 39.2741 41.9009 39.2005L38.9959 38.6172L35.6943 41.9189L33.2209 41.0905V44.3922L30.7476 43.5639V46.8655L28.3326 46.0372V49.3389L27.5043 50.1672L22.4993 48.5222V45.2205L34.0493 33.6705L33.4659 30.7655C33.3923 30.3897 33.4124 30.0016 33.5243 29.6353C33.6362 29.2691 33.8365 28.936 34.1076 28.6655L38.9376 23.8239C39.2104 23.553 39.546 23.3538 39.9144 23.2439C40.2828 23.134 40.6726 23.1168 41.0493 23.1939C43.2933 23.6689 45.3163 24.8753 46.8009 26.6239C48.1709 27.9836 49.1016 29.723 49.4726 31.6172C49.5497 31.9938 49.5325 32.3837 49.4226 32.7521C49.3127 33.1205 49.1134 33.456 48.8426 33.7289Z" fill="#E5BE20"/>
  <path d="M43.4986 31.5007C44.7873 31.5007 45.8319 30.456 45.8319 29.1673C45.8319 27.8787 44.7873 26.834 43.4986 26.834C42.21 26.834 41.1653 27.8787 41.1653 29.1673C41.1653 30.456 42.21 31.5007 43.4986 31.5007Z" fill="#F8F9F9"/>
  <path d="M28.332 25.6673H7.33195C7.02253 25.6673 6.72578 25.5444 6.50699 25.3256C6.2882 25.1068 6.16528 24.8101 6.16528 24.5007C6.16528 24.1912 6.2882 23.8945 6.50699 23.6757C6.72578 23.4569 7.02253 23.334 7.33195 23.334H28.332C28.6414 23.334 28.9381 23.4569 29.1569 23.6757C29.3757 23.8945 29.4986 24.1912 29.4986 24.5007C29.4986 24.8101 29.3757 25.1068 29.1569 25.3256C28.9381 25.5444 28.6414 25.6673 28.332 25.6673Z" fill="#BEC6C6"/>
  <path d="M14.3319 32.6673H7.33195C7.02253 32.6673 6.72578 32.5444 6.50699 32.3256C6.2882 32.1068 6.16528 31.8101 6.16528 31.5007C6.16528 31.1912 6.2882 30.8945 6.50699 30.6757C6.72578 30.4569 7.02253 30.334 7.33195 30.334H14.3319C14.6414 30.334 14.9381 30.4569 15.1569 30.6757C15.3757 30.8945 15.4986 31.1912 15.4986 31.5007C15.4986 31.8101 15.3757 32.1068 15.1569 32.3256C14.9381 32.5444 14.6414 32.6673 14.3319 32.6673Z" fill="#BEC6C6"/>
  <path d="M23.6653 37.3333H7.33195C7.02253 37.3333 6.72578 37.2104 6.50699 36.9916C6.2882 36.7728 6.16528 36.4761 6.16528 36.1667C6.16528 35.8572 6.2882 35.5605 6.50699 35.3417C6.72578 35.1229 7.02253 35 7.33195 35H23.6653C23.9747 35 24.2714 35.1229 24.4902 35.3417C24.709 35.5605 24.8319 35.8572 24.8319 36.1667C24.8319 36.4761 24.709 36.7728 24.4902 36.9916C24.2714 37.2104 23.9747 37.3333 23.6653 37.3333Z" fill="#BEC6C6"/>
</svg>