<svg xmlns="http://www.w3.org/2000/svg" width="20" height="21" viewBox="0 0 20 21" fill="none">
  <path d="M11.1562 10.2143L17.0155 3.22991C17.1137 3.11384 17.0312 2.9375 16.8794 2.9375H15.0981C14.9932 2.9375 14.8928 2.98437 14.8236 3.06473L9.99097 8.82589L5.15838 3.06473C5.09142 2.98437 4.99097 2.9375 4.88383 2.9375H3.10258C2.95079 2.9375 2.8682 3.11384 2.96642 3.22991L8.82579 10.2143L2.96642 17.1987C2.94442 17.2245 2.9303 17.2562 2.92575 17.2898C2.9212 17.3235 2.9264 17.3577 2.94073 17.3885C2.95507 17.4193 2.97794 17.4453 3.00663 17.4635C3.03532 17.4817 3.06862 17.4913 3.10258 17.4911H4.88383C4.98874 17.4911 5.08919 17.4442 5.15838 17.3638L9.99097 11.6027L14.8236 17.3638C14.8905 17.4442 14.991 17.4911 15.0981 17.4911H16.8794C17.0312 17.4911 17.1137 17.3147 17.0155 17.1987L11.1562 10.2143Z" fill="white"/>
</svg>