<svg xmlns="http://www.w3.org/2000/svg" width="165" height="113" viewBox="0 0 165 113" fill="none">
  <path opacity="0.4" d="M164.854 8.22583L14.7955 95.1289L0.125 86.478L150.277 -0.000389099L164.854 8.22583Z" fill="url(#paint0_linear_1048_4211)"/>
  <path opacity="0.6" d="M164.143 24.9904L14.7845 112.232V95.0743L164.143 8.13869L164.143 24.9904Z" fill="url(#paint1_linear_1048_4211)"/>
  <path d="M14.787 112.236L0 103.673L0 86.5472L0.0207588 86.5352L14.787 95.086V112.236Z" fill="url(#paint2_linear_1048_4211)"/>
  <path d="M14.7871 112.23V94.9784L29.5741 86.5371V103.674L14.7871 112.23Z" fill="url(#paint3_linear_1048_4211)"/>
  <path d="M29.5681 86.544L14.7874 95.1033L0.00585937 86.5436L14.7866 77.9844L29.5681 86.544Z" fill="url(#paint4_linear_1048_4211)"/>
  <defs>
    <linearGradient id="paint0_linear_1048_4211" x1="81.8506" y1="116.273" x2="134.87" y2="14.269" gradientUnits="userSpaceOnUse">
      <stop stop-color="#FF8722"/>
      <stop offset="1" stop-color="#F5903B" stop-opacity="0.01"/>
    </linearGradient>
    <linearGradient id="paint1_linear_1048_4211" x1="81.611" y1="147.714" x2="174.034" y2="32.3625" gradientUnits="userSpaceOnUse">
      <stop stop-color="#FF8722"/>
      <stop offset="1" stop-color="#F5903B" stop-opacity="0.01"/>
    </linearGradient>
    <linearGradient id="paint2_linear_1048_4211" x1="12.4889" y1="82.831" x2="-3.22409" y2="85.641" gradientUnits="userSpaceOnUse">
      <stop stop-color="#DF6B08"/>
      <stop offset="1" stop-color="#E69C7D"/>
    </linearGradient>
    <linearGradient id="paint3_linear_1048_4211" x1="26.6292" y1="83.9131" x2="11.7303" y2="86.5783" gradientUnits="userSpaceOnUse">
      <stop stop-color="#F7811D"/>
      <stop offset="1" stop-color="#F1AD76"/>
    </linearGradient>
    <linearGradient id="paint4_linear_1048_4211" x1="23.6806" y1="76.236" x2="-0.183318" y2="89.0449" gradientUnits="userSpaceOnUse">
      <stop stop-color="#FFA151"/>
      <stop offset="1" stop-color="#FFC092"/>
    </linearGradient>
  </defs>
</svg>