<svg width="56" height="56" viewBox="0 0 56 56" fill="none" xmlns="http://www.w3.org/2000/svg">
<g id="Database">
<g id="Database_2">
<path id="Vector" d="M30.3333 16.333C43.22 16.333 53.6667 13.199 53.6667 9.33301C53.6667 5.46701 43.22 2.33301 30.3333 2.33301C17.4467 2.33301 7 5.46701 7 9.33301C7 13.199 17.4467 16.333 30.3333 16.333Z" fill="#D2D9E9"/>
<path id="Vector_2" d="M53.6667 9.33301V20.9997C53.6667 24.8613 43.1667 27.9997 30.3333 27.9997C17.5 27.9997 7 24.8613 7 20.9997V9.33301C7 13.1947 17.5 16.333 30.3333 16.333C43.1667 16.333 53.6667 13.1947 53.6667 9.33301Z" fill="#0E1525"/>
<path id="Vector_3" d="M53.6667 21V32.6667C53.6667 36.5283 43.1667 39.6667 30.3333 39.6667C17.5 39.6667 7 36.5283 7 32.6667V21C7 24.8617 17.5 28 30.3333 28C43.1667 28 53.6667 24.8617 53.6667 21Z" fill="#0E1525"/>
<path id="Vector_4" d="M53.6667 32.6665V44.3332C53.6667 48.1948 43.1667 51.3332 30.3333 51.3332C17.5 51.3332 7 48.1948 7 44.3332V32.6665C7 36.5282 17.5 39.6665 30.3333 39.6665C43.1667 39.6665 53.6667 36.5282 53.6667 32.6665Z" fill="#0E1525"/>
<path id="Vector_5" d="M5.83398 9.33327V44.3333C5.83398 55.1716 54.834 55.2183 54.834 44.3333V9.33327C54.834 -1.50506 5.83398 -1.55173 5.83398 9.33327ZM52.5006 32.6666C52.5006 35.1049 44.0657 38.4999 30.334 38.4999C16.6023 38.4999 8.16732 35.1049 8.16732 32.6666V24.6866C16.5323 30.6483 44.1356 30.6483 52.5006 24.6866V32.6666ZM52.5006 20.9999C52.5006 23.4383 44.0657 26.8333 30.334 26.8333C16.6023 26.8333 8.16732 23.4383 8.16732 20.9999V13.0199C16.5323 18.9816 44.1356 18.9816 52.5006 13.0199V20.9999ZM30.334 3.49994C44.0657 3.49994 52.5006 6.89494 52.5006 9.33327C52.5006 11.7716 44.0657 15.1666 30.334 15.1666C16.6023 15.1666 8.16732 11.7716 8.16732 9.33327C8.16732 6.89494 16.6023 3.49994 30.334 3.49994ZM30.334 50.1666C16.6023 50.1666 8.16732 46.7716 8.16732 44.3333V36.3533C16.5323 42.3149 44.1356 42.3149 52.5006 36.3533V44.3333C52.5006 46.7716 44.0657 50.1666 30.334 50.1666Z" fill="#414141"/>
<path id="Vector_6" d="M46.6673 45.4997C47.956 45.4997 49.0007 44.455 49.0007 43.1663C49.0007 41.8777 47.956 40.833 46.6673 40.833C45.3787 40.833 44.334 41.8777 44.334 43.1663C44.334 44.455 45.3787 45.4997 46.6673 45.4997Z" fill="#D2D9E9"/>
<path id="Vector_7" d="M46.6673 33.8332C47.956 33.8332 49.0007 32.7885 49.0007 31.4998C49.0007 30.2112 47.956 29.1665 46.6673 29.1665C45.3787 29.1665 44.334 30.2112 44.334 31.4998C44.334 32.7885 45.3787 33.8332 46.6673 33.8332Z" fill="#D2D9E9"/>
<path id="Vector_8" d="M46.6673 22.1667C47.956 22.1667 49.0007 21.122 49.0007 19.8333C49.0007 18.5447 47.956 17.5 46.6673 17.5C45.3787 17.5 44.334 18.5447 44.334 19.8333C44.334 21.122 45.3787 22.1667 46.6673 22.1667Z" fill="#D2D9E9"/>
<path id="Vector_9" d="M30.3337 46.6668C30.978 46.6668 31.5003 46.1445 31.5003 45.5002C31.5003 44.8558 30.978 44.3335 30.3337 44.3335C29.6893 44.3335 29.167 44.8558 29.167 45.5002C29.167 46.1445 29.6893 46.6668 30.3337 46.6668Z" fill="#D2D9E9"/>
<path id="Vector_10" d="M36.1667 46.6663C36.811 46.6663 37.3333 46.144 37.3333 45.4997C37.3333 44.8553 36.811 44.333 36.1667 44.333C35.5223 44.333 35 44.8553 35 45.4997C35 46.144 35.5223 46.6663 36.1667 46.6663Z" fill="#D2D9E9"/>
<path id="Vector_11" d="M24.5007 46.6663C25.145 46.6663 25.6673 46.144 25.6673 45.4997C25.6673 44.8553 25.145 44.333 24.5007 44.333C23.8563 44.333 23.334 44.8553 23.334 45.4997C23.334 46.144 23.8563 46.6663 24.5007 46.6663Z" fill="#D2D9E9"/>
<path id="Vector_12" d="M30.3337 34.9998C30.978 34.9998 31.5003 34.4775 31.5003 33.8332C31.5003 33.1888 30.978 32.6665 30.3337 32.6665C29.6893 32.6665 29.167 33.1888 29.167 33.8332C29.167 34.4775 29.6893 34.9998 30.3337 34.9998Z" fill="#D2D9E9"/>
<path id="Vector_13" d="M36.1667 34.9998C36.811 34.9998 37.3333 34.4775 37.3333 33.8332C37.3333 33.1888 36.811 32.6665 36.1667 32.6665C35.5223 32.6665 35 33.1888 35 33.8332C35 34.4775 35.5223 34.9998 36.1667 34.9998Z" fill="#D2D9E9"/>
<path id="Vector_14" d="M24.5007 34.9998C25.145 34.9998 25.6673 34.4775 25.6673 33.8332C25.6673 33.1888 25.145 32.6665 24.5007 32.6665C23.8563 32.6665 23.334 33.1888 23.334 33.8332C23.334 34.4775 23.8563 34.9998 24.5007 34.9998Z" fill="#D2D9E9"/>
<path id="Vector_15" d="M30.3337 23.3333C30.978 23.3333 31.5003 22.811 31.5003 22.1667C31.5003 21.5223 30.978 21 30.3337 21C29.6893 21 29.167 21.5223 29.167 22.1667C29.167 22.811 29.6893 23.3333 30.3337 23.3333Z" fill="#D2D9E9"/>
<path id="Vector_16" d="M36.1667 23.3333C36.811 23.3333 37.3333 22.811 37.3333 22.1667C37.3333 21.5223 36.811 21 36.1667 21C35.5223 21 35 21.5223 35 22.1667C35 22.811 35.5223 23.3333 36.1667 23.3333Z" fill="#D2D9E9"/>
<path id="Vector_17" d="M24.5007 23.3333C25.145 23.3333 25.6673 22.811 25.6673 22.1667C25.6673 21.5223 25.145 21 24.5007 21C23.8563 21 23.334 21.5223 23.334 22.1667C23.334 22.811 23.8563 23.3333 24.5007 23.3333Z" fill="#D2D9E9"/>
<path id="Vector_18" d="M11.667 54.8335C8.60957 53.8129 5.95053 51.8567 4.06618 49.2416C2.18182 46.6265 1.16758 43.4851 1.16699 40.2618V30.3335C2.96261 30.6924 4.81906 30.6022 6.57144 30.071C8.32382 29.5398 9.91787 28.584 11.212 27.2885L11.667 26.8335L12.122 27.2885C13.4149 28.5857 15.0089 29.5427 16.7616 30.074C18.5144 30.6053 20.3714 30.6945 22.167 30.3335V40.2618C22.1664 43.4851 21.1522 46.6265 19.2678 49.2416C17.3835 51.8567 14.7244 53.8129 11.667 54.8335Z" fill="#E0BB21"/>
</g>
</g>
</svg>
