<svg xmlns="http://www.w3.org/2000/svg" width="57" height="57" viewBox="0 0 57 57" fill="none">
  <path d="M30.6097 16.6641C43.4963 16.6641 53.943 13.5301 53.943 9.66406C53.943 5.79807 43.4963 2.66406 30.6097 2.66406C17.7231 2.66406 7.27637 5.79807 7.27637 9.66406C7.27637 13.5301 17.7231 16.6641 30.6097 16.6641Z" fill="#D2D9E9"/>
  <path d="M53.943 9.66406V21.3307C53.943 25.1924 43.443 28.3307 30.6097 28.3307C17.7764 28.3307 7.27637 25.1924 7.27637 21.3307V9.66406C7.27637 13.5257 17.7764 16.6641 30.6097 16.6641C43.443 16.6641 53.943 13.5257 53.943 9.66406Z" fill="#0E1525"/>
  <path d="M53.943 21.3301V32.9967C53.943 36.8584 43.443 39.9967 30.6097 39.9967C17.7764 39.9967 7.27637 36.8584 7.27637 32.9967V21.3301C7.27637 25.1917 17.7764 28.3301 30.6097 28.3301C43.443 28.3301 53.943 25.1917 53.943 21.3301Z" fill="#0E1525"/>
  <path d="M53.943 32.998V44.6647C53.943 48.5264 43.443 51.6647 30.6097 51.6647C17.7764 51.6647 7.27637 48.5264 7.27637 44.6647V32.998C7.27637 36.8597 17.7764 39.998 30.6097 39.998C43.443 39.998 53.943 36.8597 53.943 32.998Z" fill="#0E1525"/>
  <path d="M6.11035 9.66384V44.6638C6.11035 55.5022 55.1104 55.5488 55.1104 44.6638V9.66384C55.1104 -1.1745 6.11035 -1.22116 6.11035 9.66384ZM52.777 32.9972C52.777 35.4355 44.342 38.8305 30.6104 38.8305C16.8787 38.8305 8.44368 35.4355 8.44368 32.9972V25.0172C16.8087 30.9788 44.412 30.9788 52.777 25.0172V32.9972ZM52.777 21.3305C52.777 23.7688 44.342 27.1638 30.6104 27.1638C16.8787 27.1638 8.44368 23.7688 8.44368 21.3305V13.3505C16.8087 19.3122 44.412 19.3122 52.777 13.3505V21.3305ZM30.6104 3.8305C44.342 3.8305 52.777 7.2255 52.777 9.66384C52.777 12.1022 44.342 15.4972 30.6104 15.4972C16.8787 15.4972 8.44368 12.1022 8.44368 9.66384C8.44368 7.2255 16.8787 3.8305 30.6104 3.8305ZM30.6104 50.4972C16.8787 50.4972 8.44368 47.1022 8.44368 44.6638V36.6838C16.8087 42.6455 44.412 42.6455 52.777 36.6838V44.6638C52.777 47.1022 44.342 50.4972 30.6104 50.4972Z" fill="#414141"/>
  <path d="M46.9437 45.8307C48.2323 45.8307 49.277 44.7861 49.277 43.4974C49.277 42.2087 48.2323 41.1641 46.9437 41.1641C45.655 41.1641 44.6104 42.2087 44.6104 43.4974C44.6104 44.7861 45.655 45.8307 46.9437 45.8307Z" fill="#BEC6C6"/>
  <path d="M46.9437 34.1647C48.2323 34.1647 49.277 33.12 49.277 31.8314C49.277 30.5427 48.2323 29.498 46.9437 29.498C45.655 29.498 44.6104 30.5427 44.6104 31.8314C44.6104 33.12 45.655 34.1647 46.9437 34.1647Z" fill="#BEC6C6"/>
  <path d="M46.9437 22.4967C48.2323 22.4967 49.277 21.4521 49.277 20.1634C49.277 18.8747 48.2323 17.8301 46.9437 17.8301C45.655 17.8301 44.6104 18.8747 44.6104 20.1634C44.6104 21.4521 45.655 22.4967 46.9437 22.4967Z" fill="#BEC6C6"/>
  <path d="M30.61 46.9974C31.2544 46.9974 31.7767 46.4751 31.7767 45.8307C31.7767 45.1864 31.2544 44.6641 30.61 44.6641C29.9657 44.6641 29.4434 45.1864 29.4434 45.8307C29.4434 46.4751 29.9657 46.9974 30.61 46.9974Z" fill="#BEC6C6"/>
  <path d="M36.443 46.9974C37.0874 46.9974 37.6097 46.4751 37.6097 45.8307C37.6097 45.1864 37.0874 44.6641 36.443 44.6641C35.7987 44.6641 35.2764 45.1864 35.2764 45.8307C35.2764 46.4751 35.7987 46.9974 36.443 46.9974Z" fill="#BEC6C6"/>
  <path d="M24.777 46.9974C25.4214 46.9974 25.9437 46.4751 25.9437 45.8307C25.9437 45.1864 25.4214 44.6641 24.777 44.6641C24.1327 44.6641 23.6104 45.1864 23.6104 45.8307C23.6104 46.4751 24.1327 46.9974 24.777 46.9974Z" fill="#BEC6C6"/>
  <path d="M30.61 35.3314C31.2544 35.3314 31.7767 34.809 31.7767 34.1647C31.7767 33.5204 31.2544 32.998 30.61 32.998C29.9657 32.998 29.4434 33.5204 29.4434 34.1647C29.4434 34.809 29.9657 35.3314 30.61 35.3314Z" fill="#BEC6C6"/>
  <path d="M36.443 35.3314C37.0874 35.3314 37.6097 34.809 37.6097 34.1647C37.6097 33.5204 37.0874 32.998 36.443 32.998C35.7987 32.998 35.2764 33.5204 35.2764 34.1647C35.2764 34.809 35.7987 35.3314 36.443 35.3314Z" fill="#BEC6C6"/>
  <path d="M24.777 35.3314C25.4214 35.3314 25.9437 34.809 25.9437 34.1647C25.9437 33.5204 25.4214 32.998 24.777 32.998C24.1327 32.998 23.6104 33.5204 23.6104 34.1647C23.6104 34.809 24.1327 35.3314 24.777 35.3314Z" fill="#BEC6C6"/>
  <path d="M30.61 23.6634C31.2544 23.6634 31.7767 23.1411 31.7767 22.4967C31.7767 21.8524 31.2544 21.3301 30.61 21.3301C29.9657 21.3301 29.4434 21.8524 29.4434 22.4967C29.4434 23.1411 29.9657 23.6634 30.61 23.6634Z" fill="#BEC6C6"/>
  <path d="M36.443 23.6634C37.0874 23.6634 37.6097 23.1411 37.6097 22.4967C37.6097 21.8524 37.0874 21.3301 36.443 21.3301C35.7987 21.3301 35.2764 21.8524 35.2764 22.4967C35.2764 23.1411 35.7987 23.6634 36.443 23.6634Z" fill="#BEC6C6"/>
  <path d="M24.777 23.6634C25.4214 23.6634 25.9437 23.1411 25.9437 22.4967C25.9437 21.8524 25.4214 21.3301 24.777 21.3301C24.1327 21.3301 23.6104 21.8524 23.6104 22.4967C23.6104 23.1411 24.1327 23.6634 24.777 23.6634Z" fill="#BEC6C6"/>
  <path d="M11.9434 55.1641C8.88594 54.1435 6.2269 52.1872 4.34254 49.5722C2.45818 46.9571 1.44395 43.8157 1.44336 40.5924V30.6641C3.23897 31.0229 5.09543 30.9328 6.84781 30.4016C8.60019 29.8703 10.1942 28.9145 11.4884 27.6191L11.9434 27.1641L12.3984 27.6191C13.6913 28.9163 15.2852 29.8732 17.038 30.4046C18.7907 30.9359 20.6478 31.025 22.4434 30.6641V40.5924C22.4428 43.8157 21.4285 46.9571 19.5442 49.5722C17.6598 52.1872 15.0008 54.1435 11.9434 55.1641Z" fill="#D2D9E9"/>
</svg>