<svg xmlns="http://www.w3.org/2000/svg" width="20" height="20" viewBox="0 0 20 20" fill="none">
  <path d="M17.3497 13.5391C16.5197 13.0586 15.5079 13.1875 14.8263 13.7891L13.7911 13.1895V10.2266C13.7911 9.91992 13.6271 9.63477 13.3615 9.48242L10.7052 7.95312V6.64258C11.5685 6.34961 12.1896 5.5332 12.1896 4.57031C12.1896 3.36133 11.2111 2.38281 10.0021 2.38281C8.79309 2.38281 7.81458 3.36133 7.81458 4.57031C7.81458 5.5332 8.43567 6.34961 9.29895 6.64258V7.95312L6.6427 9.48242C6.37708 9.63477 6.21301 9.91992 6.21301 10.2266V13.1875L5.17786 13.7871C4.49622 13.1855 3.48254 13.0566 2.65442 13.5371C1.6095 14.1426 1.25403 15.4785 1.85364 16.5234C2.4552 17.5684 3.78528 17.9277 4.82629 17.3242C5.65637 16.8438 6.0509 15.8984 5.87317 15.0039L6.82434 14.4512L9.57044 16.0332C9.70325 16.1094 9.85169 16.1484 10.0001 16.1484C10.1486 16.1484 10.297 16.1094 10.4298 16.0332L13.174 14.4531L14.1251 15.0059C13.9474 15.8984 14.3439 16.8457 15.172 17.3262C16.213 17.9297 17.545 17.5723 18.1447 16.5254C18.7462 15.4785 18.3907 14.1426 17.3497 13.5391ZM4.2052 16.2422C4.09912 16.3036 3.98193 16.3435 3.86038 16.3595C3.73883 16.3754 3.61532 16.3672 3.49696 16.3353C3.37861 16.3033 3.26774 16.2483 3.17074 16.1733C3.07373 16.0983 2.99252 16.0049 2.93176 15.8984C2.67395 15.4512 2.82629 14.877 3.27356 14.6191C3.37964 14.5577 3.49683 14.5178 3.61838 14.5019C3.73993 14.4859 3.86344 14.4941 3.9818 14.5261C4.10015 14.558 4.21102 14.6131 4.30802 14.688C4.40503 14.763 4.48624 14.8564 4.547 14.9629C4.80481 15.4102 4.65247 15.9844 4.2052 16.2422ZM9.06262 4.57031C9.06763 4.32499 9.1686 4.0914 9.34387 3.91967C9.51914 3.74794 9.75475 3.65175 10.0001 3.65175C10.2455 3.65175 10.4811 3.74794 10.6564 3.91967C10.8316 4.0914 10.9326 4.32499 10.9376 4.57031C10.9326 4.81564 10.8316 5.04923 10.6564 5.22096C10.4811 5.39269 10.2455 5.48887 10.0001 5.48887C9.75475 5.48887 9.51914 5.39269 9.34387 5.22096C9.1686 5.04923 9.06763 4.81564 9.06262 4.57031ZM12.3829 13.2852L10.0001 14.6582L7.61731 13.2852V10.543L10.0001 9.16992L12.3829 10.543V13.2852ZM17.0685 15.9004C16.8107 16.3477 16.2404 16.502 15.795 16.2441C15.3497 15.9863 15.1954 15.4121 15.4532 14.9648C15.7111 14.5176 16.2814 14.3633 16.7267 14.6211C17.174 14.8789 17.3263 15.4512 17.0685 15.9004Z" fill="#F8F8F8"/>
</svg>