<svg width="199" height="200" viewBox="0 0 199 200" fill="none" xmlns="http://www.w3.org/2000/svg">
<g id="Group">
<g id="Error 404">
<path id="Vector" d="M182.62 23.5127V160.704C182.62 162.849 181.768 164.905 180.252 166.422C178.735 167.938 176.679 168.79 174.534 168.79H18.6553C16.5107 168.79 14.4541 167.938 12.9377 166.422C11.4212 164.905 10.5693 162.849 10.5693 160.704V23.5127C10.5693 21.3682 11.4212 19.3115 12.9377 17.7951C14.4541 16.2787 16.5107 15.4268 18.6553 15.4268H174.534C176.679 15.4268 178.735 16.2787 180.252 17.7951C181.768 19.3115 182.62 21.3682 182.62 23.5127Z" fill="#1E2C37"/>
<path id="Vector_2" style="mix-blend-mode:multiply" d="M124.092 168.799H69.1572L84.1971 142.745C89.7225 133.167 103.513 133.185 109.052 142.745L124.092 168.799Z" fill="url(#paint0_linear_2950_732)"/>
<path id="Vector_3" d="M182.616 23.5176V33.4543H10.5605V23.5176C10.5605 21.3731 11.4125 19.3164 12.9289 17.8C14.4453 16.2835 16.502 15.4316 18.6465 15.4316H174.525C175.588 15.4311 176.64 15.6398 177.621 16.0459C178.603 16.4519 179.495 17.0475 180.246 17.7984C180.997 18.5493 181.593 19.4409 182 20.4222C182.407 21.4035 182.616 22.4553 182.616 23.5176Z" fill="#4A5964"/>
<path id="Vector_4" d="M22.7574 27.9465C24.6951 27.9465 26.2658 26.3757 26.2658 24.4381C26.2658 22.5005 24.6951 20.9297 22.7574 20.9297C20.8198 20.9297 19.249 22.5005 19.249 24.4381C19.249 26.3757 20.8198 27.9465 22.7574 27.9465Z" fill="#F5F5F5"/>
<path id="Vector_5" d="M36.0318 27.9465C37.9695 27.9465 39.5402 26.3757 39.5402 24.4381C39.5402 22.5005 37.9695 20.9297 36.0318 20.9297C34.0942 20.9297 32.5234 22.5005 32.5234 24.4381C32.5234 26.3757 34.0942 27.9465 36.0318 27.9465Z" fill="#F5F5F5"/>
<path id="Vector_6" d="M174.517 170.151H18.6377C16.1376 170.145 13.7415 169.149 11.9737 167.382C10.2058 165.614 9.21003 163.218 9.2041 160.718V23.5127C9.21003 21.0126 10.2058 18.6165 11.9737 16.8487C13.7415 15.0808 16.1376 14.085 18.6377 14.0791H174.517C177.019 14.0791 179.418 15.073 181.187 16.8421C182.956 18.6113 183.95 21.0108 183.95 23.5127V160.709C183.951 161.948 183.708 163.176 183.235 164.321C182.761 165.467 182.066 166.508 181.19 167.385C180.314 168.262 179.274 168.958 178.129 169.432C176.984 169.907 175.756 170.151 174.517 170.151ZM18.6557 16.7654C16.8686 16.7654 15.1547 17.4754 13.891 18.739C12.6273 20.0027 11.9174 21.7166 11.9174 23.5037V160.709C11.9174 162.496 12.6273 164.21 13.891 165.473C15.1547 166.737 16.8686 167.447 18.6557 167.447H174.535C176.322 167.447 178.036 166.737 179.299 165.473C180.563 164.21 181.273 162.496 181.273 160.709V23.5127C181.273 21.7256 180.563 20.0117 179.299 18.748C178.036 17.4843 176.322 16.7744 174.535 16.7744L18.6557 16.7654Z" fill="#4A5964"/>
<path id="Vector_7" d="M102.803 145.812L126.585 187.006C127.211 188.091 127.54 189.321 127.54 190.574C127.54 191.827 127.21 193.057 126.583 194.142C125.957 195.227 125.056 196.127 123.972 196.754C122.887 197.38 121.656 197.71 120.404 197.711H72.8404C71.5878 197.71 70.3573 197.38 69.2725 196.754C68.1878 196.127 67.287 195.227 66.6606 194.142C66.0343 193.057 65.7044 191.827 65.7041 190.574C65.7038 189.321 66.0332 188.091 66.6591 187.006L90.4408 145.812C91.0673 144.727 91.9684 143.827 93.0534 143.2C94.1384 142.574 95.3692 142.244 96.622 142.244C97.8748 142.244 99.1056 142.574 100.191 143.2C101.276 143.827 102.177 144.727 102.803 145.812Z" fill="#13222C"/>
<path id="Vector_8" d="M120.404 199.059H72.8403C71.351 199.058 69.888 198.666 68.5983 197.922C67.3086 197.177 66.2375 196.106 65.4928 194.816C64.748 193.527 64.3558 192.064 64.3555 190.574C64.3552 189.085 64.7468 187.622 65.491 186.332L89.2772 145.152C90.0213 143.862 91.0921 142.79 92.3818 142.045C93.6715 141.3 95.1347 140.908 96.6242 140.908C98.1136 140.908 99.5768 141.3 100.866 142.045C102.156 142.79 103.227 143.862 103.971 145.152L127.753 186.346C128.495 187.635 128.885 189.097 128.884 190.585C128.883 192.073 128.49 193.534 127.745 194.822C127.001 196.11 125.93 197.18 124.642 197.923C123.353 198.667 121.891 199.058 120.404 199.059ZM91.6086 146.5L67.827 187.693C67.3213 188.573 67.0558 189.57 67.057 190.584C67.0582 191.599 67.3262 192.595 67.8341 193.474C68.3419 194.352 69.0718 195.081 69.9505 195.588C70.8291 196.096 71.8257 196.363 72.8403 196.363H120.404C121.42 196.364 122.418 196.096 123.299 195.588C124.179 195.081 124.91 194.35 125.419 193.47C125.927 192.59 126.195 191.592 126.196 190.575C126.196 189.559 125.929 188.56 125.421 187.68L101.635 146.5C101.128 145.619 100.397 144.888 99.5171 144.379C98.637 143.87 97.6384 143.603 96.6219 143.603C95.6054 143.603 94.6069 143.87 93.7268 144.379C92.8467 144.888 92.1161 145.619 91.6086 146.5Z" fill="#4A5964"/>
<path id="Vector_9" d="M91.9502 156.949V169.895L93.4102 177.981H96.6176V177.986L99.825 177.981L101.289 169.886L101.294 156.931L91.9502 156.949Z" fill="#E5BE20"/>
<path id="Vector_10" d="M100.126 183.754H93.1094V190.771H100.126V183.754Z" fill="#E5BE20"/>
<path id="Vector_11" d="M157.864 109.794H81.4922V116.213H157.864V109.794Z" fill="#DEE1EC"/>
<path id="Vector_12" d="M71.6234 109.794H35.1289V116.213H71.6234V109.794Z" fill="#DEE1EC"/>
<path id="Vector_13" d="M127.556 125.404H35.1289V131.824H127.556V125.404Z" fill="#DEE1EC"/>
<path id="Vector_14" d="M69.2648 98.3523H61.1475V81.282H37.5186V71.9293L59.382 47.7793H69.2648V98.3523ZM47.3564 73.1467H61.1475V57.9092L47.3564 73.1467Z" fill="#E5BE20"/>
<path id="Vector_15" d="M153.458 98.3525H145.322V81.2822H121.693V71.9295L143.575 47.7705H153.458V98.3525ZM131.545 73.1469H145.34V57.9094L131.545 73.1469Z" fill="#E5BE20"/>
<path id="Vector_16" d="M100.283 97.7191H92.9471C89.2925 97.7144 85.7891 96.2602 83.2054 93.6756C80.6216 91.0911 79.1686 87.5872 79.165 83.9326V61.5525C79.1686 57.8984 80.6218 54.395 83.2056 51.8111C85.7895 49.2273 89.2929 47.7741 92.9471 47.7705H100.283C103.937 47.7741 107.441 49.2271 110.026 51.8108C112.61 54.3946 114.065 57.898 114.069 61.5525V83.9326C114.065 87.5876 112.611 91.0915 110.026 93.6759C107.442 96.2604 103.938 97.7144 100.283 97.7191ZM92.9471 55.8834C91.4439 55.8846 90.0026 56.4823 88.9397 57.5452C87.8768 58.6081 87.2791 60.0494 87.2779 61.5525V83.9326C87.2791 85.4358 87.8768 86.8771 88.9397 87.94C90.0026 89.0029 91.4439 89.6006 92.9471 89.6018H100.283C101.786 89.6006 103.227 89.0029 104.29 87.94C105.353 86.8771 105.951 85.4358 105.952 83.9326V61.5525C105.951 60.0494 105.353 58.6081 104.29 57.5452C103.227 56.4823 101.786 55.8846 100.283 55.8834H92.9471Z" fill="#E5BE20"/>
<path id="Vector_17" d="M190.842 5.65341L185.35 11.1455L187.255 13.0514L192.748 7.55929L190.842 5.65341Z" fill="#4A5964"/>
<path id="Vector_18" d="M198.136 17.1562H190.369V19.8516H198.136V17.1562Z" fill="#4A5964"/>
<path id="Vector_19" d="M181.713 0.0546875H179.018V7.82168H181.713V0.0546875Z" fill="#4A5964"/>
<path id="Vector_20" d="M22.1866 180.142H19.4913V177.447H22.1866V180.142ZM14.743 179.743C13.7912 179.533 12.8582 179.246 11.9534 178.885L12.9461 176.378C13.7146 176.681 14.5063 176.921 15.3135 177.097L14.743 179.743ZM7.73072 176.517C6.95543 175.934 6.22834 175.29 5.5565 174.59L7.50162 172.721C8.07357 173.314 8.69251 173.859 9.3524 174.352L7.73072 176.517ZM2.69947 170.677C2.23524 169.824 1.84161 168.935 1.52251 168.018L4.06958 167.12C4.34226 167.893 4.67572 168.644 5.06685 169.366L2.69947 170.677ZM0.556694 163.279C0.50728 162.475 0.516264 161.958 0.516264 160.494H3.21158C3.21158 162.183 3.21158 162.452 3.24751 163.099L0.556694 163.279ZM3.21158 156.001H0.516264V153.306H3.21158V156.001ZM3.21158 148.814H0.516264V146.119H3.21158V148.814ZM3.21158 141.626H0.516264V138.931H3.21158V141.626ZM3.21158 134.439H0.516264V131.815H3.21158V134.439Z" fill="#909FA9"/>
<path id="Vector_21" d="M157.859 125.404H137.563V131.824H157.859V125.404Z" fill="#DEE1EC"/>
</g>
</g>
<defs>
<linearGradient id="paint0_linear_2950_732" x1="69.1572" y1="152.187" x2="124.092" y2="152.187" gradientUnits="userSpaceOnUse">
<stop stop-color="#CACFDD"/>
<stop offset="1" stop-color="#EEF0F1"/>
</linearGradient>
</defs>
</svg>
