<svg width="20" height="20" viewBox="0 0 20 20" fill="none" xmlns="http://www.w3.org/2000/svg">
<g id="vuesax/bold/facebook">
<g id="facebook">
<path id="Vector" d="M18.3332 13.491C18.3332 16.5244 16.5248 18.3327 13.4915 18.3327H12.4998C12.0415 18.3327 11.6665 17.9577 11.6665 17.4993V12.691C11.6665 12.466 11.8498 12.2744 12.0748 12.2744L13.5415 12.2494C13.6582 12.241 13.7582 12.1577 13.7832 12.041L14.0748 10.4494C14.0998 10.2994 13.9832 10.1577 13.8248 10.1577L12.0498 10.1827C11.8165 10.1827 11.6332 9.99936 11.6248 9.77436L11.5915 7.73268C11.5915 7.59935 11.6998 7.48269 11.8415 7.48269L13.8415 7.44935C13.9832 7.44935 14.0915 7.34103 14.0915 7.19936L14.0582 5.19934C14.0582 5.05767 13.9498 4.94935 13.8082 4.94935L11.5582 4.98269C10.1748 5.00769 9.07485 6.14101 9.09985 7.52435L9.1415 9.81601C9.14984 10.0493 8.96651 10.2327 8.73318 10.241L7.73317 10.2577C7.5915 10.2577 7.48318 10.366 7.48318 10.5077L7.50818 12.091C7.50818 12.2327 7.6165 12.341 7.75817 12.341L8.75818 12.3244C8.99151 12.3244 9.17483 12.5077 9.18316 12.7327L9.25816 17.4827C9.26649 17.9494 8.89149 18.3327 8.42482 18.3327H6.50817C3.47484 18.3327 1.6665 16.5243 1.6665 13.4827V6.50768C1.6665 3.47435 3.47484 1.66602 6.50817 1.66602H13.4915C16.5248 1.66602 18.3332 3.47435 18.3332 6.50768V13.491Z" fill="white" fill-opacity="0.8"/>
</g>
</g>
</svg>
