<svg xmlns="http://www.w3.org/2000/svg" width="20" height="20" viewBox="0 0 20 20" fill="none">
  <path d="M16.291 9.16404C15.9118 8.31063 15.3606 7.54466 14.6719 6.91404L14.1035 6.39255C14.0842 6.37533 14.061 6.36311 14.0359 6.35696C14.0107 6.35082 13.9845 6.35093 13.9594 6.35729C13.9344 6.36366 13.9112 6.37608 13.8921 6.39346C13.8729 6.41085 13.8584 6.43267 13.8496 6.45701L13.5957 7.18552C13.4375 7.64255 13.1465 8.10935 12.7344 8.56834C12.707 8.59763 12.6758 8.60545 12.6543 8.6074C12.6328 8.60935 12.5996 8.60545 12.5703 8.5781C12.543 8.55466 12.5293 8.51951 12.5312 8.48435C12.6035 7.30857 12.252 5.9824 11.4824 4.53904C10.8457 3.33982 9.96094 2.40427 8.85547 1.75193L8.04883 1.27732C7.94336 1.21482 7.80859 1.29685 7.81445 1.4199L7.85742 2.3574C7.88672 2.99802 7.8125 3.56443 7.63672 4.03513C7.42188 4.6113 7.11328 5.14646 6.71875 5.62693C6.44419 5.96084 6.13299 6.26287 5.79102 6.52732C4.96739 7.16046 4.29768 7.97172 3.83203 8.90037C3.36753 9.83711 3.12557 10.8685 3.125 11.914C3.125 12.8359 3.30664 13.7285 3.66602 14.5703C4.01302 15.3808 4.51379 16.1163 5.14063 16.7363C5.77344 17.3613 6.50781 17.8535 7.32617 18.1953C8.17383 18.5508 9.07227 18.7304 10 18.7304C10.9277 18.7304 11.8262 18.5508 12.6738 18.1972C13.4902 17.8574 14.2325 17.3619 14.8594 16.7383C15.4922 16.1133 15.9883 15.3828 16.334 14.5722C16.6928 13.7327 16.8769 12.829 16.875 11.916C16.875 10.9629 16.6797 10.0371 16.291 9.16404ZM13.9258 15.791C12.877 16.8301 11.4844 17.4004 10 17.4004C8.51562 17.4004 7.12305 16.8301 6.07422 15.791C5.0293 14.7539 4.45312 13.3789 4.45312 11.916C4.45312 11.0664 4.64453 10.2519 5.02148 9.49412C5.38867 8.75388 5.93555 8.09177 6.59961 7.58201C7.02312 7.25817 7.40725 6.88584 7.74414 6.47263C8.23242 5.87693 8.61523 5.21287 8.88086 4.49998C8.98982 4.20591 9.06899 3.90165 9.11719 3.59177C9.58789 4.02537 9.98242 4.5488 10.3125 5.16209C10.9648 6.38474 11.2656 7.47263 11.207 8.39841C11.193 8.61645 11.2286 8.83483 11.3112 9.03713C11.3937 9.23942 11.5211 9.42037 11.6836 9.56638C11.8245 9.69362 11.9892 9.7916 12.1682 9.85464C12.3473 9.91767 12.5371 9.9445 12.7266 9.93357C13.1113 9.91404 13.4648 9.74412 13.7227 9.45701C13.9824 9.16599 14.207 8.86912 14.3945 8.56638C14.668 8.91599 14.8965 9.29685 15.0781 9.70701C15.3887 10.4062 15.5469 11.1504 15.5469 11.916C15.5469 13.3789 14.9707 14.7558 13.9258 15.791Z" fill="#F8F8F8"/>
</svg>