<svg width="56" height="57" viewBox="0 0 56 57" fill="none" xmlns="http://www.w3.org/2000/svg">
<g id="Flashdisk">
<g id="Flashdisk_2">
<path id="Vector" d="M36.8083 51.9783C29.0813 54.3544 20.8316 54.4436 13.055 52.235L12.1917 51.9783C11.7048 51.839 11.2765 51.5452 10.9713 51.1411C10.6662 50.737 10.5007 50.2447 10.5 49.7383V16.5C10.5 15.8811 10.7458 15.2876 11.1834 14.85C11.621 14.4125 12.2145 14.1666 12.8333 14.1666H36.1667C36.7855 14.1666 37.379 14.4125 37.8166 14.85C38.2542 15.2876 38.5 15.8811 38.5 16.5V49.7383C38.4993 50.2447 38.3338 50.737 38.0287 51.1411C37.7235 51.5452 37.2952 51.839 36.8083 51.9783V51.9783Z" fill="#0E1525"/>
<path id="Vector_2" d="M30.3333 37.5V53.425C26.4633 53.9677 22.5366 53.9677 18.6666 53.425V37.5C18.6666 35.9529 19.2812 34.4691 20.3752 33.3752C21.4691 32.2812 22.9529 31.6666 24.5 31.6666C26.0471 31.6666 27.5308 32.2812 28.6247 33.3752C29.7187 34.4691 30.3333 35.9529 30.3333 37.5V37.5Z" fill="#D2D9E9"/>
<path id="Vector_3" d="M30.3333 37.5V53.425C26.4633 53.9677 22.5366 53.9677 18.6666 53.425V37.5C18.6666 35.9529 19.2812 34.4691 20.3752 33.3752C21.4691 32.2812 22.9529 31.6666 24.5 31.6666C26.0471 31.6666 27.5308 32.2812 28.6247 33.3752C29.7187 34.4691 30.3333 35.9529 30.3333 37.5V37.5Z" fill="#D2D9E9"/>
<path id="Vector_4" d="M33.8333 2.49996H15.1666V14.1666H33.8333V2.49996Z" fill="#D2D9E9"/>
<path id="Vector_5" d="M19.8333 8.33329C19.5239 8.33329 19.2271 8.21038 19.0083 7.99158C18.7895 7.77279 18.6666 7.47605 18.6666 7.16663V2.49996C18.6666 2.19054 18.7895 1.89379 19.0083 1.675C19.2271 1.45621 19.5239 1.33329 19.8333 1.33329C20.1427 1.33329 20.4395 1.45621 20.6583 1.675C20.877 1.89379 21 2.19054 21 2.49996V7.16663C21 7.47605 20.877 7.77279 20.6583 7.99158C20.4395 8.21038 20.1427 8.33329 19.8333 8.33329Z" fill="#0E1525"/>
<path id="Vector_6" d="M24.5 8.33329C24.1906 8.33329 23.8938 8.21038 23.675 7.99158C23.4562 7.77279 23.3333 7.47605 23.3333 7.16663V2.49996C23.3333 2.19054 23.4562 1.89379 23.675 1.675C23.8938 1.45621 24.1906 1.33329 24.5 1.33329C24.8094 1.33329 25.1061 1.45621 25.3249 1.675C25.5437 1.89379 25.6666 2.19054 25.6666 2.49996V7.16663C25.6666 7.47605 25.5437 7.77279 25.3249 7.99158C25.1061 8.21038 24.8094 8.33329 24.5 8.33329Z" fill="#0E1525"/>
<path id="Vector_7" d="M29.1667 8.33329C28.8572 8.33329 28.5605 8.21038 28.3417 7.99158C28.1229 7.77279 28 7.47605 28 7.16663V2.49996C28 2.19054 28.1229 1.89379 28.3417 1.675C28.5605 1.45621 28.8572 1.33329 29.1667 1.33329C29.4761 1.33329 29.7728 1.45621 29.9916 1.675C30.2104 1.89379 30.3333 2.19054 30.3333 2.49996V7.16663C30.3333 7.47605 30.2104 7.77279 29.9916 7.99158C29.7728 8.21038 29.4761 8.33329 29.1667 8.33329Z" fill="#0E1525"/>
<path id="Vector_8" d="M26.8333 20H22.1667C21.8572 20 21.5605 19.877 21.3417 19.6583C21.1229 19.4395 21 19.1427 21 18.8333C21 18.5239 21.1229 18.2271 21.3417 18.0083C21.5605 17.7895 21.8572 17.6666 22.1667 17.6666H26.8333C27.1428 17.6666 27.4395 17.7895 27.6583 18.0083C27.8771 18.2271 28 18.5239 28 18.8333C28 19.1427 27.8771 19.4395 27.6583 19.6583C27.4395 19.877 27.1428 20 26.8333 20Z" fill="#D2D9E9"/>
<path id="Vector_9" d="M29.1666 24.6666H19.8333C19.5239 24.6666 19.2271 24.5437 19.0083 24.3249C18.7895 24.1061 18.6666 23.8094 18.6666 23.5C18.6666 23.1905 18.7895 22.8938 19.0083 22.675C19.2271 22.4562 19.5239 22.3333 19.8333 22.3333H29.1666C29.476 22.3333 29.7728 22.4562 29.9916 22.675C30.2104 22.8938 30.3333 23.1905 30.3333 23.5C30.3333 23.8094 30.2104 24.1061 29.9916 24.3249C29.7728 24.5437 29.476 24.6666 29.1666 24.6666Z" fill="#D2D9E9"/>
<path id="Vector_10" d="M33.8333 35.1666V30.5C33.8333 29.2623 34.325 28.0753 35.2001 27.2001C36.0753 26.325 37.2623 25.8333 38.5 25.8333C39.7377 25.8333 40.9246 26.325 41.7998 27.2001C42.675 28.0753 43.1666 29.2623 43.1666 30.5V35.1666H33.8333Z" fill="#0E1525"/>
<path id="Vector_11" d="M43.1666 36.3333C42.8572 36.3333 42.5605 36.2104 42.3417 35.9916C42.1229 35.7728 42 35.476 42 35.1666V30.5C42 29.5717 41.6312 28.6815 40.9748 28.0251C40.3185 27.3687 39.4282 27 38.5 27C37.5717 27 36.6815 27.3687 36.0251 28.0251C35.3687 28.6815 35 29.5717 35 30.5V35.1666C35 35.476 34.877 35.7728 34.6583 35.9916C34.4395 36.2104 34.1427 36.3333 33.8333 36.3333C33.5239 36.3333 33.2271 36.2104 33.0083 35.9916C32.7895 35.7728 32.6666 35.476 32.6666 35.1666V30.5C32.6666 28.9529 33.2812 27.4691 34.3752 26.3752C35.4691 25.2812 36.9529 24.6666 38.5 24.6666C40.0471 24.6666 41.5308 25.2812 42.6247 26.3752C43.7187 27.4691 44.3333 28.9529 44.3333 30.5V35.1666C44.3333 35.476 44.2104 35.7728 43.9916 35.9916C43.7728 36.2104 43.476 36.3333 43.1666 36.3333Z" fill="#414141"/>
<path id="Vector_12" d="M44.3333 34H32.6666C31.378 34 30.3333 35.0446 30.3333 36.3333V45.6666C30.3333 46.9553 31.378 48 32.6666 48H44.3333C45.622 48 46.6666 46.9553 46.6666 45.6666V36.3333C46.6666 35.0446 45.622 34 44.3333 34Z" fill="#E5BE20"/>
<path id="Vector_13" d="M38.5 37.5C37.9908 37.5052 37.4973 37.6768 37.0947 37.9887C36.6921 38.3006 36.4027 38.7356 36.2705 39.2274C36.1383 39.7192 36.1706 40.2408 36.3625 40.7125C36.5544 41.1842 36.8954 41.5801 37.3333 41.84V43.3333C37.3333 43.6427 37.4563 43.9395 37.6751 44.1582C37.8938 44.377 38.1906 44.5 38.5 44.5C38.8094 44.5 39.1062 44.377 39.325 44.1582C39.5438 43.9395 39.6667 43.6427 39.6667 43.3333V41.84C40.1047 41.5801 40.4456 41.1842 40.6375 40.7125C40.8294 40.2408 40.8617 39.7192 40.7295 39.2274C40.5973 38.7356 40.3079 38.3006 39.9053 37.9887C39.5028 37.6768 39.0092 37.5052 38.5 37.5V37.5Z" fill="#0E1525"/>
<path id="Vector_14" d="M24.5 39.8333C25.7886 39.8333 26.8333 38.7886 26.8333 37.5C26.8333 36.2113 25.7886 35.1666 24.5 35.1666C23.2113 35.1666 22.1666 36.2113 22.1666 37.5C22.1666 38.7886 23.2113 39.8333 24.5 39.8333Z" fill="#0E1525"/>
<path id="Vector_15" d="M36.1666 13H35V2.49996C35 2.19054 34.8771 1.89379 34.6583 1.675C34.4395 1.45621 34.1427 1.33329 33.8333 1.33329H15.1666C14.8572 1.33329 14.5605 1.45621 14.3417 1.675C14.1229 1.89379 14 2.19054 14 2.49996V13H12.8333C11.9051 13 11.0148 13.3687 10.3584 14.0251C9.70206 14.6815 9.33332 15.5717 9.33332 16.5V49.7383C9.33224 50.5006 9.58006 51.2424 10.0391 51.851C10.4982 52.4595 11.1434 52.9016 11.8767 53.11C20.1049 55.6477 28.9068 55.6477 37.135 53.11C37.6376 52.9662 38.1032 52.7154 38.5 52.375C38.7335 52.1722 38.8769 51.8851 38.8988 51.5766C38.9207 51.2682 38.8192 50.9636 38.6166 50.73C38.5153 50.6135 38.3918 50.5182 38.2534 50.4498C38.115 50.3814 37.9644 50.3411 37.8103 50.3314C37.6561 50.3216 37.5016 50.3425 37.3557 50.3929C37.2097 50.4433 37.0752 50.5222 36.96 50.625C36.8343 50.7325 36.6871 50.812 36.5283 50.8583C28.718 53.2659 20.3637 53.2659 12.5533 50.8583C12.301 50.7877 12.0797 50.6343 11.9252 50.4226C11.7707 50.211 11.692 49.9535 11.7016 49.6916V16.5C11.7016 16.1905 11.8246 15.8938 12.0434 15.675C12.2622 15.4562 12.5589 15.3333 12.8683 15.3333H36.1666C36.4761 15.3333 36.7728 15.4562 36.9916 15.675C37.2104 15.8938 37.3333 16.1905 37.3333 16.5V21.1666C37.3333 21.476 37.4562 21.7728 37.675 21.9916C37.8938 22.2104 38.1906 22.3333 38.5 22.3333C38.8094 22.3333 39.1061 22.2104 39.3249 21.9916C39.5437 21.7728 39.6666 21.476 39.6666 21.1666V16.5C39.6666 15.5717 39.2979 14.6815 38.6415 14.0251C37.9851 13.3687 37.0949 13 36.1666 13V13ZM16.3333 13V3.66663H32.6666V13H16.3333Z" fill="#414141"/>
</g>
</g>
</svg>
