<svg xmlns="http://www.w3.org/2000/svg" width="97" height="42" viewBox="0 0 97 42" fill="none">
  <g clip-path="url(#clip0_1048_2140)">
    <path fill-rule="evenodd" clip-rule="evenodd" d="M58.9795 14.3244C57.4506 14.3244 56.2403 14.6667 55.0299 15.4196C55.0299 11.6548 55.0299 8.16369 55.1573 7L47.7041 8.4375V9.12202L48.4685 9.25893C49.4878 9.46429 49.8063 10.0804 49.9974 11.5179C50.1885 14.3929 50.1248 29.5208 49.9974 32.0536C51.9722 32.5327 54.0744 32.875 56.1766 32.875C62.0372 32.875 65.5409 28.9732 65.5409 22.8125C65.6046 17.8839 62.7379 14.3244 58.9795 14.3244ZM56.4314 31.506C55.9855 31.506 55.4121 31.506 55.0936 31.369C54.9662 29.7262 54.9025 22.744 54.9662 16.5833C55.6032 16.378 56.0492 16.2411 56.6225 16.2411C59.0432 16.2411 60.3809 19.3214 60.3809 23.0863C60.3809 27.878 58.7247 31.506 56.4314 31.506Z" fill="white"/>
    <path fill-rule="evenodd" clip-rule="evenodd" d="M19.9293 7.47852H0.5V8.57376L1.58295 8.71066C3.04811 8.91602 3.55773 9.87437 3.81254 12.1333C4.13105 16.3774 4.00365 24.1125 3.81254 27.8089C3.62143 30.0678 3.04811 31.0946 1.58295 31.2315L0.5 31.4369V32.3952H12.9857V31.4369L11.648 31.2315C10.1828 31.0946 9.67319 30.0678 9.41838 27.8089C9.29097 26.2345 9.22727 23.7702 9.22727 20.6899L11.9028 20.8268C13.5591 20.8268 14.3235 22.2643 14.642 24.2494H15.6612V15.7613H14.642C14.3235 17.7464 13.5591 19.1839 11.9028 19.1839L9.22727 19.3208C9.22727 15.2821 9.35468 11.5172 9.41838 9.25828H13.3042C16.2983 9.25828 17.8271 11.2434 18.9101 14.803L19.993 14.4607L19.9293 7.47852Z" fill="white"/>
    <path fill-rule="evenodd" clip-rule="evenodd" d="M26.1722 14.1191C31.7143 14.1191 34.4536 18.1578 34.4536 23.4971C34.4536 28.5625 31.3958 32.875 25.8537 32.875C20.3116 32.875 17.5723 28.8364 17.5723 23.4971C17.5723 18.3631 20.6938 14.1191 26.1722 14.1191ZM25.8537 15.2828C23.433 15.2828 22.796 18.8423 22.796 23.4286C22.796 27.9465 23.8789 31.5744 26.1085 31.5744C28.6566 31.5744 29.2936 28.0149 29.2936 23.4286C29.2936 18.9792 28.2107 15.2828 25.8537 15.2828Z" fill="white"/>
    <path fill-rule="evenodd" clip-rule="evenodd" d="M67.0059 23.5657C67.0059 18.7056 69.8726 14.0508 75.4784 14.0508C80.1287 14.0508 82.2946 17.7472 82.2946 22.6073H72.0385C71.911 26.9883 73.8858 30.2056 77.8991 30.2056C79.6828 30.2056 80.5746 29.7264 81.6576 28.905L82.1035 29.521C81.0205 31.1639 78.5998 32.8067 75.4784 32.8067C70.5733 32.8752 67.0059 29.0419 67.0059 23.5657ZM72.1022 21.3752L77.2621 21.2383C77.2621 18.8425 76.9436 15.2829 75.0325 15.2829C73.1851 15.2829 72.2296 18.6371 72.1022 21.3752Z" fill="white"/>
    <path fill-rule="evenodd" clip-rule="evenodd" d="M95.4802 15.0774C94.1425 14.4614 92.4225 14.1191 90.384 14.1191C86.3071 14.1191 83.7589 16.7203 83.7589 19.8006C83.7589 22.881 85.6063 24.1816 88.2818 25.1399C91.0211 26.2352 91.7855 27.0566 91.7855 28.4256C91.7855 29.8631 90.7662 31.1637 89.0463 31.1637C86.9441 31.1637 85.4152 29.8631 84.2049 26.3036L83.4404 26.509L83.5678 31.7114C84.9056 32.3274 87.3263 32.8066 89.4285 32.8066C93.7603 32.8066 96.4995 30.4108 96.4995 26.7828C96.4995 24.3185 95.2891 22.881 92.4225 21.7173C89.3648 20.4167 88.2181 19.5953 88.2181 18.0209C88.2181 16.4465 89.2374 15.4197 90.5114 15.4197C92.4862 15.4197 93.824 16.7203 94.8432 19.9375L95.6076 19.7322L95.4802 15.0774Z" fill="white"/>
    <path fill-rule="evenodd" clip-rule="evenodd" d="M48.7868 14.5989C46.9394 13.4352 43.6268 13.9829 41.8432 18.2954L41.9706 14.1198L34.5811 15.6942V16.3787L35.3455 16.5156C36.3647 16.6525 36.8106 17.2001 36.8744 18.7745C37.0655 21.6495 37.0018 26.5781 36.8744 29.1108C36.7469 30.5483 36.301 31.2329 35.3455 31.3698L34.5811 31.5067V32.465H44.8372V31.5067L43.4994 31.3698C42.4165 31.2329 42.0343 30.5483 41.9706 29.1108C41.7795 26.8519 41.7795 22.3341 41.8432 19.5275C42.4165 18.7061 44.8372 17.9531 47.0031 19.5275L48.7868 14.5989Z" fill="white"/>
  </g>
  <defs>
    <clipPath id="clip0_1048_2140">
      <rect width="96" height="42" fill="white" transform="translate(0.5)"/>
    </clipPath>
  </defs>
</svg>