<svg xmlns="http://www.w3.org/2000/svg" width="17" height="16" viewBox="0 0 17 16" fill="none">
  <g clip-path="url(#clip0_2324_1639)">
    <path d="M16.2313 6.2154H11.6598C11.5813 6.2154 11.517 6.27969 11.517 6.35826V7.2154C11.517 7.29397 11.5813 7.35826 11.6598 7.35826H16.2313C16.3098 7.35826 16.3741 7.29397 16.3741 7.2154V6.35826C16.3741 6.27969 16.3098 6.2154 16.2313 6.2154ZM13.8384 8.64397H11.6598C11.5813 8.64397 11.517 8.70826 11.517 8.78683V9.64397C11.517 9.72255 11.5813 9.78683 11.6598 9.78683H13.8384C13.917 9.78683 13.9813 9.72255 13.9813 9.64397V8.78683C13.9813 8.70826 13.917 8.64397 13.8384 8.64397ZM7.87946 4.61719H7.10625C6.99554 4.61719 6.90625 4.70647 6.90625 4.81719V9.24576C6.90625 9.31005 6.93661 9.36897 6.98839 9.40647L9.64732 11.3458C9.73661 11.41 9.86161 11.3922 9.92589 11.3029L10.3848 10.6761V10.6743C10.4491 10.585 10.4295 10.46 10.3402 10.3958L8.07768 8.76005V4.81719C8.07946 4.70647 7.98839 4.61719 7.87946 4.61719Z" fill="#D1D1D1"/>
    <path d="M13.7303 10.8915H12.6981C12.5981 10.8915 12.5035 10.9433 12.4499 11.029C12.2228 11.389 11.9563 11.7226 11.6553 12.0236C11.137 12.5436 10.5226 12.9578 9.84633 13.2433C9.14454 13.5397 8.3999 13.6897 7.63204 13.6897C6.8624 13.6897 6.11776 13.5397 5.41776 13.2433C4.74097 12.9576 4.13204 12.5469 3.60883 12.0236C3.08562 11.5004 2.6749 10.8915 2.38919 10.2147C2.09276 9.51472 1.94276 8.77008 1.94276 8.00043C1.94276 7.23079 2.09276 6.48793 2.38919 5.78615C2.6749 5.10936 3.08562 4.50043 3.60883 3.97722C4.13204 3.45401 4.74097 3.04329 5.41776 2.75758C6.11776 2.46115 6.86419 2.31115 7.63204 2.31115C8.40169 2.31115 9.14633 2.46115 9.84633 2.75758C10.5231 3.04329 11.132 3.45401 11.6553 3.97722C11.9563 4.27823 12.2228 4.61184 12.4499 4.97186C12.5035 5.05758 12.5981 5.10936 12.6981 5.10936H13.7303C13.8535 5.10936 13.932 4.98079 13.8767 4.87186C12.7124 2.55579 10.3517 1.05043 7.71597 1.02008C3.85704 0.971862 0.651686 4.13079 0.644543 7.98615C0.637401 11.8486 3.76776 14.9826 7.63026 14.9826C10.2999 14.9826 12.6999 13.4719 13.8767 11.129C13.8892 11.104 13.8952 11.0762 13.894 11.0483C13.8928 11.0204 13.8844 10.9932 13.8697 10.9694C13.8551 10.9456 13.8345 10.9259 13.8101 10.9123C13.7857 10.8987 13.7582 10.8915 13.7303 10.8915Z" fill="#D1D1D1"/>
  </g>
  <defs>
    <clipPath id="clip0_2324_1639">
      <rect width="16" height="16" fill="white" transform="translate(0.5)"/>
    </clipPath>
  </defs>
</svg>