<svg xmlns="http://www.w3.org/2000/svg" width="42" height="42" viewBox="0 0 42 42" fill="none">
  <g clip-path="url(#clip0_547_5361)">
    <path d="M20.125 38.5C30.2732 38.5 38.5 30.2732 38.5 20.125C38.5 9.97677 30.2732 1.75 20.125 1.75C9.97677 1.75 1.75 9.97677 1.75 20.125C1.75 30.2732 9.97677 38.5 20.125 38.5Z" fill="#F8F9F9"/>
    <path d="M38.5 19.2505H30.625C30.5834 16.3808 30.1597 13.5295 29.365 10.7717C30.9225 9.92528 32.3539 8.86499 33.6175 7.62172C33.7823 7.45695 33.8748 7.23348 33.8748 7.00047C33.8748 6.76746 33.7823 6.54399 33.6175 6.37922C33.4527 6.21445 33.2293 6.12189 32.9963 6.12189C32.7632 6.12189 32.5398 6.21445 32.375 6.37922C31.2989 7.43056 30.0899 8.33659 28.7787 9.07422C24.6488 -1.87203 15.61 -1.85453 11.4888 9.07422C10.1714 8.33787 8.95648 7.4318 7.875 6.37922C7.70661 6.23698 7.49073 6.16353 7.27053 6.17356C7.05033 6.1836 6.84203 6.27637 6.68727 6.43334C6.53251 6.59031 6.4427 6.79991 6.43579 7.02023C6.42888 7.24055 6.50538 7.45536 6.65 7.62172C7.91358 8.86499 9.34497 9.92528 10.9025 10.7717C10.1019 13.5287 9.67231 16.38 9.625 19.2505H1.75C1.51794 19.2505 1.29538 19.3427 1.13128 19.5068C0.967187 19.6708 0.875 19.8934 0.875 20.1255C0.875 20.3575 0.967187 20.5801 1.13128 20.7442C1.29538 20.9083 1.51794 21.0005 1.75 21.0005H9.625C9.66661 23.8701 10.0903 26.7215 10.885 29.4792C9.32747 30.3257 7.89608 31.386 6.6325 32.6292C6.46773 32.794 6.37517 33.0175 6.37517 33.2505C6.37517 33.4835 6.46773 33.707 6.6325 33.8717C6.79727 34.0365 7.02074 34.1291 7.25375 34.1291C7.48676 34.1291 7.71023 34.0365 7.875 33.8717C8.95107 32.8204 10.1601 31.9144 11.4712 31.1767C15.6012 42.123 24.64 42.1055 28.7612 31.1767C32.0862 33.0667 32.1475 34.1255 32.9787 34.1255C33.1518 34.1247 33.3208 34.0727 33.4642 33.976C33.6077 33.8792 33.7193 33.7421 33.7849 33.582C33.8504 33.4218 33.867 33.2458 33.8326 33.0762C33.7981 32.9066 33.7141 32.7511 33.5912 32.6292C32.3277 31.386 30.8963 30.3257 29.3387 29.4792C30.1423 26.7227 30.5749 23.8713 30.625 21.0005H38.5C38.7321 21.0005 38.9546 20.9083 39.1187 20.7442C39.2828 20.5801 39.375 20.3575 39.375 20.1255C39.375 19.8934 39.2828 19.6708 39.1187 19.5068C38.9546 19.3427 38.7321 19.2505 38.5 19.2505ZM28.875 19.2505H21V13.1255C23.3109 13.0294 25.5851 12.5135 27.7113 11.603C28.4186 14.0932 28.8095 16.6626 28.875 19.2505ZM27.125 9.88797C25.191 10.7528 23.1152 11.257 21 11.3755V2.71297C23.4937 3.23797 25.7162 5.97672 27.125 9.88797ZM19.25 2.71297V11.3755C17.1375 11.2708 15.0619 10.7815 13.125 9.93172C14.5337 5.97672 16.7563 3.23797 19.25 2.71297ZM12.5387 11.5592C14.6621 12.4848 16.9363 13.0156 19.25 13.1255V19.2505H11.375C11.4368 16.6479 11.8278 14.0636 12.5387 11.5592ZM11.375 21.0005H19.25V27.1692C16.9391 27.2653 14.6649 27.7812 12.5387 28.6917C11.8278 26.1874 11.4368 23.6031 11.375 21.0005ZM13.125 30.363C15.0619 29.5132 17.1375 29.0239 19.25 28.9192V37.538C16.7563 37.013 14.5337 34.2742 13.125 30.363ZM21 37.538V28.9192C23.1125 29.0239 25.1881 29.5132 27.125 30.363C25.7162 34.2742 23.4937 37.013 21 37.538ZM27.7113 28.6917C25.5851 27.7812 23.3109 27.2653 21 27.1692V21.0005H28.875C28.8132 23.6031 28.4222 26.1874 27.7113 28.6917Z" fill="#2A3E4E"/>
    <path d="M20.125 39.375C16.3177 39.375 12.5959 38.246 9.43028 36.1308C6.26464 34.0156 3.79731 31.0091 2.34033 27.4917C0.883341 23.9742 0.502127 20.1037 1.24489 16.3695C1.98766 12.6354 3.82104 9.20536 6.5132 6.5132C9.20536 3.82104 12.6354 1.98766 16.3695 1.24489C20.1037 0.502127 23.9742 0.883341 27.4917 2.34033C31.0091 3.79731 34.0156 6.26464 36.1308 9.43028C38.246 12.5959 39.375 16.3177 39.375 20.125C39.375 25.2304 37.3469 30.1267 33.7368 33.7368C30.1267 37.3469 25.2304 39.375 20.125 39.375ZM20.125 2.62501C16.6638 2.62501 13.2804 3.65137 10.4025 5.57429C7.52467 7.49722 5.28165 10.2303 3.95712 13.428C2.63258 16.6258 2.28602 20.1444 2.96127 23.5391C3.63651 26.9338 5.30322 30.052 7.75064 32.4994C10.1981 34.9468 13.3163 36.6135 16.7109 37.2888C20.1056 37.964 23.6243 37.6174 26.822 36.2929C30.0197 34.9684 32.7528 32.7254 34.6757 29.8475C36.5987 26.9696 37.625 23.5862 37.625 20.125C37.625 15.4837 35.7813 11.0325 32.4994 7.75064C29.2175 4.46875 24.7663 2.62501 20.125 2.62501Z" fill="#2A3E4E"/>
    <path d="M33.25 41.125C30.9569 40.3596 28.9627 38.8924 27.5494 36.9311C26.1361 34.9698 25.3754 32.6137 25.375 30.1962V22.75C26.7217 23.0192 28.1141 22.9515 29.4283 22.5531C30.7426 22.1547 31.9382 21.4379 32.9088 20.4662L33.25 20.125L33.5912 20.4662C34.5609 21.4392 35.7564 22.1569 37.071 22.5554C38.3855 22.9539 39.7783 23.0207 41.125 22.75V30.1962C41.1246 32.6137 40.3639 34.9698 38.9506 36.9311C37.5373 38.8924 35.5431 40.3596 33.25 41.125Z" fill="#E5BE20"/>
  </g>
  <defs>
    <clipPath id="clip0_547_5361">
      <rect width="42" height="42" fill="white"/>
    </clipPath>
  </defs>
</svg>