<svg xmlns="http://www.w3.org/2000/svg" width="16" height="17" viewBox="0 0 16 17" fill="none">
  <g clip-path="url(#clip0_1048_2517)">
    <path d="M14.1143 13.6589C14.1179 13.6536 14.1232 13.6482 14.1268 13.6429C15.2964 12.2518 16 10.4589 16 8.5C16 6.54107 15.2964 4.74821 14.1286 3.35714C14.125 3.35179 14.1196 3.34821 14.1161 3.34286C14.0964 3.31964 14.0786 3.29821 14.0589 3.27679C14.0518 3.26786 14.0446 3.26071 14.0375 3.25179L13.9643 3.16786L13.9625 3.16607C13.9357 3.13571 13.9071 3.10536 13.8804 3.075L13.8786 3.07321C13.8214 3.0125 13.7643 2.95179 13.7054 2.89286L13.7036 2.89107L13.6179 2.80536L13.6125 2.8C13.5857 2.77321 13.5589 2.74821 13.5321 2.72321C13.5232 2.71429 13.5143 2.70536 13.5036 2.69643C13.4857 2.67857 13.4679 2.6625 13.45 2.64643C13.4446 2.64107 13.4375 2.63571 13.4321 2.62857C12.0071 1.30714 10.0982 0.5 8 0.5C5.90179 0.5 3.99286 1.30714 2.56607 2.62857C2.56071 2.63393 2.55357 2.63929 2.54821 2.64643C2.53036 2.6625 2.5125 2.68036 2.49464 2.69821C2.48571 2.70714 2.47679 2.71607 2.46607 2.725C2.43929 2.75 2.4125 2.77679 2.38571 2.80179L2.38036 2.80714L2.29464 2.89286L2.29286 2.89464C2.23393 2.95357 2.17679 3.01429 2.11964 3.075L2.11786 3.07679C2.08929 3.10714 2.0625 3.1375 2.03571 3.16786L2.03393 3.16964C2.00893 3.19643 1.98393 3.225 1.96071 3.25357C1.95357 3.2625 1.94643 3.26964 1.93929 3.27857C1.91964 3.3 1.90179 3.32321 1.88214 3.34464C1.87857 3.35 1.87321 3.35357 1.86964 3.35893C0.703571 4.74821 0 6.54107 0 8.5C0 10.4589 0.703571 12.2518 1.87143 13.6429C1.875 13.6482 1.88036 13.6536 1.88393 13.6589L1.93929 13.725C1.94643 13.7339 1.95357 13.7411 1.96071 13.75L2.03393 13.8339C2.03393 13.8357 2.03571 13.8357 2.03571 13.8375C2.0625 13.8679 2.08929 13.8982 2.11786 13.9268L2.11964 13.9286C2.17679 13.9893 2.23393 14.05 2.29107 14.1089L2.29286 14.1107C2.32143 14.1393 2.34821 14.1679 2.37679 14.1946L2.38214 14.2C2.44107 14.2589 2.50179 14.3161 2.5625 14.3714C3.99286 15.6929 5.90179 16.5 8 16.5C10.0982 16.5 12.0071 15.6929 13.4339 14.3714C13.4948 14.3157 13.5543 14.2585 13.6125 14.2L13.6179 14.1946C13.6464 14.1661 13.675 14.1393 13.7018 14.1107L13.7036 14.1089C13.7625 14.05 13.8196 13.9893 13.875 13.9286L13.8768 13.9268C13.9036 13.8964 13.9321 13.8679 13.9589 13.8375C13.9589 13.8357 13.9607 13.8357 13.9607 13.8339C13.9857 13.8071 14.0107 13.7786 14.0339 13.75C14.0411 13.7411 14.0482 13.7339 14.0554 13.725C14.0755 13.7035 14.0952 13.6814 14.1143 13.6589ZM14.1875 11.1125C13.9411 11.6946 13.6161 12.2339 13.2196 12.7232C12.7732 12.3374 12.285 12.0026 11.7643 11.725C11.9714 10.8875 12.1 9.96786 12.1339 9H14.6964C14.6429 9.73036 14.4714 10.4393 14.1875 11.1125ZM14.6964 8H12.1339C12.1 7.03214 11.9714 6.1125 11.7643 5.275C12.2875 4.99643 12.775 4.66071 13.2196 4.27679C14.0814 5.33745 14.5968 6.63703 14.6964 8ZM10.6125 2.3125C11.3214 2.6125 11.9661 3.02679 12.5339 3.54821C12.2041 3.82909 11.849 4.07896 11.4732 4.29464C11.1929 3.49107 10.8339 2.79286 10.4161 2.23393C10.4821 2.25893 10.5482 2.28571 10.6125 2.3125ZM8.99464 14.8232C8.83036 14.9518 8.66607 15.05 8.5 15.1161V11.8036C9.20856 11.853 9.90534 12.0108 10.5661 12.2714C10.4179 12.7107 10.2464 13.1161 10.0482 13.4821C9.7375 14.0607 9.37321 14.5232 8.99464 14.8232ZM10.0482 3.51786C10.2446 3.88571 10.4179 4.29107 10.5661 4.72857C9.90534 4.98921 9.20856 5.14699 8.5 5.19643V1.88571C8.66429 1.95179 8.83036 2.04821 8.99464 2.17857C9.37321 2.47679 9.7375 2.93929 10.0482 3.51786ZM8.5 10.8018V9H11.1339C11.1054 9.78929 11.0071 10.5554 10.8429 11.2821L10.8375 11.3036C10.0881 11.0194 9.30001 10.8502 8.5 10.8018ZM8.5 8V6.19821C9.31786 6.14821 10.1036 5.975 10.8375 5.69643L10.8429 5.71786C11.0071 6.44464 11.1054 7.20893 11.1339 8H8.5ZM7.5 9V10.8018C6.68214 10.8518 5.89643 11.025 5.1625 11.3036L5.15714 11.2821C4.99286 10.5554 4.89464 9.79107 4.86607 9H7.5ZM4.86607 8C4.89464 7.21071 4.99286 6.44464 5.15714 5.71786L5.1625 5.69643C5.89643 5.975 6.68036 6.14821 7.5 6.19821V8H4.86607ZM7.5 11.8036V15.1143C7.33571 15.0482 7.16964 14.9518 7.00536 14.8214C6.62679 14.5232 6.26072 14.0589 5.95 13.4804C5.75357 13.1125 5.58036 12.7071 5.43214 12.2696C6.09643 12.0089 6.7875 11.8536 7.5 11.8036ZM7.5 5.19643C6.79144 5.14699 6.09466 4.98921 5.43393 4.72857C5.58214 4.28929 5.75357 3.88393 5.95179 3.51786C6.2625 2.93929 6.62679 2.475 7.00714 2.17679C7.17143 2.04821 7.33571 1.95 7.50179 1.88393V5.19643H7.5ZM5.3875 2.3125C5.45357 2.28571 5.51786 2.25893 5.58393 2.23393C5.16607 2.79286 4.80714 3.49107 4.52679 4.29464C4.15179 4.08036 3.79643 3.83036 3.46607 3.54821C4.03393 3.02679 4.67857 2.6125 5.3875 2.3125ZM1.8125 5.8875C2.05893 5.30536 2.38393 4.76607 2.78036 4.27679C3.225 4.66071 3.7125 4.99643 4.23571 5.275C4.02857 6.1125 3.9 7.03214 3.86607 8H1.30357C1.35714 7.26964 1.52857 6.56071 1.8125 5.8875ZM1.30357 9H3.86607C3.9 9.96786 4.02857 10.8875 4.23571 11.725C3.71497 12.0026 3.22682 12.3374 2.78036 12.7232C1.91862 11.6625 1.40316 10.363 1.30357 9ZM5.3875 14.6875C4.67857 14.3875 4.03393 13.9732 3.46607 13.4518C3.79643 13.1696 4.15179 12.9214 4.52679 12.7054C4.80714 13.5089 5.16607 14.2071 5.58393 14.7661C5.51786 14.7411 5.45179 14.7143 5.3875 14.6875ZM10.6125 14.6875C10.5464 14.7143 10.4821 14.7411 10.4161 14.7661C10.8339 14.2071 11.1929 13.5089 11.4732 12.7054C11.8482 12.9196 12.2036 13.1696 12.5339 13.4518C11.9692 13.971 11.3192 14.3891 10.6125 14.6875Z" fill="#F2F2F2"/>
  </g>
  <defs>
    <clipPath id="clip0_1048_2517">
      <rect width="16" height="16" fill="white" transform="translate(0 0.5)"/>
    </clipPath>
  </defs>
</svg>