<svg xmlns="http://www.w3.org/2000/svg" width="18" height="19" viewBox="0 0 18 19" fill="none">
  <path d="M2.83725 2.6195L9 1.25L15.1627 2.6195C15.3293 2.65652 15.4782 2.74922 15.585 2.8823C15.6918 3.01538 15.75 3.18089 15.75 3.3515V10.8417C15.7499 11.5826 15.567 12.3119 15.2174 12.965C14.8678 13.6181 14.3624 14.1749 13.746 14.5858L9 17.75L4.254 14.5858C3.63771 14.1749 3.13235 13.6183 2.78276 12.9653C2.43318 12.3124 2.25018 11.5832 2.25 10.8425V3.3515C2.25003 3.18089 2.30823 3.01538 2.41499 2.8823C2.52176 2.74922 2.6707 2.65652 2.83725 2.6195Z" fill="#67AA94"/>
</svg>