<svg width="42" height="55" viewBox="0 0 42 55" fill="none" xmlns="http://www.w3.org/2000/svg">
<g id="Hacker">
<path id="Vector" d="M31.5 14.6654L29.6567 4.51537C29.5198 3.76149 29.1224 3.07968 28.5338 2.58917C27.9452 2.09867 27.2029 1.83067 26.4367 1.83204C24.9083 1.83204 24.2317 2.9987 21.5017 2.9987H20.4983C19.2837 3.00506 18.0847 2.72528 16.9983 2.18204C16.5454 1.95687 16.0463 1.83998 15.5405 1.84057C15.0346 1.84116 14.5358 1.95922 14.0834 2.18544C13.6309 2.41166 13.2372 2.73987 12.9332 3.14419C12.6292 3.54851 12.4233 4.0179 12.3317 4.51537L10.5 14.6654H31.5Z" fill="#E5BE20"/>
<path id="Vector_2" d="M29.1666 14.666V21.2927C29.1678 23.1005 28.5991 24.8627 27.5414 26.3287C26.4837 27.7948 24.9909 28.8903 23.275 29.4593C18.235 31.1393 12.8333 26.8577 12.8333 21.2927V14.666H29.1666Z" fill="#16242F"/>
<path id="Vector_3" d="M40.8334 38.501V49.666C40.8334 50.5943 40.4646 51.4845 39.8082 52.1409C39.1518 52.7973 38.2616 53.166 37.3334 53.166H4.66669C3.73843 53.166 2.84819 52.7973 2.19181 52.1409C1.53544 51.4845 1.16669 50.5943 1.16669 49.666V38.501C1.16758 37.3873 1.56674 36.3107 2.29205 35.4655C3.01737 34.6204 4.02101 34.0625 5.12169 33.8927L16.3334 32.166L18.9 34.091C19.5059 34.5454 20.2427 34.791 21 34.791C21.7573 34.791 22.4942 34.5454 23.1 34.091L25.6667 32.166L36.8784 33.8927C37.979 34.0625 38.9827 34.6204 39.708 35.4655C40.4333 36.3107 40.8325 37.3873 40.8334 38.501Z" fill="#16242F"/>
<path id="Vector_4" d="M25.6666 28.2227V32.166L23.1 34.091C22.4941 34.5454 21.7573 34.791 21 34.791C20.2427 34.791 19.5058 34.5454 18.9 34.091L16.3333 32.166V28.2227C17.6663 29.2633 19.3089 29.8286 21 29.8286C22.6911 29.8286 24.3337 29.2633 25.6666 28.2227Z" fill="#16242F"/>
<path id="Vector_5" d="M12.8334 14.666V20.4993H11.0834C10.3098 20.4993 9.56794 20.1921 9.02096 19.6451C8.47398 19.0981 8.16669 18.3562 8.16669 17.5827C8.16669 16.8091 8.47398 16.0673 9.02096 15.5203C9.56794 14.9733 10.3098 14.666 11.0834 14.666H12.8334Z" fill="#16242F"/>
<path id="Vector_6" d="M33.8334 17.5827C33.8334 18.3563 33.5261 19.0981 32.9791 19.6451C32.4321 20.1921 31.6902 20.4994 30.9167 20.4994H29.1667V14.666H30.9167C31.3001 14.6645 31.6801 14.7389 32.0347 14.8849C32.3892 15.0309 32.7114 15.2457 32.9825 15.5169C33.2537 15.788 33.4684 16.1102 33.6145 16.4647C33.7605 16.8193 33.8349 17.1993 33.8334 17.5827Z" fill="#16242F"/>
<path id="Vector_7" d="M14 15.832V20.4987H19.8333L21 19.332L22.1667 20.4987H28V15.832H14Z" fill="#BEC6C6"/>
<path id="Vector_8" d="M37.0533 32.7377L26.8333 31.1627V28.7593C27.8792 27.8865 28.7309 26.8045 29.3337 25.5829C29.9365 24.3613 30.277 23.0271 30.3333 21.666H30.9517C31.6405 21.6667 32.3182 21.4927 32.9214 21.1601C33.5247 20.8276 34.0337 20.3475 34.4008 19.7647C34.768 19.1819 34.9813 18.5155 35.0208 17.8278C35.0603 17.1401 34.9247 16.4537 34.6267 15.8327H35C35.3094 15.8327 35.6062 15.7098 35.825 15.491C36.0438 15.2722 36.1667 14.9754 36.1667 14.666C36.1667 14.3566 36.0438 14.0598 35.825 13.8411C35.6062 13.6223 35.3094 13.4993 35 13.4993H32.4683L30.8 4.30602C30.6142 3.28432 30.0756 2.36028 29.2782 1.69506C28.4808 1.02984 27.4751 0.665651 26.4367 0.666016C24.5 0.666016 24.045 1.83268 21.5017 1.83268C20.129 1.96585 18.7459 1.72391 17.5 1.13268C16.8859 0.836106 16.2118 0.68481 15.5298 0.690503C14.8479 0.696197 14.1764 0.858728 13.5673 1.16552C12.9583 1.47231 12.428 1.91513 12.0174 2.45971C11.6069 3.00429 11.3272 3.63602 11.2 4.30602L9.53167 13.4993H7C6.69058 13.4993 6.39383 13.6223 6.17504 13.8411C5.95625 14.0598 5.83333 14.3566 5.83333 14.666C5.83333 14.9754 5.95625 15.2722 6.17504 15.491C6.39383 15.7098 6.69058 15.8327 7 15.8327H7.40833C7.11031 16.4537 6.9747 17.1401 7.01419 17.8278C7.05369 18.5155 7.267 19.1819 7.63416 19.7647C8.00132 20.3475 8.51033 20.8276 9.11356 21.1601C9.71679 21.4927 10.3945 21.6667 11.0833 21.666H11.6667C11.723 23.0271 12.0635 24.3613 12.6663 25.5829C13.2691 26.8045 14.1208 27.8865 15.1667 28.7593V31.1627L4.94667 32.7377C3.5698 32.9494 2.31416 33.6469 1.40687 34.704C0.499573 35.7611 0.000530064 37.108 0 38.501V49.666C0 50.9037 0.491665 52.0907 1.36683 52.9658C2.242 53.841 3.42899 54.3327 4.66667 54.3327H10.5C10.8094 54.3327 11.1062 54.2098 11.325 53.991C11.5437 53.7722 11.6667 53.4754 11.6667 53.166C11.6667 52.8566 11.5437 52.5598 11.325 52.3411C11.1062 52.1223 10.8094 51.9993 10.5 51.9993H4.66667C4.04783 51.9993 3.45434 51.7535 3.01675 51.3159C2.57917 50.8783 2.33333 50.2849 2.33333 49.666V38.501C2.32338 37.6587 2.61757 36.841 3.16191 36.1981C3.70625 35.5551 4.46421 35.1301 5.29667 35.001L16.03 33.3443C18.1067 34.9077 19.0633 35.8993 21 35.8993C22.9367 35.8993 23.94 34.8727 25.97 33.3443L36.7033 35.001C37.5358 35.1301 38.2937 35.5551 38.8381 36.1981C39.3824 36.841 39.6766 37.6587 39.6667 38.501V49.666C39.6667 50.2849 39.4208 50.8783 38.9832 51.3159C38.5457 51.7535 37.9522 51.9993 37.3333 51.9993H31.5C31.1906 51.9993 30.8938 52.1223 30.675 52.3411C30.4562 52.5598 30.3333 52.8566 30.3333 53.166C30.3333 53.4754 30.4562 53.7722 30.675 53.991C30.8938 54.2098 31.1906 54.3327 31.5 54.3327H37.3333C38.571 54.3327 39.758 53.841 40.6332 52.9658C41.5083 52.0907 42 50.9037 42 49.666V38.501C41.9995 37.108 41.5004 35.7611 40.5931 34.704C39.6858 33.6469 38.4302 32.9494 37.0533 32.7377ZM30.9167 19.3327H30.3333V15.8327H30.9167C31.3808 15.8327 31.8259 16.0171 32.1541 16.3452C32.4823 16.6734 32.6667 17.1186 32.6667 17.5827C32.6667 18.0468 32.4823 18.4919 32.1541 18.8201C31.8259 19.1483 31.3808 19.3327 30.9167 19.3327ZM13.4983 4.72602C13.5567 4.406 13.6886 4.10391 13.8836 3.84358C14.0786 3.58324 14.3315 3.37177 14.6222 3.22584C14.9129 3.07992 15.2336 3.00352 15.5589 3.00268C15.8842 3.00185 16.2052 3.07659 16.4967 3.22102C18.0541 3.96692 19.7795 4.29269 21.5017 4.16602C22.8906 4.16378 24.2602 3.84035 25.5033 3.22102C25.7948 3.07659 26.1158 3.00185 26.4411 3.00268C26.7664 3.00352 27.0871 3.07992 27.3778 3.22584C27.6685 3.37177 27.9214 3.58324 28.1164 3.84358C28.3114 4.10391 28.4433 4.406 28.5017 4.72602L30.1 13.4993H11.9L13.4983 4.72602ZM9.33333 17.5827C9.33333 17.1186 9.51771 16.6734 9.8459 16.3452C10.1741 16.0171 10.6192 15.8327 11.0833 15.8327H11.6667V19.3327H11.0833C10.6192 19.3327 10.1741 19.1483 9.8459 18.8201C9.51771 18.4919 9.33333 18.0468 9.33333 17.5827ZM14 21.2927V15.8327H28V21.2927C27.9987 22.8555 27.5056 24.3782 26.5906 25.6451C25.6755 26.912 24.3849 27.8587 22.9017 28.351C18.795 29.7277 14 26.251 14 21.2927ZM22.4 33.1577C21.9961 33.4606 21.5049 33.6243 21 33.6243C20.4951 33.6243 20.0039 33.4606 19.6 33.1577L17.5 31.5827V30.206C17.7765 30.3434 18.0608 30.4641 18.3517 30.5677C20.0709 31.1397 21.9291 31.1397 23.6483 30.5677C23.9392 30.4641 24.2235 30.3434 24.5 30.206V31.5827L22.4 33.1577Z" fill="#2A3E4E"/>
<path id="Vector_9" d="M32.2467 38.0003H9.75335C9.24141 37.9934 8.73419 38.099 8.26746 38.3094C7.80074 38.5199 7.38587 38.8302 7.05213 39.2185C6.71838 39.6067 6.47387 40.0635 6.33586 40.5565C6.19785 41.0496 6.16968 41.5669 6.25335 42.072L8.16669 53.3537C8.21141 53.6297 8.35381 53.8805 8.56795 54.0604C8.78209 54.2403 9.05371 54.3372 9.33335 54.3337H32.6667C32.9463 54.3372 33.218 54.2403 33.4321 54.0604C33.6462 53.8805 33.7886 53.6297 33.8334 53.3537L35.7117 42.072C35.7948 41.5698 35.7674 41.0555 35.6314 40.565C35.4954 40.0745 35.254 39.6196 34.9242 39.232C34.5943 38.8443 34.1838 38.5333 33.7214 38.3206C33.259 38.1079 32.7557 37.9986 32.2467 38.0003Z" fill="#E5BE20"/>
<path id="Vector_10" d="M25.6666 46.1667C25.5615 44.9643 25.0361 43.8374 24.1826 42.984C23.3292 42.1306 22.2023 41.6051 21 41.5C19.7976 41.6051 18.6708 42.1306 17.8173 42.984C16.9639 43.8374 16.4384 44.9643 16.3333 46.1667C16.3444 46.6174 16.4547 47.0602 16.6563 47.4635C16.858 47.8668 17.146 48.2207 17.5 48.5V49.6667C17.5 49.9761 17.6229 50.2728 17.8417 50.4916C18.0605 50.7104 18.3572 50.8333 18.6666 50.8333H23.3333C23.6427 50.8333 23.9395 50.7104 24.1583 50.4916C24.3771 50.2728 24.5 49.9761 24.5 49.6667V48.5C24.8539 48.2207 25.142 47.8668 25.3436 47.4635C25.5453 47.0602 25.6556 46.6174 25.6666 46.1667Z" fill="#16242F"/>
<path id="Vector_11" d="M19.8334 47.3333C20.4777 47.3333 21 46.811 21 46.1667C21 45.5223 20.4777 45 19.8334 45C19.189 45 18.6667 45.5223 18.6667 46.1667C18.6667 46.811 19.189 47.3333 19.8334 47.3333Z" fill="#E5BE20"/>
<path id="Vector_12" d="M22.1667 47.3333C22.811 47.3333 23.3333 46.811 23.3333 46.1667C23.3333 45.5223 22.811 45 22.1667 45C21.5223 45 21 45.5223 21 46.1667C21 46.811 21.5223 47.3333 22.1667 47.3333Z" fill="#E5BE20"/>
<path id="Vector_13" d="M22.8783 25.8434C22.2165 25.829 21.5695 25.6441 21 25.3067L20.6616 25.4701C18.2116 26.6367 15.295 24.5484 16.6716 23.1367C16.7801 23.0274 16.9091 22.9406 17.0513 22.8813C17.1935 22.8221 17.346 22.7916 17.5 22.7916C17.654 22.7916 17.8065 22.8221 17.9487 22.8813C18.0908 22.9406 18.2199 23.0274 18.3283 23.1367C18.4927 23.3066 18.7076 23.4189 18.9409 23.4567C19.1743 23.4946 19.4137 23.456 19.6233 23.3467C21.07 22.6234 20.8483 22.5884 22.3766 23.3467C22.5863 23.456 22.8256 23.4946 23.059 23.4567C23.2924 23.4189 23.5073 23.3066 23.6716 23.1367C23.8913 22.917 24.1893 22.7936 24.5 22.7936C24.8107 22.7936 25.1086 22.917 25.3283 23.1367C25.548 23.3564 25.6714 23.6544 25.6714 23.965C25.6714 24.2757 25.548 24.5737 25.3283 24.7934C24.6821 25.4528 23.8015 25.8302 22.8783 25.8434Z" fill="#E5BE20"/>
</g>
</svg>
