<svg xmlns="http://www.w3.org/2000/svg" width="57" height="56" viewBox="0 0 57 56" fill="none">
  <path d="M39.1665 15.1654L37.3232 5.01537C37.1863 4.26149 36.7889 3.57968 36.2003 3.08917C35.6117 2.59867 34.8694 2.33067 34.1032 2.33204C32.5748 2.33204 31.8982 3.4987 29.1682 3.4987H28.1648C26.9502 3.50506 25.7512 3.22528 24.6648 2.68204C24.2119 2.45687 23.7128 2.33998 23.207 2.34057C22.7011 2.34116 22.2023 2.45922 21.7499 2.68544C21.2974 2.91166 20.9037 3.23987 20.5997 3.64419C20.2958 4.04851 20.0898 4.5179 19.9982 5.01537L18.1665 15.1654H39.1665Z" fill="#BEC6C6" fill-opacity="0.7"/>
  <path d="M36.8338 15.166V21.7927C36.835 23.6005 36.2663 25.3627 35.2086 26.8287C34.1509 28.2948 32.658 29.3903 30.9422 29.9593C25.9022 31.6393 20.5005 27.3577 20.5005 21.7927V15.166H36.8338Z" fill="#F8F9F9"/>
  <path d="M48.4992 39.001V50.166C48.4992 51.0943 48.1304 51.9845 47.4741 52.6409C46.8177 53.2973 45.9274 53.666 44.9992 53.666H12.3325C11.4043 53.666 10.514 53.2973 9.85765 52.6409C9.20127 51.9845 8.83252 51.0943 8.83252 50.166V39.001C8.83341 37.8873 9.23257 36.8107 9.95789 35.9655C10.6832 35.1204 11.6868 34.5625 12.7875 34.3927L23.9992 32.666L26.5659 34.591C27.1717 35.0454 27.9086 35.291 28.6659 35.291C29.4231 35.291 30.16 35.0454 30.7659 34.591L33.3325 32.666L44.5442 34.3927C45.6449 34.5625 46.6485 35.1204 47.3738 35.9655C48.0991 36.8107 48.4983 37.8873 48.4992 39.001Z" fill="#F8F9F9"/>
  <path d="M33.3338 28.7227V32.666L30.7672 34.591C30.1613 35.0454 29.4245 35.291 28.6672 35.291C27.9099 35.291 27.173 35.0454 26.5672 34.591L24.0005 32.666V28.7227C25.3335 29.7633 26.976 30.3286 28.6672 30.3286C30.3583 30.3286 32.0008 29.7633 33.3338 28.7227Z" fill="#F8F9F9"/>
  <path d="M20.4992 15.166V20.9993H18.7492C17.9756 20.9993 17.2338 20.6921 16.6868 20.1451C16.1398 19.5981 15.8325 18.8562 15.8325 18.0827C15.8325 17.3091 16.1398 16.5673 16.6868 16.0203C17.2338 15.4733 17.9756 15.166 18.7492 15.166H20.4992Z" fill="#F8F9F9"/>
  <path d="M41.4992 18.0827C41.4992 18.8563 41.1919 19.5981 40.6449 20.1451C40.0979 20.6921 39.3561 20.9994 38.5825 20.9994H36.8325V15.166H38.5825C38.966 15.1645 39.3459 15.2389 39.7005 15.3849C40.0551 15.5309 40.3772 15.7457 40.6484 16.0169C40.9195 16.288 41.1343 16.6102 41.2803 16.9647C41.4263 17.3193 41.5007 17.6993 41.4992 18.0827Z" fill="#F8F9F9"/>
  <path d="M21.6665 16.332V20.9987H27.4998L28.6665 19.832L29.8332 20.9987H35.6665V16.332H21.6665Z" fill="#BEC6C6" fill-opacity="0.7"/>
  <path d="M44.7198 33.2377L34.4998 31.6627V29.2594C35.5457 28.3865 36.3974 27.3045 37.0002 26.0829C37.603 24.8613 37.9435 23.5271 37.9998 22.166H38.6182C39.307 22.1667 39.9847 21.9927 40.5879 21.6601C41.1912 21.3276 41.7002 20.8475 42.0673 20.2647C42.4345 19.6819 42.6478 19.0155 42.6873 18.3278C42.7268 17.6401 42.5912 16.9537 42.2932 16.3327H42.6665C42.9759 16.3327 43.2727 16.2098 43.4915 15.991C43.7103 15.7722 43.8332 15.4754 43.8332 15.166C43.8332 14.8566 43.7103 14.5599 43.4915 14.3411C43.2727 14.1223 42.9759 13.9993 42.6665 13.9993H40.1348L38.4665 4.80602C38.2807 3.78432 37.7421 2.86028 36.9447 2.19506C36.1473 1.52984 35.1416 1.16565 34.1032 1.16602C32.1665 1.16602 31.7115 2.33268 29.1682 2.33268C27.7955 2.46585 26.4124 2.22391 25.1665 1.63268C24.5524 1.33611 23.8783 1.18481 23.1963 1.1905C22.5144 1.1962 21.8429 1.35873 21.2338 1.66552C20.6248 1.97231 20.0945 2.41513 19.6839 2.95971C19.2734 3.50429 18.9937 4.13602 18.8665 4.80602L17.1982 13.9993H14.6665C14.3571 13.9993 14.0603 14.1223 13.8415 14.3411C13.6228 14.5599 13.4998 14.8566 13.4998 15.166C13.4998 15.4754 13.6228 15.7722 13.8415 15.991C14.0603 16.2098 14.3571 16.3327 14.6665 16.3327H15.0748C14.7768 16.9537 14.6412 17.6401 14.6807 18.3278C14.7202 19.0155 14.9335 19.6819 15.3007 20.2647C15.6678 20.8475 16.1768 21.3276 16.7801 21.6601C17.3833 21.9927 18.061 22.1667 18.7498 22.166H19.3332C19.3895 23.5271 19.73 24.8613 20.3328 26.0829C20.9356 27.3045 21.7873 28.3865 22.8332 29.2594V31.6627L12.6132 33.2377C11.2363 33.4494 9.98066 34.1469 9.07337 35.204C8.16608 36.2611 7.66703 37.608 7.6665 39.001V50.166C7.6665 51.4037 8.15817 52.5907 9.03334 53.4659C9.90851 54.341 11.0955 54.8327 12.3332 54.8327H18.1665C18.4759 54.8327 18.7727 54.7098 18.9915 54.491C19.2103 54.2722 19.3332 53.9754 19.3332 53.666C19.3332 53.3566 19.2103 53.0599 18.9915 52.8411C18.7727 52.6223 18.4759 52.4994 18.1665 52.4994H12.3332C11.7143 52.4994 11.1208 52.2535 10.6833 51.8159C10.2457 51.3784 9.99984 50.7849 9.99984 50.166V39.001C9.98988 38.1587 10.2841 37.341 10.8284 36.6981C11.3728 36.0551 12.1307 35.6301 12.9632 35.501L23.6965 33.8444C25.7732 35.4077 26.7298 36.3994 28.6665 36.3994C30.6032 36.3994 31.6065 35.3727 33.6365 33.8444L44.3698 35.501C45.2023 35.6301 45.9602 36.0551 46.5046 36.6981C47.0489 37.341 47.3431 38.1587 47.3332 39.001V50.166C47.3332 50.7849 47.0873 51.3784 46.6498 51.8159C46.2122 52.2535 45.6187 52.4994 44.9998 52.4994H39.1665C38.8571 52.4994 38.5603 52.6223 38.3415 52.8411C38.1228 53.0599 37.9998 53.3566 37.9998 53.666C37.9998 53.9754 38.1228 54.2722 38.3415 54.491C38.5603 54.7098 38.8571 54.8327 39.1665 54.8327H44.9998C46.2375 54.8327 47.4245 54.341 48.2997 53.4659C49.1748 52.5907 49.6665 51.4037 49.6665 50.166V39.001C49.666 37.608 49.1669 36.2611 48.2596 35.204C47.3523 34.1469 46.0967 33.4494 44.7198 33.2377ZM38.5832 19.8327H37.9998V16.3327H38.5832C39.0473 16.3327 39.4924 16.5171 39.8206 16.8452C40.1488 17.1734 40.3332 17.6186 40.3332 18.0827C40.3332 18.5468 40.1488 18.9919 39.8206 19.3201C39.4924 19.6483 39.0473 19.8327 38.5832 19.8327ZM21.1648 5.22602C21.2232 4.906 21.3551 4.60391 21.5501 4.34358C21.7451 4.08324 21.998 3.87177 22.2887 3.72584C22.5794 3.57992 22.9001 3.50352 23.2254 3.50268C23.5507 3.50185 23.8717 3.57659 24.1632 3.72102C25.7206 4.46692 27.446 4.79269 29.1682 4.66602C30.5571 4.66378 31.9267 4.34035 33.1698 3.72102C33.4613 3.57659 33.7823 3.50185 34.1076 3.50268C34.4329 3.50352 34.7536 3.57992 35.0443 3.72584C35.335 3.87177 35.5879 4.08324 35.7829 4.34358C35.9779 4.60391 36.1098 4.906 36.1682 5.22602L37.7665 13.9993H19.5665L21.1648 5.22602ZM16.9998 18.0827C16.9998 17.6186 17.1842 17.1734 17.5124 16.8452C17.8406 16.5171 18.2857 16.3327 18.7498 16.3327H19.3332V19.8327H18.7498C18.2857 19.8327 17.8406 19.6483 17.5124 19.3201C17.1842 18.9919 16.9998 18.5468 16.9998 18.0827ZM21.6665 21.7927V16.3327H35.6665V21.7927C35.6653 23.3555 35.1721 24.8782 34.2571 26.1451C33.342 27.412 32.0514 28.3587 30.5682 28.851C26.4615 30.2277 21.6665 26.751 21.6665 21.7927ZM30.0665 33.6577C29.6626 33.9606 29.1714 34.1244 28.6665 34.1244C28.1616 34.1244 27.6704 33.9606 27.2665 33.6577L25.1665 32.0827V30.706C25.443 30.8434 25.7273 30.9642 26.0182 31.0677C27.7374 31.6397 29.5956 31.6397 31.3148 31.0677C31.6057 30.9642 31.8901 30.8434 32.1665 30.706V32.0827L30.0665 33.6577Z" fill="#2A3E4E"/>
  <path d="M39.9139 38.5003H17.4206C16.9086 38.4934 16.4014 38.599 15.9347 38.8094C15.468 39.0199 15.0531 39.3302 14.7194 39.7185C14.3856 40.1067 14.1411 40.5635 14.0031 41.0565C13.8651 41.5496 13.8369 42.0669 13.9206 42.572L15.8339 53.8536C15.8786 54.1297 16.021 54.3805 16.2352 54.5604C16.4493 54.7403 16.721 54.8372 17.0006 54.8336H40.3339C40.6136 54.8372 40.8852 54.7403 41.0993 54.5604C41.3135 54.3805 41.4559 54.1297 41.5006 53.8536L43.3789 42.572C43.4621 42.0698 43.4347 41.5555 43.2987 41.065C43.1626 40.5745 42.9213 40.1196 42.5914 39.732C42.2615 39.3443 41.851 39.0333 41.3886 38.8206C40.9262 38.6079 40.4229 38.4986 39.9139 38.5003Z" fill="#E5BE20"/>
  <path d="M33.3338 46.6667C33.2287 45.4643 32.7033 44.3374 31.8498 43.484C30.9964 42.6306 29.8695 42.1051 28.6672 42C27.4648 42.1051 26.3379 42.6306 25.4845 43.484C24.6311 44.3374 24.1056 45.4643 24.0005 46.6667C24.0116 47.1174 24.1218 47.5602 24.3235 47.9635C24.5251 48.3668 24.8132 48.7207 25.1672 49V50.1667C25.1672 50.4761 25.2901 50.7728 25.5089 50.9916C25.7277 51.2104 26.0244 51.3333 26.3338 51.3333H31.0005C31.3099 51.3333 31.6067 51.2104 31.8254 50.9916C32.0442 50.7728 32.1672 50.4761 32.1672 50.1667V49C32.5211 48.7207 32.8092 48.3668 33.0108 47.9635C33.2125 47.5602 33.3227 47.1174 33.3338 46.6667Z" fill="#F8F9F9"/>
  <path d="M27.4992 47.8333C28.1435 47.8333 28.6659 47.311 28.6659 46.6667C28.6659 46.0223 28.1435 45.5 27.4992 45.5C26.8549 45.5 26.3325 46.0223 26.3325 46.6667C26.3325 47.311 26.8549 47.8333 27.4992 47.8333Z" fill="#2A3E4E"/>
  <path d="M29.8332 47.8333C30.4775 47.8333 30.9998 47.311 30.9998 46.6667C30.9998 46.0223 30.4775 45.5 29.8332 45.5C29.1888 45.5 28.6665 46.0223 28.6665 46.6667C28.6665 47.311 29.1888 47.8333 29.8332 47.8333Z" fill="#2A3E4E"/>
  <path d="M30.5454 26.3434C29.8836 26.329 29.2367 26.1441 28.6671 25.8067L28.3288 25.9701C25.8788 27.1367 22.9621 25.0484 24.3388 23.6367C24.4472 23.5274 24.5762 23.4406 24.7184 23.3813C24.8606 23.3221 25.0131 23.2916 25.1671 23.2916C25.3211 23.2916 25.4736 23.3221 25.6158 23.3813C25.7579 23.4406 25.887 23.5274 25.9954 23.6367C26.1598 23.8066 26.3747 23.9189 26.6081 23.9567C26.8414 23.9946 27.0808 23.956 27.2904 23.8467C28.7371 23.1234 28.5154 23.0884 30.0438 23.8467C30.2534 23.956 30.4928 23.9946 30.7261 23.9567C30.9595 23.9189 31.1744 23.8066 31.3388 23.6367C31.5584 23.417 31.8564 23.2936 32.1671 23.2936C32.4778 23.2936 32.7757 23.417 32.9954 23.6367C33.2151 23.8564 33.3385 24.1544 33.3385 24.465C33.3385 24.7757 33.2151 25.0737 32.9954 25.2934C32.3492 25.9528 31.4686 26.3302 30.5454 26.3434Z" fill="#2A3E4E"/>
</svg>