<svg xmlns="http://www.w3.org/2000/svg" width="42" height="42" viewBox="0 0 42 42" fill="none">
  <path d="M30.625 1.75H6.125C5.1585 1.75 4.375 2.5335 4.375 3.5V38.5C4.375 39.4665 5.1585 40.25 6.125 40.25H30.625C31.5915 40.25 32.375 39.4665 32.375 38.5V3.5C32.375 2.5335 31.5915 1.75 30.625 1.75Z" fill="#BEC6C6" fill-opacity="0.1"/>
  <path d="M20.125 35.875V40.25H6.125C5.66087 40.25 5.21575 40.0656 4.88756 39.7374C4.55937 39.4092 4.375 38.9641 4.375 38.5V28.875L8.75 27.125L10.815 29.19C10.4972 29.882 10.4138 30.6589 10.5774 31.4026C10.741 32.1463 11.1428 32.8164 11.7217 33.3112C12.3005 33.806 13.025 34.0984 13.7852 34.1442C14.5453 34.19 15.2996 33.9867 15.9337 33.565C16.3785 34.2745 16.9967 34.859 17.73 35.2631C18.4634 35.6673 19.2876 35.8779 20.125 35.875Z" fill="#BEC6C6"/>
  <path d="M19.2504 21.875C19.2504 21.875 17.9992 30.7037 17.0279 32.375C16.7602 32.8414 16.3853 33.2373 15.9342 33.53C15.3001 33.9517 14.5457 34.155 13.7856 34.1092C13.0254 34.0634 12.301 33.771 11.7221 33.2762C11.1432 32.7814 10.7415 32.1113 10.5778 31.3676C10.4142 30.6239 10.4976 29.847 10.8154 29.155C11.4804 27.5887 17.8504 22.89 19.2504 21.875Z" fill="#BEC6C6"/>
  <path d="M18.375 6.125C16.4714 6.125 14.6105 6.6895 13.0276 7.7471C11.4448 8.80471 10.2112 10.3079 9.48266 12.0667C8.75417 13.8254 8.56356 15.7607 8.93495 17.6277C9.30633 19.4948 10.223 21.2098 11.5691 22.5559C12.9152 23.902 14.6302 24.8187 16.4973 25.1901C18.3643 25.5614 20.2996 25.3708 22.0583 24.6423C23.8171 23.9138 25.3203 22.6802 26.3779 21.0974C27.4355 19.5145 28 17.6536 28 15.75C28 13.1973 26.9859 10.7491 25.1809 8.9441C23.3759 7.13906 20.9277 6.125 18.375 6.125ZM18.375 19.25C17.6828 19.25 17.0061 19.0447 16.4305 18.6601C15.8549 18.2756 15.4063 17.7289 15.1414 17.0894C14.8765 16.4499 14.8072 15.7461 14.9423 15.0672C15.0773 14.3883 15.4106 13.7646 15.9001 13.2751C16.3896 12.7856 17.0133 12.4523 17.6922 12.3173C18.3711 12.1822 19.0749 12.2515 19.7144 12.5164C20.3539 12.7813 20.9006 13.2299 21.2851 13.8055C21.6697 14.3811 21.875 15.0578 21.875 15.75C21.875 16.6783 21.5063 17.5685 20.8499 18.2249C20.1935 18.8813 19.3033 19.25 18.375 19.25Z" fill="#BEC6C6"/>
  <path d="M30.625 0.875H6.125C5.42881 0.875 4.76113 1.15156 4.26884 1.64384C3.77656 2.13613 3.5 2.80381 3.5 3.5V38.5C3.5 39.1962 3.77656 39.8639 4.26884 40.3562C4.76113 40.8484 5.42881 41.125 6.125 41.125H30.625C31.3212 41.125 31.9889 40.8484 32.4812 40.3562C32.9734 39.8639 33.25 39.1962 33.25 38.5V3.5C33.25 2.80381 32.9734 2.13613 32.4812 1.64384C31.9889 1.15156 31.3212 0.875 30.625 0.875ZM5.25 38.5V29.47L8.54 28.1487L9.80875 29.4175C9.58466 30.2058 9.58651 31.0413 9.81409 31.8286C10.0417 32.6159 10.4858 33.3235 11.096 33.8707C11.7061 34.4179 12.4577 34.7827 13.265 34.9236C14.0724 35.0645 14.9031 34.9757 15.6625 34.6675C16.5697 35.7572 17.8472 36.4738 19.25 36.68V39.375H6.125C5.89294 39.375 5.67038 39.2828 5.50628 39.1187C5.34219 38.9546 5.25 38.7321 5.25 38.5ZM16.275 31.9375C15.9179 32.5322 15.349 32.9699 14.6825 33.1625C14.1804 33.2985 13.6493 33.2823 13.1564 33.1159C12.6636 32.9495 12.2313 32.6405 11.9144 32.228C11.5975 31.8154 11.4103 31.3181 11.3766 30.799C11.3429 30.2799 11.4642 29.7625 11.725 29.3125C12.2413 28.4375 15.4087 25.8563 18.0687 23.8438C17.5437 27.125 16.7913 31.0362 16.275 31.9375ZM31.5 38.5C31.5 38.7321 31.4078 38.9546 31.2437 39.1187C31.0796 39.2828 30.8571 39.375 30.625 39.375H21V35.875C21 35.6429 20.9078 35.4204 20.7437 35.2563C20.5796 35.0922 20.3571 35 20.125 35C19.5598 35.0015 19.0008 34.883 18.4849 34.6522C17.969 34.4214 17.508 34.0836 17.1325 33.6613C17.3862 33.3975 17.6066 33.1036 17.7887 32.7863C18.8125 31.0363 19.985 22.89 20.1162 21.9713C20.1408 21.8008 20.1146 21.6268 20.0407 21.4712C19.9669 21.3156 19.8487 21.1852 19.7011 21.0964C19.5535 21.0077 19.3829 20.9645 19.2108 20.9722C19.0388 20.98 18.8728 21.0383 18.7337 21.14C17.6137 21.9538 12.4513 25.76 10.6838 27.79L9.37125 26.4775C9.24992 26.3564 9.09567 26.2735 8.92766 26.2393C8.75966 26.2051 8.5853 26.221 8.42625 26.285L5.25 27.58V3.5C5.25 3.26794 5.34219 3.04538 5.50628 2.88128C5.67038 2.71719 5.89294 2.625 6.125 2.625H30.625C30.8571 2.625 31.0796 2.71719 31.2437 2.88128C31.4078 3.04538 31.5 3.26794 31.5 3.5V38.5Z" fill="#2A3E4E"/>
  <path d="M7 7.875H5.25V4.375H7C7.46413 4.375 7.90925 4.55937 8.23744 4.88756C8.56563 5.21575 8.75 5.66087 8.75 6.125C8.75 6.58913 8.56563 7.03425 8.23744 7.36244C7.90925 7.69063 7.46413 7.875 7 7.875Z" fill="#BEC6C6"/>
  <path d="M29.75 7.875H31.5V4.375H29.75C29.2859 4.375 28.8408 4.55937 28.5126 4.88756C28.1844 5.21575 28 5.66087 28 6.125C28 6.58913 28.1844 7.03425 28.5126 7.36244C28.8408 7.69063 29.2859 7.875 29.75 7.875Z" fill="#BEC6C6"/>
  <path d="M14 31.5C14.4832 31.5 14.875 31.1082 14.875 30.625C14.875 30.1418 14.4832 29.75 14 29.75C13.5168 29.75 13.125 30.1418 13.125 30.625C13.125 31.1082 13.5168 31.5 14 31.5Z" fill="#14242D"/>
  <path d="M7.875 37.625C8.35825 37.625 8.75 37.2332 8.75 36.75C8.75 36.2668 8.35825 35.875 7.875 35.875C7.39175 35.875 7 36.2668 7 36.75C7 37.2332 7.39175 37.625 7.875 37.625Z" fill="#BEC6C6" fill-opacity="0.1"/>
  <path d="M38.5 24.5V29.505C38.5016 31.3406 37.9044 33.1266 36.799 34.592C35.6937 36.0575 34.1404 37.1223 32.375 37.625C30.6103 37.121 29.0579 36.0558 27.9527 34.5907C26.8475 33.1256 26.2498 31.3402 26.25 29.505V24.5C26.8117 24.5012 27.3611 24.3354 27.8284 24.0239C28.2958 23.7123 28.66 23.2689 28.875 22.75L32.375 21.875L35.875 22.75L35.9713 22.9337C36.2047 23.4047 36.5652 23.801 37.0121 24.0778C37.459 24.3546 37.9744 24.5008 38.5 24.5Z" fill="#E5BE20"/>
</svg>