<svg width="23" height="22" viewBox="0 0 23 22" fill="none" xmlns="http://www.w3.org/2000/svg">
<g id="SearchOutlined">
<path id="Vector" d="M21.2617 19.4097L14.8851 13.0332C15.8746 11.7539 16.4099 10.1899 16.4099 8.54478C16.4099 6.57559 15.6414 4.72916 14.2516 3.33697C12.8619 1.94478 11.0105 1.17871 9.04381 1.17871C7.07706 1.17871 5.22573 1.94724 3.83599 3.33697C2.44381 4.7267 1.67773 6.57559 1.67773 8.54478C1.67773 10.5115 2.44626 12.3629 3.83599 13.7526C5.22573 15.1448 7.07461 15.9109 9.04381 15.9109C10.6889 15.9109 12.2505 15.3756 13.5297 14.3885L19.9063 20.7626C19.925 20.7813 19.9472 20.7962 19.9716 20.8063C19.9961 20.8164 20.0223 20.8217 20.0487 20.8217C20.0752 20.8217 20.1014 20.8164 20.1258 20.8063C20.1502 20.7962 20.1724 20.7813 20.1911 20.7626L21.2617 19.6946C21.2804 19.6759 21.2952 19.6537 21.3053 19.6292C21.3155 19.6048 21.3207 19.5786 21.3207 19.5521C21.3207 19.5257 21.3155 19.4995 21.3053 19.4751C21.2952 19.4506 21.2804 19.4284 21.2617 19.4097ZM12.9331 12.4341C11.892 13.4727 10.5121 14.0448 9.04381 14.0448C7.5755 14.0448 6.19559 13.4727 5.15452 12.4341C4.1159 11.393 3.54381 10.0131 3.54381 8.54478C3.54381 7.07648 4.1159 5.69411 5.15452 4.6555C6.19559 3.61688 7.5755 3.04478 9.04381 3.04478C10.5121 3.04478 11.8945 3.61443 12.9331 4.6555C13.9717 5.69657 14.5438 7.07648 14.5438 8.54478C14.5438 10.0131 13.9717 11.3955 12.9331 12.4341Z" fill="#778791"/>
</g>
</svg>
