<svg width="20" height="20" viewBox="0 0 20 20" fill="none" xmlns="http://www.w3.org/2000/svg">
<g id="vuesax/bold/instagram">
<g id="instagram">
<path id="Vector" d="M13.4915 1.66602H6.50817C3.47484 1.66602 1.6665 3.47435 1.6665 6.50768V13.4827C1.6665 16.5243 3.47484 18.3327 6.50817 18.3327H13.4832C16.5165 18.3327 18.3248 16.5243 18.3248 13.491V6.50768C18.3332 3.47435 16.5248 1.66602 13.4915 1.66602ZM9.99984 13.2327C8.2165 13.2327 6.7665 11.7827 6.7665 9.99935C6.7665 8.21602 8.2165 6.76602 9.99984 6.76602C11.7832 6.76602 13.2332 8.21602 13.2332 9.99935C13.2332 11.7827 11.7832 13.2327 9.99984 13.2327ZM14.9332 5.73268C14.8915 5.83268 14.8332 5.92435 14.7582 6.00768C14.6748 6.08268 14.5832 6.14102 14.4832 6.18268C14.3832 6.22435 14.2748 6.24935 14.1665 6.24935C13.9415 6.24935 13.7332 6.16602 13.5748 6.00768C13.4998 5.92435 13.4415 5.83268 13.3998 5.73268C13.3582 5.63268 13.3332 5.52435 13.3332 5.41602C13.3332 5.30768 13.3582 5.19935 13.3998 5.09935C13.4415 4.99102 13.4998 4.90768 13.5748 4.82435C13.7665 4.63268 14.0582 4.54102 14.3248 4.59935C14.3832 4.60768 14.4332 4.62435 14.4832 4.64935C14.5332 4.66602 14.5832 4.69102 14.6332 4.72435C14.6748 4.74935 14.7165 4.79102 14.7582 4.82435C14.8332 4.90768 14.8915 4.99102 14.9332 5.09935C14.9748 5.19935 14.9998 5.30768 14.9998 5.41602C14.9998 5.52435 14.9748 5.63268 14.9332 5.73268Z" fill="white" fill-opacity="0.8"/>
</g>
</g>
</svg>
