<svg xmlns="http://www.w3.org/2000/svg" width="57" height="56" viewBox="0 0 57 56" fill="none">
  <path d="M5.33333 37.3327C6.622 37.3327 7.66667 36.288 7.66667 34.9993C7.66667 33.7107 6.622 32.666 5.33333 32.666C4.04467 32.666 3 33.7107 3 34.9993C3 36.288 4.04467 37.3327 5.33333 37.3327Z" fill="#BEC6C6"/>
  <path d="M15.8333 53.6667C17.122 53.6667 18.1667 52.622 18.1667 51.3333C18.1667 50.0447 17.122 49 15.8333 49C14.5447 49 13.5 50.0447 13.5 51.3333C13.5 52.622 14.5447 53.6667 15.8333 53.6667Z" fill="#BEC6C6"/>
  <path d="M51.9993 37.3327C53.288 37.3327 54.3327 36.288 54.3327 34.9993C54.3327 33.7107 53.288 32.666 51.9993 32.666C50.7107 32.666 49.666 33.7107 49.666 34.9993C49.666 36.288 50.7107 37.3327 51.9993 37.3327Z" fill="#BEC6C6"/>
  <path d="M41.4993 53.6667C42.788 53.6667 43.8327 52.622 43.8327 51.3333C43.8327 50.0447 42.788 49 41.4993 49C40.2107 49 39.166 50.0447 39.166 51.3333C39.166 52.622 40.2107 53.6667 41.4993 53.6667Z" fill="#BEC6C6"/>
  <path d="M9.99935 28.0007C11.288 28.0007 12.3327 26.956 12.3327 25.6673C12.3327 24.3787 11.288 23.334 9.99935 23.334C8.71068 23.334 7.66602 24.3787 7.66602 25.6673C7.66602 26.956 8.71068 28.0007 9.99935 28.0007Z" fill="#16242F"/>
  <path d="M5.33333 47.8327C6.622 47.8327 7.66667 46.788 7.66667 45.4993C7.66667 44.2107 6.622 43.166 5.33333 43.166C4.04467 43.166 3 44.2107 3 45.4993C3 46.788 4.04467 47.8327 5.33333 47.8327Z" fill="#16242F"/>
  <path d="M47.3333 28.0007C48.622 28.0007 49.6667 26.956 49.6667 25.6673C49.6667 24.3787 48.622 23.334 47.3333 23.334C46.0447 23.334 45 24.3787 45 25.6673C45 26.956 46.0447 28.0007 47.3333 28.0007Z" fill="#16242F"/>
  <path d="M51.9993 47.8327C53.288 47.8327 54.3327 46.788 54.3327 45.4993C54.3327 44.2107 53.288 43.166 51.9993 43.166C50.7107 43.166 49.666 44.2107 49.666 45.4993C49.666 46.788 50.7107 47.8327 51.9993 47.8327Z" fill="#16242F"/>
  <path d="M41.4997 6.34561V20.4856C41.5001 20.9762 41.3459 21.4545 41.059 21.8524C40.772 22.2504 40.367 22.5477 39.9013 22.7023L34.4997 24.4989V27.9989L30.9997 30.3323L34.4997 32.6656V34.9989L30.9997 37.3323L34.4997 39.6656V41.9989L30.9997 44.3323L34.4997 46.6656V50.1656L27.4997 53.6656L22.833 51.3323V24.4989L17.4313 22.7023C16.9657 22.5477 16.5606 22.2504 16.2737 21.8524C15.9868 21.4545 15.8326 20.9762 15.833 20.4856V6.34561C15.8326 5.85501 15.9868 5.37675 16.2737 4.9788C16.5606 4.58086 16.9657 4.28349 17.4313 4.12895C24.7285 1.72525 32.6042 1.72525 39.9013 4.12895C40.367 4.28349 40.772 4.58086 41.059 4.9788C41.3459 5.37675 41.5001 5.85501 41.4997 6.34561Z" fill="#16242F"/>
  <path d="M28.666 12.834C30.599 12.834 32.166 11.267 32.166 9.33398C32.166 7.40099 30.599 5.83398 28.666 5.83398C26.733 5.83398 25.166 7.40099 25.166 9.33398C25.166 11.267 26.733 12.834 28.666 12.834Z" fill="#E5BE20"/>
  <path d="M42.666 20.4864V6.34644C42.6688 5.62035 42.4457 4.91137 42.0277 4.31772C41.6096 3.72407 41.0172 3.27513 40.3327 3.0331C32.7944 0.541049 24.6543 0.541049 17.116 3.0331C16.4097 3.25522 15.792 3.69563 15.3517 4.29099C14.9115 4.88636 14.6714 5.60601 14.666 6.34644V20.4864C14.6674 21.2196 14.899 21.9339 15.3281 22.5284C15.7572 23.1229 16.3622 23.5676 17.0577 23.7998L21.666 25.3398V51.3331C21.6667 51.5485 21.727 51.7596 21.8402 51.9429C21.9535 52.1262 22.1153 52.2745 22.3077 52.3714L26.9743 54.7048C27.1372 54.7868 27.317 54.8296 27.4993 54.8296C27.6817 54.8296 27.8615 54.7868 28.0243 54.7048L35.0243 51.2048C35.2167 51.1078 35.3785 50.9595 35.4918 50.7762C35.6051 50.5929 35.6654 50.3819 35.666 50.1664V46.6664C35.665 46.4743 35.6166 46.2853 35.525 46.1164C35.4334 45.9475 35.3015 45.8038 35.141 45.6981L33.0993 44.3331L35.141 42.9681C35.3015 42.8624 35.4334 42.7187 35.525 42.5498C35.6166 42.3809 35.665 42.1919 35.666 41.9998V39.6664C35.665 39.4743 35.6166 39.2853 35.525 39.1164C35.4334 38.9475 35.3015 38.8038 35.141 38.6981L33.0993 37.3331L35.141 35.9681C35.3015 35.8624 35.4334 35.7187 35.525 35.5498C35.6166 35.3809 35.665 35.1919 35.666 34.9998V32.6664C35.665 32.4743 35.6166 32.2853 35.525 32.1164C35.4334 31.9475 35.3015 31.8038 35.141 31.6981L33.0993 30.3331L35.141 28.9681C35.3015 28.8624 35.4334 28.7187 35.525 28.5498C35.6166 28.3809 35.665 28.1919 35.666 27.9998V25.3398L40.3327 23.7998C41.0172 23.5577 41.6096 23.1088 42.0277 22.5152C42.4457 21.9215 42.6688 21.2125 42.666 20.4864ZM39.5393 21.6531L34.126 23.4498C33.9035 23.5246 33.7087 23.6649 33.5672 23.8522C33.4256 24.0396 33.3439 24.2652 33.3327 24.4998V27.3698L30.3577 29.3648C30.1989 29.4715 30.0687 29.6156 29.9788 29.7845C29.8888 29.9534 29.8417 30.1418 29.8417 30.3331C29.8417 30.5244 29.8888 30.7128 29.9788 30.8817C30.0687 31.0506 30.1989 31.1947 30.3577 31.3014L33.3327 33.2964V34.3698L30.3577 36.3648C30.1989 36.4715 30.0687 36.6156 29.9788 36.7845C29.8888 36.9534 29.8417 37.1418 29.8417 37.3331C29.8417 37.5244 29.8888 37.7128 29.9788 37.8817C30.0687 38.0506 30.1989 38.1947 30.3577 38.3014L33.3327 40.2964V41.3698L30.3577 43.3648C30.1989 43.4715 30.0687 43.6156 29.9788 43.7845C29.8888 43.9534 29.8417 44.1418 29.8417 44.3331C29.8417 44.5244 29.8888 44.7128 29.9788 44.8817C30.0687 45.0506 30.1989 45.1947 30.3577 45.3014L33.3327 47.2964V49.4431L27.4993 52.3598L23.9993 50.6098V24.4998C24 24.2552 23.9237 24.0166 23.7814 23.8177C23.639 23.6188 23.4377 23.4697 23.206 23.3914L17.7927 21.5948C17.5512 21.5136 17.3429 21.3556 17.1997 21.1449C17.0564 20.9343 16.9861 20.6825 16.9993 20.4281V6.34644C16.9861 6.09203 17.0564 5.84026 17.1997 5.6296C17.3429 5.41893 17.5512 5.26095 17.7927 5.17977C24.8547 2.85187 32.4774 2.85187 39.5393 5.17977C39.7808 5.26095 39.9891 5.41893 40.1323 5.6296C40.2756 5.84026 40.346 6.09203 40.3327 6.34644V20.4864C40.3333 20.731 40.2571 20.9696 40.1147 21.1685C39.9723 21.3674 39.7711 21.5165 39.5393 21.5948V21.6531Z" fill="#2A3E4E"/>
  <path d="M18.1664 33.8333H8.62307C8.34786 33.0549 7.80633 32.3989 7.09418 31.9811C6.38203 31.5633 5.54513 31.4108 4.73139 31.5504C3.91764 31.69 3.17945 32.1128 2.64728 32.7441C2.11512 33.3753 1.82324 34.1744 1.82324 35C1.82324 35.8256 2.11512 36.6247 2.64728 37.2559C3.17945 37.8872 3.91764 38.31 4.73139 38.4496C5.54513 38.5892 6.38203 38.4367 7.09418 38.0189C7.80633 37.6012 8.34786 36.9451 8.62307 36.1667H16.9997V39.6667C16.9997 39.9761 17.1227 40.2728 17.3414 40.4916C17.5602 40.7104 17.857 40.8333 18.1664 40.8333C18.4758 40.8333 18.7726 40.7104 18.9914 40.4916C19.2102 40.2728 19.3331 39.9761 19.3331 39.6667V35C19.3331 34.6906 19.2102 34.3938 18.9914 34.175C18.7726 33.9563 18.4758 33.8333 18.1664 33.8333ZM5.33307 36.1667C5.10233 36.1667 4.87677 36.0982 4.68491 35.9701C4.49305 35.8419 4.34352 35.6596 4.25521 35.4465C4.16691 35.2333 4.14381 34.9987 4.18882 34.7724C4.23384 34.5461 4.34495 34.3382 4.50812 34.175C4.67128 34.0119 4.87916 33.9008 5.10547 33.8558C5.33178 33.8107 5.56636 33.8338 5.77954 33.9221C5.99272 34.0104 6.17493 34.16 6.30312 34.3518C6.43132 34.5437 6.49974 34.7693 6.49974 35C6.49974 35.3094 6.37682 35.6062 6.15803 35.825C5.93924 36.0438 5.64249 36.1667 5.33307 36.1667Z" fill="#2A3E4E"/>
  <path d="M16.9993 48.0433V45.5C16.9984 45.3078 16.9499 45.1189 16.8583 44.95C16.7667 44.781 16.6348 44.6374 16.4743 44.5317L13.4993 42.5367V39.6667C13.4993 39.3572 13.3764 39.0605 13.1576 38.8417C12.9388 38.6229 12.6421 38.5 12.3327 38.5C12.0233 38.5 11.7265 38.6229 11.5077 38.8417C11.2889 39.0605 11.166 39.3572 11.166 39.6667V43.1667C11.167 43.3588 11.2155 43.5478 11.307 43.7167C11.3986 43.8856 11.5305 44.0293 11.691 44.135L14.666 46.13V48.0433C13.8876 48.3185 13.2315 48.8601 12.8138 49.5722C12.396 50.2844 12.2435 51.1213 12.3831 51.935C12.5227 52.7488 12.9455 53.487 13.5767 54.0191C14.208 54.5513 15.007 54.8432 15.8327 54.8432C16.6583 54.8432 17.4574 54.5513 18.0886 54.0191C18.7199 53.487 19.1427 52.7488 19.2823 51.935C19.4219 51.1213 19.2693 50.2844 18.8516 49.5722C18.4338 48.8601 17.7778 48.3185 16.9993 48.0433ZM15.8327 52.5C15.6019 52.5 15.3764 52.4316 15.1845 52.3034C14.9927 52.1752 14.8431 51.993 14.7548 51.7798C14.6665 51.5666 14.6434 51.332 14.6884 51.1057C14.7334 50.8794 14.8446 50.6715 15.0077 50.5084C15.1709 50.3452 15.3788 50.2341 15.6051 50.1891C15.8314 50.1441 16.066 50.1672 16.2791 50.2555C16.4923 50.3438 16.6745 50.4933 16.8027 50.6852C16.9309 50.877 16.9993 51.1026 16.9993 51.3333C16.9993 51.6428 16.8764 51.9395 16.6576 52.1583C16.4388 52.3771 16.1421 52.5 15.8327 52.5Z" fill="#2A3E4E"/>
  <path d="M8.833 45.5001C8.8348 44.858 8.65994 44.2278 8.32757 43.6784C7.99519 43.1291 7.5181 42.6817 6.94851 42.3854C6.37892 42.089 5.73878 41.955 5.09815 41.9981C4.45751 42.0412 3.84108 42.2597 3.3163 42.6297C2.79153 42.9996 2.37863 43.5068 2.12281 44.0957C1.86699 44.6846 1.7781 45.3326 1.86586 45.9686C1.95362 46.6047 2.21466 47.2043 2.62041 47.702C3.02616 48.1996 3.56097 48.576 4.16633 48.7901V51.3334C4.16633 51.9634 4.34133 51.9984 6.838 54.4951C6.94677 54.6038 7.07591 54.6901 7.21804 54.749C7.36016 54.8079 7.51249 54.8382 7.66633 54.8382C7.82017 54.8382 7.97249 54.8079 8.11462 54.749C8.25675 54.6901 8.38588 54.6038 8.49466 54.4951C8.60344 54.3863 8.68973 54.2571 8.7486 54.115C8.80747 53.9729 8.83777 53.8206 8.83777 53.6667C8.83777 53.5129 8.80747 53.3606 8.7486 53.2184C8.68973 53.0763 8.60344 52.9472 8.49466 52.8384L6.49966 50.8551V48.7901C7.18047 48.5494 7.77016 48.104 8.1879 47.515C8.60564 46.926 8.83097 46.2222 8.833 45.5001ZM5.333 44.3334C5.56374 44.3334 5.7893 44.4018 5.98116 44.53C6.17302 44.6582 6.32255 44.8404 6.41086 45.0536C6.49916 45.2668 6.52226 45.5014 6.47725 45.7277C6.43223 45.954 6.32112 46.1619 6.15795 46.325C5.99479 46.4882 5.78691 46.5993 5.5606 46.6443C5.33429 46.6893 5.09971 46.6662 4.88653 46.5779C4.67335 46.4896 4.49114 46.3401 4.36295 46.1482C4.23475 45.9564 4.16633 45.7308 4.16633 45.5001C4.16633 45.1906 4.28925 44.8939 4.50804 44.6751C4.72683 44.4563 5.02358 44.3334 5.333 44.3334Z" fill="#2A3E4E"/>
  <path d="M18.1665 29.1669H15.1449L13.1499 27.1719C13.5066 26.4269 13.5884 25.5798 13.3808 24.7804C13.1732 23.981 12.6895 23.2807 12.0154 22.8035C11.3413 22.3263 10.5201 22.1028 9.69709 22.1727C8.8741 22.2426 8.10233 22.6013 7.5183 23.1853C6.93426 23.7693 6.57559 24.5411 6.50572 25.3641C6.43584 26.1871 6.65928 27.0083 7.1365 27.6824C7.61371 28.3565 8.31397 28.8402 9.1134 29.0478C9.91283 29.2554 10.7599 29.1736 11.5049 28.8169L13.8382 31.1502C14.2932 31.6052 14.4449 31.4885 18.1665 31.4885C18.476 31.4885 18.7727 31.3656 18.9915 31.1468C19.2103 30.928 19.3332 30.6313 19.3332 30.3219C19.3332 30.0124 19.2103 29.7157 18.9915 29.4969C18.7727 29.2781 18.476 29.1552 18.1665 29.1552V29.1669ZM8.8332 25.6669C8.8324 25.475 8.87893 25.2859 8.96866 25.1163C9.0584 24.9467 9.18857 24.8019 9.34765 24.6946C9.50673 24.5874 9.68981 24.521 9.88067 24.5014C10.0715 24.4818 10.2643 24.5096 10.4418 24.5823C10.6194 24.655 10.7763 24.7703 10.8986 24.9181C11.021 25.0659 11.105 25.2416 11.1432 25.4296C11.1814 25.6177 11.1726 25.8122 11.1177 25.996C11.0627 26.1799 10.9633 26.3473 10.8282 26.4835C10.6657 26.6474 10.4583 26.7593 10.2322 26.8053C10.0061 26.8512 9.77141 26.8291 9.55788 26.7417C9.34434 26.6543 9.16151 26.5055 9.03252 26.3142C8.90353 26.1229 8.83417 25.8976 8.8332 25.6669Z" fill="#2A3E4E"/>
  <path d="M48.71 33.8333H39.1667C38.8572 33.8333 38.5605 33.9563 38.3417 34.175C38.1229 34.3938 38 34.6906 38 35V39.6667C38 39.9761 38.1229 40.2728 38.3417 40.4916C38.5605 40.7104 38.8572 40.8333 39.1667 40.8333C39.4761 40.8333 39.7728 40.7104 39.9916 40.4916C40.2104 40.2728 40.3333 39.9761 40.3333 39.6667V36.1667H48.71C48.9852 36.9451 49.5267 37.6012 50.2389 38.0189C50.951 38.4367 51.7879 38.5892 52.6017 38.4496C53.4154 38.31 54.1536 37.8872 54.6858 37.2559C55.218 36.6247 55.5098 35.8256 55.5098 35C55.5098 34.1744 55.218 33.3753 54.6858 32.7441C54.1536 32.1128 53.4154 31.69 52.6017 31.5504C51.7879 31.4108 50.951 31.5633 50.2389 31.9811C49.5267 32.3989 48.9852 33.0549 48.71 33.8333ZM52 33.8333C52.2307 33.8333 52.4563 33.9018 52.6482 34.03C52.84 34.1582 52.9896 34.3404 53.0779 34.5535C53.1662 34.7667 53.1893 35.0013 53.1442 35.2276C53.0992 35.4539 52.9881 35.6618 52.825 35.825C52.6618 35.9881 52.4539 36.0992 52.2276 36.1443C52.0013 36.1893 51.7667 36.1662 51.5535 36.0779C51.3404 35.9896 51.1581 35.84 51.03 35.6482C50.9018 35.4563 50.8333 35.2308 50.8333 35C50.8333 34.6906 50.9562 34.3938 51.175 34.175C51.3938 33.9563 51.6906 33.8333 52 33.8333Z" fill="#2A3E4E"/>
  <path d="M45 38.5C44.6906 38.5 44.3938 38.6229 44.175 38.8417C43.9563 39.0605 43.8333 39.3572 43.8333 39.6667V42.5367L40.8583 44.5317C40.6979 44.6374 40.566 44.781 40.4744 44.95C40.3828 45.1189 40.3343 45.3078 40.3333 45.5V48.0433C39.5549 48.3185 38.8989 48.8601 38.4811 49.5722C38.0633 50.2844 37.9108 51.1213 38.0504 51.935C38.19 52.7488 38.6128 53.487 39.2441 54.0191C39.8753 54.5513 40.6744 54.8432 41.5 54.8432C42.3256 54.8432 43.1247 54.5513 43.7559 54.0191C44.3872 53.487 44.81 52.7488 44.9496 51.935C45.0892 51.1213 44.9367 50.2844 44.5189 49.5722C44.1012 48.8601 43.4451 48.3185 42.6667 48.0433V46.13L45.6417 44.135C45.8022 44.0293 45.9341 43.8856 46.0256 43.7167C46.1172 43.5478 46.1657 43.3588 46.1667 43.1667V39.6667C46.1667 39.3572 46.0438 39.0605 45.825 38.8417C45.6062 38.6229 45.3094 38.5 45 38.5ZM41.5 52.5C41.2693 52.5 41.0437 52.4316 40.8518 52.3034C40.66 52.1752 40.5105 51.993 40.4221 51.7798C40.3338 51.5666 40.3107 51.332 40.3558 51.1057C40.4008 50.8794 40.5119 50.6715 40.675 50.5084C40.8382 50.3452 41.0461 50.2341 41.2724 50.1891C41.4987 50.1441 41.7333 50.1672 41.9465 50.2555C42.1596 50.3438 42.3419 50.4933 42.4701 50.6852C42.5982 50.877 42.6667 51.1026 42.6667 51.3333C42.6667 51.6428 42.5438 51.9395 42.325 52.1583C42.1062 52.3771 41.8094 52.5 41.5 52.5Z" fill="#2A3E4E"/>
  <path d="M51.9999 42C51.1791 42.0064 50.3867 42.301 49.7611 42.8324C49.1356 43.3639 48.7166 44.0982 48.5776 44.9072C48.4387 45.7162 48.5884 46.5483 49.0007 47.258C49.413 47.9678 50.0617 48.51 50.8333 48.79V50.855L48.8383 52.8383C48.6737 53.0015 48.5615 53.21 48.516 53.4372C48.4704 53.6644 48.4935 53.9 48.5823 54.1141C48.6712 54.3281 48.8218 54.5108 49.0149 54.6389C49.208 54.767 49.4349 54.8347 49.6666 54.8333C50.2966 54.8333 50.3316 54.6583 52.8283 52.1617C52.9364 52.0527 53.022 51.9234 53.08 51.7812C53.1381 51.6391 53.1675 51.4869 53.1666 51.3333V48.79C53.9382 48.51 54.5869 47.9678 54.9992 47.258C55.4115 46.5483 55.5612 45.7162 55.4222 44.9072C55.2832 44.0982 54.8643 43.3639 54.2388 42.8324C53.6132 42.301 52.8207 42.0064 51.9999 42ZM51.9999 46.6667C51.7692 46.6667 51.5436 46.5982 51.3518 46.47C51.1599 46.3419 51.0104 46.1596 50.9221 45.9465C50.8338 45.7333 50.8107 45.4987 50.8557 45.2724C50.9007 45.0461 51.0118 44.8382 51.175 44.675C51.3382 44.5119 51.546 44.4008 51.7723 44.3558C51.9987 44.3107 52.2332 44.3338 52.4464 44.4221C52.6596 44.5104 52.8418 44.66 52.97 44.8518C53.0982 45.0437 53.1666 45.2693 53.1666 45.5C53.1666 45.8094 53.0437 46.1062 52.8249 46.325C52.6061 46.5438 52.3094 46.6667 51.9999 46.6667Z" fill="#2A3E4E"/>
  <path d="M42.1883 29.1669H39.1667C38.8572 29.1669 38.5605 29.2898 38.3417 29.5086C38.1229 29.7274 38 30.0241 38 30.3335C38 30.6429 38.1229 30.9397 38.3417 31.1585C38.5605 31.3773 38.8572 31.5002 39.1667 31.5002H42.6667C43.3083 31.5002 43.32 31.3252 45.8283 28.8169C46.5733 29.1736 47.4204 29.2554 48.2198 29.0478C49.0192 28.8402 49.7195 28.3565 50.1967 27.6824C50.6739 27.0083 50.8974 26.1871 50.8275 25.3641C50.7576 24.5411 50.3989 23.7693 49.8149 23.1853C49.2309 22.6013 48.4591 22.2426 47.6361 22.1727C46.8131 22.1028 45.9919 22.3263 45.3178 22.8035C44.6437 23.2807 44.16 23.981 43.9524 24.7804C43.7448 25.5798 43.8266 26.4269 44.1833 27.1719L42.1883 29.1669ZM47.3333 24.5002C47.5252 24.4994 47.7143 24.5459 47.8839 24.6357C48.0535 24.7254 48.1983 24.8556 48.3056 25.0146C48.4128 25.1737 48.4792 25.3568 48.4988 25.5477C48.5184 25.7385 48.4906 25.9313 48.4179 26.1088C48.3452 26.2864 48.2299 26.4433 48.0821 26.5656C47.9343 26.688 47.7586 26.7719 47.5706 26.8101C47.3825 26.8484 47.188 26.8396 47.0042 26.7847C46.8203 26.7297 46.6529 26.6303 46.5167 26.4952C46.3528 26.3327 46.2409 26.1253 46.1949 25.8992C46.149 25.6731 46.1711 25.4384 46.2585 25.2249C46.3459 25.0113 46.4947 24.8285 46.686 24.6995C46.8773 24.5705 47.1026 24.5012 47.3333 24.5002Z" fill="#2A3E4E"/>
  <path d="M33.333 17.4993H23.9997C23.6903 17.4993 23.3935 17.3764 23.1747 17.1576C22.9559 16.9388 22.833 16.6421 22.833 16.3327C22.833 16.0233 22.9559 15.7265 23.1747 15.5077C23.3935 15.2889 23.6903 15.166 23.9997 15.166H33.333C33.6424 15.166 33.9392 15.2889 34.158 15.5077C34.3768 15.7265 34.4997 16.0233 34.4997 16.3327C34.4997 16.6421 34.3768 16.9388 34.158 17.1576C33.9392 17.3764 33.6424 17.4993 33.333 17.4993Z" fill="#BEC6C6"/>
  <path d="M30.9993 22.1673H26.3327C26.0233 22.1673 25.7265 22.0444 25.5077 21.8256C25.2889 21.6068 25.166 21.3101 25.166 21.0007C25.166 20.6912 25.2889 20.3945 25.5077 20.1757C25.7265 19.9569 26.0233 19.834 26.3327 19.834H30.9993C31.3088 19.834 31.6055 19.9569 31.8243 20.1757C32.0431 20.3945 32.166 20.6912 32.166 21.0007C32.166 21.3101 32.0431 21.6068 31.8243 21.8256C31.6055 22.0444 31.3088 22.1673 30.9993 22.1673Z" fill="#BEC6C6"/>
</svg>