<svg xmlns="http://www.w3.org/2000/svg" width="57" height="56" viewBox="0 0 57 56" fill="none">
  <path d="M53.9994 33.8324V22.1658L47.991 20.6608C47.1653 18.4672 45.9827 16.4253 44.491 14.6174L46.1827 8.69076L36.0793 2.85742L31.8327 7.31409C29.5182 6.8943 27.1471 6.8943 24.8327 7.31409L20.551 2.85742L10.4477 8.69076L12.1393 14.6174C10.6477 16.4253 9.46505 18.4672 8.63935 20.6608L2.66602 22.1658V33.8324L8.67435 35.3374C9.50005 37.531 10.6827 39.5729 12.1743 41.3808L10.4477 47.3074L20.551 53.1408L24.8327 48.6841C27.1471 49.1039 29.5182 49.1039 31.8327 48.6841L36.1377 53.1408L46.241 47.3074L44.5494 41.3808C46.041 39.5729 47.2236 37.531 48.0494 35.3374L53.9994 33.8324Z" fill="#16242F"/>
  <path d="M47.991 20.6608C47.1653 18.4672 45.9827 16.4253 44.491 14.6174L46.1827 8.69076L36.0793 2.85742L31.8327 7.31409C29.5188 6.88812 27.1466 6.88812 24.8327 7.31409L20.551 2.85742L10.4477 8.69076L12.1393 14.6174C10.6477 16.4253 9.46505 18.4672 8.63935 20.6608L2.66602 22.1658V33.8324L8.67435 35.3374C9.50005 37.531 10.6827 39.5729 12.1743 41.3808L10.4477 47.3074L20.551 53.1408L24.8327 48.6841C27.1466 49.1101 29.5188 49.1101 31.8327 48.6841L36.1377 53.1408L46.241 47.3074L44.5494 41.3808C46.041 39.5729 47.2236 37.531 48.0494 35.3374L53.9994 33.8324V22.1658L47.991 20.6608ZM28.3327 47.8324C24.41 47.8324 20.5754 46.6692 17.3139 44.4899C14.0523 42.3106 11.5102 39.213 10.0091 35.589C8.50793 31.9649 8.11517 27.9771 8.88044 24.1298C9.64571 20.2825 11.5347 16.7485 14.3084 13.9748C17.0821 11.2011 20.6161 9.31212 24.4634 8.54685C28.3107 7.78157 32.2985 8.17434 35.9226 9.67548C39.5466 11.1766 42.6442 13.7187 44.8235 16.9803C47.0028 20.2419 48.166 24.0764 48.166 27.9991C48.166 33.2592 46.0764 38.3039 42.357 42.0234C38.6375 45.7428 33.5928 47.8324 28.3327 47.8324Z" fill="#BEC6C6"/>
  <path d="M36.4993 21V27.6733C36.5015 30.1208 35.7053 32.5021 34.2314 34.456C32.7576 36.4099 30.6866 37.8297 28.3327 38.5C25.9798 37.828 23.9099 36.4078 22.4363 34.4543C20.9627 32.5007 20.1658 30.1203 20.166 27.6733V21C20.9149 21.0015 21.6474 20.7806 22.2706 20.3652C22.8937 19.9497 23.3794 19.3586 23.666 18.6667L28.3327 17.5L32.9993 18.6667L33.1277 18.9117C33.4389 19.5396 33.9196 20.068 34.5155 20.437C35.1113 20.8061 35.7985 21.0011 36.4993 21Z" fill="#E5BE20"/>
  <path d="M20.5512 54.3077C20.1079 54.3077 20.8779 54.681 9.86452 48.3227C9.63975 48.1924 9.4649 47.9908 9.36768 47.7499C9.27047 47.509 9.25645 47.2425 9.32785 46.9927L10.8329 41.6377C9.57409 40.0155 8.5491 38.2247 7.78785 36.3177L2.38619 34.9994C2.12733 34.9355 1.89816 34.7849 1.73683 34.5726C1.57551 34.3603 1.49175 34.0992 1.49952 33.8327V22.166C1.49175 21.8995 1.57551 21.6384 1.73683 21.4261C1.89816 21.2139 2.12733 21.0633 2.38619 20.9994L7.81118 19.646C8.56811 17.7526 9.58511 15.9739 10.8329 14.361L9.32785 9.00604C9.25645 8.75625 9.27047 8.48977 9.36768 8.24884C9.4649 8.00792 9.63975 7.80633 9.86452 7.67604L19.9679 1.84271C20.1932 1.71216 20.4557 1.66077 20.7137 1.69671C20.9716 1.73265 21.2101 1.85387 21.3912 2.04104L25.2762 6.06604C27.3018 5.75104 29.3639 5.75104 31.3895 6.06604L35.3329 2.04104C35.5139 1.85387 35.7524 1.73265 36.0104 1.69671C36.2683 1.66077 36.5308 1.71216 36.7562 1.84271L46.8595 7.67604C47.0843 7.80633 47.2591 8.00792 47.3563 8.24884C47.4536 8.48977 47.4676 8.75625 47.3962 9.00604L45.8328 14.361C47.0916 15.9833 48.1166 17.7741 48.8778 19.681L54.2795 20.9994C54.5384 21.0633 54.7675 21.2139 54.9289 21.4261C55.0902 21.6384 55.1739 21.8995 55.1662 22.166V33.8327C55.1739 34.0992 55.0902 34.3603 54.9289 34.5726C54.7675 34.7849 54.5384 34.9355 54.2795 34.9994L48.8545 36.3527C48.0976 38.2461 47.0806 40.0249 45.8328 41.6377L47.3612 46.9927C47.4326 47.2425 47.4186 47.509 47.3214 47.7499C47.2241 47.9908 47.0493 48.1924 46.8245 48.3227L36.7212 54.156C36.4996 54.278 36.2443 54.3245 35.9939 54.2888C35.7435 54.253 35.5115 54.1368 35.3329 53.9577L31.3895 49.9327C29.3639 50.2477 27.3018 50.2477 25.2762 49.9327L21.3912 53.9577C21.2818 54.0694 21.151 54.1579 21.0067 54.218C20.8624 54.2781 20.7075 54.3086 20.5512 54.3077ZM11.8245 46.7594L20.3412 51.6827L24.0162 47.8327C24.9495 46.8644 26.1862 48.3927 31.6112 47.4944C31.7987 47.4618 31.9914 47.4756 32.1724 47.5346C32.3534 47.5935 32.5172 47.6959 32.6495 47.8327L36.3245 51.636L44.8412 46.7127L43.3945 41.6494C43.3427 41.4677 43.3359 41.2762 43.3745 41.0912C43.4131 40.9063 43.496 40.7335 43.6162 40.5877C45.0206 38.883 46.1288 36.9545 46.8945 34.8827C46.9614 34.7047 47.0708 34.5458 47.2131 34.4197C47.3554 34.2936 47.5264 34.2043 47.7112 34.1594L52.8328 32.9227V23.076L47.7112 21.7927C47.5264 21.7478 47.3554 21.6584 47.2131 21.5324C47.0708 21.4063 46.9614 21.2474 46.8945 21.0694C46.1288 18.9976 45.0206 17.0691 43.6162 15.3644C43.496 15.2186 43.4131 15.0458 43.3745 14.8609C43.3359 14.6759 43.3427 14.4844 43.3945 14.3027L44.8412 9.23938L36.3245 4.31604L32.6495 8.16604C31.7045 9.13438 30.4912 7.59438 25.0545 8.50438C24.867 8.53697 24.6743 8.52318 24.4933 8.4642C24.3123 8.40523 24.1485 8.30287 24.0162 8.16604L20.3412 4.31604L11.8245 9.23938L13.2712 14.3027C13.323 14.4844 13.3298 14.6759 13.2912 14.8609C13.2526 15.0458 13.1697 15.2186 13.0495 15.3644C11.6467 17.0702 10.5387 18.9984 9.77118 21.0694C9.70431 21.2474 9.59494 21.4063 9.45261 21.5324C9.31027 21.6584 9.13928 21.7478 8.95452 21.7927L3.83285 23.076V32.9227L8.95452 34.206C9.13928 34.2509 9.31027 34.3403 9.45261 34.4664C9.59494 34.5924 9.70431 34.7514 9.77118 34.9294C10.5387 37.0003 11.6467 38.9285 13.0495 40.6344C13.1697 40.7802 13.2526 40.953 13.2912 41.1379C13.3298 41.3228 13.323 41.5144 13.2712 41.696L11.8245 46.7594Z" fill="#2A3E4E"/>
  <path d="M28.3324 44.3327C25.1019 44.3327 21.9441 43.3748 19.2581 41.58C16.572 39.7853 14.4786 37.2344 13.2423 34.2499C12.0061 31.2653 11.6826 27.9812 12.3129 24.8129C12.9431 21.6445 14.4987 18.7342 16.783 16.4499C19.0672 14.1657 21.9775 12.6101 25.1459 11.9799C28.3142 11.3496 31.5983 11.6731 34.5829 12.9093C37.5674 14.1456 40.1183 16.239 41.913 18.925C43.7078 21.611 44.6657 24.7689 44.6657 27.9994C44.6657 32.3312 42.9449 36.4857 39.8818 39.5488C36.8187 42.6119 32.6642 44.3327 28.3324 44.3327ZM28.3324 13.9994C25.5634 13.9994 22.8567 14.8204 20.5544 16.3588C18.2521 17.8971 16.4577 20.0836 15.3981 22.6418C14.3384 25.2 14.0612 28.0149 14.6014 30.7306C15.1416 33.4464 16.4749 35.9409 18.4329 37.8989C20.3908 39.8568 22.8854 41.1902 25.6011 41.7304C28.3168 42.2705 31.1318 41.9933 33.6899 40.9337C36.2481 39.874 38.4346 38.0796 39.9729 35.7773C41.5113 33.475 42.3324 30.7683 42.3324 27.9994C42.3324 24.2863 40.8574 20.7254 38.2319 18.0999C35.6063 15.4744 32.0454 13.9994 28.3324 13.9994Z" fill="#2A3E4E"/>
</svg>