<svg xmlns="http://www.w3.org/2000/svg" width="116" height="160" viewBox="0 0 116 160" fill="none">
  <path d="M87.4995 58.1427C102.858 61.4227 110.021 66.572 110.021 66.572C110.021 66.572 115.307 104.398 92.6146 134.691C80.337 149.776 66.416 157.534 62.0678 159.486C59.6644 159.041 43.4426 150.598 31.5279 134.691C8.83527 104.398 14.1284 66.572 14.1284 66.572C14.1284 66.572 21.2977 61.4227 36.6499 58.1427C54.2685 54.3834 69.8809 54.3834 87.4995 58.1427Z" fill="url(#paint0_radial_1048_6499)"/>
  <path d="M42.417 146.385C42.417 146.385 26.0515 133.032 26.6883 120.96C26.6883 120.96 27.7017 100.164 40.4175 84.9282C40.4175 84.9282 30.2148 79.9432 28.3043 69.624C28.3043 69.624 42.821 69.624 50.0725 82.5453C50.0725 82.5453 51.0408 79.6765 46.8063 75.8142C46.8063 75.8142 47.2171 74.9993 47.1487 74.3146C47.1487 74.3146 47.2171 73.7736 47.628 73.4997C47.628 73.4997 48.7167 74.1776 49.1276 75.061C49.5384 75.9443 50.2848 77.1015 57.2898 77.1015C64.2948 77.1015 73.7512 79.5529 73.5458 84.3119C73.5458 84.3119 73.0049 86.4894 77.6954 88.7354C82.386 90.9814 93.9514 95.535 93.9514 95.535C93.9514 95.535 96.8684 97.3702 95.451 100.363C94.1157 103.17 91.8561 106.046 91.8561 106.046C91.8561 106.046 89.3978 109.203 82.4613 107.635C75.5247 106.066 57.194 99.3696 38.0415 119.536C38.0415 119.536 26.4897 129.54 42.417 146.371V146.385Z" fill="url(#paint1_radial_1048_6499)"/>
  <path d="M94.0483 132.732C88.1252 142.551 68.3016 158.951 62.2963 159.554C49.6764 131.636 64.7683 118.167 64.7683 118.167C64.7683 118.167 64.556 117.667 64.3301 116.853C65.008 119.064 66.2473 121.112 67.7059 122.509C71.1639 126.357 78.97 130.068 94.0414 132.732H94.0483Z" fill="url(#paint2_linear_1048_6499)"/>
  <path d="M63.9575 115.674C64.1835 116.489 64.834 118.242 64.834 118.242C64.834 118.242 49.6668 131.636 62.2868 159.553C62.3141 159.629 62.3484 159.697 62.3826 159.766C62.3826 159.766 52.2278 155.917 41.7853 145.872C36.7387 140.497 33.4519 135.169 33.5546 129.233C33.6778 122.625 38.5601 117.667 44.8324 113.682C45.2364 113.422 45.6404 113.175 46.0376 112.935C47.6742 111.949 49.2696 111.121 50.7966 110.416C60.6228 105.862 67.7922 106.519 67.7922 106.519C62.1977 109.519 63.9439 115.633 63.9507 115.661L63.9575 115.674Z" fill="url(#paint3_linear_1048_6499)"/>
  <path d="M50.3067 84.5136C50.3341 83.9726 50.2177 82.788 49.1221 81.0008C48.5743 80.1038 47.7868 79.0629 46.657 77.8715C47.0815 77.3305 47.5129 76.8375 47.9854 76.4951C48.0744 76.6047 48.1634 76.7074 48.2456 76.8101C49.2453 78.0153 49.7931 79.3574 50.0807 80.5968C50.4779 82.3292 50.382 83.8562 50.3067 84.5136Z" fill="url(#paint4_linear_1048_6499)"/>
  <path d="M55.98 86.4844C55.98 86.4844 58.0479 85.3272 60.2049 85.8545C62.7385 86.4776 65.5734 88.6825 65.498 88.6688C65.498 88.6688 64.6216 88.299 62.7179 88.0799C61.8825 87.984 60.3282 88.0799 59.5202 87.7649C58.4519 87.3335 58.9587 86.5872 57.1304 86.3338C56.4388 86.2379 55.9731 86.4913 55.9731 86.4913L55.98 86.4844Z" fill="white"/>
  <path d="M93.161 104.273C91.4492 106.464 90.8945 108.861 85.4781 108.464C75.3643 107.717 76.7681 105.738 65.7025 106.69C60.0465 107.176 53.2469 108.423 44.845 113.695C45.8379 112.072 50.1313 108.06 53.5071 106.259C60.1492 102.712 64.8329 102.746 67.1747 102.746C68.6812 102.746 71.8927 102.849 78.2129 104.588C80.5342 105.225 84.9851 107.19 88.3267 106.567C91.1616 106.04 93.0309 104.355 93.161 104.273Z" fill="white"/>
  <path d="M95.632 68.0164C99.8227 69.8446 104.219 68.8518 107.773 65.8251C103.281 72.9534 95.2211 73.2616 90.6607 69.7282C90.3046 69.4543 82.4642 78.4657 65.633 78.9929C44.7344 79.6571 26.5406 62.4767 25.5271 61.6002C18.974 64.3324 8.96298 63.4354 5.01881 53.6777C8.71647 58.1902 15.0984 60.4499 20.6585 59.1283C23.5824 58.0806 23.1305 54.9445 19.9669 51.4659C18.166 49.487 15.475 48.1996 11.2843 44.4883C5.77204 39.8388 0.533691 31.4027 0.533691 24.3429C3.57399 30.6974 7.47707 37.8736 14.0096 40.9481C8.9219 28.7253 7.42914 10.0727 13.9206 0C13.9206 0 13.14 5.90256 12.7907 8.61417C11.928 15.4206 13.4823 24.0827 13.4823 24.0827C13.4823 24.0827 16.8924 21.871 18.933 19.6044C23.4592 14.5715 25.6504 9.7714 25.6504 9.7714C25.0478 15.941 21.535 23.0282 14.845 27.5681C14.845 27.5886 15.7489 34.9497 18.9809 41.4822C20.0833 33.5528 23.7673 29.7524 29.8547 27.0956C25.1163 32.779 20.1861 44.4746 24.8081 50.4251C29.4644 56.4235 32.8745 58.7585 38.0307 63.1135C37.6335 58.1285 38.5374 52.2397 41.6736 48.3024C40.5574 54.2118 40.7081 61.2716 43.5361 66.6058C44.7344 68.8312 53.1774 72.6316 60.6754 73.8094C66.0165 74.6448 75.1511 74.0422 76.993 71.7209C79.9786 67.9136 79.8827 62.5247 79.8416 57.7108C81.7521 61.2579 82.4779 67.4822 80.8687 71.1868C85.8332 68.0985 90.3252 64.935 94.5843 58.3682C96.4126 52.6163 94.913 46.5015 91.9822 41.3521C96.3989 44.3034 98.6312 50.069 97.6794 55.28C101.432 50.8086 103.733 43.8583 103.733 43.8515C99.1037 39.3321 97.3438 33.2515 97.7479 28.3008C97.7479 28.3008 98.7955 32.3956 101.644 36.9971C102.925 39.0719 105.301 41.2974 105.301 41.2974C105.301 41.2974 107.759 34.6964 108.04 29.2115C108.149 27.0203 108.375 22.2613 108.375 22.2613C112.066 30.9918 108.211 45.7072 102.493 54.5062C108.081 53.0135 112.169 47.9121 115.462 43.3379C114.463 48.8981 109.135 54.8007 104.13 57.6835C100.302 60.0116 98.9599 60.758 97.2548 62.0659C94.2693 64.3598 93.4682 66.7633 95.6183 68.0027L95.632 68.0164Z" fill="url(#paint5_radial_1048_6499)"/>
  <path d="M50.3071 84.5133C50.3345 83.9724 50.2181 82.7878 49.1225 81.0006C48.5747 80.1035 47.7872 79.0627 46.6574 77.8712C46.1233 77.3097 45.507 76.7209 44.8086 76.0909C43.3911 74.8172 40.0633 72.6329 36.7354 71.4688C32.7296 70.0651 29.6961 69.6953 28.7032 69.6063C28.4773 69.5857 28.354 69.5789 28.354 69.5789C31.8873 69.1133 34.8523 69.305 37.3448 69.8733C37.3516 69.8733 37.3585 69.8733 37.3653 69.8733C43.1378 71.1949 46.3356 74.5433 47.9858 76.488C48.0748 76.5976 48.1639 76.7003 48.246 76.803C49.2458 78.0082 49.7936 79.3503 50.0812 80.5897C50.4783 82.3221 50.3825 83.8491 50.3071 84.5065V84.5133Z" fill="url(#paint6_linear_1048_6499)"/>
  <defs>
    <radialGradient id="paint0_radial_1048_6499" cx="0" cy="0" r="1" gradientUnits="userSpaceOnUse" gradientTransform="translate(60.4313 95.1124) scale(50.3155)">
      <stop offset="0.37" stop-color="#E4BD20"/>
      <stop offset="0.63" stop-color="#D6AC24"/>
      <stop offset="1" stop-color="#BB8D2D"/>
    </radialGradient>
    <radialGradient id="paint1_radial_1048_6499" cx="0" cy="0" r="1" gradientUnits="userSpaceOnUse" gradientTransform="translate(61.2614 108.004) scale(36.5315)">
      <stop offset="0.37" stop-color="#1F6079"/>
      <stop offset="0.57" stop-color="#175068"/>
      <stop offset="0.95" stop-color="#04283E"/>
      <stop offset="1" stop-color="#022338"/>
    </radialGradient>
    <linearGradient id="paint2_linear_1048_6499" x1="64.3917" y1="127.151" x2="85.9956" y2="156.917" gradientUnits="userSpaceOnUse">
      <stop stop-color="#22667F"/>
      <stop offset="0.23" stop-color="#1D5B74"/>
      <stop offset="0.64" stop-color="#0F4057"/>
      <stop offset="1" stop-color="#022439"/>
    </linearGradient>
    <linearGradient id="paint3_linear_1048_6499" x1="46.7429" y1="146.475" x2="59.3149" y2="114.647" gradientUnits="userSpaceOnUse">
      <stop stop-color="#22667F"/>
      <stop offset="0.26" stop-color="#144960"/>
      <stop offset="0.52" stop-color="#0A344A"/>
      <stop offset="0.77" stop-color="#04283D"/>
      <stop offset="1" stop-color="#022439"/>
    </linearGradient>
    <linearGradient id="paint4_linear_1048_6499" x1="46.657" y1="80.5078" x2="50.3752" y2="80.5078" gradientUnits="userSpaceOnUse">
      <stop stop-color="#22667F"/>
      <stop offset="0.23" stop-color="#1D5B74"/>
      <stop offset="0.64" stop-color="#0F4057"/>
      <stop offset="1" stop-color="#022439"/>
    </linearGradient>
    <radialGradient id="paint5_radial_1048_6499" cx="0" cy="0" r="1" gradientUnits="userSpaceOnUse" gradientTransform="translate(62.0357 32.6146) rotate(137.55) scale(56.3893 66.5393)">
      <stop offset="0.49" stop-color="#28758C"/>
      <stop offset="0.9" stop-color="#022439"/>
    </radialGradient>
    <linearGradient id="paint6_linear_1048_6499" x1="28.354" y1="76.9194" x2="50.3756" y2="76.9194" gradientUnits="userSpaceOnUse">
      <stop offset="0.01" stop-color="#22667F"/>
      <stop offset="0.25" stop-color="#20627B"/>
      <stop offset="0.47" stop-color="#1B5870"/>
      <stop offset="0.69" stop-color="#12465D"/>
      <stop offset="0.89" stop-color="#062D43"/>
      <stop offset="0.96" stop-color="#022439"/>
      <stop offset="1" stop-color="#022439"/>
    </linearGradient>
  </defs>
</svg>