<svg width="133" height="30" viewBox="0 0 133 30" fill="none" xmlns="http://www.w3.org/2000/svg">
<g style="mix-blend-mode:luminosity" opacity="0.3">
<path d="M0.273987 6.66665V13.3333H6.99194H13.7099V6.66665V-1.90735e-05H6.99194H0.273987V6.66665Z" fill="white"/>
<path d="M14.941 6.66665V13.3333H21.6589H28.3769V6.66665V-1.90735e-05H21.6589H14.941V6.66665Z" fill="white"/>
<path d="M14.941 21.3333V28H21.6589H28.3769V21.3333V14.6667H21.6589H14.941V21.3333Z" fill="white"/>
<path d="M121.936 0.0664806C120.684 0.333147 119.556 1.23571 119.012 2.42546C118.725 3.04084 118.695 3.19469 118.654 4.49725L118.612 5.91263H117.597H116.582V7.1434V8.37417H117.607H118.633V13.246V18.1178H120.12H121.607V13.246V8.37417H123.648H125.7L125.73 12.1383L125.761 15.9126L126.059 16.5588C126.387 17.2665 126.848 17.728 127.546 18.0562C127.946 18.2408 128.212 18.2716 129.3 18.2716C130.018 18.2716 130.777 18.2101 131.023 18.1383L131.454 18.0049V16.7844C131.454 16.1075 131.433 15.5537 131.412 15.5537C131.392 15.5537 131.207 15.6255 131.012 15.7075C130.448 15.9434 129.7 15.9024 129.3 15.6255C128.736 15.246 128.705 15.0101 128.695 11.5229L128.684 8.37417H130.12H131.556V7.1434V5.91263H130.12H128.684V4.10751C128.684 2.70238 128.654 2.31263 128.561 2.3434C128.489 2.36392 127.812 2.56905 127.074 2.79469L125.71 3.19469V4.54853V5.91263H123.659H121.607V4.85622C121.607 3.63571 121.823 3.0511 122.418 2.66135C122.828 2.38443 123.669 2.3434 124.305 2.56905L124.684 2.71263V1.44084C124.684 0.548532 124.643 0.158789 124.561 0.09725C124.366 -0.0155697 122.448 -0.0360832 121.936 0.0664806Z" fill="white"/>
<path d="M58.007 1.18445C57.4737 1.52291 57.248 1.95368 57.2686 2.61009C57.2891 3.15368 57.6788 3.78958 58.1301 4.01522C58.8583 4.39471 60.0378 4.12804 60.5301 3.47163C60.8275 3.07163 60.8173 2.03573 60.5198 1.63573C59.9147 0.825478 58.8686 0.630606 58.007 1.18445Z" fill="white"/>
<path d="M36.6843 9.6562V18.1177H38.0689H39.4535L39.474 11.6152L39.5048 5.11261L40.4381 7.44081C40.9509 8.71261 42.1304 11.6357 43.0535 13.9331L44.7355 18.1177H45.7612L46.7868 18.1075L49.3509 11.5947L51.915 5.07158L51.9458 11.5947L51.9663 18.1177H53.4535H54.9407V9.6562V1.19466H52.9099H50.8894L48.4894 7.06133C47.1663 10.2921 46.0176 13.0921 45.9355 13.287L45.792 13.6459L43.8535 8.6203C42.7868 5.86133 41.6996 3.06133 41.4432 2.39466L40.9714 1.19466H38.8279H36.6843V9.6562Z" fill="white"/>
<path d="M97.72 5.76903C96.561 6.07672 95.5661 6.8357 95.0635 7.81005C94.8276 8.26134 94.7969 8.44595 94.7866 9.34852C94.7866 11.1947 95.3097 11.8613 97.6994 13.0101C99.3405 13.7895 99.5969 13.9742 99.761 14.4972C100.048 15.3485 99.5559 15.8613 98.3866 15.9434C97.4635 16.0049 96.5918 15.7895 95.5251 15.2562C94.9712 14.9793 94.7046 14.887 94.6738 14.9793C94.643 15.0511 94.643 15.6767 94.6533 16.3844L94.6841 17.6562L95.043 17.8306C96.0276 18.3024 98.5815 18.487 99.7918 18.169C101.166 17.8101 102.233 16.9588 102.633 15.8921C102.961 15.0203 102.899 13.769 102.479 12.9998C101.976 12.087 101.597 11.8306 98.6533 10.4562C97.9559 10.128 97.6789 9.728 97.7405 9.11262C97.8635 7.89211 99.4123 7.6357 101.289 8.528C101.699 8.72288 102.058 8.88698 102.079 8.88698C102.099 8.88698 102.12 8.24082 102.12 7.46134V6.0357L101.207 5.82031C100.13 5.5639 98.561 5.54339 97.72 5.76903Z" fill="white"/>
<path d="M67.0438 5.86134C63.7515 6.5998 61.7617 10.0254 62.4694 13.7383C62.6951 14.9177 63.1669 15.7895 64.0694 16.6818C65.3207 17.9331 66.3669 18.3331 68.4284 18.3331C69.6899 18.3331 70.8592 18.1177 71.5463 17.7588L71.8643 17.5947V16.2101V14.8254L71.4335 15.0921C70.2438 15.8203 69.3002 16.0562 68.2951 15.8716C66.5002 15.5434 65.5258 14.3742 65.4233 12.4357C65.3207 10.5075 66.0079 9.1639 67.454 8.49723C68.6027 7.9639 70.0797 8.10749 71.331 8.88698L71.813 9.18441L71.8438 7.78954C71.8643 6.74339 71.8335 6.3639 71.7412 6.30236C71.6694 6.26134 71.3104 6.11775 70.9412 6.00493C70.0694 5.71775 68.0284 5.64595 67.0438 5.86134Z" fill="white"/>
<path d="M79.2995 5.81005C78.2738 5.95364 77.6482 6.36389 77.0841 7.23569L76.7867 7.69722V6.80492V5.91261H75.3508H73.9149V12.0152V18.1177H75.3405H76.7764L76.8072 14.4459C76.8482 10.2408 76.879 10.0665 77.6995 9.17415C78.0687 8.77415 78.2841 8.63056 78.6841 8.52799C79.2687 8.3844 80.0687 8.46646 80.602 8.72287C80.7764 8.81517 80.9405 8.88697 80.961 8.88697C80.9713 8.88697 80.9918 8.2203 80.9918 7.39979C80.9918 5.94338 80.9918 5.91261 80.7661 5.87158C80.2431 5.76902 79.7815 5.74851 79.2995 5.81005Z" fill="white"/>
<path d="M85.6074 5.87158C83.9253 6.23056 82.5715 7.27671 81.8227 8.80492C81.2894 9.87158 81.0945 10.7844 81.0945 12.2306C81.0945 15.3383 82.551 17.4511 85.1971 18.1793C85.6894 18.3229 86.2227 18.3639 87.2484 18.3639C88.4689 18.3536 88.7356 18.3229 89.4535 18.087C90.9304 17.5947 92.0279 16.6511 92.6945 15.2972C93.2689 14.1177 93.4125 13.4511 93.4228 12.0152C93.433 9.84081 92.951 8.51774 91.7202 7.28697C90.9099 6.47671 90.192 6.08697 89.1151 5.85107C88.2535 5.67671 86.4792 5.67671 85.6074 5.87158ZM88.6433 8.37415C90.1715 9.03056 90.8381 11.1126 90.3048 13.5536C90.0894 14.569 89.5253 15.3075 88.6843 15.6972C88.0381 15.9947 86.6638 15.9947 86.0074 15.6972C84.9304 15.2049 84.3561 14.3229 84.1612 12.8767C83.9458 11.3177 84.3253 9.8921 85.1869 9.01005C86.0381 8.12799 87.4638 7.87158 88.6433 8.37415Z" fill="white"/>
<path d="M108.941 5.7793C107.771 5.93315 106.418 6.64084 105.587 7.53315C104.5 8.71264 104.028 10.0767 104.028 12.1178C104.018 13.6357 104.13 14.2306 104.643 15.3178C105.546 17.2152 107.259 18.2716 109.659 18.3844C113.895 18.6101 116.582 15.8306 116.346 11.5024C116.315 10.9383 116.212 10.1998 116.12 9.86136C115.556 7.74854 114.059 6.29212 112.018 5.86135C111.361 5.72802 109.7 5.67674 108.941 5.7793ZM111.71 8.487C112.418 8.83571 112.715 9.17418 113.084 10.046C113.31 10.6101 113.341 10.8255 113.351 11.9639C113.351 13.5024 113.177 14.169 112.592 14.9075C112.038 15.6152 111.371 15.9024 110.274 15.9024C108.633 15.9024 107.597 15.0921 107.187 13.5024C106.961 12.5998 107.033 11.0101 107.341 10.2101C108.048 8.37418 109.946 7.62546 111.71 8.487Z" fill="white"/>
<path d="M57.5763 5.9844C57.5352 6.01517 57.5045 8.76389 57.5045 12.087V18.1177H58.9916H60.4788V12.0152V5.91261H59.0634C58.2839 5.91261 57.607 5.94338 57.5763 5.9844Z" fill="white"/>
<path d="M0.273987 21.3333V28H6.99194H13.7099V21.3333V14.6667H6.99194H0.273987V21.3333Z" fill="white"/>
<path d="M38.8382 28.105C38.3342 28.105 37.9049 27.9953 37.5502 27.776C37.1955 27.5543 36.9237 27.2463 36.7347 26.852C36.548 26.4577 36.4547 26.0003 36.4547 25.48C36.4547 24.9597 36.548 24.5023 36.7347 24.108C36.9237 23.7137 37.1955 23.4068 37.5502 23.1875C37.9049 22.9658 38.3342 22.855 38.8382 22.855C39.4192 22.855 39.8999 23.002 40.2802 23.296C40.6629 23.59 40.9289 23.9855 41.0782 24.4825L40.3362 24.682C40.2382 24.3297 40.0632 24.0532 39.8112 23.8525C39.5615 23.6518 39.2372 23.5515 38.8382 23.5515C38.4812 23.5515 38.1837 23.632 37.9457 23.793C37.7077 23.954 37.528 24.1792 37.4067 24.4685C37.2877 24.7578 37.2282 25.095 37.2282 25.48C37.2259 25.865 37.2842 26.2022 37.4032 26.4915C37.5245 26.7808 37.7042 27.006 37.9422 27.167C38.1825 27.328 38.4812 27.4085 38.8382 27.4085C39.2372 27.4085 39.5615 27.3082 39.8112 27.1075C40.0632 26.9045 40.2382 26.628 40.3362 26.278L41.0782 26.4775C40.9289 26.9745 40.6629 27.37 40.2802 27.664C39.8999 27.958 39.4192 28.105 38.8382 28.105ZM43.9895 28.105C43.6115 28.105 43.2836 28.0198 43.006 27.8495C42.7283 27.6792 42.5136 27.4447 42.362 27.146C42.2126 26.845 42.138 26.4985 42.138 26.1065C42.138 25.7122 42.215 25.3657 42.369 25.067C42.523 24.766 42.7388 24.5327 43.0165 24.367C43.2941 24.199 43.6185 24.115 43.9895 24.115C44.3675 24.115 44.6953 24.2002 44.973 24.3705C45.2506 24.5408 45.4653 24.7753 45.617 25.074C45.7686 25.3727 45.8445 25.7168 45.8445 26.1065C45.8445 26.5008 45.7675 26.8485 45.6135 27.1495C45.4618 27.4482 45.2471 27.6827 44.9695 27.853C44.6918 28.021 44.3651 28.105 43.9895 28.105ZM43.9895 27.4155C44.3511 27.4155 44.6206 27.2942 44.798 27.0515C44.9776 26.8065 45.0675 26.4915 45.0675 26.1065C45.0675 25.7122 44.9765 25.3972 44.7945 25.1615C44.6148 24.9235 44.3465 24.8045 43.9895 24.8045C43.7445 24.8045 43.5426 24.8605 43.384 24.9725C43.2253 25.0822 43.1075 25.235 43.0305 25.431C42.9535 25.6247 42.915 25.8498 42.915 26.1065C42.915 26.5032 43.006 26.8205 43.188 27.0585C43.37 27.2965 43.6371 27.4155 43.9895 27.4155ZM51.6426 28L51.6461 25.6445C51.6461 25.3715 51.5761 25.1592 51.4361 25.0075C51.2961 24.8535 51.1118 24.7765 50.8831 24.7765C50.7431 24.7765 50.6148 24.8092 50.4981 24.8745C50.3838 24.9375 50.2904 25.0332 50.2181 25.1615C50.1481 25.2875 50.1131 25.4462 50.1131 25.6375L49.7596 25.459C49.7549 25.193 49.8109 24.9597 49.9276 24.759C50.0466 24.5583 50.2076 24.4032 50.4106 24.2935C50.6136 24.1815 50.8411 24.1255 51.0931 24.1255C51.5014 24.1255 51.8176 24.248 52.0416 24.493C52.2656 24.738 52.3776 25.0635 52.3776 25.4695L52.3741 28H51.6426ZM47.1101 28V24.22H47.7611V25.312H47.8451V28H47.1101ZM49.3781 28L49.3816 25.6585C49.3816 25.3832 49.3116 25.1673 49.1716 25.011C49.0339 24.8547 48.8484 24.7765 48.6151 24.7765C48.3841 24.7765 48.1974 24.8558 48.0551 25.0145C47.9151 25.1732 47.8451 25.3808 47.8451 25.6375L47.4951 25.4135C47.4951 25.1662 47.5546 24.9457 47.6736 24.752C47.7926 24.5583 47.9536 24.4055 48.1566 24.2935C48.3596 24.1815 48.5894 24.1255 48.8461 24.1255C49.1144 24.1255 49.3431 24.1827 49.5321 24.297C49.7211 24.409 49.8646 24.5665 49.9626 24.7695C50.0629 24.9725 50.1131 25.2082 50.1131 25.4765L50.1096 28H49.3781ZM55.5609 28.105C55.1993 28.105 54.8959 28.0175 54.6509 27.8425C54.4059 27.6652 54.2204 27.426 54.0944 27.125C53.9684 26.824 53.9054 26.4845 53.9054 26.1065C53.9054 25.7285 53.9673 25.389 54.0909 25.088C54.2169 24.787 54.4013 24.5502 54.6439 24.3775C54.8889 24.2025 55.1899 24.115 55.5469 24.115C55.9016 24.115 56.2073 24.2025 56.4639 24.3775C56.7229 24.5502 56.9224 24.787 57.0624 25.088C57.2024 25.3867 57.2724 25.7262 57.2724 26.1065C57.2724 26.4845 57.2024 26.8252 57.0624 27.1285C56.9248 27.4295 56.7276 27.6675 56.4709 27.8425C56.2166 28.0175 55.9133 28.105 55.5609 28.105ZM53.7829 29.68V24.22H54.4339V26.9395H54.5179V29.68H53.7829ZM55.4594 27.4435C55.6928 27.4435 55.8853 27.384 56.0369 27.265C56.1909 27.146 56.3053 26.9862 56.3799 26.7855C56.4569 26.5825 56.4954 26.3562 56.4954 26.1065C56.4954 25.8592 56.4569 25.6352 56.3799 25.4345C56.3053 25.2338 56.1898 25.074 56.0334 24.955C55.8771 24.836 55.6776 24.7765 55.4349 24.7765C55.2063 24.7765 55.0173 24.8325 54.8679 24.9445C54.7209 25.0565 54.6113 25.2128 54.5389 25.4135C54.4689 25.6142 54.4339 25.8452 54.4339 26.1065C54.4339 26.3678 54.4689 26.5988 54.5389 26.7995C54.6089 27.0002 54.7198 27.1577 54.8714 27.272C55.0231 27.3863 55.2191 27.4435 55.4594 27.4435ZM59.6127 28.105C59.3327 28.105 59.0982 28.0537 58.9092 27.951C58.7202 27.846 58.5767 27.7083 58.4787 27.538C58.3831 27.3653 58.3352 27.1763 58.3352 26.971C58.3352 26.7797 58.3691 26.6117 58.4367 26.467C58.5044 26.3223 58.6047 26.1998 58.7377 26.0995C58.8707 25.9968 59.0341 25.914 59.2277 25.851C59.3957 25.802 59.5859 25.7588 59.7982 25.7215C60.0106 25.6842 60.2334 25.6492 60.4667 25.6165C60.7024 25.5838 60.9357 25.5512 61.1667 25.5185L60.9007 25.6655C60.9054 25.3692 60.8424 25.1498 60.7117 25.0075C60.5834 24.8628 60.3617 24.7905 60.0467 24.7905C59.8484 24.7905 59.6664 24.8372 59.5007 24.9305C59.3351 25.0215 59.2196 25.1732 59.1542 25.3855L58.4717 25.1755C58.5651 24.8512 58.7424 24.5933 59.0037 24.402C59.2674 24.2107 59.6174 24.115 60.0537 24.115C60.3921 24.115 60.6861 24.1733 60.9357 24.29C61.1877 24.4043 61.3721 24.5863 61.4887 24.836C61.5494 24.9597 61.5867 25.0903 61.6007 25.228C61.6147 25.3657 61.6217 25.5138 61.6217 25.6725V28H60.9742V27.1355L61.1002 27.2475C60.9439 27.5368 60.7444 27.7527 60.5017 27.895C60.2614 28.035 59.9651 28.105 59.6127 28.105ZM59.7422 27.5065C59.9499 27.5065 60.1284 27.4703 60.2777 27.398C60.4271 27.3233 60.5472 27.2288 60.6382 27.1145C60.7292 27.0002 60.7887 26.8812 60.8167 26.7575C60.8564 26.6455 60.8786 26.5195 60.8832 26.3795C60.8902 26.2395 60.8937 26.1275 60.8937 26.0435L61.1317 26.131C60.9007 26.166 60.6907 26.1975 60.5017 26.2255C60.3127 26.2535 60.1412 26.2815 59.9872 26.3095C59.8356 26.3352 59.7002 26.3667 59.5812 26.404C59.4809 26.439 59.3911 26.481 59.3117 26.53C59.2347 26.579 59.1729 26.6385 59.1262 26.7085C59.0819 26.7785 59.0597 26.8637 59.0597 26.964C59.0597 27.062 59.0842 27.153 59.1332 27.237C59.1822 27.3187 59.2569 27.384 59.3572 27.433C59.4576 27.482 59.5859 27.5065 59.7422 27.5065ZM65.1936 28C64.9556 28.0467 64.7223 28.0665 64.4936 28.0595C64.2649 28.0525 64.0608 28.0082 63.8811 27.9265C63.7014 27.8448 63.5661 27.7165 63.4751 27.5415C63.3934 27.3852 63.3491 27.2265 63.3421 27.0655C63.3374 26.9022 63.3351 26.7178 63.3351 26.5125V23.17H64.0701V26.4775C64.0701 26.6292 64.0713 26.761 64.0736 26.873C64.0783 26.985 64.1028 27.0795 64.1471 27.1565C64.2311 27.3012 64.3641 27.384 64.5461 27.405C64.7304 27.4237 64.9463 27.4155 65.1936 27.3805V28ZM62.6106 24.808V24.22H65.1936V24.808H62.6106ZM66.5605 23.6005V22.89H67.292V23.6005H66.5605ZM66.5605 28V24.22H67.292V28H66.5605ZM70.6176 28.105C70.2559 28.105 69.9526 28.0175 69.7076 27.8425C69.4626 27.6652 69.2771 27.426 69.1511 27.125C69.0251 26.824 68.9621 26.4845 68.9621 26.1065C68.9621 25.7285 69.0239 25.389 69.1476 25.088C69.2736 24.787 69.4579 24.5502 69.7006 24.3775C69.9456 24.2025 70.2466 24.115 70.6036 24.115C70.9583 24.115 71.2639 24.2025 71.5206 24.3775C71.7796 24.5502 71.9791 24.787 72.1191 25.088C72.2591 25.3867 72.3291 25.7262 72.3291 26.1065C72.3291 26.4845 72.2591 26.8252 72.1191 27.1285C71.9814 27.4295 71.7843 27.6675 71.5276 27.8425C71.2733 28.0175 70.9699 28.105 70.6176 28.105ZM68.8396 28V22.96H69.5746V25.2805H69.4906V28H68.8396ZM70.5161 27.4435C70.7494 27.4435 70.9419 27.384 71.0936 27.265C71.2476 27.146 71.3619 26.9862 71.4366 26.7855C71.5136 26.5825 71.5521 26.3562 71.5521 26.1065C71.5521 25.8592 71.5136 25.6352 71.4366 25.4345C71.3619 25.2338 71.2464 25.074 71.0901 24.955C70.9338 24.836 70.7343 24.7765 70.4916 24.7765C70.2629 24.7765 70.0739 24.8325 69.9246 24.9445C69.7776 25.0565 69.6679 25.2128 69.5956 25.4135C69.5256 25.6142 69.4906 25.8452 69.4906 26.1065C69.4906 26.3678 69.5256 26.5988 69.5956 26.7995C69.6656 27.0002 69.7764 27.1577 69.9281 27.272C70.0798 27.3863 70.2758 27.4435 70.5161 27.4435ZM73.6719 28V22.855H74.4034V28H73.6719ZM77.6309 28.105C77.2552 28.105 76.9251 28.0233 76.6404 27.86C76.3581 27.6943 76.1376 27.4645 75.9789 27.1705C75.8226 26.8742 75.7444 26.5312 75.7444 26.1415C75.7444 25.7285 75.8214 25.3703 75.9754 25.067C76.1317 24.7637 76.3487 24.5292 76.6264 24.3635C76.9041 24.1978 77.2272 24.115 77.5959 24.115C77.9809 24.115 78.3088 24.2048 78.5794 24.3845C78.8501 24.5618 79.0519 24.815 79.1849 25.144C79.3203 25.473 79.3739 25.8638 79.3459 26.3165H78.6144V26.0505C78.6098 25.6118 78.5258 25.2875 78.3624 25.0775C78.2014 24.8675 77.9553 24.7625 77.6239 24.7625C77.2576 24.7625 76.9822 24.878 76.7979 25.109C76.6136 25.34 76.5214 25.6737 76.5214 26.11C76.5214 26.5253 76.6136 26.8473 76.7979 27.076C76.9822 27.3023 77.2482 27.4155 77.5959 27.4155C77.8246 27.4155 78.0217 27.3642 78.1874 27.2615C78.3554 27.1565 78.4861 27.0072 78.5794 26.8135L79.2969 27.041C79.1499 27.3793 78.9271 27.6418 78.6284 27.8285C78.3297 28.0128 77.9972 28.105 77.6309 28.105ZM76.2834 26.3165V25.746H78.9819V26.3165H76.2834ZM83.3375 28L82.1825 24.2165L82.907 24.22L83.698 26.8135L84.496 24.22H85.126L85.924 26.8135L86.715 24.22H87.436L86.281 28H85.693L84.811 25.263L83.9255 28H83.3375ZM88.6328 23.6005V22.89H89.3643V23.6005H88.6328ZM88.6328 28V24.22H89.3643V28H88.6328ZM93.0784 28C92.8404 28.0467 92.607 28.0665 92.3784 28.0595C92.1497 28.0525 91.9455 28.0082 91.7659 27.9265C91.5862 27.8448 91.4509 27.7165 91.3599 27.5415C91.2782 27.3852 91.2339 27.2265 91.2269 27.0655C91.2222 26.9022 91.2199 26.7178 91.2199 26.5125V23.17H91.9549V26.4775C91.9549 26.6292 91.956 26.761 91.9584 26.873C91.963 26.985 91.9875 27.0795 92.0319 27.1565C92.1159 27.3012 92.2489 27.384 92.4309 27.405C92.6152 27.4237 92.831 27.4155 93.0784 27.3805V28ZM90.4954 24.808V24.22H93.0784V24.808H90.4954ZM97.0283 28V26.1415C97.0283 25.9945 97.0155 25.844 96.9898 25.69C96.9665 25.5337 96.9198 25.389 96.8498 25.256C96.7821 25.123 96.6853 25.0157 96.5593 24.934C96.4356 24.8523 96.2735 24.8115 96.0728 24.8115C95.9421 24.8115 95.8185 24.8337 95.7018 24.878C95.5851 24.92 95.4825 24.9888 95.3938 25.0845C95.3075 25.1802 95.2386 25.3062 95.1873 25.4625C95.1383 25.6188 95.1138 25.809 95.1138 26.033L94.6588 25.8615C94.6588 25.5185 94.723 25.2163 94.8513 24.955C94.9796 24.6913 95.164 24.486 95.4043 24.339C95.6446 24.192 95.9351 24.1185 96.2758 24.1185C96.5371 24.1185 96.7565 24.1605 96.9338 24.2445C97.1111 24.3285 97.2546 24.4393 97.3643 24.577C97.4763 24.7123 97.5615 24.8605 97.6198 25.0215C97.6781 25.1825 97.7178 25.34 97.7388 25.494C97.7598 25.648 97.7703 25.7833 97.7703 25.9V28H97.0283ZM94.3718 28V22.96H95.0263V25.6795H95.1138V28H94.3718ZM101.888 28L100.733 24.2165L101.458 24.22L102.249 26.8135L103.047 24.22H103.677L104.475 26.8135L105.266 24.22H105.987L104.832 28H104.244L103.362 25.263L102.476 28H101.888ZM107.184 23.6005V22.89H107.915V23.6005H107.184ZM107.184 28V24.22H107.915V28H107.184ZM112.119 28V26.1415C112.119 25.9945 112.106 25.844 112.081 25.69C112.057 25.5337 112.011 25.389 111.941 25.256C111.873 25.123 111.776 25.0157 111.65 24.934C111.526 24.8523 111.364 24.8115 111.164 24.8115C111.033 24.8115 110.909 24.8337 110.793 24.878C110.676 24.92 110.573 24.9888 110.485 25.0845C110.398 25.1802 110.329 25.3062 110.278 25.4625C110.229 25.6188 110.205 25.809 110.205 26.033L109.75 25.8615C109.75 25.5185 109.814 25.2163 109.942 24.955C110.07 24.6913 110.255 24.486 110.495 24.339C110.735 24.192 111.026 24.1185 111.367 24.1185C111.628 24.1185 111.847 24.1605 112.025 24.2445C112.202 24.3285 112.345 24.4393 112.455 24.577C112.567 24.7123 112.652 24.8605 112.711 25.0215C112.769 25.1825 112.809 25.34 112.83 25.494C112.851 25.648 112.861 25.7833 112.861 25.9V28H112.119ZM109.463 28V24.22H110.117V25.312H110.205V28H109.463ZM115.726 28.105C115.374 28.105 115.07 28.0175 114.813 27.8425C114.559 27.6675 114.361 27.4295 114.221 27.1285C114.084 26.8252 114.015 26.4845 114.015 26.1065C114.015 25.7262 114.085 25.3867 114.225 25.088C114.365 24.787 114.563 24.5502 114.82 24.3775C115.079 24.2025 115.386 24.115 115.74 24.115C116.097 24.115 116.397 24.2025 116.64 24.3775C116.885 24.5502 117.069 24.787 117.193 25.088C117.319 25.389 117.382 25.7285 117.382 26.1065C117.382 26.4845 117.319 26.824 117.193 27.125C117.067 27.426 116.881 27.6652 116.636 27.8425C116.391 28.0175 116.088 28.105 115.726 28.105ZM115.828 27.4435C116.068 27.4435 116.264 27.3863 116.416 27.272C116.568 27.1577 116.678 27.0002 116.748 26.7995C116.818 26.5988 116.853 26.3678 116.853 26.1065C116.853 25.8452 116.817 25.6142 116.745 25.4135C116.675 25.2128 116.565 25.0565 116.416 24.9445C116.269 24.8325 116.081 24.7765 115.852 24.7765C115.61 24.7765 115.41 24.836 115.254 24.955C115.098 25.074 114.981 25.2338 114.904 25.4345C114.829 25.6352 114.792 25.8592 114.792 26.1065C114.792 26.3562 114.829 26.5825 114.904 26.7855C114.981 26.9862 115.095 27.146 115.247 27.265C115.401 27.384 115.595 27.4435 115.828 27.4435ZM116.853 28V25.2805H116.769V22.96H117.504V28H116.853ZM120.625 28.105C120.247 28.105 119.919 28.0198 119.642 27.8495C119.364 27.6792 119.149 27.4447 118.998 27.146C118.848 26.845 118.774 26.4985 118.774 26.1065C118.774 25.7122 118.851 25.3657 119.005 25.067C119.159 24.766 119.375 24.5327 119.652 24.367C119.93 24.199 120.254 24.115 120.625 24.115C121.003 24.115 121.331 24.2002 121.609 24.3705C121.886 24.5408 122.101 24.7753 122.253 25.074C122.404 25.3727 122.48 25.7168 122.48 26.1065C122.48 26.5008 122.403 26.8485 122.249 27.1495C122.098 27.4482 121.883 27.6827 121.605 27.853C121.328 28.021 121.001 28.105 120.625 28.105ZM120.625 27.4155C120.987 27.4155 121.256 27.2942 121.434 27.0515C121.613 26.8065 121.703 26.4915 121.703 26.1065C121.703 25.7122 121.612 25.3972 121.43 25.1615C121.251 24.9235 120.982 24.8045 120.625 24.8045C120.38 24.8045 120.178 24.8605 120.02 24.9725C119.861 25.0822 119.743 25.235 119.666 25.431C119.589 25.6247 119.551 25.8498 119.551 26.1065C119.551 26.5032 119.642 26.8205 119.824 27.0585C120.006 27.2965 120.273 27.4155 120.625 27.4155ZM124.418 28L123.263 24.2165L123.987 24.22L124.778 26.8135L125.576 24.22H126.206L127.004 26.8135L127.795 24.22H128.516L127.361 28H126.773L125.891 25.263L125.006 28H124.418ZM130.952 28.1015C130.492 28.1015 130.118 28 129.828 27.797C129.539 27.594 129.362 27.3082 129.296 26.9395L130.045 26.824C130.092 27.02 130.199 27.1752 130.367 27.2895C130.538 27.4015 130.749 27.4575 131.001 27.4575C131.229 27.4575 131.408 27.4108 131.536 27.3175C131.667 27.2242 131.732 27.0958 131.732 26.9325C131.732 26.8368 131.709 26.7598 131.662 26.7015C131.618 26.6408 131.523 26.5837 131.379 26.53C131.234 26.4763 131.014 26.4098 130.717 26.3305C130.393 26.2465 130.135 26.1567 129.944 26.061C129.755 25.963 129.619 25.8498 129.538 25.7215C129.458 25.5908 129.419 25.4333 129.419 25.249C129.419 25.0203 129.479 24.8208 129.601 24.6505C129.722 24.4802 129.892 24.3483 130.112 24.255C130.333 24.1617 130.592 24.115 130.889 24.115C131.178 24.115 131.436 24.1605 131.662 24.2515C131.889 24.3425 132.072 24.472 132.212 24.64C132.352 24.8057 132.436 25.0005 132.464 25.2245L131.715 25.361C131.689 25.179 131.604 25.0355 131.459 24.9305C131.315 24.8255 131.127 24.7683 130.896 24.759C130.674 24.7497 130.494 24.787 130.357 24.871C130.219 24.9527 130.15 25.0658 130.15 25.2105C130.15 25.2945 130.176 25.3657 130.227 25.424C130.281 25.4823 130.384 25.5383 130.535 25.592C130.687 25.6457 130.911 25.7098 131.207 25.7845C131.525 25.8662 131.777 25.9572 131.963 26.0575C132.15 26.1555 132.283 26.2733 132.362 26.411C132.444 26.5463 132.485 26.7108 132.485 26.9045C132.485 27.2778 132.348 27.5707 132.075 27.783C131.805 27.9953 131.43 28.1015 130.952 28.1015Z" fill="white"/>
</g>
</svg>
