<svg width="84" height="30" viewBox="0 0 84 30" fill="none" xmlns="http://www.w3.org/2000/svg">
<g id="Net Protector Antivirus _ Download best antivirus for pc_Download npav.-0 1" style="mix-blend-mode:luminosity" opacity="0.3" clip-path="url(#clip0_137_620)">
<g id="Layer_x0020_1">
<g id="_1651272992">
<g id="Group">
<path id="Vector" fill-rule="evenodd" clip-rule="evenodd" d="M11.9544 2.03241H71.8669C77.1672 2.03241 81.5029 7.8673 81.5029 14.9993C81.5029 22.1313 77.1672 27.9662 71.8669 27.9662H11.9544C6.65409 27.9662 2.31842 22.1313 2.31842 14.9993C2.31842 7.8673 6.65409 2.03241 11.9544 2.03241Z" fill="#FEFEFE"/>
<path id="1" d="M71.867 4.06625H11.9544V2.94721e-05H71.867V4.06625ZM83.3576 15.0007H79.6482L79.6368 14.4203L79.6038 13.8484L79.5508 13.2851L79.4763 12.7319L79.3831 12.1886L79.2699 11.6569L79.138 11.1366L78.9889 10.6292L78.8227 10.1362L78.6392 9.65747L78.44 9.19309L78.2264 8.74447L77.9985 8.31306L77.7563 7.89884L77.5012 7.50325L77.2346 7.1263L76.9551 6.76798L76.6656 6.43116L76.366 6.1144L76.0579 5.81915L75.7411 5.54539L75.4172 5.29457L75.0861 5.06524L74.7493 4.85885L74.4067 4.67539L74.0584 4.5163L73.7059 4.38014L73.3475 4.26834L72.9849 4.18091L72.618 4.11785L72.2454 4.07915L71.867 4.06625V2.94721e-05L72.4761 0.0215287L73.0781 0.0831598L73.6729 0.184923L74.2562 0.326817L74.8281 0.505978L75.3885 0.72097L75.9346 0.970361L76.4664 1.25272L76.9823 1.56804L77.4826 1.91346L77.9656 2.28898L78.4314 2.69173L78.8786 3.12172L79.3086 3.57607L79.7199 4.05478L80.1112 4.55786L80.4838 5.08244L80.8364 5.62852L81.1675 6.19467L81.4771 6.78088L81.7652 7.38572L82.0318 8.00777L82.2755 8.64701L82.4962 9.30202L82.694 9.97136L82.866 10.655L83.0136 11.3516L83.1354 12.0611L83.2314 12.782L83.3017 13.513L83.3432 14.254L83.3576 15.0022V15.0007ZM71.867 30.0015V25.9352L72.2454 25.9223L72.618 25.8836L72.9849 25.8206L73.3475 25.7331L73.7059 25.6214L74.0584 25.4852L74.4067 25.3261L74.7493 25.1426L75.0861 24.9362L75.4172 24.7069L75.7411 24.4561L76.0579 24.1823L76.366 23.8871L76.6656 23.5703L76.9551 23.2321L77.2346 22.8738L77.5012 22.4968L77.7563 22.1012L77.9985 21.687L78.2264 21.2556L78.44 20.807L78.6392 20.3426L78.8227 19.8639L78.9889 19.3708L79.138 18.8634L79.2699 18.3432L79.3831 17.8114L79.4763 17.2682L79.5508 16.715L79.6038 16.1517L79.6368 15.5798L79.6482 14.9993H83.3576L83.3432 15.7475L83.3017 16.4885L83.2314 17.2195L83.1354 17.9404L83.0136 18.6499L82.866 19.3465L82.694 20.0301L82.4962 20.6995L82.2755 21.3545L82.0318 21.9937L81.7652 22.6158L81.4771 23.2206L81.1675 23.8068L80.8364 24.373L80.4838 24.919L80.1112 25.4436L79.7199 25.9453L79.3086 26.424L78.8786 26.8798L78.4314 27.3098L77.9656 27.7125L77.4826 28.088L76.9823 28.4335L76.4664 28.7488L75.9346 29.0311L75.3885 29.2805L74.8281 29.4955L74.2562 29.6747L73.6729 29.8166L73.0781 29.9183L72.4761 29.98L71.867 30.0015ZM11.9544 25.9352H71.867V30.0015H11.9544V25.9352ZM0.462371 15.0007H4.1717L4.18317 15.5812L4.21613 16.1531L4.26916 16.7164L4.34369 17.2696L4.43686 17.8128L4.55009 18.3446L4.68195 18.8649L4.83101 19.3723L4.99727 19.8667L5.18073 20.3454L5.37996 20.8098L5.59495 21.2584L5.82284 21.6899L6.06506 22.1041L6.32019 22.4997L6.58678 22.8766L6.86627 23.2349L7.15579 23.5732L7.45535 23.8899L7.7635 24.1852L8.08026 24.459L8.40418 24.7098L8.73526 24.9391L9.07209 25.1455L9.41464 25.3275L9.76293 25.4866L10.1155 25.6228L10.4738 25.7346L10.8365 25.822L11.2034 25.8851L11.576 25.9238L11.9544 25.9367V30.0029L11.3453 29.9814L10.7433 29.9198L10.1485 29.818L9.56513 29.6761L8.99326 29.4969L8.43284 29.282L7.88676 29.0326L7.35502 28.7488L6.83904 28.4335L6.33882 28.088L5.8558 27.7125L5.38999 27.3098L4.94137 26.8798L4.51139 26.424L4.10004 25.9453L3.70875 25.4436L3.3361 24.919L2.98351 24.373L2.65242 23.8068L2.34283 23.2206L2.05475 22.6172L1.78816 21.9952L1.5445 21.3559L1.32377 20.7009L1.12598 20.0316L0.952553 19.3479L0.804925 18.6513L0.683096 17.9418L0.587066 17.2209L0.516835 16.4899L0.47527 15.7489L0.460938 15.0007H0.462371ZM11.953 2.94721e-05V4.06625L11.5746 4.07915L11.2019 4.11785L10.835 4.18091L10.4724 4.26834L10.1141 4.38014L9.76149 4.5163L9.41321 4.67539L9.07065 4.85742L8.73383 5.06381L8.40274 5.29313L8.07882 5.54396L7.76207 5.81772L7.45391 6.11297L7.15436 6.42973L6.86483 6.76655L6.58534 7.12487L6.31875 7.50182L6.06363 7.89741L5.82141 8.31162L5.59351 8.74304L5.37852 9.19166L5.1793 9.65604L4.99584 10.1348L4.82958 10.6278L4.68052 11.1352L4.54865 11.6555L4.43542 12.1872L4.34226 12.7304L4.26773 13.2837L4.2147 13.847L4.18173 14.4188L4.17027 14.9993H0.460938L0.47527 14.2511L0.516835 13.5101L0.587066 12.7792L0.683096 12.0582L0.804925 11.3487L0.952553 10.6522L1.12598 9.9685L1.32377 9.29915L1.5445 8.64558L1.78816 8.00634L2.05475 7.38429L2.34283 6.78088L2.65242 6.19467L2.98351 5.62852L3.3361 5.08244L3.70875 4.55786L4.10004 4.05478L4.51139 3.57607L4.94137 3.12172L5.38999 2.69173L5.8558 2.28898L6.33882 1.91346L6.83904 1.56804L7.35502 1.25272L7.88676 0.968927L8.43284 0.719536L8.99326 0.504544L9.56513 0.325384L10.1485 0.183489L10.7433 0.0817265L11.3453 0.0200954L11.9544 -0.00140381L11.953 2.94721e-05Z" fill="#FEFEFE"/>
</g>
<g id="Group_2">
<path id="Vector_2" fill-rule="evenodd" clip-rule="evenodd" d="M11.9544 2.03235H71.867C77.1673 2.03235 81.5029 7.86723 81.5029 14.9992C81.5029 22.1312 77.1673 27.9661 71.867 27.9661H11.9544C6.65416 27.9661 2.31848 22.1312 2.31848 14.9992C2.31848 7.86723 6.65416 2.03235 11.9544 2.03235Z" fill="#FEFEFE"/>
<path id="1_2" d="M71.867 2.71748H11.9544V1.34869H71.867V2.71748ZM82.1278 15.0007H80.8794L80.868 14.3643L80.8321 13.7365L80.7734 13.1174L80.6917 12.5082L80.5885 11.9105L80.4638 11.3243L80.319 10.7496L80.1542 10.1892L79.9693 9.64166L79.7658 9.10991L79.545 8.59393L79.3057 8.09371L79.0505 7.6107L78.7782 7.14631L78.4916 6.70056L78.1891 6.27488L77.8724 5.86926L77.5427 5.48514L77.2002 5.12252L76.8462 4.78283L76.4807 4.46608L76.1037 4.17369L75.7167 3.90567L75.3197 3.66344L74.9141 3.44702L74.4999 3.25782L74.0785 3.09586L73.65 2.96113L73.2142 2.85507L72.7714 2.77911L72.3227 2.73324L71.867 2.71748V1.34869L72.4001 1.36733L72.9261 1.42179L73.445 1.51065L73.9552 1.63392L74.4569 1.79014L74.9485 1.97934L75.4286 2.19863L75.8973 2.44802L76.3545 2.72751L76.7989 3.03423L77.2288 3.36819L77.6445 3.72794L78.0458 4.11349L78.4314 4.52198L78.8026 4.95483L79.1566 5.40918L79.4934 5.88503L79.8131 6.38094L80.1155 6.89692L80.3978 7.43154L80.6616 7.98478L80.9052 8.5538L81.1288 9.14001L81.3309 9.74055L81.5115 10.3569L81.6706 10.9861L81.8067 11.6282L81.92 12.2818L82.0088 12.9468L82.0733 13.6219L82.112 14.307L82.1249 15.0007H82.1278ZM71.867 28.6527V27.2839L72.3227 27.2681L72.7714 27.2223L73.2142 27.1463L73.65 27.0403L74.0785 26.9055L74.4999 26.7436L74.9141 26.5544L75.3197 26.3379L75.7167 26.0957L76.1037 25.8277L76.4807 25.5353L76.8462 25.2185L77.2002 24.8789L77.5427 24.5162L77.8724 24.1321L78.1891 23.7265L78.4916 23.3008L78.7782 22.8551L79.0505 22.3907L79.3057 21.9077L79.545 21.4075L79.7658 20.8915L79.9693 20.3597L80.1542 19.8122L80.319 19.2518L80.4638 18.6771L80.5885 18.0908L80.6917 17.4932L80.7734 16.884L80.8321 16.2648L80.868 15.6371L80.8794 15.0007H82.1278L82.1149 15.6944L82.0762 16.3795L82.0117 17.0546L81.9228 17.7196L81.8096 18.3732L81.6734 19.0153L81.5144 19.6445L81.3338 20.2608L81.1302 20.8614L80.9066 21.4476L80.663 22.0166L80.3993 22.5698L80.1169 23.1045L79.8145 23.6204L79.4949 24.1164L79.158 24.5922L78.804 25.0466L78.4342 25.4794L78.0472 25.8879L77.6459 26.2734L77.2303 26.6332L76.8003 26.9672L76.356 27.2739L75.8988 27.5534L75.4301 27.8028L74.9499 28.022L74.4583 28.2112L73.9567 28.3675L73.4464 28.4907L72.9276 28.5796L72.4016 28.6341L71.8684 28.6527H71.867ZM11.9544 27.2839H71.867V28.6527H11.9544V27.2839ZM1.69354 15.0007H2.94193L2.9534 15.6371L2.98923 16.2648L3.04799 16.884L3.12969 17.4932L3.23289 18.0908L3.35758 18.6771L3.50234 19.2504L3.66717 19.8108L3.85206 20.3583L4.05559 20.89L4.27631 21.406L4.51567 21.9062L4.7708 22.3893L5.04312 22.8536L5.32977 23.2994L5.6322 23.7251L5.94895 24.1307L6.27861 24.5148L6.62116 24.8774L6.97518 25.2171L7.34067 25.5339L7.71762 25.8263L8.10461 26.0943L8.50162 26.3365L8.90724 26.5529L9.32146 26.7421L9.74285 26.9041L10.1714 27.0388L10.6071 27.1449L11.05 27.2208L11.4986 27.2667L11.9544 27.2825V28.6513L11.4212 28.6326L10.8952 28.5782L10.3764 28.4893L9.86611 28.366L9.36446 28.2098L8.87284 28.0206L8.3927 27.8013L7.92401 27.5519L7.4668 27.2724L7.02248 26.9657L6.59249 26.6318L6.17684 26.272L5.77553 25.8865L5.38854 25.478L5.01875 25.0451L4.66473 24.5908L4.32791 24.1149L4.00829 23.619L3.70587 23.103L3.42351 22.5684L3.15979 22.0166L2.91613 21.4476L2.69254 20.8614L2.49045 20.2608L2.30985 19.646L2.15076 19.0167L2.0146 18.3746L1.90137 17.7211L1.8125 17.056L1.74801 16.3809L1.70931 15.6958L1.69641 15.0021L1.69354 15.0007ZM11.9544 1.34869V2.71748L11.4986 2.73324L11.05 2.77911L10.6071 2.85507L10.1714 2.96113L9.74285 3.09586L9.32146 3.25782L8.90724 3.44702L8.50162 3.66344L8.10461 3.90567L7.71762 4.17369L7.34067 4.46608L6.97518 4.78283L6.62116 5.12252L6.27861 5.48514L5.94895 5.86926L5.6322 6.27488L5.32977 6.70056L5.04312 7.14631L4.7708 7.6107L4.51567 8.09371L4.27631 8.59393L4.05559 9.10991L3.85206 9.64166L3.66717 10.1892L3.50234 10.7496L3.35758 11.3229L3.23289 11.9091L3.12969 12.5068L3.04799 13.1159L2.98923 13.7351L2.9534 14.3629L2.94193 14.9993H1.69354L1.70644 14.3056L1.74514 13.6204L1.80964 12.9454L1.8985 12.2803L2.01173 11.6268L2.14789 10.9846L2.30699 10.3554L2.48901 9.74055L2.69111 9.14001L2.9147 8.5538L3.15835 7.98478L3.42208 7.43297L3.70444 6.89836L4.00686 6.38238L4.32648 5.88646L4.6633 5.41061L5.01732 4.95626L5.38854 4.52341L5.77409 4.11493L6.17541 3.72937L6.59106 3.36962L7.02105 3.03567L7.46536 2.72894L7.92258 2.44945L8.39126 2.20006L8.87141 1.98077L9.36303 1.79158L9.86467 1.63535L10.3749 1.51209L10.8938 1.42322L11.4198 1.36876L11.953 1.35013L11.9544 1.34869Z" fill="#011018"/>
</g>
<path id="Vector_3" fill-rule="evenodd" clip-rule="evenodd" d="M10.4456 2.03381H39.7476C44.7597 5.71448 48.0391 21.6354 39.6157 27.9676H10.5344C5.69281 26.4985 2.17267 22.1327 2.17267 15.0007C2.56539 7.8687 5.65554 3.36676 10.4456 2.03381Z" fill="#011018"/>
<path id="Vector_4" d="M9.3125 8.11096H13.2856L18.4525 15.7188V8.11096H22.4743V21.8891H18.4525L13.3157 14.3228V21.8891H9.3125V8.11096ZM25.9472 8.11096H33.029C34.5726 8.11096 35.7264 8.47645 36.4961 9.21029C37.2629 9.94413 37.647 10.9904 37.647 12.3477C37.647 13.7395 37.2256 14.8302 36.39 15.6128C35.5516 16.3968 34.2716 16.7895 32.5546 16.7895H30.2198V21.8891H25.9472V8.11096ZM30.2198 13.9989H31.2689C32.0974 13.9989 32.6778 13.8541 33.0104 13.5689C33.3443 13.2837 33.5106 12.9168 33.5106 12.471C33.5106 12.0382 33.3644 11.6727 33.0749 11.3717C32.7853 11.0707 32.2407 10.9188 31.4395 10.9188H30.2212V13.9974L30.2198 13.9989Z" fill="#FEFEFE"/>
<path id="Vector_5" d="M56.6095 19.6188H51.7851L51.0928 21.8891H46.7471L51.9327 8.11096H56.5923L61.7564 21.8891H57.2989L56.6095 19.6188ZM55.7079 16.6361L54.2044 11.6841L52.6938 16.6361H55.7079ZM60.6915 8.11239H65.1389L68.2434 18.0293L71.3035 8.11239H75.6234L70.508 21.8905H65.8957L60.6915 8.11239Z" fill="#011018"/>
</g>
</g>
</g>
<defs>
<clipPath id="clip0_137_620">
<rect width="82.8952" height="30" fill="white" transform="translate(0.461914)"/>
</clipPath>
</defs>
</svg>
