<svg xmlns="http://www.w3.org/2000/svg" width="56" height="56" viewBox="0 0 56 56" fill="none">
  <path d="M38.5 25.666H17.5V30.3327H38.5V25.666Z" fill="#BEC6C6"/>
  <path d="M4.66634 30.3327C5.95501 30.3327 6.99967 29.288 6.99967 27.9993C6.99967 26.7107 5.95501 25.666 4.66634 25.666C3.37768 25.666 2.33301 26.7107 2.33301 27.9993C2.33301 29.288 3.37768 30.3327 4.66634 30.3327Z" fill="#16242F"/>
  <path d="M51.3333 30.3327C52.622 30.3327 53.6667 29.288 53.6667 27.9993C53.6667 26.7107 52.622 25.666 51.3333 25.666C50.0447 25.666 49 26.7107 49 27.9993C49 29.288 50.0447 30.3327 51.3333 30.3327Z" fill="#16242F"/>
  <path d="M16.3333 10.5007C17.622 10.5007 18.6667 9.45598 18.6667 8.16732C18.6667 6.87865 17.622 5.83398 16.3333 5.83398C15.0447 5.83398 14 6.87865 14 8.16732C14 9.45598 15.0447 10.5007 16.3333 10.5007Z" fill="#16242F"/>
  <path d="M39.6663 10.5007C40.955 10.5007 41.9997 9.45598 41.9997 8.16732C41.9997 6.87865 40.955 5.83398 39.6663 5.83398C38.3777 5.83398 37.333 6.87865 37.333 8.16732C37.333 9.45598 38.3777 10.5007 39.6663 10.5007Z" fill="#16242F"/>
  <path d="M16.3333 50.1667C17.622 50.1667 18.6667 49.122 18.6667 47.8333C18.6667 46.5447 17.622 45.5 16.3333 45.5C15.0447 45.5 14 46.5447 14 47.8333C14 49.122 15.0447 50.1667 16.3333 50.1667Z" fill="#16242F"/>
  <path d="M39.6663 50.1667C40.955 50.1667 41.9997 49.122 41.9997 47.8333C41.9997 46.5447 40.955 45.5 39.6663 45.5C38.3777 45.5 37.333 46.5447 37.333 47.8333C37.333 49.122 38.3777 50.1667 39.6663 50.1667Z" fill="#16242F"/>
  <path d="M28.0003 7.00065C29.289 7.00065 30.3337 5.95598 30.3337 4.66732C30.3337 3.37865 29.289 2.33398 28.0003 2.33398C26.7117 2.33398 25.667 3.37865 25.667 4.66732C25.667 5.95598 26.7117 7.00065 28.0003 7.00065Z" fill="#BEC6C6"/>
  <path d="M8.16634 18.6667C9.45501 18.6667 10.4997 17.622 10.4997 16.3333C10.4997 15.0447 9.45501 14 8.16634 14C6.87768 14 5.83301 15.0447 5.83301 16.3333C5.83301 17.622 6.87768 18.6667 8.16634 18.6667Z" fill="#BEC6C6"/>
  <path d="M47.8333 18.6667C49.122 18.6667 50.1667 17.622 50.1667 16.3333C50.1667 15.0447 49.122 14 47.8333 14C46.5447 14 45.5 15.0447 45.5 16.3333C45.5 17.622 46.5447 18.6667 47.8333 18.6667Z" fill="#BEC6C6"/>
  <path d="M28.0003 53.6667C29.289 53.6667 30.3337 52.622 30.3337 51.3333C30.3337 50.0447 29.289 49 28.0003 49C26.7117 49 25.667 50.0447 25.667 51.3333C25.667 52.622 26.7117 53.6667 28.0003 53.6667Z" fill="#BEC6C6"/>
  <path d="M8.16634 42.0007C9.45501 42.0007 10.4997 40.956 10.4997 39.6673C10.4997 38.3787 9.45501 37.334 8.16634 37.334C6.87768 37.334 5.83301 38.3787 5.83301 39.6673C5.83301 40.956 6.87768 42.0007 8.16634 42.0007Z" fill="#BEC6C6"/>
  <path d="M47.8333 42.0007C49.122 42.0007 50.1667 40.956 50.1667 39.6673C50.1667 38.3787 49.122 37.334 47.8333 37.334C46.5447 37.334 45.5 38.3787 45.5 39.6673C45.5 40.956 46.5447 42.0007 47.8333 42.0007Z" fill="#BEC6C6"/>
  <path d="M38.5003 16.334H17.5003C16.2117 16.334 15.167 17.3787 15.167 18.6673V23.334C15.167 24.6226 16.2117 25.6673 17.5003 25.6673H38.5003C39.789 25.6673 40.8337 24.6226 40.8337 23.334V18.6673C40.8337 17.3787 39.789 16.334 38.5003 16.334Z" fill="#16242F"/>
  <path d="M38.5003 30.334H17.5003C16.2117 30.334 15.167 31.3787 15.167 32.6673V37.334C15.167 38.6226 16.2117 39.6673 17.5003 39.6673H38.5003C39.789 39.6673 40.8337 38.6226 40.8337 37.334V32.6673C40.8337 31.3787 39.789 30.334 38.5003 30.334Z" fill="#16242F"/>
  <path d="M32.667 17.5H38.5003C38.8097 17.5 39.1065 17.6229 39.3253 17.8417C39.5441 18.0605 39.667 18.3572 39.667 18.6667V23.3333C39.667 23.6428 39.5441 23.9395 39.3253 24.1583C39.1065 24.3771 38.8097 24.5 38.5003 24.5H32.667V17.5Z" fill="#E5BE20"/>
  <path d="M36.1667 22.1673C36.811 22.1673 37.3333 21.645 37.3333 21.0007C37.3333 20.3563 36.811 19.834 36.1667 19.834C35.5223 19.834 35 20.3563 35 21.0007C35 21.645 35.5223 22.1673 36.1667 22.1673Z" fill="#16242F"/>
  <path d="M32.667 31.5H38.5003C38.8097 31.5 39.1065 31.6229 39.3253 31.8417C39.5441 32.0605 39.667 32.3572 39.667 32.6667V37.3333C39.667 37.6428 39.5441 37.9395 39.3253 38.1583C39.1065 38.3771 38.8097 38.5 38.5003 38.5H32.667V31.5Z" fill="#E5BE20"/>
  <path d="M36.1667 36.1673C36.811 36.1673 37.3333 35.645 37.3333 35.0007C37.3333 34.3563 36.811 33.834 36.1667 33.834C35.5223 33.834 35 34.3563 35 35.0007C35 35.645 35.5223 36.1673 36.1667 36.1673Z" fill="#16242F"/>
  <path d="M54.8329 28.0005C54.834 27.1018 54.4894 26.2371 53.8704 25.5855C53.2514 24.9339 52.4055 24.5455 51.5079 24.5005L49.8862 19.1222C50.5294 18.5929 50.9627 17.8515 51.1083 17.0314C51.2539 16.2112 51.1022 15.366 50.6805 14.6477C50.2588 13.9293 49.5947 13.3849 48.8075 13.1123C48.0204 12.8398 47.1619 12.8568 46.3862 13.1605L42.8862 9.66052C43.2466 8.91245 43.3293 8.06061 43.1195 7.25719C42.948 6.62167 42.6008 6.04739 42.1176 5.60031C41.6345 5.15322 41.0351 4.85144 40.3882 4.72961C39.7413 4.60779 39.0732 4.67086 38.4605 4.91158C37.8478 5.15231 37.3155 5.56092 36.9245 6.09052L31.4995 4.49219C31.4995 3.56393 31.1308 2.67369 30.4744 2.01731C29.818 1.36094 28.9278 0.992188 27.9995 0.992188C27.0713 0.992188 26.181 1.36094 25.5247 2.01731C24.8683 2.67369 24.4995 3.56393 24.4995 4.49219L19.1445 6.11385C18.7536 5.58426 18.2212 5.17564 17.6086 4.93492C16.9959 4.69419 16.3278 4.63112 15.6809 4.75295C15.034 4.87477 14.4346 5.17655 13.9515 5.62364C13.4683 6.07073 13.1211 6.645 12.9495 7.28052C12.7398 8.08395 12.8225 8.93579 13.1829 9.68385L9.68288 13.1839C8.90722 12.8802 8.04868 12.8631 7.26156 13.1357C6.47443 13.4083 5.81033 13.9526 5.3886 14.671C4.96688 15.3893 4.81518 16.2345 4.96076 17.0547C5.10635 17.8749 5.53968 18.6162 6.18288 19.1455L4.49121 24.5005C3.56295 24.5005 2.67271 24.8693 2.01634 25.5256C1.35996 26.182 0.991211 27.0723 0.991211 28.0005C0.991211 28.9288 1.35996 29.819 2.01634 30.4754C2.67271 31.1318 3.56295 31.5005 4.49121 31.5005L6.11288 36.8789C5.47898 37.411 5.05415 38.1505 4.91383 38.9661C4.7735 39.7818 4.92676 40.6208 5.34638 41.3341C5.76601 42.0475 6.42485 42.5891 7.20594 42.8627C7.98702 43.1364 8.8398 43.1244 9.61288 42.8289L13.1129 46.3289C12.8174 47.1019 12.8054 47.9547 13.079 48.7358C13.3526 49.5169 13.8942 50.1757 14.6076 50.5954C15.3209 51.015 16.1599 51.1682 16.9756 51.0279C17.7912 50.8876 18.5308 50.4628 19.0629 49.8289L24.4995 51.5089C24.4995 52.4371 24.8683 53.3274 25.5247 53.9837C26.181 54.6401 27.0713 55.0089 27.9995 55.0089C28.9278 55.0089 29.818 54.6401 30.4744 53.9837C31.1308 53.3274 31.4995 52.4371 31.4995 51.5089L36.8895 49.8872C37.4217 50.5211 38.1612 50.9459 38.9768 51.0862C39.7925 51.2266 40.6315 51.0733 41.3448 50.6537C42.0582 50.2341 42.5998 49.5752 42.8734 48.7941C43.1471 48.013 43.1351 47.1603 42.8395 46.3872L46.3395 42.8872C47.1126 43.1827 47.9654 43.1947 48.7465 42.9211C49.5276 42.6474 50.1864 42.1058 50.606 41.3925C51.0257 40.6791 51.1789 39.8401 51.0386 39.0245C50.8983 38.2088 50.4734 37.4693 49.8395 36.9372L51.5079 31.5005C52.4055 31.4556 53.2514 31.0671 53.8704 30.4155C54.4894 29.7639 54.834 28.8992 54.8329 28.0005ZM44.6829 41.1722L41.1829 44.6722C40.662 44.4209 40.0869 44.3027 39.5091 44.328C38.9313 44.3533 38.3688 44.5214 37.8718 44.8172C37.3749 45.1131 36.959 45.5275 36.6614 46.0234C36.3637 46.5192 36.1936 47.0812 36.1662 47.6589L30.7995 49.2689C30.474 48.8297 30.0501 48.4729 29.5618 48.2271C29.0736 47.9813 28.5345 47.8532 27.9879 47.8532C27.4412 47.8532 26.9022 47.9813 26.4139 48.2271C25.9256 48.4729 25.5018 48.8297 25.1762 49.2689L19.8329 47.6589C19.802 47.0853 19.6305 46.5282 19.3334 46.0366C19.0363 45.545 18.6228 45.1341 18.1294 44.8401C17.6359 44.5461 17.0777 44.3781 16.504 44.3508C15.9302 44.3236 15.3586 44.438 14.8395 44.6839L11.3395 41.1839C11.5911 40.6621 11.7093 40.086 11.6834 39.5073C11.6575 38.9286 11.4883 38.3654 11.1912 37.8682C10.894 37.371 10.478 36.9553 9.98064 36.6584C9.48323 36.3615 8.91991 36.1927 8.34121 36.1672L6.73121 30.8005C7.17036 30.475 7.52714 30.0511 7.77298 29.5628C8.01881 29.0746 8.14686 28.5355 8.14686 27.9889C8.14686 27.4422 8.01881 26.9031 7.77298 26.4149C7.52714 25.9266 7.17036 25.5027 6.73121 25.1772L8.34121 19.8339C8.91633 19.8038 9.47515 19.6323 9.96811 19.3346C10.4611 19.0368 10.8729 18.622 11.1672 18.127C11.4615 17.6319 11.629 17.0719 11.655 16.4966C11.681 15.9213 11.5646 15.3484 11.3162 14.8289L14.8162 11.3289C15.3371 11.5801 15.9122 11.6984 16.49 11.6731C17.0678 11.6478 17.6303 11.4797 18.1272 11.1838C18.6242 10.8879 19.0401 10.4736 19.3377 9.97768C19.6354 9.4818 19.8055 8.91989 19.8329 8.34219L25.1995 6.73219C25.5251 7.17133 25.949 7.52812 26.4372 7.77395C26.9255 8.01979 27.4646 8.14783 28.0112 8.14783C28.5579 8.14783 29.0969 8.01979 29.5852 7.77395C30.0734 7.52812 30.4973 7.17133 30.8229 6.73219L36.1662 8.34219C36.1997 8.91317 36.3726 9.46725 36.6697 9.95594C36.9669 10.4446 37.3793 10.8531 37.8709 11.1455C38.3624 11.4379 38.9182 11.6053 39.4895 11.6333C40.0607 11.6612 40.6302 11.5486 41.1479 11.3055L44.6479 14.8055C44.3934 15.3286 44.2733 15.9069 44.2985 16.4881C44.3237 17.0693 44.4934 17.6351 44.7922 18.1342C45.091 18.6334 45.5095 19.0501 46.0098 19.3469C46.5102 19.6437 47.0766 19.811 47.6579 19.8339L49.2679 25.2122C48.8287 25.5377 48.4719 25.9616 48.2261 26.4499C47.9803 26.9381 47.8522 27.4772 47.8522 28.0239C47.8522 28.5705 47.9803 29.1096 48.2261 29.5978C48.4719 30.0861 48.8287 30.51 49.2679 30.8355L47.6579 36.1672C47.0828 36.1972 46.5239 36.3687 46.031 36.6665C45.538 36.9642 45.1261 37.379 44.8319 37.8741C44.5376 38.3691 44.3701 38.9291 44.3441 39.5045C44.3181 40.0798 44.4345 40.6526 44.6829 41.1722ZM52.4995 28.0005C52.4995 28.2313 52.4311 28.4568 52.3029 28.6487C52.1747 28.8405 51.9925 28.9901 51.7793 29.0784C51.5662 29.1667 51.3316 29.1898 51.1053 29.1448C50.879 29.0998 50.6711 28.9886 50.5079 28.8255C50.3448 28.6623 50.2336 28.4544 50.1886 28.2281C50.1436 28.0018 50.1667 27.7672 50.255 27.5541C50.3433 27.3409 50.4929 27.1587 50.6847 27.0305C50.8766 26.9023 51.1021 26.8339 51.3329 26.8339C51.6423 26.8339 51.939 26.9568 52.1578 27.1756C52.3766 27.3944 52.4995 27.6911 52.4995 28.0005ZM48.8479 15.7505C48.962 15.9507 49.0143 16.1801 48.9982 16.41C48.9821 16.6398 48.8982 16.8597 48.7573 17.042C48.6164 17.2243 48.4246 17.3607 48.2062 17.4342C47.9879 17.5076 47.7526 17.5147 47.5302 17.4547C47.3077 17.3946 47.1081 17.27 46.9564 17.0966C46.8046 16.9232 46.7076 16.7088 46.6776 16.4803C46.6476 16.2519 46.6859 16.0197 46.7877 15.813C46.8895 15.6063 47.0502 15.4343 47.2495 15.3189C47.3827 15.2417 47.5298 15.1917 47.6824 15.1716C47.8349 15.1516 47.99 15.1619 48.1385 15.202C48.2871 15.2422 48.4263 15.3113 48.548 15.4054C48.6697 15.4995 48.7717 15.6168 48.8479 15.7505ZM40.2495 7.15219C40.4489 7.26768 40.6096 7.43962 40.7114 7.64632C40.8132 7.85303 40.8515 8.08524 40.8215 8.31368C40.7914 8.54212 40.6945 8.75655 40.5427 8.92995C40.391 9.10334 40.1913 9.22793 39.9689 9.288C39.7465 9.34808 39.5112 9.34095 39.2929 9.26751C39.0745 9.19407 38.8827 9.05761 38.7418 8.87534C38.6008 8.69307 38.517 8.47315 38.5009 8.24331C38.4848 8.01348 38.5371 7.78401 38.6512 7.58385C38.7274 7.45017 38.8293 7.33288 38.9511 7.23875C39.0728 7.14462 39.212 7.0755 39.3605 7.03538C39.5091 6.99526 39.6641 6.98492 39.8167 7.00497C39.9693 7.02501 40.1164 7.07505 40.2495 7.15219ZM27.9995 3.50052C28.2303 3.50052 28.4559 3.56894 28.6477 3.69714C28.8396 3.82533 28.9891 4.00754 29.0774 4.22072C29.1657 4.4339 29.1888 4.66848 29.1438 4.89479C29.0988 5.1211 28.9877 5.32898 28.8245 5.49215C28.6613 5.65531 28.4535 5.76642 28.2271 5.81144C28.0008 5.85645 27.7663 5.83335 27.5531 5.74505C27.3399 5.65674 27.1577 5.50721 27.0295 5.31535C26.9013 5.1235 26.8329 4.89793 26.8329 4.66719C26.8329 4.35777 26.9558 4.06102 27.1746 3.84223C27.3934 3.62344 27.6901 3.50052 27.9995 3.50052ZM15.1662 7.86385C15.2207 7.68419 15.3178 7.52033 15.4492 7.3862C15.5805 7.25207 15.7423 7.15162 15.9208 7.0934C16.0993 7.03518 16.2892 7.02089 16.4744 7.05176C16.6596 7.08263 16.8347 7.15774 16.9846 7.27071C17.1346 7.38368 17.2551 7.53118 17.3358 7.70067C17.4166 7.87016 17.4553 8.05664 17.4486 8.24428C17.4418 8.43191 17.3899 8.61515 17.2973 8.77843C17.2046 8.94172 17.0739 9.08022 16.9162 9.18219C16.7155 9.31199 16.4798 9.37702 16.2409 9.36847C16.002 9.35992 15.7716 9.27821 15.5806 9.13439C15.3897 8.99057 15.2476 8.79158 15.1735 8.56434C15.0994 8.3371 15.0968 8.09258 15.1662 7.86385ZM8.16621 15.1672C8.34442 15.1684 8.51997 15.2105 8.6794 15.2901C8.83883 15.3698 8.97789 15.4849 9.08592 15.6266C9.19395 15.7683 9.26808 15.9329 9.30261 16.1078C9.33714 16.2826 9.33116 16.463 9.28513 16.6352C9.23909 16.8073 9.15423 16.9667 9.03705 17.1009C8.91987 17.2352 8.77349 17.3409 8.60914 17.4098C8.44479 17.4787 8.26684 17.509 8.08894 17.4984C7.91104 17.4879 7.73793 17.4367 7.58288 17.3489C7.35813 17.2215 7.182 17.0231 7.08212 16.7849C6.98224 16.5467 6.96425 16.282 7.03098 16.0325C7.09771 15.7829 7.24537 15.5626 7.45083 15.406C7.65628 15.2494 7.90789 15.1654 8.16621 15.1672ZM3.49954 28.0005C3.49954 27.7698 3.56797 27.5442 3.69616 27.3524C3.82436 27.1605 4.00657 27.011 4.21975 26.9227C4.43293 26.8344 4.66751 26.8113 4.89382 26.8563C5.12013 26.9013 5.32801 27.0124 5.49117 27.1756C5.65433 27.3387 5.76544 27.5466 5.81046 27.7729C5.85548 27.9992 5.83237 28.2338 5.74407 28.447C5.65577 28.6602 5.50623 28.8424 5.31438 28.9706C5.12252 29.0988 4.89696 29.1672 4.66621 29.1672C4.35679 29.1672 4.06005 29.0443 3.84125 28.8255C3.62246 28.6067 3.49954 28.3099 3.49954 28.0005ZM7.86288 40.8339C7.60227 40.7638 7.374 40.6056 7.21694 40.3862C7.05988 40.1668 6.98374 39.8997 7.0015 39.6304C7.01925 39.3611 7.1298 39.1063 7.31431 38.9094C7.49883 38.7125 7.7459 38.5857 8.01344 38.5505C8.28098 38.5153 8.55246 38.5739 8.78163 38.7164C9.0108 38.8588 9.18349 39.0764 9.2703 39.3319C9.3571 39.5874 9.35265 39.8651 9.25769 40.1177C9.16274 40.3703 8.98316 40.5821 8.74954 40.7172C8.61669 40.794 8.46998 40.8438 8.31783 40.8639C8.16568 40.8839 8.01108 40.8737 7.86288 40.8339ZM15.7495 48.8839C15.5502 48.7684 15.3895 48.5964 15.2877 48.3897C15.1859 48.183 15.1476 47.9508 15.1776 47.7224C15.2077 47.4939 15.3046 47.2795 15.4564 47.1061C15.6081 46.9327 15.8077 46.8081 16.0302 46.748C16.2526 46.688 16.4878 46.6951 16.7062 46.7685C16.9246 46.842 17.1164 46.9784 17.2573 47.1607C17.3982 47.343 17.482 47.5629 17.4982 47.7927C17.5143 48.0226 17.462 48.252 17.3479 48.4522C17.1881 48.7163 16.9302 48.9063 16.6306 48.9807C16.3311 49.055 16.0142 49.0076 15.7495 48.8489V48.8839ZM27.9995 52.5005C27.7688 52.5005 27.5432 52.4321 27.3514 52.3039C27.1595 52.1757 27.01 51.9935 26.9217 51.7803C26.8334 51.5671 26.8103 51.3326 26.8553 51.1062C26.9003 50.8799 27.0114 50.6721 27.1746 50.5089C27.3377 50.3457 27.5456 50.2346 27.7719 50.1896C27.9982 50.1446 28.2328 50.1677 28.446 50.256C28.6592 50.3443 28.8414 50.4938 28.9696 50.6857C29.0978 50.8775 29.1662 51.1031 29.1662 51.3339C29.1662 51.6433 29.0433 51.94 28.8245 52.1588C28.6057 52.3776 28.309 52.5005 27.9995 52.5005ZM40.2495 48.8489C40.0494 48.963 39.8199 49.0153 39.5901 48.9991C39.3602 48.983 39.1403 48.8992 38.9581 48.7583C38.7758 48.6173 38.6393 48.4256 38.5659 48.2072C38.4925 47.9888 38.4853 47.7536 38.5454 47.5312C38.6055 47.3087 38.7301 47.1091 38.9035 46.9573C39.0768 46.8056 39.2913 46.7086 39.5197 46.6786C39.7482 46.6486 39.9804 46.6869 40.1871 46.7887C40.3938 46.8904 40.5657 47.0512 40.6812 47.2505C40.7584 47.3837 40.8084 47.5308 40.8284 47.6834C40.8485 47.8359 40.8381 47.991 40.798 48.1395C40.7579 48.2881 40.6888 48.4272 40.5946 48.549C40.5005 48.6707 40.3832 48.7726 40.2495 48.8489ZM48.8479 40.2505C48.7324 40.4499 48.5604 40.6106 48.3537 40.7124C48.147 40.8141 47.9148 40.8524 47.6864 40.8224C47.458 40.7924 47.2435 40.6954 47.0701 40.5437C46.8967 40.392 46.7721 40.1923 46.7121 39.9699C46.652 39.7475 46.6591 39.5122 46.7326 39.2938C46.806 39.0754 46.9425 38.8837 47.1247 38.7428C47.307 38.6018 47.5269 38.518 47.7568 38.5019C47.9866 38.4858 48.2161 38.5381 48.4162 38.6522C48.5499 38.7284 48.6672 38.8303 48.7613 38.9521C48.8554 39.0738 48.9246 39.213 48.9647 39.3615C49.0048 39.5101 49.0151 39.6651 48.9951 39.8177C48.9751 39.9703 48.925 40.1174 48.8479 40.2505Z" fill="#2A3E4E"/>
  <path d="M38.5 15.166H17.5C16.5717 15.166 15.6815 15.5348 15.0251 16.1911C14.3687 16.8475 14 17.7378 14 18.666V23.3327C14.002 24.0548 14.2274 24.7586 14.6451 25.3476C15.0628 25.9366 15.6525 26.382 16.3333 26.6227V29.376C15.6525 29.6167 15.0628 30.0621 14.6451 30.6511C14.2274 31.2401 14.002 31.9439 14 32.666V37.3327C14 38.2609 14.3687 39.1512 15.0251 39.8076C15.6815 40.4639 16.5717 40.8327 17.5 40.8327H38.5C39.4283 40.8327 40.3185 40.4639 40.9749 39.8076C41.6312 39.1512 42 38.2609 42 37.3327V32.666C41.998 31.9439 41.7726 31.2401 41.3549 30.6511C40.9372 30.0621 40.3475 29.6167 39.6667 29.376V26.6227C40.3475 26.382 40.9372 25.9366 41.3549 25.3476C41.7726 24.7586 41.998 24.0548 42 23.3327V18.666C42 17.7378 41.6312 16.8475 40.9749 16.1911C40.3185 15.5348 39.4283 15.166 38.5 15.166ZM37.3333 29.166H18.6667V26.8327H37.3333V29.166ZM39.6667 37.3327C39.6667 37.6421 39.5438 37.9388 39.325 38.1576C39.1062 38.3764 38.8094 38.4993 38.5 38.4993H17.5C17.1906 38.4993 16.8938 38.3764 16.675 38.1576C16.4562 37.9388 16.3333 37.6421 16.3333 37.3327V32.666C16.3333 32.3566 16.4562 32.0598 16.675 31.8411C16.8938 31.6223 17.1906 31.4993 17.5 31.4993H38.5C38.8094 31.4993 39.1062 31.6223 39.325 31.8411C39.5438 32.0598 39.6667 32.3566 39.6667 32.666V37.3327ZM39.6667 23.3327C39.6667 23.6421 39.5438 23.9388 39.325 24.1576C39.1062 24.3764 38.8094 24.4993 38.5 24.4993H17.5C17.1906 24.4993 16.8938 24.3764 16.675 24.1576C16.4562 23.9388 16.3333 23.6421 16.3333 23.3327V18.666C16.3333 18.3566 16.4562 18.0599 16.675 17.8411C16.8938 17.6223 17.1906 17.4993 17.5 17.4993H38.5C38.8094 17.4993 39.1062 17.6223 39.325 17.8411C39.5438 18.0599 39.6667 18.3566 39.6667 18.666V23.3327Z" fill="#2A3E4E"/>
  <path d="M26.8337 22.1673H19.8337C19.5242 22.1673 19.2275 22.0444 19.0087 21.8256C18.7899 21.6068 18.667 21.3101 18.667 21.0007C18.667 20.6912 18.7899 20.3945 19.0087 20.1757C19.2275 19.9569 19.5242 19.834 19.8337 19.834H26.8337C27.1431 19.834 27.4398 19.9569 27.6586 20.1757C27.8774 20.3945 28.0003 20.6912 28.0003 21.0007C28.0003 21.3101 27.8774 21.6068 27.6586 21.8256C27.4398 22.0444 27.1431 22.1673 26.8337 22.1673Z" fill="#BEC6C6"/>
  <path d="M26.8337 36.1673H19.8337C19.5242 36.1673 19.2275 36.0444 19.0087 35.8256C18.7899 35.6068 18.667 35.3101 18.667 35.0007C18.667 34.6912 18.7899 34.3945 19.0087 34.1757C19.2275 33.9569 19.5242 33.834 19.8337 33.834H26.8337C27.1431 33.834 27.4398 33.9569 27.6586 34.1757C27.8774 34.3945 28.0003 34.6912 28.0003 35.0007C28.0003 35.3101 27.8774 35.6068 27.6586 35.8256C27.4398 36.0444 27.1431 36.1673 26.8337 36.1673Z" fill="#BEC6C6"/>
</svg>