<svg xmlns="http://www.w3.org/2000/svg" width="20" height="20" viewBox="0 0 20 20" fill="none">
  <path d="M17.7344 12.5H15.7031V9.53125C15.7031 9.44531 15.6328 9.375 15.5469 9.375H10.7031V7.5H12.8125C12.9844 7.5 13.125 7.35938 13.125 7.1875V1.5625C13.125 1.39062 12.9844 1.25 12.8125 1.25H7.1875C7.01562 1.25 6.875 1.39062 6.875 1.5625V7.1875C6.875 7.35938 7.01562 7.5 7.1875 7.5H9.29688V9.375H4.45312C4.36719 9.375 4.29688 9.44531 4.29688 9.53125V12.5H2.26562C2.09375 12.5 1.95312 12.6406 1.95312 12.8125V18.4375C1.95312 18.6094 2.09375 18.75 2.26562 18.75H7.89062C8.0625 18.75 8.20312 18.6094 8.20312 18.4375V12.8125C8.20312 12.6406 8.0625 12.5 7.89062 12.5H5.70312V10.7812H14.2969V12.5H12.1094C11.9375 12.5 11.7969 12.6406 11.7969 12.8125V18.4375C11.7969 18.6094 11.9375 18.75 12.1094 18.75H17.7344C17.9062 18.75 18.0469 18.6094 18.0469 18.4375V12.8125C18.0469 12.6406 17.9062 12.5 17.7344 12.5ZM6.71875 13.9844V17.2656H3.4375V13.9844H6.71875ZM8.35938 6.01562V2.73438H11.6406V6.01562H8.35938ZM16.5625 17.2656H13.2812V13.9844H16.5625V17.2656Z" fill="#F8F8F8"/>
</svg>
