<svg xmlns="http://www.w3.org/2000/svg" width="57" height="57" viewBox="0 0 57 57" fill="none">
  <path d="M45.7757 23.6621H10.7757C9.48705 23.6621 8.44238 24.7068 8.44238 25.9954V51.6621C8.44238 52.9508 9.48705 53.9954 10.7757 53.9954H45.7757C47.0644 53.9954 48.109 52.9508 48.109 51.6621V25.9954C48.109 24.7068 47.0644 23.6621 45.7757 23.6621Z" fill="#0E1525"/>
  <path d="M43.4427 17.8288V23.6621H38.776V17.8288C38.776 15.044 37.6698 12.3733 35.7007 10.4042C33.7315 8.43502 31.0608 7.32878 28.276 7.32878C25.4913 7.32878 22.8206 8.43502 20.8514 10.4042C18.8823 12.3733 17.776 15.044 17.776 17.8288V23.6621H13.1094V17.8288C13.1094 13.8063 14.7073 9.94863 17.5516 7.10432C20.3959 4.26002 24.2536 2.66211 28.276 2.66211C32.2985 2.66211 36.1562 4.26002 39.0005 7.10432C41.8448 9.94863 43.4427 13.8063 43.4427 17.8288Z" fill="#D2D9E9"/>
  <path d="M45.7764 22.4961H44.6097V17.8294C44.6097 13.4976 42.8889 9.34311 39.8258 6.28002C36.7627 3.21692 32.6082 1.49609 28.2764 1.49609C23.9445 1.49609 19.79 3.21692 16.727 6.28002C13.6639 9.34311 11.943 13.4976 11.943 17.8294V22.4961H10.7764C9.84811 22.4961 8.95787 22.8648 8.30149 23.5212C7.64512 24.1776 7.27637 25.0678 7.27637 25.9961V51.6628C7.27637 52.591 7.64512 53.4813 8.30149 54.1376C8.95787 54.794 9.84811 55.1628 10.7764 55.1628H45.7764C46.7046 55.1628 47.5949 54.794 48.2512 54.1376C48.9076 53.4813 49.2764 52.591 49.2764 51.6628V25.9961C49.2764 25.0678 48.9076 24.1776 48.2512 23.5212C47.5949 22.8648 46.7046 22.4961 45.7764 22.4961ZM14.2764 17.8294C14.2764 14.1164 15.7514 10.5554 18.3769 7.92993C21.0024 5.30442 24.5633 3.82943 28.2764 3.82943C31.9894 3.82943 35.5504 5.30442 38.1759 7.92993C40.8014 10.5554 42.2764 14.1164 42.2764 17.8294V22.4961H39.943V17.8294C39.943 14.7352 38.7139 11.7678 36.5259 9.57985C34.338 7.39192 31.3706 6.16276 28.2764 6.16276C25.1822 6.16276 22.2147 7.39192 20.0268 9.57985C17.8389 11.7678 16.6097 14.7352 16.6097 17.8294V22.4961H14.2764V17.8294ZM37.6097 22.4961H18.943V17.8294C18.943 15.3541 19.9264 12.9801 21.6767 11.2298C23.427 9.47942 25.801 8.49609 28.2764 8.49609C30.7517 8.49609 33.1257 9.47942 34.876 11.2298C36.6264 12.9801 37.6097 15.3541 37.6097 17.8294V22.4961ZM46.943 51.6628C46.943 51.9722 46.8201 52.2689 46.6013 52.4877C46.3825 52.7065 46.0858 52.8294 45.7764 52.8294H10.7764C10.4669 52.8294 10.1702 52.7065 9.95141 52.4877C9.73262 52.2689 9.6097 51.9722 9.6097 51.6628V25.9961C9.6097 25.6867 9.73262 25.3899 9.95141 25.1711C10.1702 24.9523 10.4669 24.8294 10.7764 24.8294H45.7764C46.0858 24.8294 46.3825 24.9523 46.6013 25.1711C46.8201 25.3899 46.943 25.6867 46.943 25.9961V51.6628Z" fill="#414141"/>
  <path d="M52.776 29.4961H3.77604C3.13171 29.4961 2.60938 30.0184 2.60938 30.6628V39.9961C2.60938 40.6404 3.13171 41.1628 3.77604 41.1628H52.776C53.4204 41.1628 53.9427 40.6404 53.9427 39.9961V30.6628C53.9427 30.0184 53.4204 29.4961 52.776 29.4961Z" fill="#E5BE20"/>
  <path d="M31.3093 33.5801C31.233 33.4464 31.1311 33.3291 31.0094 33.235C30.8877 33.1408 30.7485 33.0717 30.5999 33.0316C30.4514 32.9915 30.2963 32.9811 30.1438 33.0012C29.9912 33.0212 29.8441 33.0713 29.7109 33.1484L29.4426 33.3117V32.9967C29.4426 32.6873 29.3197 32.3906 29.1009 32.1718C28.8821 31.953 28.5854 31.8301 28.2759 31.8301C27.9665 31.8301 27.6698 31.953 27.451 32.1718C27.2322 32.3906 27.1093 32.6873 27.1093 32.9967V33.3117L26.8409 33.1484C26.7076 33.0718 26.5606 33.0222 26.4081 33.0024C26.2556 32.9827 26.1008 32.9931 25.9524 33.0332C25.8039 33.0733 25.6649 33.1422 25.5431 33.2361C25.4213 33.3299 25.3192 33.4468 25.2426 33.5801C25.166 33.7134 25.1164 33.8604 25.0966 34.0129C25.0769 34.1654 25.0873 34.3202 25.1274 34.4686C25.1675 34.6171 25.2364 34.7561 25.3302 34.8779C25.4241 34.9997 25.541 35.1018 25.6743 35.1784L25.9426 35.3301L25.6743 35.4817C25.541 35.5583 25.4241 35.6605 25.3302 35.7822C25.2364 35.904 25.1675 36.0431 25.1274 36.1915C25.0873 36.3399 25.0769 36.4948 25.0966 36.6473C25.1164 36.7997 25.166 36.9468 25.2426 37.0801C25.3973 37.3493 25.6526 37.546 25.9524 37.6269C26.1008 37.667 26.2556 37.6775 26.4081 37.6577C26.5606 37.6379 26.7076 37.5883 26.8409 37.5117L27.1093 37.3484V37.6634C27.1093 37.9728 27.2322 38.2696 27.451 38.4884C27.6698 38.7072 27.9665 38.8301 28.2759 38.8301C28.5854 38.8301 28.8821 38.7072 29.1009 38.4884C29.3197 38.2696 29.4426 37.9728 29.4426 37.6634V37.3484L29.7109 37.5117C29.8441 37.5889 29.9912 37.6389 30.1438 37.659C30.2963 37.679 30.4514 37.6687 30.5999 37.6286C30.7485 37.5884 30.8877 37.5193 31.0094 37.4252C31.1311 37.331 31.233 37.2138 31.3093 37.0801C31.3864 36.9469 31.4364 36.7998 31.4565 36.6472C31.4765 36.4947 31.4662 36.3396 31.4261 36.1911C31.3859 36.0425 31.3168 35.9034 31.2227 35.7816C31.1286 35.6599 31.0113 35.558 30.8776 35.4817L30.6093 35.3301L30.8776 35.1784C31.0113 35.1022 31.1286 35.0003 31.2227 34.8785C31.3168 34.7568 31.3859 34.6176 31.4261 34.4691C31.4662 34.3205 31.4765 34.1655 31.4565 34.0129C31.4364 33.8603 31.3864 33.7132 31.3093 33.5801Z" fill="#0E1525"/>
  <path d="M40.6423 33.5801C40.5661 33.4464 40.4641 33.3291 40.3424 33.235C40.2207 33.1408 40.0815 33.0717 39.9329 33.0316C39.7844 32.9915 39.6293 32.9811 39.4768 33.0012C39.3242 33.0212 39.1771 33.0713 39.0439 33.1484L38.7756 33.3117V32.9967C38.7756 32.6873 38.6527 32.3906 38.4339 32.1718C38.2151 31.953 37.9184 31.8301 37.6089 31.8301C37.2995 31.8301 37.0028 31.953 36.784 32.1718C36.5652 32.3906 36.4423 32.6873 36.4423 32.9967V33.3117L36.1739 33.1484C35.9047 32.9937 35.5851 32.9523 35.2854 33.0332C34.9856 33.1142 34.7303 33.3109 34.5756 33.5801C34.4209 33.8493 34.3795 34.1689 34.4604 34.4686C34.5414 34.7684 34.7381 35.0237 35.0073 35.1784L35.2756 35.3301L35.0073 35.4817C34.7381 35.6365 34.5414 35.8918 34.4604 36.1915C34.3795 36.4913 34.4209 36.8109 34.5756 37.0801C34.7303 37.3493 34.9856 37.546 35.2854 37.6269C35.5851 37.7079 35.9047 37.6665 36.1739 37.5117L36.4423 37.3484V37.6634C36.4423 37.9728 36.5652 38.2696 36.784 38.4884C37.0028 38.7072 37.2995 38.8301 37.6089 38.8301C37.9184 38.8301 38.2151 38.7072 38.4339 38.4884C38.6527 38.2696 38.7756 37.9728 38.7756 37.6634V37.3484L39.0439 37.5117C39.1771 37.5889 39.3242 37.6389 39.4768 37.659C39.6293 37.679 39.7844 37.6687 39.9329 37.6286C40.0815 37.5884 40.2207 37.5193 40.3424 37.4252C40.4641 37.331 40.5661 37.2138 40.6423 37.0801C40.7194 36.9469 40.7694 36.7998 40.7895 36.6472C40.8095 36.4947 40.7992 36.3396 40.7591 36.1911C40.719 36.0425 40.6498 35.9034 40.5557 35.7816C40.4616 35.6599 40.3443 35.558 40.2106 35.4817L39.9423 35.3301L40.2106 35.1784C40.3443 35.1022 40.4616 35.0003 40.5557 34.8785C40.6498 34.7568 40.719 34.6176 40.7591 34.4691C40.7992 34.3205 40.8095 34.1655 40.7895 34.0129C40.7694 33.8603 40.7194 33.7132 40.6423 33.5801Z" fill="#0E1525"/>
  <path d="M49.5448 35.4817L49.2765 35.3301L49.5448 35.1784C49.814 35.0237 50.0107 34.7684 50.0917 34.4686C50.1726 34.1689 50.1312 33.8493 49.9765 33.5801C49.8999 33.4468 49.7978 33.3299 49.676 33.2361C49.5542 33.1422 49.4151 33.0733 49.2667 33.0332C48.967 32.9523 48.6474 32.9937 48.3782 33.1484L48.1098 33.3117V32.9967C48.1098 32.6873 47.9869 32.3906 47.7681 32.1718C47.5493 31.953 47.2526 31.8301 46.9432 31.8301C46.6337 31.8301 46.337 31.953 46.1182 32.1718C45.8994 32.3906 45.7765 32.6873 45.7765 32.9967V33.3117L45.5082 33.1484C45.239 32.9937 44.9193 32.9523 44.6196 33.0332C44.3198 33.1142 44.0645 33.3109 43.9098 33.5801C43.7551 33.8493 43.7137 34.1689 43.7946 34.4686C43.8756 34.7684 44.0723 35.0237 44.3415 35.1784L44.6098 35.3301L44.3415 35.4817C44.1167 35.6091 43.9406 35.8075 43.8407 36.0457C43.7409 36.2839 43.7229 36.5486 43.7896 36.7981C43.8563 37.0477 44.004 37.268 44.2094 37.4246C44.4149 37.5812 44.6665 37.6652 44.9248 37.6634C45.2341 37.6471 45.5311 37.5373 45.7765 37.3484V37.6634C45.7765 37.9728 45.8994 38.2696 46.1182 38.4884C46.337 38.7072 46.6337 38.8301 46.9432 38.8301C47.2526 38.8301 47.5493 38.7072 47.7681 38.4884C47.9869 38.2696 48.1098 37.9728 48.1098 37.6634V37.3484C48.3576 37.533 48.6533 37.6423 48.9615 37.6634C49.2198 37.6652 49.4714 37.5812 49.6769 37.4246C49.8823 37.268 50.03 37.0477 50.0967 36.7981C50.1634 36.5486 50.1455 36.2839 50.0456 36.0457C49.9457 35.8075 49.7696 35.6091 49.5448 35.4817Z" fill="#0E1525"/>
  <path d="M21.9763 33.5801C21.9 33.4464 21.7981 33.3291 21.6764 33.235C21.5547 33.1408 21.4155 33.0717 21.2669 33.0316C21.1184 32.9915 20.9633 32.9811 20.8108 33.0012C20.6582 33.0212 20.5111 33.0713 20.3779 33.1484L20.1096 33.3117V32.9967C20.1096 32.6873 19.9867 32.3906 19.7679 32.1718C19.5491 31.953 19.2523 31.8301 18.9429 31.8301C18.6335 31.8301 18.3368 31.953 18.118 32.1718C17.8992 32.3906 17.7763 32.6873 17.7763 32.9967V33.3117L17.5079 33.1484C17.3746 33.0718 17.2276 33.0222 17.0751 33.0024C16.9226 32.9827 16.7678 32.9931 16.6194 33.0332C16.4709 33.0733 16.3319 33.1422 16.2101 33.2361C16.0883 33.3299 15.9862 33.4468 15.9096 33.5801C15.833 33.7134 15.7834 33.8604 15.7636 34.0129C15.7439 34.1654 15.7543 34.3202 15.7944 34.4686C15.8345 34.6171 15.9034 34.7561 15.9972 34.8779C16.0911 34.9997 16.208 35.1018 16.3413 35.1784L16.6096 35.3301L16.3413 35.4817C16.208 35.5583 16.0911 35.6605 15.9972 35.7822C15.9034 35.904 15.8345 36.0431 15.7944 36.1915C15.7543 36.3399 15.7439 36.4948 15.7636 36.6473C15.7834 36.7997 15.833 36.9468 15.9096 37.0801C15.9862 37.2134 16.0883 37.3303 16.2101 37.4241C16.3319 37.5179 16.4709 37.5869 16.6194 37.6269C16.9191 37.7079 17.2387 37.6665 17.5079 37.5117L17.7763 37.3484V37.6634C17.7763 37.9728 17.8992 38.2696 18.118 38.4884C18.3368 38.7072 18.6335 38.8301 18.9429 38.8301C19.2523 38.8301 19.5491 38.7072 19.7679 38.4884C19.9867 38.2696 20.1096 37.9728 20.1096 37.6634V37.3484L20.3779 37.5117C20.5112 37.5883 20.6583 37.6379 20.8108 37.6577C20.9632 37.6775 21.1181 37.667 21.2665 37.6269C21.4149 37.5869 21.554 37.5179 21.6758 37.4241C21.7975 37.3303 21.8997 37.2134 21.9763 37.0801C22.0529 36.9468 22.1025 36.7997 22.1222 36.6473C22.142 36.4948 22.1315 36.3399 22.0914 36.1915C22.0514 36.0431 21.9824 35.904 21.8886 35.7822C21.7948 35.6605 21.6779 35.5583 21.5446 35.4817L21.2763 35.3301L21.5446 35.1784C21.6783 35.1022 21.7956 35.0003 21.8897 34.8785C21.9838 34.7568 22.0529 34.6176 22.0931 34.4691C22.1332 34.3205 22.1435 34.1655 22.1235 34.0129C22.1034 33.8603 22.0534 33.7132 21.9763 33.5801Z" fill="#0E1525"/>
  <path d="M12.6423 33.5801C12.5661 33.4464 12.4641 33.3291 12.3424 33.235C12.2207 33.1408 12.0815 33.0717 11.9329 33.0316C11.7844 32.9915 11.6293 32.9811 11.4768 33.0012C11.3242 33.0212 11.1771 33.0713 11.0439 33.1484L10.7756 33.3117V32.9967C10.7756 32.6873 10.6527 32.3906 10.4339 32.1718C10.2151 31.953 9.91836 31.8301 9.60894 31.8301C9.29952 31.8301 9.00278 31.953 8.78398 32.1718C8.56519 32.3906 8.44228 32.6873 8.44228 32.9967V33.3117L8.17394 33.1484C7.90475 32.9937 7.58512 32.9523 7.28537 33.0332C6.98563 33.1142 6.73032 33.3109 6.57561 33.5801C6.4209 33.8493 6.37946 34.1689 6.46042 34.4686C6.54137 34.7684 6.73808 35.0237 7.00728 35.1784L7.27561 35.3301L7.00728 35.4817C6.73808 35.6365 6.54137 35.8918 6.46042 36.1915C6.37946 36.4913 6.4209 36.8109 6.57561 37.0801C6.73032 37.3493 6.98563 37.546 7.28537 37.6269C7.58512 37.7079 7.90475 37.6665 8.17394 37.5117L8.44228 37.3484V37.6634C8.44228 37.9728 8.56519 38.2696 8.78398 38.4884C9.00278 38.7072 9.29952 38.8301 9.60894 38.8301C9.91836 38.8301 10.2151 38.7072 10.4339 38.4884C10.6527 38.2696 10.7756 37.9728 10.7756 37.6634V37.3484L11.0439 37.5117C11.3131 37.6665 11.6328 37.7079 11.9325 37.6269C12.2323 37.546 12.4876 37.3493 12.6423 37.0801C12.797 36.8109 12.8384 36.4913 12.7575 36.1915C12.6765 35.8918 12.4798 35.6365 12.2106 35.4817L11.9423 35.3301L12.2106 35.1784C12.3443 35.1022 12.4616 35.0003 12.5557 34.8785C12.6498 34.7568 12.719 34.6176 12.7591 34.4691C12.7992 34.3205 12.8095 34.1655 12.7895 34.0129C12.7694 33.8603 12.7194 33.7132 12.6423 33.5801Z" fill="#0E1525"/>
  <path d="M15.4424 44.6621H13.109C12.4647 44.6621 11.9424 45.1844 11.9424 45.8288V48.1621C11.9424 48.8064 12.4647 49.3288 13.109 49.3288H15.4424C16.0867 49.3288 16.609 48.8064 16.609 48.1621V45.8288C16.609 45.1844 16.0867 44.6621 15.4424 44.6621Z" fill="#D2D9E9"/>
  <path d="M22.4424 44.6621H20.109C19.4647 44.6621 18.9424 45.1844 18.9424 45.8288V48.1621C18.9424 48.8064 19.4647 49.3288 20.109 49.3288H22.4424C23.0867 49.3288 23.6091 48.8064 23.6091 48.1621V45.8288C23.6091 45.1844 23.0867 44.6621 22.4424 44.6621Z" fill="#D2D9E9"/>
  <path d="M29.4424 44.6621H27.109C26.4647 44.6621 25.9424 45.1844 25.9424 45.8288V48.1621C25.9424 48.8064 26.4647 49.3288 27.109 49.3288H29.4424C30.0867 49.3288 30.6091 48.8064 30.6091 48.1621V45.8288C30.6091 45.1844 30.0867 44.6621 29.4424 44.6621Z" fill="#D2D9E9"/>
  <path d="M36.4424 44.6621H34.109C33.4647 44.6621 32.9424 45.1844 32.9424 45.8288V48.1621C32.9424 48.8064 33.4647 49.3288 34.109 49.3288H36.4424C37.0867 49.3288 37.609 48.8064 37.609 48.1621V45.8288C37.609 45.1844 37.0867 44.6621 36.4424 44.6621Z" fill="#D2D9E9"/>
  <path d="M43.4424 44.6621H41.109C40.4647 44.6621 39.9424 45.1844 39.9424 45.8288V48.1621C39.9424 48.8064 40.4647 49.3288 41.109 49.3288H43.4424C44.0867 49.3288 44.609 48.8064 44.609 48.1621V45.8288C44.609 45.1844 44.0867 44.6621 43.4424 44.6621Z" fill="#D2D9E9"/>
</svg>