<svg width="22" height="23" viewBox="0 0 22 23" fill="none" xmlns="http://www.w3.org/2000/svg">
<path d="M11 1.875C5.68477 1.875 1.375 6.18477 1.375 11.5C1.375 16.8152 5.68477 21.125 11 21.125C16.3152 21.125 20.625 16.8152 20.625 11.5C20.625 6.18477 16.3152 1.875 11 1.875ZM14.0959 11.6482L9.40371 15.0621C9.37799 15.0806 9.34767 15.0916 9.31608 15.094C9.28449 15.0964 9.25286 15.09 9.22466 15.0756C9.19646 15.0611 9.17279 15.0392 9.15624 15.0122C9.13969 14.9852 9.13091 14.9541 9.13086 14.9225V8.09902C9.13076 8.06728 9.13944 8.03613 9.15596 8.00903C9.17247 7.98192 9.19617 7.95992 9.22443 7.94546C9.25268 7.931 9.28439 7.92464 9.31603 7.9271C9.34768 7.92956 9.37803 7.94073 9.40371 7.95938L14.0959 11.3711C14.1181 11.3868 14.1361 11.4075 14.1486 11.4317C14.1611 11.4558 14.1676 11.4825 14.1676 11.5097C14.1676 11.5368 14.1611 11.5636 14.1486 11.5877C14.1361 11.6118 14.1181 11.6326 14.0959 11.6482Z" fill="#E5BE20"/>
</svg>
