<svg xmlns="http://www.w3.org/2000/svg" width="20" height="20" viewBox="0 0 20 20" fill="none">
  <path d="M17.9243 2.90625L17.0962 2.07813C17.0649 2.04688 17.0259 2.0332 16.9848 2.0332C16.9438 2.0332 16.9048 2.04883 16.8735 2.07813L15.3872 3.56445C14.741 3.12667 13.9782 2.89326 13.1977 2.89453C12.1977 2.89453 11.1977 3.27539 10.4341 4.03906L8.44383 6.0293C8.41475 6.05866 8.39844 6.09832 8.39844 6.13965C8.39844 6.18098 8.41475 6.22063 8.44383 6.25L13.7505 11.5566C13.7817 11.5879 13.8208 11.6016 13.8618 11.6016C13.9009 11.6016 13.9419 11.5859 13.9731 11.5566L15.9634 9.56641C17.3091 8.21875 17.4673 6.13477 16.438 4.61523L17.9243 3.12891C17.9848 3.06641 17.9848 2.9668 17.9243 2.90625ZM15.022 8.62695L13.8618 9.78711L10.2134 6.13867L11.3735 4.97852C11.8598 4.49219 12.5083 4.22266 13.1977 4.22266C13.8872 4.22266 14.5337 4.49023 15.022 4.97852C15.5083 5.46484 15.7778 6.11328 15.7778 6.80273C15.7778 7.49219 15.5083 8.13867 15.022 8.62695ZM11.3071 10.6777C11.2777 10.6487 11.2381 10.6323 11.1968 10.6323C11.1554 10.6323 11.1158 10.6487 11.0864 10.6777L9.78563 11.9785L8.02195 10.2148L9.32469 8.91211C9.38523 8.85156 9.38523 8.75195 9.32469 8.69141L8.61375 7.98047C8.58438 7.95139 8.54473 7.93508 8.5034 7.93508C8.46207 7.93508 8.42241 7.95139 8.39305 7.98047L7.09031 9.2832L6.25047 8.44336C6.23589 8.42877 6.21851 8.41727 6.19938 8.40955C6.18025 8.40183 6.15976 8.39805 6.13914 8.39844C6.10008 8.39844 6.05906 8.41406 6.02781 8.44336L4.03953 10.4336C2.69383 11.7812 2.53563 13.8652 3.56492 15.3848L2.07859 16.8711C2.04952 16.9005 2.0332 16.9401 2.0332 16.9814C2.0332 17.0228 2.04952 17.0624 2.07859 17.0918L2.90672 17.9199C2.93797 17.9512 2.97703 17.9648 3.01805 17.9648C3.05906 17.9648 3.09812 17.9492 3.12937 17.9199L4.6157 16.4336C5.27391 16.8809 6.03953 17.1035 6.80516 17.1035C7.80516 17.1035 8.80516 16.7227 9.56883 15.959L11.5591 13.9688C11.6196 13.9082 11.6196 13.8086 11.5591 13.748L10.7192 12.9082L12.022 11.6055C12.0825 11.5449 12.0825 11.4453 12.022 11.3848L11.3071 10.6777ZM8.62742 15.0215C8.38838 15.2618 8.10408 15.4523 7.79097 15.582C7.47785 15.7117 7.14213 15.7781 6.8032 15.7773C6.11375 15.7773 5.46727 15.5098 4.97898 15.0215C4.73871 14.7824 4.5482 14.4981 4.41847 14.185C4.28873 13.8719 4.22234 13.5362 4.22312 13.1973C4.22312 12.5078 4.4907 11.8613 4.97898 11.373L6.13914 10.2129L9.78758 13.8613L8.62742 15.0215Z" fill="#F8F8F8"/>
</svg>