<svg xmlns="http://www.w3.org/2000/svg" width="209" height="230" viewBox="0 0 209 230" fill="none">
  <path opacity="0.7" d="M104.564 199.242L52.702 229.256L0.496094 199.242L52.3585 169.24L104.564 199.242Z" fill="url(#paint0_linear_1048_1937)"/>
  <path opacity="0.7" d="M183.73 212.412L157.058 227.785L130.209 212.412L156.881 197.045L183.73 212.412Z" fill="url(#paint1_linear_1048_1937)"/>
  <path d="M103.806 128.801L103.635 188.512L51.4287 158.51L51.6004 98.7871L103.806 128.801Z" fill="url(#paint2_linear_1048_1937)"/>
  <path d="M104.565 128.017L52.703 158.032L0.49707 128.017L52.3595 98.0156L104.565 128.017Z" fill="url(#paint3_linear_1048_1937)"/>
  <path d="M104.394 187.74L52.5312 217.742V158.065L104.565 128.018L104.394 187.74Z" fill="url(#paint4_linear_1048_1937)"/>
  <path d="M52.7028 158.032L52.5311 217.742L0.325195 187.74L0.496925 128.018L52.7028 158.032Z" fill="url(#paint5_linear_1048_1937)"/>
  <path d="M79.1634 52.2105L52.4913 67.5836L25.6426 52.2105L52.3147 36.8438L79.1634 52.2105Z" fill="url(#paint6_linear_1048_1937)"/>
  <path d="M79.0764 82.8007L52.4043 98.1675V67.6011L79.1647 52.2109L79.0764 82.8007Z" fill="url(#paint7_linear_1048_1937)"/>
  <path d="M52.4918 67.584L52.4034 98.1675L25.5547 82.8007L25.643 52.2109L52.4918 67.584Z" fill="url(#paint8_linear_1048_1937)"/>
  <path d="M208.83 68.4804L156.968 98.4944L104.762 68.4804L156.624 38.4785L208.83 68.4804Z" fill="url(#paint9_linear_1048_1937)"/>
  <path d="M208.658 128.203L156.796 158.205V98.5279L208.83 68.4805L208.658 128.203Z" fill="url(#paint10_linear_1048_1937)"/>
  <path d="M156.967 98.4945L156.796 158.205L104.59 128.203L104.762 68.4805L156.967 98.4945Z" fill="url(#paint11_linear_1048_1937)"/>
  <path d="M183.73 173.49L157.058 188.863L130.209 173.49L156.881 158.123L183.73 173.49Z" fill="url(#paint12_linear_1048_1937)"/>
  <path d="M183.643 204.08L156.971 219.447V188.88L183.731 173.49L183.643 204.08Z" fill="url(#paint13_linear_1048_1937)"/>
  <path d="M157.058 188.863L156.97 219.447L130.121 204.08L130.209 173.49L157.058 188.863Z" fill="url(#paint14_linear_1048_1937)"/>
  <path d="M104.761 128.076V187.488L157.149 158.211V158.211V98.6573L104.761 68.6641L52.2412 97.963" stroke="#827CD3" stroke-width="1.02041" stroke-linecap="round" stroke-linejoin="round" stroke-dasharray="3.27 3.27"/>
  <path d="M25.7568 15.9277V82.8403L104.847 128.252L156.803 98.7236" stroke="#827CD3" stroke-width="1.02041" stroke-linecap="round" stroke-linejoin="round" stroke-dasharray="3.27 3.27"/>
  <path fill-rule="evenodd" clip-rule="evenodd" d="M25.7928 14.5064C29.8103 14.5064 33.0671 11.259 33.0671 7.25319C33.0671 3.24736 29.8103 0 25.7928 0C21.7754 0 18.5186 3.24736 18.5186 7.25319C18.5186 11.259 21.7754 14.5064 25.7928 14.5064Z" fill="url(#paint15_linear_1048_1937)"/>
  <defs>
    <linearGradient id="paint0_linear_1048_1937" x1="104.564" y1="169.24" x2="0.496094" y2="169.24" gradientUnits="userSpaceOnUse">
      <stop stop-color="#C6CEE4"/>
      <stop offset="1" stop-color="#6B7693"/>
    </linearGradient>
    <linearGradient id="paint1_linear_1048_1937" x1="183.73" y1="197.045" x2="130.209" y2="197.045" gradientUnits="userSpaceOnUse">
      <stop stop-color="#C6CEE4"/>
      <stop offset="1" stop-color="#6B7693"/>
    </linearGradient>
    <linearGradient id="paint2_linear_1048_1937" x1="49.3206" y1="189.973" x2="96.9494" y2="181.869" gradientUnits="userSpaceOnUse">
      <stop stop-color="#F1F5FF"/>
      <stop offset="1" stop-color="#D1D7E8"/>
    </linearGradient>
    <linearGradient id="paint3_linear_1048_1937" x1="15.8177" y1="98.0156" x2="15.8177" y2="140.361" gradientUnits="userSpaceOnUse">
      <stop stop-color="#E6EBF9"/>
      <stop offset="1" stop-color="white"/>
    </linearGradient>
    <linearGradient id="paint4_linear_1048_1937" x1="56.1668" y1="199.527" x2="100.601" y2="208.113" gradientUnits="userSpaceOnUse">
      <stop stop-color="#F1F5FF"/>
      <stop offset="1" stop-color="#D1D7E8"/>
    </linearGradient>
    <linearGradient id="paint5_linear_1048_1937" x1="6.32429" y1="128.018" x2="6.32429" y2="197.189" gradientUnits="userSpaceOnUse">
      <stop stop-color="#C6CEE4"/>
      <stop offset="1" stop-color="#C6CEE4"/>
    </linearGradient>
    <linearGradient id="paint6_linear_1048_1937" x1="25.6426" y1="36.8438" x2="52.1946" y2="83.0732" gradientUnits="userSpaceOnUse">
      <stop stop-color="#FDEB71"/>
      <stop offset="1" stop-color="#F8D800"/>
    </linearGradient>
    <linearGradient id="paint7_linear_1048_1937" x1="52.4043" y1="52.2109" x2="92.3729" y2="75.4846" gradientUnits="userSpaceOnUse">
      <stop stop-color="#FDD819"/>
      <stop offset="1" stop-color="#E80505"/>
    </linearGradient>
    <linearGradient id="paint8_linear_1048_1937" x1="25.5547" y1="52.2109" x2="65.6527" y2="75.7141" gradientUnits="userSpaceOnUse">
      <stop stop-color="#FEC163"/>
      <stop offset="1" stop-color="#DE4313"/>
    </linearGradient>
    <linearGradient id="paint9_linear_1048_1937" x1="120.082" y1="38.4785" x2="120.082" y2="80.8237" gradientUnits="userSpaceOnUse">
      <stop stop-color="#E6EBF9"/>
      <stop offset="1" stop-color="white"/>
    </linearGradient>
    <linearGradient id="paint10_linear_1048_1937" x1="160.431" y1="139.99" x2="204.865" y2="148.576" gradientUnits="userSpaceOnUse">
      <stop stop-color="#F1F5FF"/>
      <stop offset="1" stop-color="#D1D7E8"/>
    </linearGradient>
    <linearGradient id="paint11_linear_1048_1937" x1="110.589" y1="68.4805" x2="110.589" y2="137.652" gradientUnits="userSpaceOnUse">
      <stop stop-color="#C6CEE4"/>
      <stop offset="1" stop-color="#C6CEE4"/>
    </linearGradient>
    <linearGradient id="paint12_linear_1048_1937" x1="130.209" y1="158.123" x2="156.761" y2="204.353" gradientUnits="userSpaceOnUse">
      <stop stop-color="#FDEB71"/>
      <stop offset="1" stop-color="#F8D800"/>
    </linearGradient>
    <linearGradient id="paint13_linear_1048_1937" x1="156.971" y1="173.49" x2="196.939" y2="196.764" gradientUnits="userSpaceOnUse">
      <stop stop-color="#FDD819"/>
      <stop offset="1" stop-color="#E80505"/>
    </linearGradient>
    <linearGradient id="paint14_linear_1048_1937" x1="130.121" y1="173.49" x2="170.219" y2="196.993" gradientUnits="userSpaceOnUse">
      <stop stop-color="#FEC163"/>
      <stop offset="1" stop-color="#DE4313"/>
    </linearGradient>
    <linearGradient id="paint15_linear_1048_1937" x1="18.5186" y1="0" x2="33.0249" y2="14.5485" gradientUnits="userSpaceOnUse">
      <stop stop-color="#FAB2FF"/>
      <stop offset="1" stop-color="#1904E5"/>
    </linearGradient>
  </defs>
</svg>