<svg xmlns="http://www.w3.org/2000/svg" width="56" height="56" viewBox="0 0 56 56" fill="none">
  <path d="M48.194 19.904C47.1999 22.9019 47.1308 26.1296 47.9957 29.1673C48.7657 31.839 49.6173 34.3473 48.404 37.964C47.1631 41.682 44.9736 45.012 42.0518 47.6248C39.13 50.2376 35.577 52.0429 31.744 52.8623L27.999 53.6673L24.254 52.8623C20.4196 52.0419 16.8658 50.2348 13.9439 47.6198C11.022 45.0049 8.83321 41.6725 7.594 37.9523C6.42733 34.3007 7.279 31.664 8.00233 29.1557C8.86483 26.1216 8.79573 22.8983 7.804 19.904C6.76566 16.824 6.999 14.724 6.999 9.33398L27.999 2.33398L48.999 9.33398C48.999 14.9573 49.209 16.894 48.194 19.904Z" fill="#F8F9F9"/>
  <path d="M24.9882 49.4446C21.7514 48.7454 18.7523 47.2161 16.2854 45.0069C13.8186 42.7978 11.9689 39.9849 10.9182 36.8446C9.99652 34.1029 10.8132 32.0496 11.3615 30.1246C12.4232 26.4147 12.3419 22.4709 11.1282 18.8079C10.3465 16.4746 10.4982 14.9463 10.4982 11.8079L27.9982 5.97461L45.4982 11.8079C45.4982 14.8063 45.6382 16.4746 44.8798 18.7379C43.659 22.4027 43.5695 26.35 44.6232 30.0663C45.2182 32.1313 45.9998 34.0796 45.0898 36.7863C44.0446 39.9377 42.1962 42.7624 39.727 44.9821C37.2577 47.2018 34.2528 48.7398 31.0082 49.4446L27.9982 50.0863L24.9882 49.4446Z" fill="#2A3E4E"/>
  <circle cx="28" cy="28" r="10" fill="#2A3E4E"/>
  <path d="M28 29.168C29.933 29.168 31.5 27.601 31.5 25.668C31.5 23.735 29.933 22.168 28 22.168C26.067 22.168 24.5 23.735 24.5 25.668C24.5 27.601 26.067 29.168 28 29.168Z" fill="#E5BE20"/>
  <path d="M35 35.8283C33.0749 37.5501 30.5828 38.502 28 38.502C25.4172 38.502 22.9251 37.5501 21 35.8283C21.0672 34.4758 21.5253 33.1719 22.3187 32.0745C23.1121 30.9771 24.2067 30.1334 25.47 29.6457C26.7332 29.1579 28.1108 29.047 29.4358 29.3264C30.7608 29.6059 31.9763 30.2636 32.935 31.2199C34.1823 32.439 34.9203 34.086 35 35.8283Z" fill="#E5BE20"/>
  <path d="M27.9991 54.834C27.8241 54.834 27.9991 54.834 24.0091 54.0056C12.9375 51.6373 5.83245 41.5806 5.83245 34.289C5.88925 32.4246 6.24372 30.5814 6.88245 28.829C7.6788 26.0202 7.61377 23.0371 6.69579 20.2656C5.56412 16.9056 5.83245 14.4323 5.83245 9.33398C5.81917 9.07957 5.88953 8.8278 6.03279 8.61714C6.17604 8.40647 6.38431 8.24848 6.62579 8.16731C29.5158 0.595643 27.8358 1.05064 28.3725 1.22564L49.3725 8.22564C49.6042 8.30391 49.8054 8.45302 49.9478 8.65191C50.0902 8.85079 50.1664 9.08939 50.1658 9.33398C50.1658 14.5256 50.4108 16.9873 49.3025 20.2773C46.6541 28.2806 51.9858 30.964 49.5125 38.3256C48.2015 42.23 45.8998 45.7274 42.8324 48.4758C39.765 51.2243 36.0368 53.1296 32.0125 54.0056C30.69 54.3513 29.3504 54.6278 27.9991 54.834ZM8.16579 10.174C8.16579 14.6073 7.96745 16.7306 8.91245 19.5073C9.98372 22.7236 10.0569 26.1887 9.12245 29.4473C8.41079 31.944 7.58245 34.2306 8.70245 37.614C9.88939 41.1313 11.9691 44.2802 14.738 46.7526C17.507 49.2251 20.8704 50.9363 24.4991 51.719L27.9991 52.5006L31.4991 51.7423C35.1345 50.9544 38.5023 49.2344 41.2719 46.7512C44.0414 44.268 46.1173 41.1071 47.2958 37.579C48.4625 34.219 47.5408 31.804 46.8758 29.4823C45.9406 26.2238 46.0138 22.7584 47.0858 19.5423C47.5773 18.0635 47.8293 16.5157 47.8325 14.9573V10.174L27.9991 3.55898L8.16579 10.174Z" fill="#2A3E4E"/>
  <path d="M27.9987 39.6673C25.6913 39.6673 23.4356 38.9831 21.5171 37.7011C19.5985 36.4192 18.1031 34.5971 17.2201 32.4653C16.3371 30.3335 16.106 27.9877 16.5562 25.7246C17.0064 23.4615 18.1175 21.3827 19.7491 19.7511C21.3807 18.1195 23.4595 17.0083 25.7226 16.5582C27.9858 16.108 30.3315 16.339 32.4633 17.2221C34.5951 18.1051 36.4172 19.6004 37.6992 21.519C38.9811 23.4376 39.6654 25.6932 39.6654 28.0007C39.6654 31.0948 38.4362 34.0623 36.2483 36.2502C34.0604 38.4382 31.0929 39.6673 27.9987 39.6673ZM27.9987 18.6673C26.1527 18.6673 24.3482 19.2147 22.8134 20.2403C21.2785 21.2658 20.0822 22.7235 19.3758 24.4289C18.6694 26.1344 18.4846 28.011 18.8447 29.8215C19.2048 31.632 20.0937 33.295 21.399 34.6003C22.7043 35.9056 24.3674 36.7945 26.1779 37.1547C27.9883 37.5148 29.865 37.3299 31.5704 36.6235C33.2759 35.9171 34.7335 34.7208 35.7591 33.186C36.7846 31.6511 37.332 29.8466 37.332 28.0007C37.332 25.5253 36.3487 23.1513 34.5984 21.401C32.848 19.6507 30.4741 18.6673 27.9987 18.6673Z" fill="#F8F9F9"/>
</svg>