<svg width="56" height="57" viewBox="0 0 56 57" fill="none" xmlns="http://www.w3.org/2000/svg">
<g id="Protection">
<g id="Protection_2">
<path id="Vector" d="M48.195 20.402C47.2009 23.4 47.1317 26.6276 47.9966 29.6654C48.7666 32.337 49.6183 34.8454 48.405 38.462C47.1641 42.1801 44.9745 45.51 42.0527 48.1228C39.131 50.7357 35.578 52.541 31.745 53.3604L28 54.1654L24.255 53.3604C20.4206 52.5399 16.8668 50.7329 13.9449 48.1179C11.023 45.5029 8.83419 42.1706 7.59497 38.4504C6.42831 34.7987 7.27997 32.162 8.00331 29.6537C8.8658 26.6196 8.79671 23.3964 7.80497 20.402C6.76664 17.322 6.99997 15.222 6.99997 9.83203H8.16664C10.0232 9.83203 11.8036 9.09453 13.1164 7.78178C14.4291 6.46902 15.1666 4.68855 15.1666 2.83203H40.8333C40.8333 4.68855 41.5708 6.46902 42.8836 7.78178C44.1963 9.09453 45.9768 9.83203 47.8333 9.83203H49C49 15.4554 49.21 17.392 48.195 20.402Z" fill="#BEC6C6"/>
<path id="Vector_2" d="M24.99 49.942C21.7532 49.2428 18.754 47.7135 16.2872 45.5044C13.8203 43.2952 11.9707 40.4823 10.92 37.342C9.99829 34.612 10.8033 32.5704 11.3633 30.622C12.425 26.9121 12.3437 22.9683 11.13 19.3054C10.5373 17.2854 10.3237 15.1731 10.5 13.0754C12.2287 12.682 13.8297 11.8573 15.1537 10.6782C16.4776 9.49905 17.4815 8.00386 18.0716 6.33203H37.905C38.4972 8.0067 39.5046 9.50376 40.8329 10.6831C42.1612 11.8625 43.767 12.6856 45.5 13.0754C45.6734 15.1646 45.4638 17.268 44.8816 19.282C43.6607 22.9467 43.5713 26.8941 44.625 30.6104C45.2783 32.8737 45.9783 34.6937 45.0916 37.3304C44.0395 40.4731 42.1882 43.2882 39.7194 45.4993C37.2506 47.7104 34.2492 49.2414 31.01 49.942L28 50.5837L24.99 49.942Z" fill="#16242F"/>
<path id="Vector_3" d="M32.6666 27.3327C32.3572 27.3327 32.0605 27.2098 31.8417 26.991C31.6229 26.7722 31.5 26.4754 31.5 26.166V21.4993C31.5 20.5711 31.1312 19.6809 30.4748 19.0245C29.8185 18.3681 28.9282 17.9993 28 17.9993C27.0717 17.9993 26.1815 18.3681 25.5251 19.0245C24.8687 19.6809 24.5 20.5711 24.5 21.4993V26.166C24.5 26.4754 24.377 26.7722 24.1583 26.991C23.9395 27.2098 23.6427 27.3327 23.3333 27.3327C23.0239 27.3327 22.7271 27.2098 22.5083 26.991C22.2895 26.7722 22.1666 26.4754 22.1666 26.166V21.4993C22.1666 19.9523 22.7812 18.4685 23.8752 17.3746C24.9691 16.2806 26.4529 15.666 28 15.666C29.5471 15.666 31.0308 16.2806 32.1247 17.3746C33.2187 18.4685 33.8333 19.9523 33.8333 21.4993V26.166C33.8333 26.4754 33.7104 26.7722 33.4916 26.991C33.2728 27.2098 32.976 27.3327 32.6666 27.3327Z" fill="#BEC6C6"/>
<path id="Vector_4" d="M33.8333 25H22.1666C20.878 25 19.8333 26.0447 19.8333 27.3333V36.6667C19.8333 37.9553 20.878 39 22.1666 39H33.8333C35.122 39 36.1666 37.9553 36.1666 36.6667V27.3333C36.1666 26.0447 35.122 25 33.8333 25Z" fill="#E5BE20"/>
<path id="Vector_5" d="M27.9999 28.5C27.4907 28.5052 26.9972 28.6768 26.5946 28.9887C26.1921 29.3007 25.9026 29.7357 25.7704 30.2275C25.6382 30.7193 25.6705 31.2408 25.8624 31.7125C26.0544 32.1842 26.3953 32.5802 26.8333 32.84V34.3333C26.8333 34.6428 26.9562 34.9395 27.175 35.1583C27.3938 35.3771 27.6905 35.5 27.9999 35.5C28.3094 35.5 28.6061 35.3771 28.8249 35.1583C29.0437 34.9395 29.1666 34.6428 29.1666 34.3333V32.84C29.6046 32.5802 29.9455 32.1842 30.1375 31.7125C30.3294 31.2408 30.3617 30.7193 30.2295 30.2275C30.0973 29.7357 29.8078 29.3007 29.4053 28.9887C29.0027 28.6768 28.5092 28.5052 27.9999 28.5Z" fill="#16242F"/>
<path id="Vector_6" d="M28 55.3327C27.825 55.3327 28 55.3327 24.01 54.5043C12.9266 52.1243 5.83331 42.056 5.83331 34.7877C5.8901 32.9234 6.24458 31.0801 6.88331 29.3277C7.68545 26.5196 7.62038 23.5348 6.69664 20.7643C5.56497 17.4043 5.83331 14.9777 5.83331 9.83268C5.83331 9.52326 5.95622 9.22652 6.17502 9.00772C6.39381 8.78893 6.69056 8.66602 6.99997 8.66602H8.16664C8.93269 8.66602 9.69123 8.51513 10.399 8.22198C11.1067 7.92883 11.7498 7.49915 12.2914 6.95747C12.8331 6.4158 13.2628 5.77273 13.5559 5.065C13.8491 4.35727 14 3.59873 14 2.83268C14 2.52326 14.1229 2.22652 14.3417 2.00772C14.5605 1.78893 14.8572 1.66602 15.1666 1.66602H40.8333C41.1427 1.66602 41.4395 1.78893 41.6583 2.00772C41.8771 2.22652 42 2.52326 42 2.83268C42 4.37978 42.6146 5.86351 43.7085 6.95747C44.8025 8.05143 46.2862 8.66602 47.8333 8.66602H49C49.3094 8.66602 49.6061 8.78893 49.8249 9.00772C50.0437 9.22652 50.1666 9.52326 50.1666 9.83268C50.1666 15.001 50.4116 17.486 49.3033 20.776C46.6666 28.756 51.975 31.5093 49.5133 38.8243C48.2024 42.7287 45.9007 46.2261 42.8333 48.9746C39.7658 51.723 36.0377 53.6283 32.0133 54.5043C28 55.3327 28.175 55.3327 28 55.3327ZM8.16664 10.9993C8.16664 15.316 7.97997 17.276 8.91331 20.0293C9.98457 23.2456 10.0578 26.7107 9.12331 29.9693C8.39998 32.4893 7.58331 34.7643 8.70331 38.136C9.89363 41.649 11.9748 44.7931 14.7436 47.2612C17.5123 49.7294 20.8739 51.4371 24.5 52.2177L28 52.9993L31.5 52.241C35.1353 51.4531 38.5032 49.7331 41.2727 47.2499C44.0422 44.7667 46.1182 41.6058 47.2966 38.0777C48.4633 34.7293 47.5416 32.3027 46.8766 29.981C45.9414 26.7225 46.0146 23.2571 47.0866 20.041C47.5749 18.5614 47.8268 17.0141 47.8333 15.456V10.9993C45.8691 10.9999 43.9706 10.2924 42.4857 9.00679C41.0007 7.72113 40.0289 5.94337 39.7483 3.99935H16.2516C15.971 5.94337 14.9992 7.72113 13.5143 9.00679C12.0294 10.2924 10.1308 10.9999 8.16664 10.9993Z" fill="#2A3E4E"/>
</g>
</g>
</svg>
