<svg xmlns="http://www.w3.org/2000/svg" width="17" height="16" viewBox="0 0 17 16" fill="none">
  <g clip-path="url(#clip0_2324_1664)">
    <path d="M15.9286 1.35742H1.07143C0.755357 1.35742 0.5 1.61278 0.5 1.92885V10.786C0.5 11.1021 0.755357 11.3574 1.07143 11.3574H7.85714V13.3574H4.78571C4.62857 13.3574 4.5 13.486 4.5 13.6431V14.5003C4.5 14.5789 4.56429 14.6431 4.64286 14.6431H12.3571C12.4357 14.6431 12.5 14.5789 12.5 14.5003V13.6431C12.5 13.486 12.3714 13.3574 12.2143 13.3574H9.14286V11.3574H15.9286C16.2446 11.3574 16.5 11.1021 16.5 10.786V1.92885C16.5 1.61278 16.2446 1.35742 15.9286 1.35742ZM15.2143 10.0717H1.78571V2.64314H15.2143V10.0717Z" fill="#D1D1D1"/>
  </g>
  <defs>
    <clipPath id="clip0_2324_1664">
      <rect width="16" height="16" fill="white" transform="translate(0.5)"/>
    </clipPath>
  </defs>
</svg>