<svg xmlns="http://www.w3.org/2000/svg" width="57" height="57" viewBox="0 0 57 57" fill="none">
  <path d="M14.333 44.834H7.33301V49.5006H14.333V44.834Z" fill="#BEC6C6"/>
  <path d="M42.3333 49.5H49.3333V44.8333H42.3333V49.5Z" fill="#BEC6C6"/>
  <path d="M53.9993 42.5V9.83333C53.9993 8.54467 52.9546 7.5 51.6659 7.5L4.99928 7.5C3.71061 7.5 2.66594 8.54467 2.66594 9.83333V42.5C2.66594 43.7887 3.71061 44.8333 4.99928 44.8333H51.6659C52.9546 44.8333 53.9993 43.7887 53.9993 42.5Z" fill="#BEC6C6"/>
  <path d="M50.4993 41.3333V11L6.16594 11V41.3333H50.4993Z" fill="#2E3D46"/>
  <path d="M29.8618 31.8835C31.1295 30.2475 31.8174 28.2366 31.8174 26.1669C31.8174 24.0972 31.1295 22.0862 29.8618 20.4502L30.7485 19.5636C30.8706 19.459 30.9698 19.3303 31.0398 19.1855C31.1098 19.0408 31.1492 18.8831 31.1554 18.7224C31.1616 18.5618 31.1345 18.4016 31.0759 18.2518C31.0172 18.1021 30.9283 17.9662 30.8146 17.8525C30.7009 17.7388 30.5649 17.6498 30.4152 17.5911C30.2655 17.5325 30.1052 17.5054 29.9446 17.5116C29.7839 17.5178 29.6262 17.5572 29.4815 17.6272C29.3368 17.6972 29.2081 17.7964 29.1035 17.9186L28.2168 18.8052C26.5808 17.5375 24.5698 16.8496 22.5001 16.8496C20.4305 16.8496 18.4195 17.5375 16.7835 18.8052L15.8968 17.9186C15.6736 17.7274 15.3865 17.6275 15.0929 17.6389C14.7993 17.6502 14.5208 17.772 14.313 17.9797C14.1052 18.1875 13.9835 18.466 13.9721 18.7597C13.9608 19.0533 14.0607 19.3404 14.2518 19.5636L15.1385 20.4502C13.8708 22.0862 13.1829 24.0972 13.1829 26.1669C13.1829 28.2366 13.8708 30.2475 15.1385 31.8835L14.2518 32.7702C14.1297 32.8748 14.0305 33.0035 13.9605 33.1483C13.8904 33.293 13.8511 33.4506 13.8449 33.6113C13.8387 33.772 13.8657 33.9322 13.9244 34.0819C13.983 34.2316 14.072 34.3676 14.1857 34.4813C14.2994 34.595 14.4354 34.684 14.5851 34.7426C14.7348 34.8013 14.895 34.8284 15.0557 34.8221C15.2164 34.8159 15.374 34.7766 15.5188 34.7066C15.6635 34.6365 15.7922 34.5373 15.8968 34.4152L16.7835 33.5285C18.4195 34.7962 20.4305 35.4842 22.5001 35.4842C24.5698 35.4842 26.5808 34.7962 28.2168 33.5285L29.1035 34.4152C29.2081 34.5373 29.3368 34.6365 29.4815 34.7066C29.6262 34.7766 29.7839 34.8159 29.9446 34.8221C30.1052 34.8284 30.2655 34.8013 30.4152 34.7426C30.5649 34.684 30.7009 34.595 30.8146 34.4813C30.9283 34.3676 31.0172 34.2316 31.0759 34.0819C31.1345 33.9322 31.1616 33.772 31.1554 33.6113C31.1492 33.4506 31.1098 33.293 31.0398 33.1483C30.9698 33.0035 30.8706 32.8748 30.7485 32.7702L29.8618 31.8835Z" fill="#E5BE20"/>
  <path d="M8.49862 15.666H6.16528V22.666H8.49862V15.666Z" fill="#BEC6C6"/>
  <path d="M8.49862 29.668H6.16528V36.668H8.49862V29.668Z" fill="#BEC6C6"/>
  <path d="M44.6663 20.3327H40.8397C40.5828 19.8879 40.1864 19.5402 39.7119 19.3436C39.2373 19.1471 38.7112 19.1126 38.215 19.2455C37.7189 19.3785 37.2805 19.6714 36.9678 20.0789C36.6551 20.4864 36.4856 20.9857 36.4856 21.4994C36.4856 22.013 36.6551 22.5123 36.9678 22.9198C37.2805 23.3273 37.7189 23.6202 38.215 23.7532C38.7112 23.8861 39.2373 23.8516 39.7119 23.6551C40.1864 23.4585 40.5828 23.1108 40.8397 22.666H44.6663C44.9757 22.666 45.2725 22.5431 45.4913 22.3243C45.7101 22.1055 45.833 21.8088 45.833 21.4994C45.833 21.1899 45.7101 20.8932 45.4913 20.6744C45.2725 20.4556 44.9757 20.3327 44.6663 20.3327Z" fill="#BEC6C6"/>
  <path d="M51.6659 6.33398H4.99927C4.07101 6.33398 3.18077 6.70273 2.52439 7.35911C1.86802 8.01549 1.49927 8.90573 1.49927 9.83398V42.5006C1.49927 43.4289 1.86802 44.3191 2.52439 44.9755C3.18077 45.6319 4.07101 46.0006 4.99927 46.0006H6.16593V49.5006C6.16593 49.8101 6.28885 50.1068 6.50764 50.3256C6.72644 50.5444 7.02318 50.6673 7.3326 50.6673H14.3326C14.642 50.6673 14.9388 50.5444 15.1576 50.3256C15.3764 50.1068 15.4993 49.8101 15.4993 49.5006V46.0006H41.1659V49.5006C41.1659 49.8101 41.2889 50.1068 41.5076 50.3256C41.7264 50.5444 42.0232 50.6673 42.3326 50.6673H49.3326C49.642 50.6673 49.9388 50.5444 50.1576 50.3256C50.3764 50.1068 50.4993 49.8101 50.4993 49.5006V46.0006H51.6659C52.5942 46.0006 53.4844 45.6319 54.1408 44.9755C54.7972 44.3191 55.1659 43.4289 55.1659 42.5006V9.83398C55.1659 8.90573 54.7972 8.01549 54.1408 7.35911C53.4844 6.70273 52.5942 6.33398 51.6659 6.33398ZM13.1659 48.334H8.49927V46.0006H13.1659V48.334ZM48.1659 48.334H43.4993V46.0006H48.1659V48.334ZM52.8326 42.5006C52.8326 42.8101 52.7097 43.1068 52.4909 43.3256C52.2721 43.5444 51.9754 43.6673 51.6659 43.6673H4.99927C4.68985 43.6673 4.3931 43.5444 4.17431 43.3256C3.95552 43.1068 3.8326 42.8101 3.8326 42.5006V9.83398C3.8326 9.52456 3.95552 9.22782 4.17431 9.00903C4.3931 8.79023 4.68985 8.66732 4.99927 8.66732H51.6659C51.9754 8.66732 52.2721 8.79023 52.4909 9.00903C52.7097 9.22782 52.8326 9.52456 52.8326 9.83398V42.5006Z" fill="#2A3E4E"/>
  <path d="M46.9993 29.6673H44.6659C44.3565 29.6673 44.0598 29.5444 43.841 29.3256C43.6222 29.1068 43.4993 28.8101 43.4993 28.5007C43.4993 28.1912 43.6222 27.8945 43.841 27.6757C44.0598 27.4569 44.3565 27.334 44.6659 27.334H46.9993C47.3087 27.334 47.6054 27.4569 47.8242 27.6757C48.043 27.8945 48.1659 28.1912 48.1659 28.5007C48.1659 28.8101 48.043 29.1068 47.8242 29.3256C47.6054 29.5444 47.3087 29.6673 46.9993 29.6673Z" fill="#BEC6C6"/>
  <path d="M39.9993 29.6673H37.6659C37.3565 29.6673 37.0598 29.5444 36.841 29.3256C36.6222 29.1068 36.4993 28.8101 36.4993 28.5007C36.4993 28.1912 36.6222 27.8945 36.841 27.6757C37.0598 27.4569 37.3565 27.334 37.6659 27.334H39.9993C40.3087 27.334 40.6054 27.4569 40.8242 27.6757C41.043 27.8945 41.1659 28.1912 41.1659 28.5007C41.1659 28.8101 41.043 29.1068 40.8242 29.3256C40.6054 29.5444 40.3087 29.6673 39.9993 29.6673Z" fill="#BEC6C6"/>
  <path d="M46.9993 34.3333H44.6659C44.3565 34.3333 44.0598 34.2104 43.841 33.9916C43.6222 33.7728 43.4993 33.4761 43.4993 33.1667C43.4993 32.8572 43.6222 32.5605 43.841 32.3417C44.0598 32.1229 44.3565 32 44.6659 32H46.9993C47.3087 32 47.6054 32.1229 47.8242 32.3417C48.043 32.5605 48.1659 32.8572 48.1659 33.1667C48.1659 33.4761 48.043 33.7728 47.8242 33.9916C47.6054 34.2104 47.3087 34.3333 46.9993 34.3333Z" fill="#BEC6C6"/>
  <path d="M39.9993 34.3333H37.6659C37.3565 34.3333 37.0598 34.2104 36.841 33.9916C36.6222 33.7728 36.4993 33.4761 36.4993 33.1667C36.4993 32.8572 36.6222 32.5605 36.841 32.3417C37.0598 32.1229 37.3565 32 37.6659 32H39.9993C40.3087 32 40.6054 32.1229 40.8242 32.3417C41.043 32.5605 41.1659 32.8572 41.1659 33.1667C41.1659 33.4761 41.043 33.7728 40.8242 33.9916C40.6054 34.2104 40.3087 34.3333 39.9993 34.3333Z" fill="#BEC6C6"/>
  <path d="M28.1344 28.0677L26.9677 27.4027C27.13 26.809 27.1732 26.189 27.0949 25.5786C27.0165 24.9681 26.8182 24.3791 26.5113 23.8456C26.2045 23.3121 25.7951 22.8446 25.3068 22.4699C24.8184 22.0953 24.2608 21.8209 23.6661 21.6627V20.3327C23.6661 20.0233 23.5431 19.7265 23.3243 19.5077C23.1056 19.2889 22.8088 19.166 22.4994 19.166C22.19 19.166 21.8932 19.2889 21.6744 19.5077C21.4556 19.7265 21.3327 20.0233 21.3327 20.3327V21.6627C20.7369 21.8197 20.178 22.0931 19.6884 22.4672C19.1988 22.8413 18.7882 23.3087 18.4801 23.8423C18.1721 24.376 17.9728 24.9654 17.8937 25.5764C17.8146 26.1875 17.8573 26.8082 18.0194 27.4027L16.8527 28.0677C16.628 28.195 16.4518 28.3934 16.352 28.6316C16.2521 28.8699 16.2341 29.1345 16.3008 29.3841C16.3676 29.6336 16.5152 29.854 16.7207 30.0106C16.9261 30.1672 17.1777 30.2512 17.4361 30.2493C17.8677 30.2493 18.0777 30.0627 19.1627 29.4327C19.5969 29.8736 20.1145 30.2238 20.6854 30.4628C21.2562 30.7018 21.8689 30.8249 22.4877 30.8249C23.1066 30.8249 23.7192 30.7018 24.2901 30.4628C24.8609 30.2238 25.3785 29.8736 25.8127 29.4327C26.9211 30.0743 27.1077 30.2493 27.5394 30.2493C27.7987 30.2538 28.0521 30.1717 28.2596 30.0161C28.4671 29.8604 28.6168 29.6401 28.685 29.3898C28.7533 29.1396 28.7362 28.8738 28.6365 28.6343C28.5367 28.3949 28.3601 28.1955 28.1344 28.0677ZM22.4994 28.4993C22.0379 28.4993 21.5868 28.3625 21.2031 28.1061C20.8193 27.8497 20.5203 27.4853 20.3437 27.0589C20.1671 26.6326 20.1209 26.1634 20.2109 25.7108C20.3009 25.2582 20.5232 24.8424 20.8495 24.5161C21.1758 24.1898 21.5916 23.9675 22.0442 23.8775C22.4968 23.7875 22.966 23.8337 23.3923 24.0103C23.8187 24.1869 24.1831 24.486 24.4395 24.8697C24.6959 25.2534 24.8327 25.7045 24.8327 26.166C24.8327 26.7849 24.5869 27.3783 24.1493 27.8159C23.7117 28.2535 23.1182 28.4993 22.4994 28.4993Z" fill="#2E3D46"/>
</svg>