<svg xmlns="http://www.w3.org/2000/svg" width="16" height="17" viewBox="0 0 16 17" fill="none">
  <path d="M15.0993 14.5475L10.4618 9.91C11.1814 8.97965 11.5707 7.84215 11.5707 6.64572C11.5707 5.21357 11.0118 3.87072 10.0011 2.85822C8.99037 1.84572 7.64395 1.28857 6.21359 1.28857C4.78323 1.28857 3.4368 1.8475 2.42609 2.85822C1.41359 3.86893 0.856445 5.21357 0.856445 6.64572C0.856445 8.07608 1.41537 9.4225 2.42609 10.4332C3.4368 11.4457 4.78145 12.0029 6.21359 12.0029C7.41002 12.0029 8.54573 11.6136 9.47609 10.8957L14.1136 15.5314C14.1272 15.545 14.1433 15.5558 14.1611 15.5632C14.1789 15.5706 14.1979 15.5744 14.2172 15.5744C14.2364 15.5744 14.2554 15.5706 14.2732 15.5632C14.291 15.5558 14.3071 15.545 14.3207 15.5314L15.0993 14.7546C15.1129 14.741 15.1237 14.7249 15.1311 14.7071C15.1384 14.6894 15.1422 14.6703 15.1422 14.6511C15.1422 14.6318 15.1384 14.6128 15.1311 14.595C15.1237 14.5772 15.1129 14.5611 15.0993 14.5475ZM9.04216 9.47429C8.28502 10.2296 7.28145 10.6457 6.21359 10.6457C5.14573 10.6457 4.14216 10.2296 3.38502 9.47429C2.62966 8.71715 2.21359 7.71358 2.21359 6.64572C2.21359 5.57786 2.62966 4.5725 3.38502 3.81715C4.14216 3.06179 5.14573 2.64572 6.21359 2.64572C7.28145 2.64572 8.2868 3.06 9.04216 3.81715C9.79752 4.57429 10.2136 5.57786 10.2136 6.64572C10.2136 7.71358 9.79752 8.71893 9.04216 9.47429Z" fill="#778791"/>
</svg>