<svg width="200" height="191" viewBox="0 0 200 191" fill="none" xmlns="http://www.w3.org/2000/svg">
<g id="Group">
<g id="Chatting">
<path id="Vector" d="M174.614 16.6123H59.9596C56.1638 16.6123 52.5234 18.1202 49.8394 20.8042C47.1553 23.4883 45.6475 27.1286 45.6475 30.9244V106.474C45.6475 110.27 47.1553 113.91 49.8394 116.594C52.5234 119.278 56.1638 120.786 59.9596 120.786H139.426L151.946 138.256L164.466 120.786H174.614C176.493 120.787 178.355 120.417 180.091 119.698C181.828 118.979 183.406 117.925 184.735 116.596C186.064 115.266 187.118 113.688 187.838 111.952C188.557 110.215 188.926 108.354 188.926 106.474V30.9244C188.926 29.0448 188.557 27.1834 187.838 25.4467C187.118 23.71 186.064 22.132 184.735 20.8029C183.406 19.4738 181.828 18.4196 180.091 17.7005C178.355 16.9815 176.493 16.6117 174.614 16.6123Z" fill="#F5F5F5"/>
<path id="Vector_2" d="M188.926 30.925V106.475C188.926 110.271 187.418 113.912 184.734 116.596C182.05 119.281 178.41 120.79 174.614 120.791H164.47L151.946 138.257L139.426 120.791H59.9641C56.1671 120.791 52.5256 119.283 49.8407 116.598C47.1558 113.913 45.6475 110.272 45.6475 106.475V30.925C45.6475 27.128 47.1558 23.4865 49.8407 20.8016C52.5256 18.1168 56.1671 16.6084 59.9641 16.6084H174.614C178.41 16.6096 182.05 18.1185 184.734 20.8032C187.418 23.488 188.926 27.1288 188.926 30.925Z" fill="#F5F5F5"/>
<path id="Vector_3" d="M163.208 39.4512H90.1201V48.8758H163.208V39.4512Z" fill="#DEE1EC"/>
<path id="Vector_4" d="M163.203 64.7422H73.0449V74.1668H163.203V64.7422Z" fill="#DEE1EC"/>
<path id="Vector_5" d="M163.203 90.0283H139.7V99.4529H163.203V90.0283Z" fill="#DEE1EC"/>
<path id="Vector_6" style="mix-blend-mode:multiply" d="M130.896 104.228V120.79H59.9641C56.1671 120.79 52.5256 119.282 49.8407 116.597C47.1558 113.912 45.6475 110.271 45.6475 106.474V82.4541H109.113C114.887 82.46 120.423 84.7557 124.506 88.8375C128.589 92.9193 130.887 98.454 130.896 104.228Z" fill="url(#paint0_linear_2950_111)"/>
<path id="Vector_7" style="mix-blend-mode:multiply" d="M45.6475 63.983V30.925C45.6475 27.128 47.1558 23.4865 49.8407 20.8016C52.5256 18.1168 56.1671 16.6084 59.9641 16.6084H78.9885C88.166 39.532 70.7633 64.8365 45.6475 63.983Z" fill="url(#paint1_linear_2950_111)"/>
<path id="Vector_8" d="M151.946 140.574L138.735 122.134H59.9596C55.8078 122.129 51.8274 120.478 48.8917 117.542C45.956 114.606 44.3046 110.626 44.2998 106.474V30.9199C44.3046 26.7686 45.9561 22.7887 48.892 19.8536C51.8278 16.9186 55.8082 15.2682 59.9596 15.2646H174.614C178.765 15.2682 182.745 16.9186 185.681 19.8536C188.617 22.7887 190.269 26.7686 190.273 30.9199V106.474C190.269 110.626 188.617 114.606 185.682 117.542C182.746 120.478 178.765 122.129 174.614 122.134H165.158L151.946 140.574ZM59.9596 17.9375C56.5231 17.9411 53.2282 19.3075 50.7978 21.737C48.3674 24.1666 46.9999 27.4609 46.9951 30.8975V106.474C46.9987 109.911 48.3657 113.207 50.7963 115.637C53.2268 118.068 56.5223 119.435 59.9596 119.438H140.118L151.946 135.943L163.774 119.438H174.614C178.051 119.435 181.346 118.068 183.777 115.637C186.208 113.207 187.575 109.911 187.578 106.474V30.9199C187.573 27.4834 186.206 24.1891 183.775 21.7595C181.345 19.3299 178.05 17.9635 174.614 17.96L59.9596 17.9375Z" fill="#4A5964"/>
<path id="Vector_9" d="M46.8605 56.5395C61.8381 56.5395 73.9799 44.3977 73.9799 29.4201C73.9799 14.4425 61.8381 2.30078 46.8605 2.30078C31.8829 2.30078 19.7412 14.4425 19.7412 29.4201C19.7412 44.3977 31.8829 56.5395 46.8605 56.5395Z" fill="#14232D"/>
<path id="Vector_10" d="M46.8606 57.8822C41.2301 57.8822 35.7262 56.2126 31.0447 53.0844C26.3632 49.9562 22.7145 45.51 20.5601 40.3081C18.4056 35.1061 17.8421 29.3821 18.9409 23.86C20.0397 18.3378 22.7513 13.2655 26.7329 9.28445C30.7146 5.30345 35.7873 2.59259 41.3097 1.49469C46.832 0.396795 52.5559 0.961177 57.7575 3.11647C62.9591 5.27175 67.4047 8.92114 70.5322 13.6031C73.6596 18.2851 75.3284 23.7893 75.3276 29.4197C75.3311 33.1589 74.5972 36.862 73.1678 40.3171C71.7384 43.7722 69.6416 46.9115 66.9974 49.5553C64.3532 52.199 61.2136 54.2953 57.7583 55.7242C54.3029 57.153 50.5997 57.8864 46.8606 57.8822ZM46.8606 3.64806C40.5772 3.64833 34.5104 5.94368 29.8004 10.1026C25.0905 14.2616 22.0618 19.9977 21.2839 26.2327C20.5059 32.4676 22.0321 38.7721 25.5756 43.9609C29.1192 49.1497 34.436 52.8655 40.5266 54.4098C56.977 58.5471 72.6322 46.0139 72.6322 29.4197C72.6251 22.5869 69.9076 16.0359 65.076 11.2043C60.2444 6.37271 53.6934 3.65519 46.8606 3.64806Z" fill="#4A5964"/>
<path id="Vector_11" d="M49.6631 35.4666H44.0568C44.0573 33.5696 44.5084 31.6998 45.373 30.0113C46.2375 28.3228 47.4908 26.8638 49.0297 25.7545C49.5483 25.3827 49.9627 24.8839 50.2331 24.3058C50.5035 23.7278 50.6209 23.09 50.5739 22.4536C50.5269 21.8172 50.3172 21.2036 49.9648 20.6715C49.6124 20.1395 49.1293 19.7069 48.5617 19.4153C47.994 19.1237 47.361 18.9829 46.7233 19.0063C46.0856 19.0297 45.4646 19.2166 44.9199 19.5491C44.3752 19.8815 43.9251 20.3483 43.6127 20.9048C43.3003 21.4612 43.1361 22.0886 43.1359 22.7268H37.5342C37.5346 21.1293 37.9453 19.5587 38.7271 18.1656C39.5088 16.7724 40.6353 15.6034 41.9985 14.7707C43.3617 13.9379 44.9161 13.4693 46.5124 13.4098C48.1088 13.3503 49.6937 13.7018 51.1152 14.4307C52.5367 15.1596 53.7471 16.2414 54.6304 17.5725C55.5137 18.9035 56.0403 20.4392 56.1597 22.0322C56.2791 23.6252 55.9872 25.2221 55.3122 26.67C54.6371 28.1178 53.6015 29.368 52.3045 30.3006C51.4866 30.891 50.8207 31.6673 50.3615 32.5654C49.9022 33.4635 49.6629 34.4579 49.6631 35.4666Z" fill="#E5BE20"/>
<path id="Vector_12" d="M49.6232 39.8008H43.999V45.425H49.6232V39.8008Z" fill="#E5BE20"/>
<path id="Vector_13" d="M109.113 89.9209H26.3043C22.5093 89.9209 18.8696 91.4282 16.1857 94.1112C13.5018 96.7943 11.9934 100.433 11.9922 104.229V160.565C11.9898 162.446 12.3583 164.309 13.0765 166.048C13.7947 167.786 14.8485 169.366 16.1778 170.697C17.507 172.028 19.0856 173.084 20.8231 173.804C22.5607 174.524 24.4233 174.895 26.3043 174.895H31.0166L40.7512 188.484L50.4902 174.895H109.113C112.909 174.895 116.549 173.387 119.233 170.703C121.918 168.019 123.425 164.379 123.425 160.583V104.229C123.424 100.433 121.916 96.7943 119.232 94.1112C116.548 91.4282 112.908 89.9209 109.113 89.9209Z" fill="#1E2C37"/>
<path id="Vector_14" d="M40.7512 190.779L30.3248 176.243H26.2818C22.1308 176.232 18.1535 174.576 15.2221 171.637C12.2907 168.698 10.6445 164.716 10.6445 160.565V104.229C10.6493 100.077 12.3008 96.0973 15.2367 93.1622C18.1726 90.2272 22.1529 88.5768 26.3043 88.5732H109.113C113.265 88.5768 117.245 90.2272 120.181 93.1622C123.117 96.0973 124.768 100.077 124.773 104.229V160.565C124.773 164.72 123.124 168.705 120.187 171.645C117.251 174.584 113.268 176.238 109.113 176.243H51.1641L40.7512 190.779ZM26.3043 91.2686C22.8678 91.2721 19.573 92.6385 17.1426 95.0681C14.7122 97.4977 13.3446 100.792 13.3398 104.229V160.565C13.3387 164.005 14.7036 167.306 17.1346 169.74C19.5657 172.174 22.8639 173.544 26.3043 173.547H31.6949L40.7377 186.171L49.7895 173.547H109.086C112.524 173.544 115.819 172.177 118.25 169.746C120.68 167.316 122.047 164.02 122.051 160.583V104.229C122.046 100.792 120.678 97.4977 118.248 95.0681C115.818 92.6385 112.523 91.2721 109.086 91.2686H26.3043Z" fill="#4A5964"/>
<path id="Vector_15" d="M40.5621 139.123C44.0131 139.123 46.8107 136.326 46.8107 132.875C46.8107 129.424 44.0131 126.626 40.5621 126.626C37.1111 126.626 34.3135 129.424 34.3135 132.875C34.3135 136.326 37.1111 139.123 40.5621 139.123Z" fill="#DEE1EC"/>
<path id="Vector_16" d="M67.7086 139.123C71.1596 139.123 73.9572 136.326 73.9572 132.875C73.9572 129.424 71.1596 126.626 67.7086 126.626C64.2576 126.626 61.46 129.424 61.46 132.875C61.46 136.326 64.2576 139.123 67.7086 139.123Z" fill="#DEE1EC"/>
<path id="Vector_17" d="M94.8551 139.123C98.3061 139.123 101.104 136.326 101.104 132.875C101.104 129.424 98.3061 126.626 94.8551 126.626C91.4041 126.626 88.6064 129.424 88.6064 132.875C88.6064 136.326 91.4041 139.123 94.8551 139.123Z" fill="#DEE1EC"/>
<path id="Vector_18" d="M143.784 165.529C143.275 164.859 142.939 164.074 142.806 163.243C142.672 162.412 142.746 161.562 143.021 160.766C143.295 159.971 143.762 159.256 144.379 158.684C144.996 158.112 145.745 157.702 146.559 157.489C147.373 157.276 148.227 157.267 149.045 157.463C149.863 157.659 150.62 158.054 151.249 158.613C151.878 159.172 152.359 159.878 152.65 160.667C152.941 161.456 153.033 162.306 152.917 163.139C152.774 164.137 152.339 165.07 151.668 165.822C150.997 166.574 150.119 167.111 149.144 167.366C148.169 167.621 147.14 167.583 146.187 167.256C145.233 166.929 144.397 166.328 143.784 165.529ZM147.854 160.026C147.391 160.026 146.938 160.159 146.549 160.41C146.16 160.66 145.851 161.017 145.659 161.439C145.467 161.86 145.401 162.328 145.467 162.786C145.534 163.244 145.731 163.673 146.035 164.022C146.339 164.371 146.737 164.626 147.182 164.755C147.626 164.884 148.099 164.882 148.542 164.75C148.986 164.618 149.382 164.361 149.684 164.01C149.986 163.659 150.18 163.229 150.244 162.77C150.291 162.429 150.264 162.081 150.165 161.751C150.067 161.421 149.898 161.115 149.672 160.856C149.446 160.596 149.166 160.387 148.853 160.244C148.539 160.101 148.199 160.026 147.854 160.026Z" fill="#4A5964"/>
<path id="Vector_19" d="M131.371 184.261C130.829 184.26 130.292 184.148 129.795 183.931C129.298 183.714 128.85 183.398 128.48 183.001C128.11 182.604 127.826 182.136 127.644 181.624C127.463 181.113 127.388 180.57 127.425 180.029C127.462 179.488 127.61 178.96 127.859 178.478C128.109 177.996 128.454 177.571 128.875 177.228C129.295 176.885 129.782 176.632 130.304 176.485C130.826 176.338 131.373 176.3 131.911 176.373C132.907 176.508 133.814 177.017 134.449 177.796C135.084 178.575 135.4 179.566 135.331 180.569C135.262 181.572 134.815 182.511 134.08 183.197C133.345 183.882 132.377 184.263 131.371 184.261ZM131.371 179.032C131.128 179.032 130.89 179.102 130.685 179.233C130.48 179.365 130.318 179.552 130.217 179.774C130.116 179.995 130.081 180.241 130.116 180.482C130.151 180.723 130.255 180.948 130.415 181.132C130.575 181.315 130.784 181.448 131.018 181.516C131.252 181.584 131.5 181.582 131.733 181.513C131.966 181.443 132.174 181.307 132.332 181.122C132.49 180.937 132.592 180.711 132.625 180.47C132.649 180.29 132.635 180.108 132.583 179.935C132.531 179.761 132.442 179.601 132.323 179.465C132.204 179.329 132.057 179.22 131.892 179.145C131.727 179.07 131.548 179.032 131.367 179.032H131.371Z" fill="#4A5964"/>
<path id="Vector_20" d="M3.51953 121.164H0.824219V118.468H3.51953V121.164ZM3.51953 113.976H0.824219V111.281H3.51953V113.976ZM3.51953 106.789H0.824219V104.093H3.51953V106.789ZM3.93281 99.8752L1.27344 99.3766C1.45305 98.4447 1.68552 97.5238 1.96973 96.6184L4.53926 97.4225C4.29237 98.2283 4.08991 99.0471 3.93281 99.8752ZM6.17891 93.5143L3.82051 92.2385C4.27124 91.4041 4.76608 90.5944 5.30293 89.8127L7.52207 91.34C7.0458 92.0443 6.60937 92.7746 6.21484 93.5277L6.17891 93.5143ZM10.2219 88.1012L8.32617 86.183C9.00107 85.5155 9.71349 84.8871 10.46 84.3008L12.1266 86.4166C11.4736 86.9486 10.8497 87.5154 10.2578 88.1146L10.2219 88.1012ZM15.7023 84.1525L14.458 81.7627C15.2994 81.325 16.1648 80.9351 17.05 80.5947L18.0203 83.1103C17.2285 83.4134 16.4546 83.7613 15.7023 84.1525ZM22.0947 81.9648L21.6141 79.3145C22.5474 79.1475 23.4892 79.0321 24.4352 78.9686L24.6148 81.6639C23.7704 81.7114 22.9292 81.8043 22.0947 81.9424V81.9648ZM31.7125 81.6055H29.0172V78.9102H31.7125V81.6055Z" fill="#D4D8E2"/>
<path id="Vector_21" d="M171.32 152.511C175.101 152.512 178.727 154.014 181.399 156.688C184.072 159.362 185.574 162.988 185.574 166.769C185.574 162.988 187.076 159.362 189.749 156.688C192.422 154.014 196.047 152.512 199.828 152.511C196.047 152.511 192.422 151.009 189.749 148.336C187.076 145.663 185.574 142.037 185.574 138.257C185.574 142.037 184.072 145.663 181.399 148.336C178.726 151.009 175.101 152.511 171.32 152.511Z" fill="#E5BE20"/>
<path id="Vector_22" d="M4.99707 57.7434C6.8525 57.7446 8.63152 58.4825 9.94308 59.7949C11.2546 61.1073 11.9914 62.8868 11.9914 64.7422C11.9926 62.8863 12.7304 61.1069 14.0426 59.7946C15.3549 58.4823 17.1344 57.7446 18.9902 57.7434C17.1348 57.7434 15.3553 57.0066 14.0429 55.695C12.7305 54.3835 11.9926 52.6044 11.9914 50.749C11.9914 52.604 11.2545 54.3831 9.94281 55.6948C8.63112 57.0065 6.85208 57.7434 4.99707 57.7434Z" fill="#E5BE20"/>
</g>
</g>
<defs>
<linearGradient id="paint0_linear_2950_111" x1="45.6475" y1="101.622" x2="130.896" y2="101.622" gradientUnits="userSpaceOnUse">
<stop stop-color="#CACFDD"/>
<stop offset="1" stop-color="#EEF0F1"/>
</linearGradient>
<linearGradient id="paint1_linear_2950_111" x1="45.6475" y1="40.3047" x2="81.4727" y2="40.3047" gradientUnits="userSpaceOnUse">
<stop stop-color="#CACFDD"/>
<stop offset="1" stop-color="#EEF0F1"/>
</linearGradient>
</defs>
</svg>
