<svg xmlns="http://www.w3.org/2000/svg" width="49" height="49" viewBox="0 0 49 49" fill="none">
  <path opacity="0.7" d="M42.6665 2.5H4.6665C3.56193 2.5 2.6665 3.39543 2.6665 4.5V10.5C2.6665 11.6046 3.56193 12.5 4.6665 12.5H42.6665C43.7711 12.5 44.6665 11.6046 44.6665 10.5V4.5C44.6665 3.39543 43.7711 2.5 42.6665 2.5Z" fill="#F8F9F9"/>
  <path opacity="0.7" d="M42.6665 16.5H4.6665C3.56193 16.5 2.6665 17.3954 2.6665 18.5V24.5C2.6665 25.6046 3.56193 26.5 4.6665 26.5H42.6665C43.7711 26.5 44.6665 25.6046 44.6665 24.5V18.5C44.6665 17.3954 43.7711 16.5 42.6665 16.5Z" fill="#F8F9F9"/>
  <path opacity="0.7" d="M42.6665 30.5H4.6665C3.56193 30.5 2.6665 31.3954 2.6665 32.5V38.5C2.6665 39.6046 3.56193 40.5 4.6665 40.5H42.6665C43.7711 40.5 44.6665 39.6046 44.6665 38.5V32.5C44.6665 31.3954 43.7711 30.5 42.6665 30.5Z" fill="#F8F9F9"/>
  <path d="M41.6665 12.5H5.6665V16.5H41.6665V12.5Z" fill="#BEC6C6"/>
  <path d="M41.6665 26.5H5.6665V30.5H41.6665V26.5Z" fill="#BEC6C6"/>
  <path d="M4.6665 2.5H13.6665V12.5H4.6665C4.13607 12.5 3.62736 12.2893 3.25229 11.9142C2.87722 11.5391 2.6665 11.0304 2.6665 10.5V4.5C2.6665 3.96957 2.87722 3.46086 3.25229 3.08579C3.62736 2.71071 4.13607 2.5 4.6665 2.5Z" fill="#DCE4E4"/>
  <path d="M4.6665 16.5H13.6665V26.5H4.6665C4.13607 26.5 3.62736 26.2893 3.25229 25.9142C2.87722 25.5391 2.6665 25.0304 2.6665 24.5V18.5C2.6665 17.9696 2.87722 17.4609 3.25229 17.0858C3.62736 16.7107 4.13607 16.5 4.6665 16.5Z" fill="#DCE4E4"/>
  <path d="M4.6665 30.5H13.6665V40.5H4.6665C4.13607 40.5 3.62736 40.2893 3.25229 39.9142C2.87722 39.5391 2.6665 39.0304 2.6665 38.5V32.5C2.6665 31.9696 2.87722 31.4609 3.25229 31.0858C3.62736 30.7107 4.13607 30.5 4.6665 30.5Z" fill="#DCE4E4"/>
  <path d="M45.6665 10.5V4.5C45.6665 3.70435 45.3504 2.94129 44.7878 2.37868C44.2252 1.81607 43.4622 1.5 42.6665 1.5H4.6665C3.87085 1.5 3.10779 1.81607 2.54518 2.37868C1.98257 2.94129 1.6665 3.70435 1.6665 4.5V10.5C1.6665 11.2956 1.98257 12.0587 2.54518 12.6213C3.10779 13.1839 3.87085 13.5 4.6665 13.5V15.5C3.87085 15.5 3.10779 15.8161 2.54518 16.3787C1.98257 16.9413 1.6665 17.7044 1.6665 18.5V24.5C1.6665 25.2956 1.98257 26.0587 2.54518 26.6213C3.10779 27.1839 3.87085 27.5 4.6665 27.5V29.5C3.87085 29.5 3.10779 29.8161 2.54518 30.3787C1.98257 30.9413 1.6665 31.7044 1.6665 32.5V38.5C1.6665 39.2957 1.98257 40.0587 2.54518 40.6213C3.10779 41.1839 3.87085 41.5 4.6665 41.5H42.6665C43.4622 41.5 44.2252 41.1839 44.7878 40.6213C45.3504 40.0587 45.6665 39.2957 45.6665 38.5V32.5C45.6665 31.7044 45.3504 30.9413 44.7878 30.3787C44.2252 29.8161 43.4622 29.5 42.6665 29.5V27.5C43.4622 27.5 44.2252 27.1839 44.7878 26.6213C45.3504 26.0587 45.6665 25.2956 45.6665 24.5V18.5C45.6665 17.7044 45.3504 16.9413 44.7878 16.3787C44.2252 15.8161 43.4622 15.5 42.6665 15.5V13.5C43.4622 13.5 44.2252 13.1839 44.7878 12.6213C45.3504 12.0587 45.6665 11.2956 45.6665 10.5ZM3.6665 10.5V4.5C3.6665 4.23478 3.77186 3.98043 3.9594 3.79289C4.14693 3.60536 4.40129 3.5 4.6665 3.5H42.6665C42.9317 3.5 43.1861 3.60536 43.3736 3.79289C43.5611 3.98043 43.6665 4.23478 43.6665 4.5V10.5C43.6665 10.7652 43.5611 11.0196 43.3736 11.2071C43.1861 11.3946 42.9317 11.5 42.6665 11.5H4.6665C4.40129 11.5 4.14693 11.3946 3.9594 11.2071C3.77186 11.0196 3.6665 10.7652 3.6665 10.5ZM43.6665 32.5V38.5C43.6665 38.7652 43.5611 39.0196 43.3736 39.2071C43.1861 39.3946 42.9317 39.5 42.6665 39.5H4.6665C4.40129 39.5 4.14693 39.3946 3.9594 39.2071C3.77186 39.0196 3.6665 38.7652 3.6665 38.5V32.5C3.6665 32.2348 3.77186 31.9804 3.9594 31.7929C4.14693 31.6054 4.40129 31.5 4.6665 31.5H42.6665C42.9317 31.5 43.1861 31.6054 43.3736 31.7929C43.5611 31.9804 43.6665 32.2348 43.6665 32.5ZM40.6665 29.5H6.6665V27.5H40.6665V29.5ZM43.6665 18.5V24.5C43.6665 24.7652 43.5611 25.0196 43.3736 25.2071C43.1861 25.3946 42.9317 25.5 42.6665 25.5H4.6665C4.40129 25.5 4.14693 25.3946 3.9594 25.2071C3.77186 25.0196 3.6665 24.7652 3.6665 24.5V18.5C3.6665 18.2348 3.77186 17.9804 3.9594 17.7929C4.14693 17.6054 4.40129 17.5 4.6665 17.5H42.6665C42.9317 17.5 43.1861 17.6054 43.3736 17.7929C43.5611 17.9804 43.6665 18.2348 43.6665 18.5ZM40.6665 15.5H6.6665V13.5H40.6665V15.5Z" fill="#2A3E4E"/>
  <path d="M8.6665 9.5C9.77107 9.5 10.6665 8.60457 10.6665 7.5C10.6665 6.39543 9.77107 5.5 8.6665 5.5C7.56193 5.5 6.6665 6.39543 6.6665 7.5C6.6665 8.60457 7.56193 9.5 8.6665 9.5Z" fill="#2A3E4E"/>
  <path d="M8.6665 23.5C9.77107 23.5 10.6665 22.6046 10.6665 21.5C10.6665 20.3954 9.77107 19.5 8.6665 19.5C7.56193 19.5 6.6665 20.3954 6.6665 21.5C6.6665 22.6046 7.56193 23.5 8.6665 23.5Z" fill="#2A3E4E"/>
  <path d="M8.6665 37.5C9.77107 37.5 10.6665 36.6046 10.6665 35.5C10.6665 34.3954 9.77107 33.5 8.6665 33.5C7.56193 33.5 6.6665 34.3954 6.6665 35.5C6.6665 36.6046 7.56193 37.5 8.6665 37.5Z" fill="#2A3E4E"/>
  <path d="M39.6665 47.5C37.3807 46.9288 35.3515 45.6096 33.9019 43.7523C32.4522 41.8949 31.6654 39.6061 31.6665 37.25V28.5C32.8876 28.8045 34.1667 28.7877 35.3793 28.4512C36.592 28.1148 37.6969 27.4701 38.5865 26.58L39.6665 25.5L40.7465 26.58C41.6361 27.4701 42.741 28.1148 43.9537 28.4512C45.1663 28.7877 46.4454 28.8045 47.6665 28.5V37.25C47.6659 39.6057 46.8784 41.8936 45.429 43.7506C43.9796 45.6076 41.9515 46.9272 39.6665 47.5Z" fill="#E5BE20"/>
  <path d="M39.6665 9.5C39.4013 9.5 39.1469 9.39464 38.9594 9.20711C38.7719 9.01957 38.6665 8.76522 38.6665 8.5V6.5C38.6665 6.23478 38.7719 5.98043 38.9594 5.79289C39.1469 5.60536 39.4013 5.5 39.6665 5.5C39.9317 5.5 40.1861 5.60536 40.3736 5.79289C40.5611 5.98043 40.6665 6.23478 40.6665 6.5V8.5C40.6665 8.76522 40.5611 9.01957 40.3736 9.20711C40.1861 9.39464 39.9317 9.5 39.6665 9.5Z" fill="#2A3E4E"/>
  <path d="M35.6665 9.5C35.4013 9.5 35.1469 9.39464 34.9594 9.20711C34.7719 9.01957 34.6665 8.76522 34.6665 8.5V6.5C34.6665 6.23478 34.7719 5.98043 34.9594 5.79289C35.1469 5.60536 35.4013 5.5 35.6665 5.5C35.9317 5.5 36.1861 5.60536 36.3736 5.79289C36.5611 5.98043 36.6665 6.23478 36.6665 6.5V8.5C36.6665 8.76522 36.5611 9.01957 36.3736 9.20711C36.1861 9.39464 35.9317 9.5 35.6665 9.5Z" fill="#2A3E4E"/>
  <path d="M31.6665 9.5C31.4013 9.5 31.1469 9.39464 30.9594 9.20711C30.7719 9.01957 30.6665 8.76522 30.6665 8.5V6.5C30.6665 6.23478 30.7719 5.98043 30.9594 5.79289C31.1469 5.60536 31.4013 5.5 31.6665 5.5C31.9317 5.5 32.1861 5.60536 32.3736 5.79289C32.5611 5.98043 32.6665 6.23478 32.6665 6.5V8.5C32.6665 8.76522 32.5611 9.01957 32.3736 9.20711C32.1861 9.39464 31.9317 9.5 31.6665 9.5Z" fill="#2A3E4E"/>
  <path d="M26.6665 8.5H18.6665C18.4013 8.5 18.1469 8.39464 17.9594 8.20711C17.7719 8.01957 17.6665 7.76522 17.6665 7.5C17.6665 7.23478 17.7719 6.98043 17.9594 6.79289C18.1469 6.60536 18.4013 6.5 18.6665 6.5H26.6665C26.9317 6.5 27.1861 6.60536 27.3736 6.79289C27.5611 6.98043 27.6665 7.23478 27.6665 7.5C27.6665 7.76522 27.5611 8.01957 27.3736 8.20711C27.1861 8.39464 26.9317 8.5 26.6665 8.5Z" fill="#2A3E4E"/>
  <path d="M39.6665 23.5C39.4013 23.5 39.1469 23.3946 38.9594 23.2071C38.7719 23.0196 38.6665 22.7652 38.6665 22.5V20.5C38.6665 20.2348 38.7719 19.9804 38.9594 19.7929C39.1469 19.6054 39.4013 19.5 39.6665 19.5C39.9317 19.5 40.1861 19.6054 40.3736 19.7929C40.5611 19.9804 40.6665 20.2348 40.6665 20.5V22.5C40.6665 22.7652 40.5611 23.0196 40.3736 23.2071C40.1861 23.3946 39.9317 23.5 39.6665 23.5Z" fill="#2A3E4E"/>
  <path d="M35.6665 23.5C35.4013 23.5 35.1469 23.3946 34.9594 23.2071C34.7719 23.0196 34.6665 22.7652 34.6665 22.5V20.5C34.6665 20.2348 34.7719 19.9804 34.9594 19.7929C35.1469 19.6054 35.4013 19.5 35.6665 19.5C35.9317 19.5 36.1861 19.6054 36.3736 19.7929C36.5611 19.9804 36.6665 20.2348 36.6665 20.5V22.5C36.6665 22.7652 36.5611 23.0196 36.3736 23.2071C36.1861 23.3946 35.9317 23.5 35.6665 23.5Z" fill="#2A3E4E"/>
  <path d="M31.6665 23.5C31.4013 23.5 31.1469 23.3946 30.9594 23.2071C30.7719 23.0196 30.6665 22.7652 30.6665 22.5V20.5C30.6665 20.2348 30.7719 19.9804 30.9594 19.7929C31.1469 19.6054 31.4013 19.5 31.6665 19.5C31.9317 19.5 32.1861 19.6054 32.3736 19.7929C32.5611 19.9804 32.6665 20.2348 32.6665 20.5V22.5C32.6665 22.7652 32.5611 23.0196 32.3736 23.2071C32.1861 23.3946 31.9317 23.5 31.6665 23.5Z" fill="#2A3E4E"/>
  <path d="M26.6665 22.5H18.6665C18.4013 22.5 18.1469 22.3946 17.9594 22.2071C17.7719 22.0196 17.6665 21.7652 17.6665 21.5C17.6665 21.2348 17.7719 20.9804 17.9594 20.7929C18.1469 20.6054 18.4013 20.5 18.6665 20.5H26.6665C26.9317 20.5 27.1861 20.6054 27.3736 20.7929C27.5611 20.9804 27.6665 21.2348 27.6665 21.5C27.6665 21.7652 27.5611 22.0196 27.3736 22.2071C27.1861 22.3946 26.9317 22.5 26.6665 22.5Z" fill="#2A3E4E"/>
  <path d="M26.6665 36.5H18.6665C18.4013 36.5 18.1469 36.3946 17.9594 36.2071C17.7719 36.0196 17.6665 35.7652 17.6665 35.5C17.6665 35.2348 17.7719 34.9804 17.9594 34.7929C18.1469 34.6054 18.4013 34.5 18.6665 34.5H26.6665C26.9317 34.5 27.1861 34.6054 27.3736 34.7929C27.5611 34.9804 27.6665 35.2348 27.6665 35.5C27.6665 35.7652 27.5611 36.0196 27.3736 36.2071C27.1861 36.3946 26.9317 36.5 26.6665 36.5Z" fill="#2A3E4E"/>
</svg>