<svg xmlns="http://www.w3.org/2000/svg" width="18" height="19" viewBox="0 0 18 19" fill="none">
  <g clip-path="url(#clip0_1048_1656)">
    <path fill-rule="evenodd" clip-rule="evenodd" d="M17.2855 2.36964C17.2855 2.36964 16.0478 1.4798 13.3936 0.913003C10.349 0.263374 7.65111 0.263374 4.60649 0.913003C1.95354 1.4798 0.714629 2.36964 0.714629 2.36964C0.714629 2.36964 -0.200058 8.90617 3.72138 14.1411C5.78032 16.8899 8.58355 18.3489 8.99888 18.4258C9.75028 18.0885 12.1559 16.7479 14.2776 14.1411C18.199 8.90617 17.2855 2.36964 17.2855 2.36964ZM13.7951 5.48385L9.02649 12.0956C8.9597 12.1885 8.87196 12.2644 8.77006 12.3166C8.66817 12.369 8.55552 12.3963 8.44118 12.3963C8.39363 12.3963 8.34608 12.3916 8.29966 12.3823C8.23456 12.3693 8.17173 12.3472 8.11229 12.3166C8.0104 12.2644 7.92266 12.1885 7.85586 12.0956L5.0323 8.18288C4.94626 8.06287 5.0323 7.89532 5.17948 7.89532H6.24143C6.47238 7.89532 6.69202 8.00627 6.82788 8.19647L8.44005 10.4336L11.9995 5.49744C12.1354 5.3095 12.3527 5.19629 12.5859 5.19629H13.6479C13.7158 5.19629 13.7707 5.23209 13.8019 5.28247C13.8381 5.34106 13.8415 5.41932 13.7951 5.48385Z" fill="white"/>
  </g>
  <defs>
    <clipPath id="clip0_1048_1656">
      <rect width="18" height="18" fill="white" transform="translate(0 0.425781)"/>
    </clipPath>
  </defs>
</svg>