<svg width="54" height="54" viewBox="0 0 54 54" fill="none" xmlns="http://www.w3.org/2000/svg">
<g id="Sirine">
<path id="Vector" d="M49.1667 52.6667H4.83337L6.00004 48H48L49.1667 52.6667Z" fill="#BEC6C6"/>
<path id="Vector_2" d="M44.5 43.332H9.5V47.9987H44.5V43.332Z" fill="#16242F"/>
<path id="Vector_3" d="M42.1667 43.3327H11.8334V25.8327C11.8334 21.8102 13.4313 17.9525 16.2756 15.1082C19.1199 12.2639 22.9776 10.666 27 10.666C31.0225 10.666 34.8802 12.2639 37.7245 15.1082C40.5688 17.9525 42.1667 21.8102 42.1667 25.8327V43.3327Z" fill="#16242F"/>
<path id="Vector_4" d="M27 21.166C25.9779 21.1722 24.9861 21.5137 24.177 22.1382C23.3678 22.7626 22.786 23.6355 22.521 24.6226C22.256 25.6098 22.3224 26.6566 22.7101 27.6024C23.0977 28.5481 23.7851 29.3405 24.6667 29.8577V37.4993H29.3333V29.8577C30.2149 29.3405 30.9023 28.5481 31.2899 27.6024C31.6776 26.6566 31.744 25.6098 31.479 24.6226C31.214 23.6355 30.6322 22.7626 29.823 22.1382C29.0139 21.5137 28.0221 21.1722 27 21.166Z" fill="#E5BE20"/>
<path id="Vector_5" d="M41 37.5H13V42.1667H41V37.5Z" fill="#BEC6C6"/>
<path id="Vector_6" d="M52.6667 51.5H50.0767L49.1667 47.72C49.1028 47.4611 48.9522 47.232 48.7399 47.0706C48.5277 46.9093 48.2665 46.8256 48 46.8333H45.6667V43.3333C45.6667 43.0239 45.5438 42.7272 45.325 42.5084C45.1062 42.2896 44.8094 42.1667 44.5 42.1667H43.3334V25.8333C43.3334 21.5015 41.6125 17.347 38.5494 14.2839C35.4863 11.2208 31.3319 9.5 27 9.5C22.6681 9.5 18.5137 11.2208 15.4506 14.2839C12.3875 17.347 10.6667 21.5015 10.6667 25.8333V42.1667H9.50002C9.1906 42.1667 8.89386 42.2896 8.67506 42.5084C8.45627 42.7272 8.33335 43.0239 8.33335 43.3333V46.8333H6.00002C5.73351 46.8256 5.47239 46.9093 5.26011 47.0706C5.04784 47.232 4.89723 47.4611 4.83335 47.72L3.92335 51.5H1.33335C1.02393 51.5 0.727188 51.6229 0.508396 51.8417C0.289603 52.0605 0.166687 52.3572 0.166687 52.6667C0.166687 52.9761 0.289603 53.2728 0.508396 53.4916C0.727188 53.7104 1.02393 53.8333 1.33335 53.8333H52.6667C52.9761 53.8333 53.2729 53.7104 53.4916 53.4916C53.7104 53.2728 53.8334 52.9761 53.8334 52.6667C53.8334 52.3572 53.7104 52.0605 53.4916 51.8417C53.2729 51.6229 52.9761 51.5 52.6667 51.5ZM13 25.8333C13 22.1203 14.475 18.5593 17.1005 15.9338C19.726 13.3083 23.287 11.8333 27 11.8333C30.7131 11.8333 34.274 13.3083 36.8995 15.9338C39.525 18.5593 41 22.1203 41 25.8333V42.1667H13V25.8333ZM10.6667 44.5H43.3334V46.8333H10.6667V44.5ZM6.32669 51.5L6.91002 49.1667H47.09L47.6734 51.5H6.32669Z" fill="#2A3E4E"/>
<path id="Vector_7" d="M27 5.99935C26.6906 5.99935 26.3939 5.87643 26.1751 5.65764C25.9563 5.43885 25.8334 5.1421 25.8334 4.83268V1.33268C25.8334 1.02326 25.9563 0.726517 26.1751 0.507724C26.3939 0.288932 26.6906 0.166016 27 0.166016C27.3095 0.166016 27.6062 0.288932 27.825 0.507724C28.0438 0.726517 28.1667 1.02326 28.1667 1.33268V4.83268C28.1667 5.1421 28.0438 5.43885 27.825 5.65764C27.6062 5.87643 27.3095 5.99935 27 5.99935Z" fill="#2A3E4E"/>
<path id="Vector_8" d="M15.9167 8.9742C15.7111 8.97502 15.5089 8.9215 15.3307 8.81906C15.1525 8.71662 15.0044 8.5689 14.9017 8.39087L13.1517 5.35753C13.0751 5.22424 13.0255 5.07717 13.0057 4.92471C12.9859 4.77225 12.9964 4.61739 13.0365 4.46897C13.0765 4.32055 13.1455 4.18148 13.2393 4.05969C13.3331 3.93791 13.45 3.8358 13.5833 3.7592C13.7166 3.6826 13.8637 3.633 14.0162 3.61323C14.1686 3.59347 14.3235 3.60392 14.4719 3.64401C14.6203 3.68409 14.7594 3.75302 14.8812 3.84685C15.0029 3.94068 15.1051 4.05758 15.1817 4.19087L16.9317 7.2242C17.0343 7.4019 17.0882 7.60351 17.088 7.80869C17.0878 8.01388 17.0334 8.21539 16.9305 8.39288C16.8276 8.57037 16.6796 8.71758 16.5016 8.81964C16.3236 8.9217 16.1218 8.97502 15.9167 8.9742Z" fill="#2A3E4E"/>
<path id="Vector_9" d="M7.79666 17.0834C7.38833 17.0834 7.51666 17.0834 4.19166 15.1818C3.92247 15.0271 3.72576 14.7718 3.6448 14.472C3.56385 14.1723 3.60529 13.8526 3.76 13.5834C3.91471 13.3143 4.17002 13.1175 4.46976 13.0366C4.76951 12.9556 5.08914 12.9971 5.35833 13.1518L8.39166 14.9018C8.61736 15.0296 8.79402 15.229 8.89374 15.4684C8.99346 15.7079 9.01054 15.9737 8.9423 16.2239C8.87405 16.4742 8.72437 16.6945 8.5169 16.8502C8.30942 17.0058 8.056 17.0879 7.79666 17.0834Z" fill="#2A3E4E"/>
<path id="Vector_10" d="M4.83335 28.1654H1.33335C1.02393 28.1654 0.727188 28.0424 0.508396 27.8237C0.289603 27.6049 0.166687 27.3081 0.166687 26.9987C0.166687 26.6893 0.289603 26.3925 0.508396 26.1737C0.727188 25.9549 1.02393 25.832 1.33335 25.832H4.83335C5.14277 25.832 5.43952 25.9549 5.65831 26.1737C5.8771 26.3925 6.00002 26.6893 6.00002 26.9987C6.00002 27.3081 5.8771 27.6049 5.65831 27.8237C5.43952 28.0424 5.14277 28.1654 4.83335 28.1654Z" fill="#2A3E4E"/>
<path id="Vector_11" d="M38.0834 8.9742C37.8782 8.97502 37.6764 8.92171 37.4984 8.81964C37.3204 8.71758 37.1725 8.57038 37.0695 8.39288C36.9666 8.21539 36.9123 8.01389 36.912 7.8087C36.9118 7.60351 36.9658 7.4019 37.0684 7.2242L38.8184 4.19087C38.9731 3.92168 39.2284 3.72496 39.5281 3.64401C39.8279 3.56306 40.1475 3.60449 40.4167 3.7592C40.6859 3.91391 40.8826 4.16922 40.9635 4.46897C41.0445 4.76871 41.0031 5.08834 40.8484 5.35754L39.0984 8.39087C38.9956 8.56891 38.8476 8.71662 38.6693 8.81906C38.4911 8.9215 38.2889 8.97502 38.0834 8.9742Z" fill="#2A3E4E"/>
<path id="Vector_12" d="M46.2033 17.0834C45.9489 17.0753 45.7042 16.9841 45.5064 16.8239C45.3087 16.6637 45.1687 16.4432 45.1079 16.1961C45.0471 15.9489 45.0688 15.6887 45.1697 15.455C45.2706 15.2213 45.4451 15.027 45.6667 14.9018L48.7 13.1518C48.8333 13.0752 48.9804 13.0256 49.1328 13.0058C49.2853 12.986 49.4401 12.9965 49.5886 13.0366C49.737 13.0767 49.8761 13.1456 49.9978 13.2394C50.1196 13.3333 50.2217 13.4502 50.2983 13.5834C50.3749 13.7167 50.4245 13.8638 50.4443 14.0163C50.4641 14.1687 50.4536 14.3236 50.4135 14.472C50.3734 14.6204 50.3045 14.7595 50.2107 14.8813C50.1169 15.0031 50 15.1052 49.8667 15.1818C46.4833 17.0951 46.6117 17.0834 46.2033 17.0834Z" fill="#2A3E4E"/>
<path id="Vector_13" d="M52.6667 28.1654H49.1667C48.8572 28.1654 48.5605 28.0424 48.3417 27.8237C48.1229 27.6049 48 27.3081 48 26.9987C48 26.6893 48.1229 26.3925 48.3417 26.1737C48.5605 25.9549 48.8572 25.832 49.1667 25.832H52.6667C52.9761 25.832 53.2728 25.9549 53.4916 26.1737C53.7104 26.3925 53.8333 26.6893 53.8333 26.9987C53.8333 27.3081 53.7104 27.6049 53.4916 27.8237C53.2728 28.0424 52.9761 28.1654 52.6667 28.1654Z" fill="#2A3E4E"/>
</g>
</svg>
