<svg width="10" height="11" viewBox="0 0 10 11" fill="none" xmlns="http://www.w3.org/2000/svg">
<g id="StarFilled" opacity="0.7" clip-path="url(#clip0_1048_4709)">
<path id="Vector" d="M9.42076 3.48522L6.58706 3.07339L5.32032 0.505305C5.28572 0.434993 5.2288 0.378073 5.15849 0.343475C4.98215 0.256422 4.76786 0.328966 4.67969 0.505305L3.41295 3.07339L0.579245 3.48522C0.50112 3.49638 0.429691 3.53321 0.375003 3.58901C0.308889 3.65696 0.272457 3.74839 0.273713 3.84319C0.274969 3.93799 0.313809 4.02841 0.3817 4.09459L2.43192 6.09347L1.94755 8.91602C1.93619 8.98168 1.94346 9.04921 1.96852 9.11094C1.99359 9.17268 2.03545 9.22616 2.08937 9.26532C2.14328 9.30448 2.20709 9.32775 2.27355 9.33249C2.34002 9.33723 2.40648 9.32325 2.46541 9.29214L5 7.95955L7.5346 9.29214C7.6038 9.32897 7.68416 9.34124 7.76116 9.32785C7.95536 9.29437 8.08594 9.11022 8.05246 8.91602L7.56808 6.09347L9.61831 4.09459C9.67411 4.0399 9.71094 3.96847 9.7221 3.89035C9.75224 3.69504 9.61608 3.51423 9.42076 3.48522Z" fill="white"/>
</g>
<defs>
<clipPath id="clip0_1048_4709">
<rect width="10" height="10" fill="white" transform="translate(0 0.257812)"/>
</clipPath>
</defs>
</svg>
