<svg width="54" height="54" viewBox="0 0 54 54" fill="none" xmlns="http://www.w3.org/2000/svg">
<g id="Website">
<path id="Vector" d="M50.3334 1.33203H3.66671C2.37804 1.33203 1.33337 2.3767 1.33337 3.66536V43.332C1.33337 44.6207 2.37804 45.6654 3.66671 45.6654H50.3334C51.622 45.6654 52.6667 44.6207 52.6667 43.332V3.66536C52.6667 2.3767 51.622 1.33203 50.3334 1.33203Z" fill="#16242F"/>
<path id="Vector_2" d="M52.6667 8.33203H1.33337V3.66536C1.33337 3.04653 1.57921 2.45303 2.01679 2.01545C2.45438 1.57786 3.04787 1.33203 3.66671 1.33203H17.6667L18.8334 4.83203H52.6667V8.33203Z" fill="#BEC6C6"/>
<path id="Vector_3" d="M50.3334 0.166016H3.66669C2.73843 0.166016 1.84819 0.534765 1.19181 1.19114C0.535436 1.84752 0.166687 2.73776 0.166687 3.66602V43.3327C0.166687 44.2609 0.535436 45.1512 1.19181 45.8076C1.84819 46.4639 2.73843 46.8327 3.66669 46.8327H50.3334C51.2616 46.8327 52.1518 46.4639 52.8082 45.8076C53.4646 45.1512 53.8334 44.2609 53.8334 43.3327V3.66602C53.8334 2.73776 53.4646 1.84752 52.8082 1.19114C52.1518 0.534765 51.2616 0.166016 50.3334 0.166016ZM3.66669 2.49935H50.3334C50.6428 2.49935 50.9395 2.62227 51.1583 2.84106C51.3771 3.05985 51.5 3.3566 51.5 3.66602V7.16602H2.50002V3.66602C2.50002 3.3566 2.62294 3.05985 2.84173 2.84106C3.06052 2.62227 3.35727 2.49935 3.66669 2.49935ZM50.3334 44.4993H3.66669C3.35727 44.4993 3.06052 44.3764 2.84173 44.1576C2.62294 43.9388 2.50002 43.6421 2.50002 43.3327V9.49935H51.5V43.3327C51.5 43.6421 51.3771 43.9388 51.1583 44.1576C50.9395 44.3764 50.6428 44.4993 50.3334 44.4993Z" fill="#2A3E4E"/>
<path id="Vector_4" d="M22.8117 26.5201L18.145 21.8534C18.8563 20.3633 19.018 18.6698 18.6014 17.072C18.1849 15.4743 17.217 14.0752 15.8687 13.122C14.5205 12.1689 12.8787 11.723 11.2335 11.8632C9.5883 12.0034 8.04562 12.7206 6.87808 13.8882C5.71054 15.0557 4.9933 16.5984 4.85311 18.2436C4.71291 19.8887 5.1588 21.5305 6.11196 22.8788C7.06512 24.227 8.46419 25.195 10.0619 25.6115C11.6597 26.028 13.3533 25.8664 14.8433 25.1551L19.51 29.8217C19.7192 30.066 19.9766 30.2644 20.2661 30.4044C20.5556 30.5445 20.8709 30.6232 21.1922 30.6356C21.5136 30.648 21.834 30.5939 22.1334 30.4766C22.4328 30.3593 22.7048 30.1813 22.9322 29.9539C23.1596 29.7265 23.3375 29.4546 23.4548 29.1552C23.5721 28.8557 23.6263 28.5353 23.6139 28.214C23.6015 27.8926 23.5228 27.5773 23.3827 27.2878C23.2426 26.9983 23.0443 26.7409 22.8 26.5317L22.8117 26.5201ZM7.16667 18.8317C7.16667 17.9088 7.44037 17.0065 7.95315 16.2391C8.46593 15.4717 9.19476 14.8735 10.0475 14.5203C10.9002 14.1671 11.8385 14.0747 12.7438 14.2547C13.649 14.4348 14.4805 14.8793 15.1332 15.5319C15.7858 16.1846 16.2303 17.0161 16.4103 17.9213C16.5904 18.8266 16.498 19.7649 16.1448 20.6176C15.7916 21.4703 15.1934 22.1992 14.426 22.7119C13.6586 23.2247 12.7563 23.4984 11.8333 23.4984C10.5957 23.4984 9.40868 23.0067 8.53351 22.1316C7.65834 21.2564 7.16667 20.0694 7.16667 18.8317Z" fill="#E5BE20"/>
<path id="Vector_5" d="M37.5 53.832C34.4426 52.8115 31.7835 50.8552 29.8992 48.2401C28.0148 45.6251 27.0006 42.4836 27 39.2604V29.332C28.7956 29.6909 30.6521 29.6007 32.4044 29.0695C34.1568 28.5383 35.7509 27.5825 37.045 26.287L37.5 25.832L37.955 26.287C39.2479 27.5842 40.8419 28.5412 42.5946 29.0725C44.3474 29.6038 46.2044 29.693 48 29.332V39.2604C47.9994 42.4836 46.9852 45.6251 45.1008 48.2401C43.2165 50.8552 40.5574 52.8115 37.5 53.832Z" fill="#E5BE20"/>
<path id="Vector_6" d="M36.3334 14.1654H27C26.6906 14.1654 26.3939 14.0424 26.1751 13.8237C25.9563 13.6049 25.8334 13.3081 25.8334 12.9987C25.8334 12.6893 25.9563 12.3925 26.1751 12.1737C26.3939 11.9549 26.6906 11.832 27 11.832H36.3334C36.6428 11.832 36.9395 11.9549 37.1583 12.1737C37.3771 12.3925 37.5 12.6893 37.5 12.9987C37.5 13.3081 37.3771 13.6049 37.1583 13.8237C36.9395 14.0424 36.6428 14.1654 36.3334 14.1654Z" fill="#2A3E4E"/>
<path id="Vector_7" d="M48 18.8333H27C26.6906 18.8333 26.3939 18.7104 26.1751 18.4916C25.9563 18.2728 25.8334 17.9761 25.8334 17.6667C25.8334 17.3572 25.9563 17.0605 26.1751 16.8417C26.3939 16.6229 26.6906 16.5 27 16.5H48C48.3095 16.5 48.6062 16.6229 48.825 16.8417C49.0438 17.0605 49.1667 17.3572 49.1667 17.6667C49.1667 17.9761 49.0438 18.2728 48.825 18.4916C48.6062 18.7104 48.3095 18.8333 48 18.8333Z" fill="#2A3E4E"/>
<path id="Vector_8" d="M48 23.4993H27C26.6906 23.4993 26.3939 23.3764 26.1751 23.1576C25.9563 22.9388 25.8334 22.6421 25.8334 22.3327C25.8334 22.0233 25.9563 21.7265 26.1751 21.5077C26.3939 21.2889 26.6906 21.166 27 21.166H48C48.3095 21.166 48.6062 21.2889 48.825 21.5077C49.0438 21.7265 49.1667 22.0233 49.1667 22.3327C49.1667 22.6421 49.0438 22.9388 48.825 23.1576C48.6062 23.3764 48.3095 23.4993 48 23.4993Z" fill="#2A3E4E"/>
<path id="Vector_9" d="M22.3334 36.3333H6.00004C5.69062 36.3333 5.39388 36.2104 5.17508 35.9916C4.95629 35.7728 4.83337 35.4761 4.83337 35.1667C4.83337 34.8572 4.95629 34.5605 5.17508 34.3417C5.39388 34.1229 5.69062 34 6.00004 34H22.3334C22.6428 34 22.9395 34.1229 23.1583 34.3417C23.3771 34.5605 23.5 34.8572 23.5 35.1667C23.5 35.4761 23.3771 35.7728 23.1583 35.9916C22.9395 36.2104 22.6428 36.3333 22.3334 36.3333Z" fill="#2A3E4E"/>
<path id="Vector_10" d="M9.50004 40.9993H6.00004C5.69062 40.9993 5.39388 40.8764 5.17508 40.6576C4.95629 40.4388 4.83337 40.1421 4.83337 39.8327C4.83337 39.5233 4.95629 39.2265 5.17508 39.0077C5.39388 38.7889 5.69062 38.666 6.00004 38.666H9.50004C9.80946 38.666 10.1062 38.7889 10.325 39.0077C10.5438 39.2265 10.6667 39.5233 10.6667 39.8327C10.6667 40.1421 10.5438 40.4388 10.325 40.6576C10.1062 40.8764 9.80946 40.9993 9.50004 40.9993Z" fill="#2A3E4E"/>
<path id="Vector_11" d="M22.3333 40.9993H14.1667C13.8572 40.9993 13.5605 40.8764 13.3417 40.6576C13.1229 40.4388 13 40.1421 13 39.8327C13 39.5233 13.1229 39.2265 13.3417 39.0077C13.5605 38.7889 13.8572 38.666 14.1667 38.666H22.3333C22.6428 38.666 22.9395 38.7889 23.1583 39.0077C23.3771 39.2265 23.5 39.5233 23.5 39.8327C23.5 40.1421 23.3771 40.4388 23.1583 40.6576C22.9395 40.8764 22.6428 40.9993 22.3333 40.9993Z" fill="#2A3E4E"/>
</g>
</svg>
