<svg width="172" height="198" viewBox="0 0 172 198" fill="none" xmlns="http://www.w3.org/2000/svg">
<g id="Group">
<g id="Something Wrong">
<path id="Vector" d="M48.7422 147.156V174.109C48.7416 175.132 48.9424 176.144 49.3332 177.088C49.7239 178.033 50.2969 178.891 51.0194 179.614C51.742 180.337 52.5999 180.91 53.5442 181.302C54.4884 181.693 55.5005 181.894 56.5227 181.894H97.8508C99.9155 181.894 101.896 181.074 103.356 179.614C104.816 178.154 105.636 176.174 105.636 174.109V147.156H48.7422Z" fill="#F5F5F5"/>
<path id="Vector_2" style="mix-blend-mode:multiply" d="M93.3586 155.569V160.196C93.3586 160.922 93.0705 161.619 92.5576 162.132C92.0447 162.646 91.3488 162.935 90.6229 162.937C90.2103 162.936 89.803 163.029 89.4312 163.208C89.0595 163.387 88.7328 163.647 88.4756 163.97L87.0111 165.816C86.7559 166.139 86.4311 166.4 86.0608 166.58C85.6905 166.759 85.2844 166.853 84.8728 166.854H69.5186C69.1063 166.853 68.6994 166.76 68.3284 166.58C67.9573 166.4 67.6317 166.139 67.3758 165.816L65.9113 163.979C65.6541 163.656 65.3274 163.396 64.9557 163.217C64.5839 163.038 64.1766 162.945 63.7641 162.945C63.0381 162.944 62.3422 162.655 61.8293 162.141C61.3164 161.628 61.0283 160.931 61.0283 160.205V155.578C61.0283 156.276 61.305 156.945 61.7977 157.438C62.2905 157.932 62.9589 158.21 63.6562 158.211H66.4639C66.4573 158.83 66.5737 159.445 66.8062 160.019C67.0388 160.593 67.3829 161.115 67.8186 161.556C68.2543 161.996 68.773 162.346 69.3447 162.584C69.9164 162.823 70.5297 162.946 71.1492 162.945H83.1748C83.7945 162.946 84.408 162.823 84.98 162.584C85.5519 162.346 86.0709 161.996 86.507 161.556C86.9431 161.116 87.2876 160.593 87.5206 160.019C87.7537 159.445 87.8706 158.83 87.8646 158.211H90.7307C91.0767 158.21 91.4193 158.141 91.7387 158.008C92.0582 157.875 92.3483 157.68 92.5923 157.435C92.8364 157.19 93.0297 156.899 93.1612 156.578C93.2927 156.258 93.3598 155.915 93.3586 155.569Z" fill="url(#paint0_linear_2950_675)"/>
<path id="Vector_3" d="M99.2971 31.6393V28.0725C99.2971 26.8757 98.8217 25.728 97.9754 24.8817C97.1292 24.0355 95.9814 23.5601 94.7847 23.5601C93.5879 23.5601 92.4402 24.0355 91.5939 24.8817C90.7477 25.728 90.2723 26.8757 90.2723 28.0725V33.4945C90.2723 33.9822 90.1761 34.4651 89.9894 34.9155C89.8026 35.366 89.5289 35.7753 89.1839 36.1199C88.8389 36.4645 88.4293 36.7377 87.9786 36.9239C87.5279 37.1101 87.0449 37.2057 86.5572 37.2051H86.135C85.6473 37.2057 85.1643 37.1101 84.7136 36.9239C84.2629 36.7377 83.8533 36.4645 83.5083 36.1199C83.1633 35.7753 82.8896 35.366 82.7028 34.9155C82.5161 34.4651 82.4199 33.9822 82.4199 33.4945V16.1861C82.4205 15.6371 82.3129 15.0934 82.1032 14.586C81.8935 14.0786 81.5859 13.6175 81.1979 13.2291C80.8099 12.8407 80.3491 12.5326 79.842 12.3223C79.3348 12.1121 78.7912 12.0039 78.2422 12.0039H77.793C76.6838 12.0039 75.62 12.4445 74.8357 13.2289C74.0514 14.0132 73.6107 15.0769 73.6107 16.1861V41.9219C73.6281 42.4203 73.5449 42.9171 73.3661 43.3827C73.1873 43.8483 72.9166 44.2732 72.5702 44.6319C72.2237 44.9906 71.8085 45.2759 71.3494 45.4708C70.8903 45.6657 70.3967 45.7661 69.898 45.7661C69.3992 45.7661 68.9056 45.6657 68.4465 45.4708C67.9874 45.2759 67.5722 44.9906 67.2257 44.6319C66.8793 44.2732 66.6086 43.8483 66.4298 43.3827C66.251 42.9171 66.1678 42.4203 66.1852 41.9219V29.1416C66.2035 28.5812 66.109 28.0227 65.9072 27.4995C65.7054 26.9763 65.4005 26.4991 65.0105 26.0961C64.6206 25.6932 64.1535 25.3728 63.6373 25.1539C63.121 24.9351 62.5659 24.8223 62.0052 24.8223C61.4444 24.8223 60.8894 24.9351 60.3731 25.1539C59.8568 25.3728 59.3898 25.6932 58.9998 26.0961C58.6099 26.4991 58.3049 26.9763 58.1031 27.4995C57.9013 28.0227 57.8068 28.5812 57.8252 29.1416C57.8296 31.211 57.2181 33.2349 56.0685 34.9556C54.919 36.6764 53.2834 38.0161 51.3699 38.8043C27.9027 48.3996 12.6877 71.3861 12.5215 98.2674C12.5769 93.9783 14.3338 89.887 17.4058 86.8933C18.9269 85.411 20.7251 84.2428 22.6976 83.4555C24.6702 82.6681 26.7785 82.277 28.9022 82.3044C31.026 82.3318 33.1235 82.7773 35.0751 83.6153C37.0266 84.4534 38.794 85.6676 40.2763 87.1887C41.7586 88.7098 42.9268 90.508 43.7142 92.4806C44.5015 94.4531 44.8927 96.5614 44.8652 98.6852C44.8652 94.3961 46.5691 90.2827 49.6019 87.2499C52.6347 84.2171 56.7481 82.5133 61.0371 82.5133C65.3262 82.5133 69.4395 84.2171 72.4724 87.2499C75.5052 90.2827 77.209 94.3961 77.209 98.6852C77.209 94.3961 78.9128 90.2827 81.9456 87.2499C84.9784 84.2171 89.0918 82.5133 93.3809 82.5133C97.6699 82.5133 101.783 84.2171 104.816 87.2499C107.849 90.2827 109.553 94.3961 109.553 98.6852C109.645 94.495 111.361 90.5043 114.338 87.5542C117.315 84.6042 121.321 82.9251 125.512 82.8709C129.703 82.8168 133.751 84.3917 136.803 87.2639C139.855 90.136 141.673 94.081 141.874 98.2674C141.703 73.2414 125.981 51.5846 105.047 40.974C103.319 40.1018 101.867 38.7676 100.852 37.1197C99.837 35.4718 99.2987 33.5747 99.2971 31.6393Z" fill="#F5F5F5"/>
<path id="Vector_4" style="mix-blend-mode:multiply" d="M138.788 79.674C119.337 77.9625 104.809 60.8473 106.148 41.5488C121.156 49.509 133.353 63.1877 138.788 79.674Z" fill="url(#paint1_linear_2950_675)"/>
<path id="Vector_5" d="M44.8789 97.6335V98.6577C44.9063 96.534 44.5152 94.4257 43.7278 92.4531C42.9405 90.4806 41.7723 88.6824 40.29 87.1613C38.8077 85.6402 37.0403 84.426 35.0887 83.5879C33.1372 82.7499 31.0396 82.3044 28.9159 82.277C26.7922 82.2496 24.6839 82.6407 22.7113 83.4281C20.7387 84.2154 18.9406 85.3836 17.4195 86.8659C14.3475 89.8596 12.5906 93.9509 12.5352 98.24C12.7059 71.3587 27.9164 48.3767 51.3836 38.7769C53.2967 37.9882 54.932 36.6484 56.0814 34.9277C57.2309 33.2071 57.8427 31.1835 57.8389 29.1142C57.8205 28.5537 57.915 27.9953 58.1168 27.4721C58.3186 26.9489 58.6235 26.4717 59.0135 26.0687C59.4035 25.6658 59.8705 25.3453 60.3868 25.1265C60.9031 24.9077 61.4581 24.7949 62.0189 24.7949C62.5796 24.7949 63.1346 24.9077 63.6509 25.1265C64.1672 25.3453 64.6342 25.6658 65.0242 26.0687C65.4142 26.4717 65.7191 26.9489 65.9209 27.4721C66.1227 27.9953 66.2172 28.5537 66.1988 29.1142V39.0419C41.1055 68.6904 44.8789 97.6335 44.8789 97.6335Z" fill="#909FA9"/>
<path id="Vector_6" d="M109.526 97.6614H109.495C109.188 93.5022 107.285 89.6225 104.185 86.8325C101.085 84.0426 97.0274 82.5581 92.8589 82.6891C88.6904 82.8202 84.7337 84.5565 81.8151 87.5357C78.8964 90.5148 77.2416 94.5063 77.1961 98.6767C77.1961 98.196 77.1602 106.179 77.1602 12.0493C77.5185 11.9965 77.881 11.9785 78.2428 11.9954C78.7918 11.9954 79.3354 12.1036 79.8426 12.3138C80.3497 12.5241 80.8105 12.8322 81.1985 13.2206C81.5865 13.609 81.8941 14.0701 82.1038 14.5775C82.3135 15.0849 82.4211 15.6286 82.4205 16.1776V33.486C82.4205 33.9737 82.5166 34.4566 82.7034 34.907C82.8901 35.3575 83.1639 35.7668 83.5089 36.1114C83.8539 36.456 84.2635 36.7292 84.7142 36.9154C85.1649 37.1016 85.6479 37.1972 86.1355 37.1966H86.5578C87.4451 37.1968 88.3029 36.8779 88.9746 36.2981C113.601 68.3364 109.526 97.6614 109.526 97.6614Z" fill="#909FA9"/>
<path id="Vector_7" d="M97.8641 183.255H56.5359C54.1145 183.252 51.793 182.289 50.0808 180.577C48.3686 178.865 47.4057 176.543 47.4033 174.122V145.821H106.997V174.122C106.994 176.543 106.031 178.865 104.319 180.577C102.607 182.289 100.285 183.252 97.8641 183.255ZM50.0852 148.503V174.109C50.0875 175.815 50.7665 177.451 51.9732 178.658C53.1799 179.865 54.8159 180.544 56.5225 180.546H97.8506C99.5571 180.544 101.193 179.865 102.4 178.658C103.607 177.451 104.286 175.815 104.288 174.109V148.503H50.0852Z" fill="#4A5964"/>
<path id="Vector_8" d="M106.328 148.503H48.0594L11.1875 98.7117V97.8582H13.0877L13.6178 97.4629L49.4205 145.808H104.966C142.292 95.4055 140.504 97.9121 140.504 97.6605H140.625L140.769 97.4629L141.034 97.6605H143.199V98.7117L106.328 148.503Z" fill="#4A5964"/>
<path id="Vector_9" d="M78.5432 148.504H66.6523L43.5176 98.9818V97.6611H46.2129V98.3844L68.3684 145.808H75.8479V98.6854H78.5432V148.504Z" fill="#4A5964"/>
<path id="Vector_10" d="M87.734 148.504H75.8477V98.6854H78.543V145.808H86.018L108.178 98.3844V97.6611H110.873V98.9818L87.734 148.504Z" fill="#4A5964"/>
<path id="Vector_11" d="M90.7307 159.528H63.6607C62.6059 159.528 61.5943 159.109 60.848 158.364C60.1017 157.618 59.6819 156.607 59.6807 155.552V147.156H62.376V155.57C62.3772 155.91 62.513 156.236 62.7539 156.476C62.9947 156.716 63.3208 156.85 63.6607 156.85H90.7307C91.0698 156.849 91.3948 156.714 91.6346 156.474C91.8745 156.234 92.0098 155.909 92.0109 155.57V147.156H94.7063V155.57C94.7003 156.621 94.279 157.627 93.5342 158.368C92.7894 159.11 91.7816 159.527 90.7307 159.528Z" fill="#4A5964"/>
<path id="Vector_12" d="M110.878 98.6852H108.183C108.183 94.7536 106.621 90.983 103.841 88.2029C101.061 85.4229 97.29 83.861 93.3584 83.861C89.4268 83.861 85.6562 85.4229 82.8761 88.2029C80.096 90.983 78.5342 94.7536 78.5342 98.6852H75.8389C75.8389 94.7536 74.277 90.983 71.497 88.2029C68.7169 85.4229 64.9463 83.861 61.0146 83.861C57.083 83.861 53.3124 85.4229 50.5323 88.2029C47.7523 90.983 46.1904 94.7536 46.1904 98.6852H43.4951C43.5458 94.7536 42.0325 90.9629 39.2882 88.147C37.9294 86.7527 36.3092 85.6397 34.5203 84.8716C32.7313 84.1034 30.8086 83.6952 28.8618 83.6701C24.9302 83.6195 21.1395 85.1328 18.3236 87.877C15.5077 90.6213 13.8973 94.3718 13.8467 98.3034L11.1514 98.2585C11.3221 70.8292 26.874 47.3575 50.8354 37.5556C52.5045 36.8736 53.9315 35.708 54.9329 34.2087C55.9343 32.7093 56.4644 30.9447 56.4551 29.1417C56.434 28.4025 56.5614 27.6667 56.8297 26.9776C57.098 26.2885 57.5018 25.6603 58.0172 25.13C58.5325 24.5997 59.149 24.1782 59.8302 23.8904C60.5113 23.6025 61.2433 23.4542 61.9827 23.4542C62.7222 23.4542 63.4541 23.6025 64.1353 23.8904C64.8164 24.1782 65.4329 24.5997 65.9483 25.13C66.4636 25.6603 66.8674 26.2885 67.1357 26.9776C67.404 27.6667 67.5314 28.4025 67.5103 29.1417V41.922C67.4964 42.2412 67.5473 42.56 67.6599 42.8591C67.7725 43.1582 67.9444 43.4314 68.1654 43.6622C68.3864 43.893 68.6519 44.0767 68.9458 44.2022C69.2397 44.3278 69.5559 44.3924 69.8755 44.3924C70.1951 44.3924 70.5113 44.3278 70.8052 44.2022C71.0991 44.0767 71.3645 43.893 71.5855 43.6622C71.8065 43.4314 71.9785 43.1582 72.0911 42.8591C72.2037 42.56 72.2545 42.2412 72.2406 41.922V16.1862C72.2412 15.4572 72.3858 14.7354 72.6662 14.0624C72.9465 13.3894 73.3571 12.7784 73.8743 12.2646C74.3915 11.7507 75.0051 11.3441 75.6799 11.0681C76.3547 10.7921 77.0774 10.6522 77.8064 10.6563H78.2557C79.7165 10.6658 81.1143 11.2525 82.1443 12.2884C83.1743 13.3243 83.7529 14.7254 83.7541 16.1862V33.4946C83.7553 34.1217 84.0052 34.7227 84.4491 35.1657C84.8929 35.6087 85.4944 35.8575 86.1215 35.8575H86.5437C87.1708 35.8575 87.7723 35.6087 88.2161 35.1657C88.66 34.7227 88.9099 34.1217 88.9111 33.4946V28.0726C88.9111 26.5184 89.5285 25.0278 90.6275 23.9289C91.7265 22.8299 93.217 22.2125 94.7712 22.2125C96.3254 22.2125 97.8159 22.8299 98.9149 23.9289C100.014 25.0278 100.631 26.5184 100.631 28.0726V31.6393C100.629 33.3271 101.098 34.9819 101.983 36.4187C102.868 37.8556 104.136 39.0176 105.645 39.7747C127.656 50.9333 143.029 73.3628 143.186 98.2585L140.49 98.3034C140.3 94.4708 138.631 90.8613 135.834 88.234C133.037 85.6066 129.33 84.1663 125.493 84.2157C121.656 84.2652 117.988 85.8006 115.26 88.4991C112.531 91.1976 110.956 94.849 110.864 98.6852H110.878ZM44.8652 91.947C46.1955 88.7542 48.4411 86.0267 51.319 84.1081C54.1969 82.1895 57.5783 81.1657 61.0371 81.1657C64.4959 81.1657 67.8773 82.1895 70.7552 84.1081C73.6331 86.0267 75.8787 88.7542 77.209 91.947C78.5393 88.7542 80.7849 86.0267 83.6628 84.1081C86.5407 82.1895 89.9221 81.1657 93.3809 81.1657C96.8396 81.1657 100.221 82.1895 103.099 84.1081C105.977 86.0267 108.222 88.7542 109.553 91.947C114.75 79.5216 131.349 77.4462 139.502 87.8231C135.877 68.7628 122.881 51.5308 104.463 42.178C102.511 41.1961 100.87 39.6904 99.7242 37.8292C98.5786 35.968 97.9734 33.8248 97.9764 31.6393V28.0726C97.9764 27.2332 97.6429 26.4282 97.0494 25.8347C96.4559 25.2412 95.651 24.9078 94.8116 24.9078C93.9723 24.9078 93.1673 25.2412 92.5738 25.8347C91.9803 26.4282 91.6469 27.2332 91.6469 28.0726V33.4946C91.6457 34.8366 91.1118 36.1231 90.1625 37.0716C89.2131 38.0201 87.9261 38.5528 86.5842 38.5528H86.1619C85.4942 38.5576 84.8322 38.4303 84.2138 38.1783C83.5955 37.9264 83.033 37.5547 82.5588 37.0846C82.0846 36.6146 81.7079 36.0554 81.4505 35.4393C81.1931 34.8232 81.06 34.1623 81.0588 33.4946V16.1862C81.0588 15.4352 80.7608 14.7149 80.2301 14.1835C79.6995 13.652 78.9797 13.3528 78.2287 13.3517H77.7795C77.0281 13.3528 76.3078 13.6519 75.7765 14.1832C75.2451 14.7145 74.9461 15.4348 74.9449 16.1862V41.922C74.9651 42.5992 74.8491 43.2736 74.6039 43.9052C74.3587 44.5368 73.9892 45.1127 73.5173 45.5989C73.0454 46.0851 72.4807 46.4716 71.8567 46.7355C71.2326 46.9995 70.562 47.1354 69.8845 47.1354C69.2069 47.1354 68.5363 46.9995 67.9123 46.7355C67.2883 46.4716 66.7236 46.0851 66.2517 45.5989C65.7798 45.1127 65.4103 44.5368 65.165 43.9052C64.9198 43.2736 64.8038 42.5992 64.824 41.922V29.1417C64.8392 28.7603 64.7772 28.3797 64.6417 28.0228C64.5062 27.6659 64.3 27.3401 64.0355 27.0648C63.771 26.7896 63.4537 26.5706 63.1025 26.421C62.7512 26.2714 62.3734 26.1943 61.9917 26.1943C61.61 26.1943 61.2322 26.2714 60.8809 26.421C60.5297 26.5706 60.2124 26.7896 59.9479 27.0648C59.6834 27.3401 59.4772 27.6659 59.3417 28.0228C59.2062 28.3797 59.1442 28.7603 59.1594 29.1417C59.1685 31.4744 58.4818 33.7569 57.1871 35.6973C55.8924 37.6378 54.0485 39.1481 51.891 40.0352C31.766 48.2649 18.0738 66.4269 14.7002 88.0747C22.7412 77.4282 39.6139 79.3958 44.8652 91.947Z" fill="#4A5964"/>
<path id="Vector_13" d="M64.3926 0.0546875H61.6973V13.8682H64.3926V0.0546875Z" fill="#4A5964"/>
<path id="Vector_14" d="M107.604 4.46582H104.908V25.1883H107.604V4.46582Z" fill="#4A5964"/>
<path id="Vector_15" d="M91.7324 9.90137H89.0371V16.3926H91.7324V9.90137Z" fill="#4A5964"/>
<path id="Vector_16" d="M51.0195 13.8682H48.3242V30.1838H51.0195V13.8682Z" fill="#4A5964"/>
<path id="Vector_17" d="M83.1748 162.937H71.1492C69.9311 162.899 68.7755 162.389 67.9272 161.514C67.0789 160.639 66.6045 159.468 66.6045 158.249C66.6045 157.03 67.0789 155.86 67.9272 154.985C68.7755 154.11 69.9311 153.599 71.1492 153.562H83.1748C84.3929 153.599 85.5485 154.11 86.3968 154.985C87.2451 155.86 87.7195 157.03 87.7195 158.249C87.7195 159.468 87.2451 160.639 86.3968 161.514C85.5485 162.389 84.3929 162.899 83.1748 162.937Z" fill="#4A5964"/>
<path id="Vector_18" d="M4.28306 60.3717C3.48519 60.3708 2.70363 60.1457 2.02743 59.7222C1.35124 59.2987 0.807622 58.6938 0.458535 57.9763C0.109448 57.2589 -0.0310657 56.4578 0.0530071 55.6644C0.13708 54.8709 0.442357 54.1171 0.934048 53.4887C1.42574 52.8604 2.08407 52.3828 2.834 52.1104C3.58393 51.838 4.3953 51.7817 5.17564 51.9481C5.95599 52.1144 6.67391 52.4966 7.24759 53.0511C7.82127 53.6056 8.22764 54.3101 8.42037 55.0844C8.57671 55.7124 8.58785 56.3678 8.45293 57.0008C8.31801 57.6338 8.04059 58.2277 7.64174 58.7375C7.24289 59.2472 6.73311 59.6593 6.15113 59.9424C5.56915 60.2256 4.93028 60.3724 4.28306 60.3717ZM4.28306 54.5318C4.01119 54.534 3.7446 54.6072 3.50977 54.7442C3.27494 54.8812 3.08003 55.0773 2.9444 55.3129C2.80876 55.5486 2.73712 55.8156 2.73659 56.0875C2.73605 56.3594 2.80663 56.6267 2.94133 56.8628C3.07603 57.099 3.27016 57.2958 3.50444 57.4338C3.73873 57.5718 4.00503 57.646 4.27689 57.6492C4.54876 57.6525 4.81674 57.5845 5.05423 57.4522C5.29172 57.3198 5.49046 57.1276 5.63072 56.8947C5.7662 56.6583 5.83753 56.3906 5.83764 56.1181C5.83774 55.8456 5.76663 55.5778 5.63134 55.3413C5.49605 55.1048 5.30129 54.9077 5.06637 54.7697C4.83145 54.6316 4.56452 54.5574 4.29205 54.5543L4.28306 54.5318Z" fill="#4A5964"/>
<path id="Vector_19" d="M20.7921 42.1377C19.698 42.1364 18.6262 41.8278 17.699 41.2471C16.7717 40.6663 16.0263 39.8367 15.5476 38.8528C15.0689 37.869 14.8762 36.7704 14.9915 35.6824C15.1068 34.5944 15.5255 33.5606 16.1997 32.6989C16.874 31.8373 17.7768 31.1824 18.8052 30.8088C19.8336 30.4353 20.9462 30.3582 22.0163 30.5863C23.0864 30.8144 24.0709 31.3386 24.8576 32.099C25.6443 32.8594 26.2015 33.8256 26.4658 34.8873C26.6801 35.7485 26.6954 36.6473 26.5104 37.5153C26.3253 38.3834 25.9449 39.1978 25.3979 39.8968C24.851 40.5957 24.1519 41.1608 23.3538 41.5491C22.5557 41.9374 21.6797 42.1387 20.7921 42.1377ZM20.7921 33.1533C20.3436 33.1477 19.899 33.2381 19.4883 33.4185C19.0775 33.5989 18.7102 33.8651 18.4108 34.1992C18.1115 34.5333 17.8871 34.9276 17.7527 35.3556C17.6183 35.7836 17.577 36.2354 17.6317 36.6807C17.6863 37.1259 17.8356 37.5543 18.0695 37.9371C18.3034 38.3199 18.6165 38.6482 18.9878 38.9C19.359 39.1518 19.7799 39.3213 20.222 39.397C20.6642 39.4727 21.1174 39.453 21.5513 39.3391C22.2872 39.1458 22.9282 38.6924 23.3552 38.0627C23.7823 37.4329 23.9666 36.6698 23.8739 35.9145C23.7812 35.1593 23.4179 34.4634 22.8512 33.9556C22.2845 33.4479 21.5529 33.1628 20.7921 33.1533Z" fill="#4A5964"/>
<path id="Vector_20" d="M112.614 184.112L110.708 186.018L116.47 191.78L118.376 189.874L112.614 184.112Z" fill="#4A5964"/>
<path id="Vector_21" d="M124.077 177.007H115.928V179.702H124.077V177.007Z" fill="#4A5964"/>
<path id="Vector_22" d="M106.781 189.562H104.086V197.711H106.781V189.562Z" fill="#4A5964"/>
<path id="Vector_23" d="M141.968 72.577C157.794 72.577 170.624 59.7474 170.624 43.9213C170.624 28.0952 157.794 15.2656 141.968 15.2656C126.142 15.2656 113.312 28.0952 113.312 43.9213C113.312 59.7474 126.142 72.577 141.968 72.577Z" fill="#15232F"/>
<path id="Vector_24" d="M141.969 73.9197C136.034 73.9206 130.233 72.1616 125.298 68.8651C120.363 65.5687 116.517 60.8828 114.246 55.4003C111.974 49.9177 111.38 43.8847 112.537 38.0642C113.695 32.2437 116.552 26.8972 120.749 22.7009C124.945 18.5046 130.292 15.6469 136.112 14.4894C141.933 13.3318 147.966 13.9264 153.448 16.1978C158.931 18.4693 163.617 22.3156 166.913 27.2503C170.209 32.185 171.968 37.9864 171.968 43.9209C171.958 51.8742 168.794 59.499 163.171 65.1228C157.547 70.7466 149.922 73.9102 141.969 73.9197ZM141.969 16.6129C136.568 16.612 131.287 18.2128 126.796 21.2129C122.305 24.213 118.804 28.4777 116.736 33.4675C114.669 38.4573 114.127 43.9482 115.18 49.2457C116.234 54.5432 118.834 59.4095 122.653 63.229C126.472 67.0485 131.338 69.6498 136.635 70.7039C141.932 71.7579 147.423 71.2174 152.414 69.1507C157.404 67.0839 161.669 63.5838 164.67 59.0929C167.671 54.602 169.272 49.3221 169.272 43.9209C169.264 36.6817 166.385 29.7413 161.266 24.622C156.148 19.5027 149.208 16.6224 141.969 16.6129Z" fill="#4A5964"/>
<path id="Vector_25" d="M148.951 29.784L127.831 50.9043L134.981 58.0545L156.102 36.9342L148.951 29.784Z" fill="#E5BE20"/>
<path id="Vector_26" d="M134.981 29.7844L127.831 36.9346L148.951 58.0548L156.102 50.9046L134.981 29.7844Z" fill="#E5BE20"/>
<path id="Vector_27" d="M145.172 156.324H142.477V153.629H145.172V156.324ZM137.984 156.324H135.289V153.629H137.984V156.324ZM130.797 156.324H128.102V153.629H130.797V156.324ZM123.609 156.324H120.914V153.629H123.609V156.324ZM116.422 156.324H113.727V153.629H116.422V156.324Z" fill="#909FA9"/>
<path id="Vector_28" d="M153.051 156.329H150.355V153.634H153.051V156.329ZM153.051 149.142H150.355V146.446H153.051V149.142ZM153.051 141.954H150.355V139.259H153.051V141.954ZM153.051 134.767H150.355V132.071H153.051V134.767ZM153.051 127.579H150.355V124.884H153.051V127.579ZM153.051 120.392H150.355V117.696H153.051V120.392ZM153.051 113.204H150.355V110.509H153.051V113.204ZM153.051 106.017H150.355V103.321H153.051V106.017ZM153.051 98.8291H150.355V96.1338H153.051V98.8291ZM153.051 91.6416H150.355V88.9463H153.051V91.6416ZM153.051 84.4541H150.355V81.7588H153.051V84.4541Z" fill="#909FA9"/>
</g>
</g>
<defs>
<linearGradient id="paint0_linear_2950_675" x1="77.1912" y1="151.625" x2="77.1912" y2="178.65" gradientUnits="userSpaceOnUse">
<stop stop-color="#CACFDD"/>
<stop offset="1" stop-color="#EEF0F1"/>
</linearGradient>
<linearGradient id="paint1_linear_2950_675" x1="106.063" y1="60.6092" x2="138.788" y2="60.6092" gradientUnits="userSpaceOnUse">
<stop stop-color="#CACFDD"/>
<stop offset="1" stop-color="#EEF0F1"/>
</linearGradient>
</defs>
</svg>
