<svg xmlns="http://www.w3.org/2000/svg" width="96" height="96" viewBox="0 0 96 96" fill="none">
  <path d="M36.2258 1.18375C20.8916 4.95303 7.3564 17.6316 2.04513 33.3084C-0.353514 40.4187 -0.696177 53.7825 1.44547 60.8928C5.12909 73.143 14.895 85.3075 25.4319 90.6188C47.8763 101.927 74.7754 94.9021 88.1392 74.3423C94.7355 64.1481 97.3911 50.6985 95.2495 39.2193C94.0502 32.8801 88.6532 21.4009 84.9696 17.1176C83.1706 15.0616 82.6566 13.8623 83.2563 13.1769C83.8559 12.406 83.6846 12.2346 82.5709 12.4916C81.6286 12.7486 79.6583 11.892 77.6023 10.2643C66.6371 1.52641 50.018 -2.07156 36.2258 1.18375ZM58.8415 2.89706C64.4955 4.35338 73.4047 8.72233 77.0027 11.8063L79.8296 14.2049L73.833 18.2312L67.8364 22.3432L64.5811 20.2015C62.7822 19.0022 58.6702 17.3746 55.4149 16.6036C35.8831 11.7206 17.1223 25.7698 15.7516 46.3296C15.3233 51.7265 14.9807 53.0972 13.867 53.0972C12.6677 53.1828 12.6677 53.2685 13.9527 54.0395C14.8093 54.4678 16.7796 57.6375 18.4073 61.0641C21.8339 68.26 25.8602 72.7146 32.2851 76.3983C36.6541 78.7969 37.0824 79.3109 38.3674 84.1082L39.8237 89.3338L41.023 85.0505L42.2224 80.6816L49.1613 80.3389C57.8135 79.9106 64.1528 77.2549 70.3207 71.4297C82.0569 60.3788 83.7703 41.2753 74.09 28.5968L71.0061 24.5705L75.889 19.7732L80.6863 14.9759L82.9993 17.7172C90.7092 26.7978 94.9068 39.305 94.0502 50.9555C92.5938 71.087 79.487 87.1921 59.6125 92.9318C51.9026 95.2447 38.2817 94.3881 30.9145 91.2184C16.7796 85.2218 6.84241 73.9996 3.07312 59.8648C1.18847 52.9259 1.44547 41.5323 3.58711 34.5934C8.21306 19.4305 20.8916 7.18034 36.3114 2.98273C42.051 1.44074 53.2733 1.35507 58.8415 2.89706ZM59.9552 19.6875C66.8941 22.6858 66.8941 23.1142 60.7262 29.2821C53.6159 36.3067 47.191 45.0446 39.0527 58.6655C38.2817 59.9504 37.6821 59.8648 32.6278 57.4661C29.5438 56.0098 24.8322 54.3822 22.0053 53.7825L17.0366 52.8402L17.3793 46.6723C18.236 32.9657 27.8305 21.3152 40.9374 17.9742C45.8203 16.7749 54.9866 17.6316 59.9552 19.6875ZM75.5463 34.8504C81.1146 46.5866 79.4013 59.0938 70.8347 68.3457C64.4098 75.1989 58.4132 78.1116 49.6753 78.6256L42.9077 79.0539L45.5633 71.4297C50.3606 57.4661 62.3538 34.5934 68.0078 28.5111C69.6354 26.6265 69.8924 26.6265 71.3487 27.9971C72.2054 28.7681 74.09 31.8521 75.5463 34.8504ZM30.6575 69.031C33.1418 72.2863 34.7694 75.1133 34.3411 75.1989C33.0561 75.6273 27.0595 71.0013 23.9756 67.1464C21.5769 64.1481 18.9213 59.2651 18.9213 57.7231C18.9213 56.2668 26.6312 63.7197 30.6575 69.031Z" fill="#B7B7B7"/>
  <path d="M46.7626 4.43951C45.9059 6.83815 44.7066 13.2631 45.0493 13.6057C45.3063 13.7771 46.0772 13.4344 46.8482 12.7491C47.9619 11.8068 48.3902 11.8068 48.6472 12.5778C48.9042 13.1774 49.4182 13.6914 49.9322 13.6914C50.7889 13.6914 50.2749 7.35214 49.1612 4.61084C48.6472 3.15452 47.2766 3.06885 46.7626 4.43951Z" fill="#B7B7B7"/>
  <path d="M36.6543 4.95231C36.3973 5.29497 36.6543 7.60795 37.0826 10.0923C37.8536 13.9472 38.2819 14.5469 39.9953 14.5469C42.2226 14.5469 42.7366 13.2619 40.8519 12.5766C40.2523 12.3196 39.3956 10.3493 39.1386 8.20761C38.5389 4.60965 37.5966 3.32466 36.6543 4.95231Z" fill="#B7B7B7"/>
  <path d="M56.1822 5.29515C53.5265 13.9474 53.6979 14.9754 57.5528 14.3757C59.0948 14.2044 59.6088 13.6047 59.6088 11.8057C59.6945 10.5208 59.9515 9.23577 60.2941 8.89311C61.4078 7.77946 60.8938 5.29515 59.5231 4.78115C57.4672 4.01016 56.6105 4.18149 56.1822 5.29515Z" fill="#B7B7B7"/>
  <path d="M66.1208 8.89428C65.4355 9.66527 65.2641 11.3786 65.6068 13.4346C66.0351 16.0045 65.9495 16.3472 65.1785 15.1479C63.8078 13.0919 62.4372 13.3489 62.7798 15.5762C63.1225 17.9748 65.9495 18.6602 67.4058 16.6899C68.1768 15.6619 68.2624 14.6339 67.6628 13.0062C67.0631 11.5499 67.1488 10.5219 67.7484 9.92227C68.3481 9.32261 68.6051 9.49394 68.6051 10.5219C68.6051 12.0639 69.8901 12.4922 70.7467 11.2073C71.1751 10.3506 68.9478 7.69496 67.8341 7.69496C67.4058 7.69496 66.6348 8.20895 66.1208 8.89428Z" fill="#B7B7B7"/>
  <path d="M24.7404 9.7501C22.8558 11.1208 22.7701 11.9774 24.3977 11.9774C24.9974 11.9774 26.0254 13.0911 26.6251 14.5474C27.2247 15.918 28.2527 17.5457 28.8524 18.0597C31.0797 19.9443 31.1653 18.1453 29.0237 14.3761C27.8244 12.3201 27.0534 10.1784 27.2247 9.57877C27.7387 8.20812 26.6251 8.29378 24.7404 9.7501Z" fill="#B7B7B7"/>
  <path d="M17.3799 15.5754C14.8956 18.0597 16.6946 20.544 21.1492 20.544C22.2629 20.544 23.2052 20.8867 23.2052 21.4007C23.2052 21.829 22.6055 22.2573 21.9202 22.2573C21.2349 22.2573 20.6352 22.6 20.6352 23.114C20.6352 24.4846 23.7192 24.142 24.9185 22.6C26.3748 20.8867 24.8328 19.259 20.6352 18.1454C19.0076 17.6314 18.3222 17.2031 19.1789 17.2031C20.0356 17.1174 20.6352 16.6891 20.4639 16.0894C19.9499 14.6331 18.5792 14.3761 17.3799 15.5754Z" fill="#B7B7B7"/>
  <path d="M10.3555 24.142C10.3555 24.8273 12.1544 27.0546 14.2961 29.1106C18.1511 32.7942 18.2367 32.8799 17.7227 30.5669C17.2944 28.5966 17.4657 28.254 18.5794 28.4253C19.3504 28.5966 20.207 28.254 20.3784 27.8256C20.5497 27.3116 18.665 26.1123 16.1807 25.2557C13.6964 24.3133 11.3835 23.371 11.0408 23.2853C10.6981 23.114 10.3555 23.5423 10.3555 24.142Z" fill="#B7B7B7"/>
  <path d="M83.2551 26.0261C82.0558 27.2254 80.2568 28.2534 79.1432 28.2534C78.0295 28.2534 77.1729 28.5961 77.1729 29.1101C77.1729 29.5384 78.0295 29.9667 78.9718 29.9667C80.4282 29.9667 80.5995 30.2237 79.8285 31.166C78.0295 33.3077 80.0855 33.3077 83.8548 31.0804C87.7097 28.7674 88.7377 26.8827 85.5681 27.9107C83.8548 28.4247 83.7691 28.3391 84.7971 27.1397C86.7674 24.7411 85.3968 23.7988 83.2551 26.0261Z" fill="#B7B7B7"/>
  <path d="M5.5565 33.7375C4.69985 36.0504 5.8135 37.5067 9.41146 38.6204C13.3521 39.8197 15.4937 39.2201 15.4937 36.9928C15.4937 34.6798 13.6091 33.3091 9.58279 32.7951C6.84149 32.4525 5.98483 32.6238 5.5565 33.7375ZM11.1248 35.1938C13.5234 36.0504 14.8084 37.6781 13.0094 37.6781C11.3818 37.6781 6.92716 35.7078 6.92716 35.0224C6.92716 33.9945 7.78381 34.0801 11.1248 35.1938Z" fill="#B7B7B7"/>
  <path d="M88.3927 34.5082C87.793 35.2792 86.0797 35.9645 84.6234 36.1359C82.5674 36.3072 81.7964 36.8212 81.6251 38.3632C81.2824 40.8475 82.8244 41.3615 87.279 39.9908C90.9627 38.8772 92.162 36.9925 88.821 37.5065C87.1077 37.7635 87.1077 37.7635 88.6497 36.5642C89.5063 35.9645 90.106 34.9365 89.9347 34.3369C89.592 33.4802 89.2493 33.5659 88.3927 34.5082Z" fill="#B7B7B7"/>
  <path d="M4.10002 43.4162C2.98637 44.4442 3.50036 47.7852 4.87101 48.2992C7.95498 49.4985 12.8379 48.8132 13.7803 47.1855C15.0652 44.7012 11.3816 41.2746 9.92529 43.6732C9.66829 44.1872 10.011 44.7869 10.6963 45.0439C11.4673 45.3009 12.0669 45.9005 12.0669 46.3288C12.0669 47.1855 8.64031 47.3568 6.58433 46.5858C4.87101 45.9005 4.78535 44.5299 6.49866 44.5299C7.18399 44.5299 7.78365 44.1015 7.78365 43.6732C7.78365 42.7309 4.95668 42.4739 4.10002 43.4162Z" fill="#B7B7B7"/>
  <path d="M86.8516 45.6436C84.7956 46.072 83.168 46.9286 83.168 47.5283C83.168 48.6419 86.8516 49.6699 90.5352 49.6699C92.8482 49.6699 93.3622 47.9566 91.1349 47.9566C89.6786 47.8709 89.6786 47.8709 91.1349 46.7573C94.1332 44.4443 92.9339 44.1016 86.8516 45.6436Z" fill="#B7B7B7"/>
  <path d="M82.3104 55.0686C82.3104 55.8396 82.9958 56.8675 83.8524 57.2959C85.1374 58.0669 85.1374 58.1525 83.4241 58.2382C80.2545 58.2382 81.1111 60.6368 84.7091 61.5792C86.4224 62.0932 88.3927 62.5215 88.9924 62.5215C90.7913 62.5215 90.106 60.9795 88.1357 60.5512C86.4224 60.2085 86.5081 60.2085 88.564 60.0372C91.134 59.9515 91.7337 58.5809 89.4207 57.9812C88.307 57.7242 88.3927 57.5529 89.849 57.4672C92.676 57.2959 91.391 55.9252 87.793 55.3256C86.1654 54.9829 84.1951 54.4689 83.5098 54.2119C82.8244 53.9549 82.3104 54.2976 82.3104 55.0686Z" fill="#B7B7B7"/>
  <path d="M9.92744 58.3224C8.55678 58.7507 6.84347 58.922 6.32948 58.665C5.64415 58.4081 5.21582 59.0934 5.21582 60.3784C5.21582 62.777 6.7578 64.062 7.44313 62.263C7.70013 61.5777 9.58477 60.5497 11.7264 60.0357C13.7824 59.5217 15.4957 58.665 15.4957 58.2367C15.4957 57.2087 13.4397 57.2087 9.92744 58.3224Z" fill="#B7B7B7"/>
  <path d="M13.9552 64.4046C13.5269 65.0043 12.8416 66.3749 12.5846 67.4029C11.8992 69.4589 10.4429 70.1442 10.6999 68.2596C10.6999 67.7456 10.4429 67.1459 9.92892 66.9746C9.50059 66.8889 9.07227 67.6599 9.07227 68.6879C9.07227 70.2299 9.58626 70.6582 11.2139 70.6582C12.8416 70.6582 13.6982 69.9729 14.5549 67.8312C15.2402 66.3749 16.1825 65.0899 16.6109 65.0899C17.0392 65.0899 16.9535 65.6039 16.4395 66.2893C15.6685 67.2316 15.6685 67.6599 16.3539 68.0882C17.8958 69.0306 19.1808 67.2316 18.4955 65.1756C17.8958 63.2053 15.3259 62.777 13.9552 64.4046Z" fill="#B7B7B7"/>
  <path d="M78.6275 64.7473C78.2848 65.09 78.5418 65.9466 79.0558 66.5463C79.8268 67.5743 79.8268 67.7456 78.7988 67.4886C76.1432 66.8889 77.4282 69.0306 81.0261 71.0866C84.8811 73.2282 87.2797 72.9712 84.3671 70.6582C82.8251 69.3732 82.8251 69.2876 84.6241 69.5446C85.6521 69.7159 86.5944 69.3732 86.7657 68.9449C86.9371 68.4309 85.9091 68.0026 84.5384 67.8313C83.1678 67.6599 81.4545 66.7176 80.6835 65.7753C79.9125 64.9186 78.9702 64.4046 78.6275 64.7473Z" fill="#B7B7B7"/>
  <path d="M20.8055 71.0871C20.9768 72.6291 20.5485 73.2287 18.9208 73.7427C17.7215 74.0854 17.1218 74.3424 17.5502 74.428C17.9785 74.5137 17.8072 75.1134 17.2075 75.7987C16.3508 76.9124 15.9225 76.9124 15.4085 76.0557C15.0659 75.456 14.4662 75.2847 14.1235 75.6274C13.7809 75.97 14.0379 76.9124 14.8089 77.5977C16.4365 79.2253 18.1498 78.54 21.7478 74.7707L24.0608 72.2007L22.3474 70.6588C20.6341 69.1168 20.6341 69.1168 20.8055 71.0871Z" fill="#B7B7B7"/>
  <path d="M72.2047 72.9707C70.6628 74.5127 70.9198 75.712 73.6611 78.282C76.6594 81.1089 79.315 81.0233 79.315 78.025C79.315 76.8257 78.801 75.7977 78.1157 75.5407C77.259 75.2837 77.0877 75.6263 77.4304 76.997C78.03 79.3956 77.0877 79.31 74.6034 76.6543C72.4617 74.427 72.8044 72.628 75.0317 74.5127C76.0597 75.3693 76.3167 75.3693 76.3167 74.2557C76.3167 73.5704 75.717 72.7137 74.946 72.4567C73.2327 71.7714 73.4041 71.7714 72.2047 72.9707Z" fill="#B7B7B7"/>
  <path d="M23.7206 79.3101C20.3796 83.2507 20.037 85.478 23.2923 82.5654C25.1769 80.9378 25.1769 80.9378 24.1489 82.9081C22.6926 85.6494 23.6349 86.3347 25.8623 84.2787C27.7469 82.6511 27.7469 82.6511 26.7189 84.6214C25.6053 86.763 26.1193 88.2193 27.4899 86.8487C27.9182 86.4204 29.0319 84.2787 29.9742 81.9657C31.8589 77.6825 31.0879 76.7401 28.0896 79.3958C26.3763 80.9378 26.3763 80.9378 27.7469 78.7104C29.0319 76.7401 28.9462 75.2838 27.5756 75.3695C27.3186 75.4551 25.6053 77.1685 23.7206 79.3101Z" fill="#B7B7B7"/>
  <path d="M65.7791 78.1122C64.4084 79.1402 64.4941 79.4828 66.5501 82.9095C68.6917 86.5074 71.0047 87.4498 71.8613 84.9655C72.0327 84.3658 71.69 84.1088 70.8334 84.4515C69.5484 84.9655 69.0344 84.0231 69.377 81.5388C69.4627 80.9392 69.0344 80.5965 68.4347 80.6822C67.7494 80.8535 67.4067 80.2538 67.4924 78.9688C67.7494 76.7415 67.6637 76.7415 65.7791 78.1122Z" fill="#B7B7B7"/>
  <path d="M59.6134 81.5372C59.2707 82.3082 59.2707 83.4218 59.6134 83.9358C60.5557 85.3921 59.0137 84.8781 57.8144 83.3361C56.0154 80.8518 55.6727 82.5651 57.129 86.7628C57.9 88.9901 59.0137 90.7891 59.699 90.7891C60.5557 90.7891 60.6413 90.2751 60.0417 88.6474C59.6134 87.4481 59.5277 86.5058 59.956 86.5058C60.3843 86.5058 60.8983 87.2768 61.1553 88.2191C61.6693 90.1037 63.4683 90.6177 63.3826 88.8187C63.3826 88.3048 62.6973 86.0774 61.755 83.9358C60.5557 81.0232 60.0417 80.4235 59.6134 81.5372Z" fill="#B7B7B7"/>
  <path d="M47.3612 84.5376C47.0185 85.3942 46.8472 87.4502 47.1042 89.0779C47.5325 91.5622 47.9609 92.0762 49.7598 92.0762C51.3018 92.0762 51.9872 91.5622 52.1585 90.1059C52.3298 89.0779 52.0728 88.2212 51.5588 88.2212C51.0448 88.2212 50.6165 88.8209 50.6165 89.5062C50.6165 90.1915 50.2738 90.7912 49.7598 90.7912C49.3315 90.7912 48.9032 89.1635 48.9032 87.1076C48.9889 83.7666 49.0745 83.5953 50.1882 85.1372C51.5588 87.0219 52.8438 86.5079 52.0728 84.3663C51.3875 82.6529 48.3035 82.7386 47.3612 84.5376Z" fill="#B7B7B7"/>
</svg>