<svg xmlns="http://www.w3.org/2000/svg" width="230" height="147" viewBox="0 0 230 147" fill="none">
  <g clip-path="url(#clip0_2938_1404)">
    <path d="M127.55 42.67L174.257 123.578C175.486 125.71 176.133 128.127 176.132 130.587C176.132 133.047 175.484 135.464 174.253 137.594C173.023 139.725 171.254 141.494 169.123 142.724C166.992 143.954 164.575 144.602 162.115 144.603H68.693C66.2328 144.602 63.8159 143.954 61.6852 142.724C59.5546 141.494 57.7852 139.725 56.5548 137.594C55.3244 135.464 54.6764 133.047 54.6758 130.587C54.6752 128.127 55.3221 125.71 56.5514 123.578L103.267 42.67C104.497 40.5385 106.267 38.7684 108.398 37.5377C110.53 36.3071 112.947 35.6592 115.408 35.6592C117.87 35.6592 120.287 36.3071 122.419 37.5377C124.55 38.7684 126.32 40.5385 127.55 42.67Z" fill="#28242E"/>
    <path d="M162.116 147.26H68.6939C65.7616 147.265 62.88 146.496 60.3399 145.031C57.7998 143.566 55.6912 141.456 54.2269 138.916C52.7626 136.375 51.9945 133.494 52 130.561C52.0056 127.629 52.7847 124.75 54.2586 122.215L100.939 41.3421C102.402 38.8059 104.507 36.6997 107.043 35.2354C109.578 33.771 112.455 33 115.383 33C118.311 33 121.187 33.771 123.723 35.2354C126.258 36.6997 128.364 38.8059 129.827 41.3421L176.56 122.215C178.032 124.751 178.808 127.63 178.812 130.562C178.816 133.494 178.047 136.376 176.582 138.915C175.117 141.455 173.008 143.564 170.469 145.029C167.929 146.494 165.048 147.264 162.116 147.26ZM105.57 43.9989L58.8549 124.872C57.8588 126.599 57.3347 128.558 57.3352 130.552C57.3357 132.545 57.8608 134.504 58.8578 136.231C59.8548 137.957 61.2886 139.391 63.0151 140.388C64.7416 141.385 66.7001 141.91 68.6939 141.911H162.116C164.111 141.913 166.071 141.389 167.799 140.393C169.527 139.397 170.962 137.962 171.96 136.235C172.957 134.507 173.482 132.548 173.481 130.553C173.48 128.558 172.954 126.599 171.955 124.872L125.248 43.9635C124.248 42.2385 122.811 40.8072 121.082 39.8133C119.353 38.8195 117.393 38.2982 115.399 38.3018C113.405 38.3054 111.447 38.8337 109.722 39.8338C107.996 40.8338 106.565 42.2703 105.57 43.9989Z" fill="#E67373"/>
    <path d="M106.236 64.5462V89.9718L109.097 105.851H115.393V105.868L121.699 105.859L124.577 89.9629L124.586 64.5107L106.236 64.5462Z" fill="#E67373"/>
    <path d="M122.29 117.196H108.51V130.976H122.29V117.196Z" fill="#E67373"/>
  </g>
  <defs>
    <clipPath id="clip0_2938_1404">
      <rect width="230" height="146" fill="white" transform="translate(0 0.882812)"/>
    </clipPath>
  </defs>
</svg>